%TF.GenerationSoftware,KiCad,Pcbnew,8.0.1*%
%TF.CreationDate,2024-04-11T15:05:29-07:00*%
%TF.ProjectId,Erebus,45726562-7573-42e6-9b69-6361645f7063,rev?*%
%TF.SameCoordinates,Original*%
%TF.FileFunction,Copper,L2,Bot*%
%TF.FilePolarity,Positive*%
%FSLAX46Y46*%
G04 Gerber Fmt 4.6, Leading zero omitted, Abs format (unit mm)*
G04 Created by KiCad (PCBNEW 8.0.1) date 2024-04-11 15:05:29*
%MOMM*%
%LPD*%
G01*
G04 APERTURE LIST*
G04 Aperture macros list*
%AMRoundRect*
0 Rectangle with rounded corners*
0 $1 Rounding radius*
0 $2 $3 $4 $5 $6 $7 $8 $9 X,Y pos of 4 corners*
0 Add a 4 corners polygon primitive as box body*
4,1,4,$2,$3,$4,$5,$6,$7,$8,$9,$2,$3,0*
0 Add four circle primitives for the rounded corners*
1,1,$1+$1,$2,$3*
1,1,$1+$1,$4,$5*
1,1,$1+$1,$6,$7*
1,1,$1+$1,$8,$9*
0 Add four rect primitives between the rounded corners*
20,1,$1+$1,$2,$3,$4,$5,0*
20,1,$1+$1,$4,$5,$6,$7,0*
20,1,$1+$1,$6,$7,$8,$9,0*
20,1,$1+$1,$8,$9,$2,$3,0*%
G04 Aperture macros list end*
%TA.AperFunction,ComponentPad*%
%ADD10C,4.000000*%
%TD*%
%TA.AperFunction,ComponentPad*%
%ADD11R,1.700000X1.700000*%
%TD*%
%TA.AperFunction,ComponentPad*%
%ADD12O,1.700000X1.700000*%
%TD*%
%TA.AperFunction,ComponentPad*%
%ADD13C,2.000000*%
%TD*%
%TA.AperFunction,ComponentPad*%
%ADD14RoundRect,0.500000X0.500000X-0.500000X0.500000X0.500000X-0.500000X0.500000X-0.500000X-0.500000X0*%
%TD*%
%TA.AperFunction,ComponentPad*%
%ADD15RoundRect,0.550000X0.550000X-1.150000X0.550000X1.150000X-0.550000X1.150000X-0.550000X-1.150000X0*%
%TD*%
%TA.AperFunction,SMDPad,CuDef*%
%ADD16RoundRect,0.140000X0.195393X-0.101596X0.137177X0.172286X-0.195393X0.101596X-0.137177X-0.172286X0*%
%TD*%
%TA.AperFunction,SMDPad,CuDef*%
%ADD17RoundRect,0.135000X-0.209025X0.093586X-0.152889X-0.170514X0.209025X-0.093586X0.152889X0.170514X0*%
%TD*%
%TA.AperFunction,SMDPad,CuDef*%
%ADD18RoundRect,0.140000X-0.170000X0.140000X-0.170000X-0.140000X0.170000X-0.140000X0.170000X0.140000X0*%
%TD*%
%TA.AperFunction,SMDPad,CuDef*%
%ADD19RoundRect,0.140000X0.170000X-0.140000X0.170000X0.140000X-0.170000X0.140000X-0.170000X-0.140000X0*%
%TD*%
%TA.AperFunction,SMDPad,CuDef*%
%ADD20RoundRect,0.140000X-0.195393X0.101596X-0.137177X-0.172286X0.195393X-0.101596X0.137177X0.172286X0*%
%TD*%
%TA.AperFunction,SMDPad,CuDef*%
%ADD21RoundRect,0.140000X-0.137177X0.172286X-0.195393X-0.101596X0.137177X-0.172286X0.195393X0.101596X0*%
%TD*%
%TA.AperFunction,SMDPad,CuDef*%
%ADD22RoundRect,0.135000X-0.185000X0.135000X-0.185000X-0.135000X0.185000X-0.135000X0.185000X0.135000X0*%
%TD*%
%TA.AperFunction,SMDPad,CuDef*%
%ADD23RoundRect,0.150000X-0.024574X0.605848X-0.268870X-0.543475X0.024574X-0.605848X0.268870X0.543475X0*%
%TD*%
%TA.AperFunction,SMDPad,CuDef*%
%ADD24RoundRect,0.150000X-0.268870X0.543475X-0.024574X-0.605848X0.268870X-0.543475X0.024574X0.605848X0*%
%TD*%
%TA.AperFunction,SMDPad,CuDef*%
%ADD25RoundRect,0.150000X-0.150000X0.587500X-0.150000X-0.587500X0.150000X-0.587500X0.150000X0.587500X0*%
%TD*%
%TA.AperFunction,SMDPad,CuDef*%
%ADD26RoundRect,0.140000X0.137177X-0.172286X0.195393X0.101596X-0.137177X0.172286X-0.195393X-0.101596X0*%
%TD*%
%TA.AperFunction,SMDPad,CuDef*%
%ADD27RoundRect,0.135000X-0.152889X0.170514X-0.209025X-0.093586X0.152889X-0.170514X0.209025X0.093586X0*%
%TD*%
%TA.AperFunction,SMDPad,CuDef*%
%ADD28RoundRect,0.100000X0.637500X0.100000X-0.637500X0.100000X-0.637500X-0.100000X0.637500X-0.100000X0*%
%TD*%
%TA.AperFunction,ViaPad*%
%ADD29C,0.700000*%
%TD*%
%TA.AperFunction,Conductor*%
%ADD30C,0.250000*%
%TD*%
%TA.AperFunction,Conductor*%
%ADD31C,0.500000*%
%TD*%
%TA.AperFunction,Conductor*%
%ADD32C,0.400000*%
%TD*%
G04 APERTURE END LIST*
D10*
%TO.P,S75,*%
%TO.N,*%
X252092558Y-202324856D03*
X228800418Y-197373958D03*
%TD*%
%TO.P,S28,*%
%TO.N,*%
X443958308Y-114526562D03*
X420145808Y-114526562D03*
%TD*%
D11*
%TO.P,JP2,1,A*%
%TO.N,+3V3*%
X287199600Y-161340800D03*
D12*
%TO.P,JP2,2,B*%
%TO.N,/BOOT0*%
X287199600Y-163880800D03*
%TD*%
D11*
%TO.P,SWD1,1,Pin_1*%
%TO.N,GND*%
X186144900Y-249824600D03*
D12*
%TO.P,SWD1,2,Pin_2*%
%TO.N,/SWO*%
X188684900Y-249824600D03*
%TO.P,SWD1,3,Pin_3*%
%TO.N,GND*%
X186144900Y-252364600D03*
%TO.P,SWD1,4,Pin_4*%
%TO.N,/SWCLK*%
X188684900Y-252364600D03*
%TO.P,SWD1,5,Pin_5*%
%TO.N,+3V3*%
X186144900Y-254904600D03*
%TO.P,SWD1,6,Pin_6*%
%TO.N,/SWDIO*%
X188684900Y-254904600D03*
%TD*%
D11*
%TO.P,JP1,1,A*%
%TO.N,GND*%
X282549600Y-161340800D03*
D12*
%TO.P,JP1,2,B*%
%TO.N,/~{RESET}*%
X282549600Y-163880800D03*
%TD*%
D10*
%TO.P,S57,*%
%TO.N,*%
X451102058Y-152626562D03*
X427289558Y-152626562D03*
%TD*%
%TO.P,S77,*%
%TO.N,*%
X344539658Y-200001864D03*
X321247518Y-204952762D03*
%TD*%
D13*
%TO.P,ENCODER1,A,A*%
%TO.N,/ENCODER_A*%
X432409558Y-90801600D03*
%TO.P,ENCODER1,B,B*%
%TO.N,/ENCODER_B*%
X437409558Y-90801600D03*
D14*
%TO.P,ENCODER1,C,C*%
%TO.N,GND*%
X434909558Y-90801600D03*
D15*
%TO.P,ENCODER1,MP*%
%TO.N,N/C*%
X429309558Y-83301600D03*
X440509558Y-83301600D03*
D13*
%TO.P,ENCODER1,S1,S1*%
%TO.N,GND*%
X437409558Y-76301600D03*
%TO.P,ENCODER1,S2,S2*%
%TO.N,/ENCODER_SW*%
X432409558Y-76301600D03*
%TD*%
D10*
%TO.P,S59,*%
%TO.N,*%
X166304558Y-171676562D03*
X142492058Y-171676562D03*
%TD*%
D16*
%TO.P,C109,1*%
%TO.N,GND*%
X328243401Y-157406639D03*
%TO.P,C109,2*%
%TO.N,+3V3*%
X328043805Y-156467617D03*
%TD*%
D17*
%TO.P,R77,1*%
%TO.N,/multiplexers/keys/KEYS_5_5*%
X372858976Y-184849635D03*
%TO.P,R77,2*%
%TO.N,Net-(SW78-VOUT)*%
X373071046Y-185847345D03*
%TD*%
D18*
%TO.P,C124,1*%
%TO.N,/multiplexers/keys/KEYS_4_0*%
X157715508Y-162745362D03*
%TO.P,C124,2*%
%TO.N,GND*%
X157715508Y-163705362D03*
%TD*%
D19*
%TO.P,C31,1*%
%TO.N,GND*%
X406870458Y-82808962D03*
%TO.P,C31,2*%
%TO.N,+3V3*%
X406870458Y-81848962D03*
%TD*%
D16*
%TO.P,C139,1*%
%TO.N,GND*%
X355496259Y-171089453D03*
%TO.P,C139,2*%
%TO.N,+3V3*%
X355296663Y-170150431D03*
%TD*%
D20*
%TO.P,C138,1*%
%TO.N,/multiplexers/keys/KEYS_4_8*%
X341966750Y-171942437D03*
%TO.P,C138,2*%
%TO.N,GND*%
X342166346Y-172881459D03*
%TD*%
D19*
%TO.P,C4,1*%
%TO.N,+3V3*%
X319227200Y-145234600D03*
%TO.P,C4,2*%
%TO.N,GND*%
X319227200Y-144274600D03*
%TD*%
D16*
%TO.P,C77,1*%
%TO.N,GND*%
X300990544Y-143723824D03*
%TO.P,C77,2*%
%TO.N,+3V3*%
X300790948Y-142784802D03*
%TD*%
D18*
%TO.P,C62,1*%
%TO.N,/multiplexers/keys/KEYS_1_13*%
X435369258Y-105595362D03*
%TO.P,C62,2*%
%TO.N,GND*%
X435369258Y-106555362D03*
%TD*%
D21*
%TO.P,C20,1*%
%TO.N,/multiplexers/keys/KEYS_0_6*%
X275658724Y-95956432D03*
%TO.P,C20,2*%
%TO.N,GND*%
X275459128Y-96895454D03*
%TD*%
D22*
%TO.P,R59,1*%
%TO.N,/multiplexers/keys/KEYS_4_0*%
X156674108Y-162743362D03*
%TO.P,R59,2*%
%TO.N,Net-(SW59-VOUT)*%
X156674108Y-163763362D03*
%TD*%
D23*
%TO.P,SW62,1,VDD*%
%TO.N,+3V3*%
X226487276Y-169327649D03*
%TO.P,SW62,2,GND*%
%TO.N,GND*%
X227026682Y-171359193D03*
%TO.P,SW62,3,VOUT*%
%TO.N,Net-(SW62-VOUT)*%
X228345756Y-169722683D03*
%TD*%
D18*
%TO.P,C38,1*%
%TO.N,/multiplexers/keys/KEYS_1_1*%
X179146758Y-105595362D03*
%TO.P,C38,2*%
%TO.N,GND*%
X179146758Y-106555362D03*
%TD*%
D24*
%TO.P,SW65,1,VDD*%
%TO.N,+3V3*%
X300739254Y-181757293D03*
%TO.P,SW65,2,GND*%
%TO.N,GND*%
X302058328Y-183393803D03*
%TO.P,SW65,3,VOUT*%
%TO.N,Net-(SW65-VOUT)*%
X302597734Y-181362259D03*
%TD*%
D20*
%TO.P,C136,1*%
%TO.N,/multiplexers/keys/KEYS_4_7*%
X323333038Y-175903155D03*
%TO.P,C136,2*%
%TO.N,GND*%
X323532634Y-176842177D03*
%TD*%
D25*
%TO.P,SW45,1,VDD*%
%TO.N,+3V3*%
X148685808Y-144724062D03*
%TO.P,SW45,2,GND*%
%TO.N,GND*%
X149635808Y-146599062D03*
%TO.P,SW45,3,VOUT*%
%TO.N,Net-(SW45-VOUT)*%
X150585808Y-144724062D03*
%TD*%
D26*
%TO.P,C133,1*%
%TO.N,GND*%
X262215577Y-177893057D03*
%TO.P,C133,2*%
%TO.N,+3V3*%
X262415173Y-176954035D03*
%TD*%
D27*
%TO.P,R63,1*%
%TO.N,/multiplexers/keys/KEYS_4_4*%
X248490590Y-172950873D03*
%TO.P,R63,2*%
%TO.N,Net-(SW63-VOUT)*%
X248278520Y-173948583D03*
%TD*%
D20*
%TO.P,C24,1*%
%TO.N,/multiplexers/keys/KEYS_0_8*%
X329792128Y-91758982D03*
%TO.P,C24,2*%
%TO.N,GND*%
X329991724Y-92698004D03*
%TD*%
D18*
%TO.P,C150,1*%
%TO.N,/multiplexers/keys/KEYS_5_0*%
X150571758Y-181795362D03*
%TO.P,C150,2*%
%TO.N,GND*%
X150571758Y-182755362D03*
%TD*%
D22*
%TO.P,R69,1*%
%TO.N,/multiplexers/keys/KEYS_4_11*%
X400990358Y-162743362D03*
%TO.P,R69,2*%
%TO.N,Net-(SW70-VOUT)*%
X400990358Y-163763362D03*
%TD*%
D25*
%TO.P,SW55,1,VDD*%
%TO.N,+3V3*%
X388239558Y-144724062D03*
%TO.P,SW55,2,GND*%
%TO.N,GND*%
X389189558Y-146599062D03*
%TO.P,SW55,3,VOUT*%
%TO.N,Net-(SW55-VOUT)*%
X390139558Y-144724062D03*
%TD*%
D21*
%TO.P,C44,1*%
%TO.N,/multiplexers/keys/KEYS_1_4*%
X238098831Y-112317316D03*
%TO.P,C44,2*%
%TO.N,GND*%
X237899235Y-113256338D03*
%TD*%
D26*
%TO.P,C151,1*%
%TO.N,GND*%
X207012152Y-185634795D03*
%TO.P,C151,2*%
%TO.N,+3V3*%
X207211748Y-184695773D03*
%TD*%
D25*
%TO.P,SW56,1,VDD*%
%TO.N,+3V3*%
X407289558Y-144724062D03*
%TO.P,SW56,2,GND*%
%TO.N,GND*%
X408239558Y-146599062D03*
%TO.P,SW56,3,VOUT*%
%TO.N,Net-(SW56-VOUT)*%
X409189558Y-144724062D03*
%TD*%
D27*
%TO.P,R35,1*%
%TO.N,/multiplexers/keys/KEYS_2_5*%
X261070453Y-136673629D03*
%TO.P,R35,2*%
%TO.N,Net-(SW35-VOUT)*%
X260858383Y-137671339D03*
%TD*%
%TO.P,R4,1*%
%TO.N,/multiplexers/keys/KEYS_0_3*%
X214080933Y-82865624D03*
%TO.P,R4,2*%
%TO.N,Net-(SW4-VOUT)*%
X213868863Y-83863334D03*
%TD*%
D24*
%TO.P,SW52,1,VDD*%
%TO.N,+3V3*%
X329387532Y-156192326D03*
%TO.P,SW52,2,GND*%
%TO.N,GND*%
X330706606Y-157828836D03*
%TO.P,SW52,3,VOUT*%
%TO.N,Net-(SW52-VOUT)*%
X331246012Y-155797292D03*
%TD*%
D17*
%TO.P,R54,1*%
%TO.N,/multiplexers/keys/KEYS_3_9*%
X369595969Y-146592032D03*
%TO.P,R54,2*%
%TO.N,Net-(SW54-VOUT)*%
X369808039Y-147589742D03*
%TD*%
D23*
%TO.P,SW74,1,VDD*%
%TO.N,+3V3*%
X208551275Y-184990822D03*
%TO.P,SW74,2,GND*%
%TO.N,GND*%
X209090681Y-187022366D03*
%TO.P,SW74,3,VOUT*%
%TO.N,Net-(SW74-VOUT)*%
X210409755Y-185385856D03*
%TD*%
D19*
%TO.P,C163,1*%
%TO.N,GND*%
X453542958Y-188536462D03*
%TO.P,C163,2*%
%TO.N,+3V3*%
X453542958Y-187576462D03*
%TD*%
D24*
%TO.P,SW39,1,VDD*%
%TO.N,+3V3*%
X358035810Y-130627358D03*
%TO.P,SW39,2,GND*%
%TO.N,GND*%
X359354884Y-132263868D03*
%TO.P,SW39,3,VOUT*%
%TO.N,Net-(SW39-VOUT)*%
X359894290Y-130232324D03*
%TD*%
D22*
%TO.P,R27,1*%
%TO.N,/multiplexers/keys/KEYS_1_12*%
X405752858Y-105593362D03*
%TO.P,R27,2*%
%TO.N,Net-(SW27-VOUT)*%
X405752858Y-106613362D03*
%TD*%
D19*
%TO.P,C91,1*%
%TO.N,GND*%
X439255458Y-126623962D03*
%TO.P,C91,2*%
%TO.N,+3V3*%
X439255458Y-125663962D03*
%TD*%
D25*
%TO.P,SW26,1,VDD*%
%TO.N,+3V3*%
X383477058Y-103766562D03*
%TO.P,SW26,2,GND*%
%TO.N,GND*%
X384427058Y-105641562D03*
%TO.P,SW26,3,VOUT*%
%TO.N,Net-(SW26-VOUT)*%
X385377058Y-103766562D03*
%TD*%
D20*
%TO.P,C82,1*%
%TO.N,/multiplexers/keys/KEYS_2_8*%
X343362171Y-132694655D03*
%TO.P,C82,2*%
%TO.N,GND*%
X343561767Y-133633677D03*
%TD*%
D22*
%TO.P,R78,1*%
%TO.N,/multiplexers/keys/KEYS_5_6*%
X439090358Y-186555862D03*
%TO.P,R78,2*%
%TO.N,Net-(SW79-VOUT)*%
X439090358Y-187575862D03*
%TD*%
D25*
%TO.P,SW58,1,VDD*%
%TO.N,+3V3*%
X473964558Y-139961562D03*
%TO.P,SW58,2,GND*%
%TO.N,GND*%
X474914558Y-141836562D03*
%TO.P,SW58,3,VOUT*%
%TO.N,Net-(SW58-VOUT)*%
X475864558Y-139961562D03*
%TD*%
D19*
%TO.P,C125,1*%
%TO.N,GND*%
X183032958Y-164723962D03*
%TO.P,C125,2*%
%TO.N,+3V3*%
X183032958Y-163763962D03*
%TD*%
%TO.P,C123,1*%
%TO.N,GND*%
X152076708Y-164723962D03*
%TO.P,C123,2*%
%TO.N,+3V3*%
X152076708Y-163763962D03*
%TD*%
%TO.P,C11,1*%
%TO.N,GND*%
X187795458Y-82808962D03*
%TO.P,C11,2*%
%TO.N,+3V3*%
X187795458Y-81848962D03*
%TD*%
D27*
%TO.P,R34,1*%
%TO.N,/multiplexers/keys/KEYS_2_4*%
X242436742Y-132712911D03*
%TO.P,R34,2*%
%TO.N,Net-(SW34-VOUT)*%
X242224672Y-133710621D03*
%TD*%
D19*
%TO.P,C59,1*%
%TO.N,GND*%
X401155458Y-107573962D03*
%TO.P,C59,2*%
%TO.N,+3V3*%
X401155458Y-106613962D03*
%TD*%
D21*
%TO.P,C14,1*%
%TO.N,/multiplexers/keys/KEYS_0_3*%
X215099161Y-83084099D03*
%TO.P,C14,2*%
%TO.N,GND*%
X214899565Y-84023121D03*
%TD*%
D18*
%TO.P,C34,1*%
%TO.N,/multiplexers/keys/KEYS_1_0*%
X160096758Y-105595362D03*
%TO.P,C34,2*%
%TO.N,GND*%
X160096758Y-106555362D03*
%TD*%
D16*
%TO.P,C141,1*%
%TO.N,GND*%
X374129971Y-167128736D03*
%TO.P,C141,2*%
%TO.N,+3V3*%
X373930375Y-166189714D03*
%TD*%
D21*
%TO.P,C152,1*%
%TO.N,/multiplexers/keys/KEYS_5_1*%
X212939105Y-184871804D03*
%TO.P,C152,2*%
%TO.N,GND*%
X212739509Y-185810826D03*
%TD*%
D24*
%TO.P,SW9,1,VDD*%
%TO.N,+3V3*%
X325832056Y-93652403D03*
%TO.P,SW9,2,GND*%
%TO.N,GND*%
X327151130Y-95288913D03*
%TO.P,SW9,3,VOUT*%
%TO.N,Net-(SW9-VOUT)*%
X327690536Y-93257369D03*
%TD*%
D27*
%TO.P,R5,1*%
%TO.N,/multiplexers/keys/KEYS_0_4*%
X232714645Y-86826342D03*
%TO.P,R5,2*%
%TO.N,Net-(SW5-VOUT)*%
X232502575Y-87824052D03*
%TD*%
D25*
%TO.P,SW80,1,VDD*%
%TO.N,+3V3*%
X454914558Y-187586562D03*
%TO.P,SW80,2,GND*%
%TO.N,GND*%
X455864558Y-189461562D03*
%TO.P,SW80,3,VOUT*%
%TO.N,Net-(SW80-VOUT)*%
X456814558Y-187586562D03*
%TD*%
D27*
%TO.P,R62,1*%
%TO.N,/multiplexers/keys/KEYS_4_3*%
X229856878Y-168990156D03*
%TO.P,R62,2*%
%TO.N,Net-(SW62-VOUT)*%
X229644808Y-169987866D03*
%TD*%
D18*
%TO.P,C40,1*%
%TO.N,/multiplexers/keys/KEYS_1_2*%
X198196758Y-102737862D03*
%TO.P,C40,2*%
%TO.N,GND*%
X198196758Y-103697862D03*
%TD*%
D17*
%TO.P,R76,1*%
%TO.N,/multiplexers/keys/KEYS_5_4*%
X333262339Y-193266160D03*
%TO.P,R76,2*%
%TO.N,Net-(SW77-VOUT)*%
X333474409Y-194263870D03*
%TD*%
D27*
%TO.P,R33,1*%
%TO.N,/multiplexers/keys/KEYS_2_3*%
X223803030Y-128752194D03*
%TO.P,R33,2*%
%TO.N,Net-(SW33-VOUT)*%
X223590960Y-129749904D03*
%TD*%
D23*
%TO.P,SW76,1,VDD*%
%TO.N,+3V3*%
X269110838Y-197863155D03*
%TO.P,SW76,2,GND*%
%TO.N,GND*%
X269650244Y-199894699D03*
%TO.P,SW76,3,VOUT*%
%TO.N,Net-(SW76-VOUT)*%
X270969318Y-198258189D03*
%TD*%
D16*
%TO.P,C113,1*%
%TO.N,GND*%
X365510825Y-149485203D03*
%TO.P,C113,2*%
%TO.N,+3V3*%
X365311229Y-148546181D03*
%TD*%
D17*
%TO.P,R8,1*%
%TO.N,/multiplexers/keys/KEYS_0_7*%
X310139357Y-95934263D03*
%TO.P,R8,2*%
%TO.N,Net-(SW8-VOUT)*%
X310351427Y-96931973D03*
%TD*%
D23*
%TO.P,SW63,1,VDD*%
%TO.N,+3V3*%
X245120988Y-173288366D03*
%TO.P,SW63,2,GND*%
%TO.N,GND*%
X245660394Y-175319910D03*
%TO.P,SW63,3,VOUT*%
%TO.N,Net-(SW63-VOUT)*%
X246979468Y-173683400D03*
%TD*%
D16*
%TO.P,C85,1*%
%TO.N,GND*%
X375525391Y-127880953D03*
%TO.P,C85,2*%
%TO.N,+3V3*%
X375325795Y-126941931D03*
%TD*%
D27*
%TO.P,R20,1*%
%TO.N,/multiplexers/keys/KEYS_1_5*%
X255714315Y-116059558D03*
%TO.P,R20,2*%
%TO.N,Net-(SW20-VOUT)*%
X255502245Y-117057268D03*
%TD*%
D17*
%TO.P,R65,1*%
%TO.N,/multiplexers/keys/KEYS_4_7*%
X322313979Y-176117718D03*
%TO.P,R65,2*%
%TO.N,Net-(SW66-VOUT)*%
X322526049Y-177115428D03*
%TD*%
D27*
%TO.P,R64,1*%
%TO.N,/multiplexers/keys/KEYS_4_5*%
X267124302Y-176911591D03*
%TO.P,R64,2*%
%TO.N,Net-(SW64-VOUT)*%
X266912232Y-177909301D03*
%TD*%
D17*
%TO.P,R39,1*%
%TO.N,/multiplexers/keys/KEYS_2_9*%
X360976823Y-128948500D03*
%TO.P,R39,2*%
%TO.N,Net-(SW39-VOUT)*%
X361188893Y-129946210D03*
%TD*%
D23*
%TO.P,SW75,1,VDD*%
%TO.N,+3V3*%
X241160270Y-191922078D03*
%TO.P,SW75,2,GND*%
%TO.N,GND*%
X241699676Y-193953622D03*
%TO.P,SW75,3,VOUT*%
%TO.N,Net-(SW75-VOUT)*%
X243018750Y-192317112D03*
%TD*%
D26*
%TO.P,C69,1*%
%TO.N,GND*%
X200260593Y-125772942D03*
%TO.P,C69,2*%
%TO.N,+3V3*%
X200460189Y-124833920D03*
%TD*%
D28*
%TO.P,U5,1,COM*%
%TO.N,/ADC1_IN6*%
X326458500Y-145218200D03*
%TO.P,U5,2,I7*%
%TO.N,/multiplexers/keys/KEYS_3_6*%
X326458500Y-145868200D03*
%TO.P,U5,3,I6*%
%TO.N,/multiplexers/keys/KEYS_2_8*%
X326458500Y-146518200D03*
%TO.P,U5,4,I5*%
%TO.N,/multiplexers/keys/KEYS_2_7*%
X326458500Y-147168200D03*
%TO.P,U5,5,I4*%
%TO.N,/multiplexers/keys/KEYS_2_6*%
X326458500Y-147818200D03*
%TO.P,U5,6,I3*%
%TO.N,/multiplexers/keys/KEYS_1_8*%
X326458500Y-148468200D03*
%TO.P,U5,7,I2*%
%TO.N,/multiplexers/keys/KEYS_1_7*%
X326458500Y-149118200D03*
%TO.P,U5,8,I1*%
%TO.N,/multiplexers/keys/KEYS_0_8*%
X326458500Y-149768200D03*
%TO.P,U5,9,I0*%
%TO.N,/multiplexers/keys/KEYS_0_7*%
X326458500Y-150418200D03*
%TO.P,U5,10,S0*%
%TO.N,/S0*%
X326458500Y-151068200D03*
%TO.P,U5,11,S1*%
%TO.N,/S1*%
X326458500Y-151718200D03*
%TO.P,U5,12,GND*%
%TO.N,GND*%
X326458500Y-152368200D03*
%TO.P,U5,13,S3*%
%TO.N,/S3*%
X320733500Y-152368200D03*
%TO.P,U5,14,S2*%
%TO.N,/S2*%
X320733500Y-151718200D03*
%TO.P,U5,15,~{E}*%
%TO.N,GND*%
X320733500Y-151068200D03*
%TO.P,U5,16,I15*%
%TO.N,unconnected-(U5-I15-Pad16)*%
X320733500Y-150418200D03*
%TO.P,U5,17,I14*%
%TO.N,unconnected-(U5-I14-Pad17)*%
X320733500Y-149768200D03*
%TO.P,U5,18,I13*%
%TO.N,/multiplexers/keys/KEYS_5_4*%
X320733500Y-149118200D03*
%TO.P,U5,19,I12*%
%TO.N,/multiplexers/keys/KEYS_4_8*%
X320733500Y-148468200D03*
%TO.P,U5,20,I11*%
%TO.N,/multiplexers/keys/KEYS_4_7*%
X320733500Y-147818200D03*
%TO.P,U5,21,I10*%
%TO.N,/multiplexers/keys/KEYS_4_6*%
X320733500Y-147168200D03*
%TO.P,U5,22,I9*%
%TO.N,/multiplexers/keys/KEYS_3_8*%
X320733500Y-146518200D03*
%TO.P,U5,23,I8*%
%TO.N,/multiplexers/keys/KEYS_3_7*%
X320733500Y-145868200D03*
%TO.P,U5,24,VCC*%
%TO.N,+3V3*%
X320733500Y-145218200D03*
%TD*%
D27*
%TO.P,R19,1*%
%TO.N,/multiplexers/keys/KEYS_1_4*%
X237080603Y-112098841D03*
%TO.P,R19,2*%
%TO.N,Net-(SW19-VOUT)*%
X236868533Y-113096551D03*
%TD*%
D19*
%TO.P,C37,1*%
%TO.N,GND*%
X173507958Y-107573962D03*
%TO.P,C37,2*%
%TO.N,+3V3*%
X173507958Y-106613962D03*
%TD*%
D25*
%TO.P,SW79,1,VDD*%
%TO.N,+3V3*%
X435864558Y-187586562D03*
%TO.P,SW79,2,GND*%
%TO.N,GND*%
X436814558Y-189461562D03*
%TO.P,SW79,3,VOUT*%
%TO.N,Net-(SW79-VOUT)*%
X437764558Y-187586562D03*
%TD*%
D22*
%TO.P,R42,1*%
%TO.N,/multiplexers/keys/KEYS_2_12*%
X420040358Y-124643362D03*
%TO.P,R42,2*%
%TO.N,Net-(SW42-VOUT)*%
X420040358Y-125663362D03*
%TD*%
D18*
%TO.P,C30,1*%
%TO.N,/multiplexers/keys/KEYS_0_11*%
X393459258Y-80830362D03*
%TO.P,C30,2*%
%TO.N,GND*%
X393459258Y-81790362D03*
%TD*%
D20*
%TO.P,C54,1*%
%TO.N,/multiplexers/keys/KEYS_1_9*%
X348718309Y-112080584D03*
%TO.P,C54,2*%
%TO.N,GND*%
X348917905Y-113019606D03*
%TD*%
D24*
%TO.P,SW51,1,VDD*%
%TO.N,+3V3*%
X310753821Y-160153043D03*
%TO.P,SW51,2,GND*%
%TO.N,GND*%
X312072895Y-161789553D03*
%TO.P,SW51,3,VOUT*%
%TO.N,Net-(SW51-VOUT)*%
X312612301Y-159758009D03*
%TD*%
D27*
%TO.P,R61,1*%
%TO.N,/multiplexers/keys/KEYS_4_2*%
X211223166Y-165029438D03*
%TO.P,R61,2*%
%TO.N,Net-(SW61-VOUT)*%
X211011096Y-166027148D03*
%TD*%
D23*
%TO.P,SW7,1,VDD*%
%TO.N,+3V3*%
X271270894Y-96075450D03*
%TO.P,SW7,2,GND*%
%TO.N,GND*%
X271810300Y-98106994D03*
%TO.P,SW7,3,VOUT*%
%TO.N,Net-(SW7-VOUT)*%
X273129374Y-96470484D03*
%TD*%
D27*
%TO.P,R75,1*%
%TO.N,/multiplexers/keys/KEYS_5_3*%
X272480440Y-197525662D03*
%TO.P,R75,2*%
%TO.N,Net-(SW76-VOUT)*%
X272268370Y-198523372D03*
%TD*%
D23*
%TO.P,SW64,1,VDD*%
%TO.N,+3V3*%
X263754700Y-177249084D03*
%TO.P,SW64,2,GND*%
%TO.N,GND*%
X264294106Y-179280628D03*
%TO.P,SW64,3,VOUT*%
%TO.N,Net-(SW64-VOUT)*%
X265613180Y-177644118D03*
%TD*%
D20*
%TO.P,C114,1*%
%TO.N,/multiplexers/keys/KEYS_3_9*%
X370615028Y-146377469D03*
%TO.P,C114,2*%
%TO.N,GND*%
X370814624Y-147316491D03*
%TD*%
D22*
%TO.P,R70,1*%
%TO.N,/multiplexers/keys/KEYS_4_12*%
X427184108Y-162743362D03*
%TO.P,R70,2*%
%TO.N,Net-(SW71-VOUT)*%
X427184108Y-163763362D03*
%TD*%
D28*
%TO.P,U2,1,COM*%
%TO.N,/ADC1_IN4*%
X231233900Y-137268000D03*
%TO.P,U2,2,I7*%
%TO.N,/multiplexers/keys/KEYS_3_3*%
X231233900Y-137918000D03*
%TO.P,U2,3,I6*%
%TO.N,/multiplexers/keys/KEYS_3_2*%
X231233900Y-138568000D03*
%TO.P,U2,4,I5*%
%TO.N,/multiplexers/keys/KEYS_2_3*%
X231233900Y-139218000D03*
%TO.P,U2,5,I4*%
%TO.N,/multiplexers/keys/KEYS_2_2*%
X231233900Y-139868000D03*
%TO.P,U2,6,I3*%
%TO.N,/multiplexers/keys/KEYS_1_4*%
X231233900Y-140518000D03*
%TO.P,U2,7,I2*%
%TO.N,/multiplexers/keys/KEYS_1_3*%
X231233900Y-141168000D03*
%TO.P,U2,8,I1*%
%TO.N,/multiplexers/keys/KEYS_0_4*%
X231233900Y-141818000D03*
%TO.P,U2,9,I0*%
%TO.N,/multiplexers/keys/KEYS_0_3*%
X231233900Y-142468000D03*
%TO.P,U2,10,S0*%
%TO.N,/S0*%
X231233900Y-143118000D03*
%TO.P,U2,11,S1*%
%TO.N,/S1*%
X231233900Y-143768000D03*
%TO.P,U2,12,GND*%
%TO.N,GND*%
X231233900Y-144418000D03*
%TO.P,U2,13,S3*%
%TO.N,/S3*%
X225508900Y-144418000D03*
%TO.P,U2,14,S2*%
%TO.N,/S2*%
X225508900Y-143768000D03*
%TO.P,U2,15,~{E}*%
%TO.N,GND*%
X225508900Y-143118000D03*
%TO.P,U2,16,I15*%
%TO.N,unconnected-(U2-I15-Pad16)*%
X225508900Y-142468000D03*
%TO.P,U2,17,I14*%
%TO.N,unconnected-(U2-I14-Pad17)*%
X225508900Y-141818000D03*
%TO.P,U2,18,I13*%
%TO.N,unconnected-(U2-I13-Pad18)*%
X225508900Y-141168000D03*
%TO.P,U2,19,I12*%
%TO.N,unconnected-(U2-I12-Pad19)*%
X225508900Y-140518000D03*
%TO.P,U2,20,I11*%
%TO.N,/multiplexers/keys/KEYS_5_2*%
X225508900Y-139868000D03*
%TO.P,U2,21,I10*%
%TO.N,/multiplexers/keys/KEYS_5_1*%
X225508900Y-139218000D03*
%TO.P,U2,22,I9*%
%TO.N,/multiplexers/keys/KEYS_4_3*%
X225508900Y-138568000D03*
%TO.P,U2,23,I8*%
%TO.N,/multiplexers/keys/KEYS_4_2*%
X225508900Y-137918000D03*
%TO.P,U2,24,VCC*%
%TO.N,+3V3*%
X225508900Y-137268000D03*
%TD*%
D22*
%TO.P,R45,1*%
%TO.N,/multiplexers/keys/KEYS_3_0*%
X151911608Y-143693362D03*
%TO.P,R45,2*%
%TO.N,Net-(SW45-VOUT)*%
X151911608Y-144713362D03*
%TD*%
D20*
%TO.P,C168,1*%
%TO.N,/multiplexers/keys/KEYS_4_6*%
X304699326Y-179863872D03*
%TO.P,C168,2*%
%TO.N,GND*%
X304898922Y-180802894D03*
%TD*%
D21*
%TO.P,C156,1*%
%TO.N,/multiplexers/keys/KEYS_5_3*%
X273498668Y-197744137D03*
%TO.P,C156,2*%
%TO.N,GND*%
X273299072Y-198683159D03*
%TD*%
D28*
%TO.P,U7,1,COM*%
%TO.N,/ADC1_IN8*%
X432775200Y-123795000D03*
%TO.P,U7,2,I7*%
%TO.N,/multiplexers/keys/KEYS_3_11*%
X432775200Y-124445000D03*
%TO.P,U7,3,I6*%
%TO.N,/multiplexers/keys/KEYS_2_14*%
X432775200Y-125095000D03*
%TO.P,U7,4,I5*%
%TO.N,/multiplexers/keys/KEYS_2_13*%
X432775200Y-125745000D03*
%TO.P,U7,5,I4*%
%TO.N,/multiplexers/keys/KEYS_2_12*%
X432775200Y-126395000D03*
%TO.P,U7,6,I3*%
%TO.N,/multiplexers/keys/KEYS_1_14*%
X432775200Y-127045000D03*
%TO.P,U7,7,I2*%
%TO.N,/multiplexers/keys/KEYS_1_13*%
X432775200Y-127695000D03*
%TO.P,U7,8,I1*%
%TO.N,/multiplexers/keys/KEYS_0_13*%
X432775200Y-128345000D03*
%TO.P,U7,9,I0*%
%TO.N,/multiplexers/keys/KEYS_0_12*%
X432775200Y-128995000D03*
%TO.P,U7,10,S0*%
%TO.N,/S0*%
X432775200Y-129645000D03*
%TO.P,U7,11,S1*%
%TO.N,/S1*%
X432775200Y-130295000D03*
%TO.P,U7,12,GND*%
%TO.N,GND*%
X432775200Y-130945000D03*
%TO.P,U7,13,S3*%
%TO.N,/S3*%
X427050200Y-130945000D03*
%TO.P,U7,14,S2*%
%TO.N,/S2*%
X427050200Y-130295000D03*
%TO.P,U7,15,~{E}*%
%TO.N,GND*%
X427050200Y-129645000D03*
%TO.P,U7,16,I15*%
%TO.N,unconnected-(U7-I15-Pad16)*%
X427050200Y-128995000D03*
%TO.P,U7,17,I14*%
%TO.N,/multiplexers/keys/KEYS_5_8*%
X427050200Y-128345000D03*
%TO.P,U7,18,I13*%
%TO.N,/multiplexers/keys/KEYS_5_7*%
X427050200Y-127695000D03*
%TO.P,U7,19,I12*%
%TO.N,/multiplexers/keys/KEYS_5_6*%
X427050200Y-127045000D03*
%TO.P,U7,20,I11*%
%TO.N,/multiplexers/keys/KEYS_4_13*%
X427050200Y-126395000D03*
%TO.P,U7,21,I10*%
%TO.N,/multiplexers/keys/KEYS_4_12*%
X427050200Y-125745000D03*
%TO.P,U7,22,I9*%
%TO.N,/multiplexers/keys/KEYS_3_13*%
X427050200Y-125095000D03*
%TO.P,U7,23,I8*%
%TO.N,/multiplexers/keys/KEYS_3_12*%
X427050200Y-124445000D03*
%TO.P,U7,24,VCC*%
%TO.N,+3V3*%
X427050200Y-123795000D03*
%TD*%
D17*
%TO.P,R25,1*%
%TO.N,/multiplexers/keys/KEYS_1_10*%
X366332962Y-108334429D03*
%TO.P,R25,2*%
%TO.N,Net-(SW25-VOUT)*%
X366545032Y-109332139D03*
%TD*%
%TO.P,R10,1*%
%TO.N,/multiplexers/keys/KEYS_0_9*%
X352065208Y-87022648D03*
%TO.P,R10,2*%
%TO.N,Net-(SW10-VOUT)*%
X352277278Y-88020358D03*
%TD*%
D16*
%TO.P,C135,1*%
%TO.N,GND*%
X318228835Y-179010889D03*
%TO.P,C135,2*%
%TO.N,+3V3*%
X318029239Y-178071867D03*
%TD*%
D18*
%TO.P,C58,1*%
%TO.N,/multiplexers/keys/KEYS_1_11*%
X387744258Y-102737862D03*
%TO.P,C58,2*%
%TO.N,GND*%
X387744258Y-103697862D03*
%TD*%
D23*
%TO.P,SW19,1,VDD*%
%TO.N,+3V3*%
X233711001Y-112436334D03*
%TO.P,SW19,2,GND*%
%TO.N,GND*%
X234250407Y-114467878D03*
%TO.P,SW19,3,VOUT*%
%TO.N,Net-(SW19-VOUT)*%
X235569481Y-112831368D03*
%TD*%
D22*
%TO.P,R17,1*%
%TO.N,/multiplexers/keys/KEYS_1_2*%
X197155358Y-102735862D03*
%TO.P,R17,2*%
%TO.N,Net-(SW17-VOUT)*%
X197155358Y-103755862D03*
%TD*%
D27*
%TO.P,R74,1*%
%TO.N,/multiplexers/keys/KEYS_5_2*%
X244529872Y-191584585D03*
%TO.P,R74,2*%
%TO.N,Net-(SW75-VOUT)*%
X244317802Y-192582295D03*
%TD*%
D20*
%TO.P,C110,1*%
%TO.N,/multiplexers/keys/KEYS_3_7*%
X333347604Y-154298905D03*
%TO.P,C110,2*%
%TO.N,GND*%
X333547200Y-155237927D03*
%TD*%
D25*
%TO.P,SW46,1,VDD*%
%TO.N,+3V3*%
X179642058Y-144724062D03*
%TO.P,SW46,2,GND*%
%TO.N,GND*%
X180592058Y-146599062D03*
%TO.P,SW46,3,VOUT*%
%TO.N,Net-(SW46-VOUT)*%
X181542058Y-144724062D03*
%TD*%
D21*
%TO.P,C16,1*%
%TO.N,/multiplexers/keys/KEYS_0_4*%
X233732873Y-87044817D03*
%TO.P,C16,2*%
%TO.N,GND*%
X233533277Y-87983839D03*
%TD*%
D25*
%TO.P,SW3,1,VDD*%
%TO.N,+3V3*%
X189167058Y-81859062D03*
%TO.P,SW3,2,GND*%
%TO.N,GND*%
X190117058Y-83734062D03*
%TO.P,SW3,3,VOUT*%
%TO.N,Net-(SW3-VOUT)*%
X191067058Y-81859062D03*
%TD*%
D24*
%TO.P,SW23,1,VDD*%
%TO.N,+3V3*%
X326124525Y-117934723D03*
%TO.P,SW23,2,GND*%
%TO.N,GND*%
X327443599Y-119571233D03*
%TO.P,SW23,3,VOUT*%
%TO.N,Net-(SW23-VOUT)*%
X327983005Y-117539689D03*
%TD*%
D22*
%TO.P,R2,1*%
%TO.N,/multiplexers/keys/KEYS_0_1*%
X173342858Y-80828362D03*
%TO.P,R2,2*%
%TO.N,Net-(SW2-VOUT)*%
X173342858Y-81848362D03*
%TD*%
D23*
%TO.P,SW6,1,VDD*%
%TO.N,+3V3*%
X252637182Y-92114732D03*
%TO.P,SW6,2,GND*%
%TO.N,GND*%
X253176588Y-94146276D03*
%TO.P,SW6,3,VOUT*%
%TO.N,Net-(SW6-VOUT)*%
X254495662Y-92509766D03*
%TD*%
D28*
%TO.P,U3,1,COM*%
%TO.N,/ADC1_IN3*%
X171551600Y-123113800D03*
%TO.P,U3,2,I7*%
%TO.N,/multiplexers/keys/KEYS_2_1*%
X171551600Y-123763800D03*
%TO.P,U3,3,I6*%
%TO.N,/multiplexers/keys/KEYS_2_0*%
X171551600Y-124413800D03*
%TO.P,U3,4,I5*%
%TO.N,/multiplexers/keys/KEYS_1_2*%
X171551600Y-125063800D03*
%TO.P,U3,5,I4*%
%TO.N,/multiplexers/keys/KEYS_1_1*%
X171551600Y-125713800D03*
%TO.P,U3,6,I3*%
%TO.N,/multiplexers/keys/KEYS_1_0*%
X171551600Y-126363800D03*
%TO.P,U3,7,I2*%
%TO.N,/multiplexers/keys/KEYS_0_2*%
X171551600Y-127013800D03*
%TO.P,U3,8,I1*%
%TO.N,/multiplexers/keys/KEYS_0_1*%
X171551600Y-127663800D03*
%TO.P,U3,9,I0*%
%TO.N,/multiplexers/keys/KEYS_0_0*%
X171551600Y-128313800D03*
%TO.P,U3,10,S0*%
%TO.N,/S0*%
X171551600Y-128963800D03*
%TO.P,U3,11,S1*%
%TO.N,/S1*%
X171551600Y-129613800D03*
%TO.P,U3,12,GND*%
%TO.N,GND*%
X171551600Y-130263800D03*
%TO.P,U3,13,S3*%
%TO.N,/S3*%
X165826600Y-130263800D03*
%TO.P,U3,14,S2*%
%TO.N,/S2*%
X165826600Y-129613800D03*
%TO.P,U3,15,~{E}*%
%TO.N,GND*%
X165826600Y-128963800D03*
%TO.P,U3,16,I15*%
%TO.N,unconnected-(U3-I15-Pad16)*%
X165826600Y-128313800D03*
%TO.P,U3,17,I14*%
%TO.N,unconnected-(U3-I14-Pad17)*%
X165826600Y-127663800D03*
%TO.P,U3,18,I13*%
%TO.N,unconnected-(U3-I13-Pad18)*%
X165826600Y-127013800D03*
%TO.P,U3,19,I12*%
%TO.N,/multiplexers/keys/KEYS_5_0*%
X165826600Y-126363800D03*
%TO.P,U3,20,I11*%
%TO.N,/multiplexers/keys/KEYS_4_1*%
X165826600Y-125713800D03*
%TO.P,U3,21,I10*%
%TO.N,/multiplexers/keys/KEYS_4_0*%
X165826600Y-125063800D03*
%TO.P,U3,22,I9*%
%TO.N,/multiplexers/keys/KEYS_3_1*%
X165826600Y-124413800D03*
%TO.P,U3,23,I8*%
%TO.N,/multiplexers/keys/KEYS_3_0*%
X165826600Y-123763800D03*
%TO.P,U3,24,VCC*%
%TO.N,+3V3*%
X165826600Y-123113800D03*
%TD*%
D25*
%TO.P,SW73,1,VDD*%
%TO.N,+3V3*%
X146304558Y-182824062D03*
%TO.P,SW73,2,GND*%
%TO.N,GND*%
X147254558Y-184699062D03*
%TO.P,SW73,3,VOUT*%
%TO.N,Net-(SW73-VOUT)*%
X148204558Y-182824062D03*
%TD*%
D22*
%TO.P,R1,1*%
%TO.N,/multiplexers/keys/KEYS_0_0*%
X148577858Y-81780862D03*
%TO.P,R1,2*%
%TO.N,Net-(SW1-VOUT)*%
X148577858Y-82800862D03*
%TD*%
D19*
%TO.P,C9,1*%
%TO.N,GND*%
X168745458Y-82808962D03*
%TO.P,C9,2*%
%TO.N,+3V3*%
X168745458Y-81848962D03*
%TD*%
D24*
%TO.P,SW11,1,VDD*%
%TO.N,+3V3*%
X367757907Y-84740789D03*
%TO.P,SW11,2,GND*%
%TO.N,GND*%
X369076981Y-86377299D03*
%TO.P,SW11,3,VOUT*%
%TO.N,Net-(SW11-VOUT)*%
X369616387Y-84345755D03*
%TD*%
D26*
%TO.P,C41,1*%
%TO.N,GND*%
X213538167Y-109119589D03*
%TO.P,C41,2*%
%TO.N,+3V3*%
X213737763Y-108180567D03*
%TD*%
D21*
%TO.P,C42,1*%
%TO.N,/multiplexers/keys/KEYS_1_3*%
X219465120Y-108356598D03*
%TO.P,C42,2*%
%TO.N,GND*%
X219265524Y-109295620D03*
%TD*%
D23*
%TO.P,SW47,1,VDD*%
%TO.N,+3V3*%
X202497426Y-144752860D03*
%TO.P,SW47,2,GND*%
%TO.N,GND*%
X203036832Y-146784404D03*
%TO.P,SW47,3,VOUT*%
%TO.N,Net-(SW47-VOUT)*%
X204355906Y-145147894D03*
%TD*%
D17*
%TO.P,R52,1*%
%TO.N,/multiplexers/keys/KEYS_3_7*%
X332328545Y-154513468D03*
%TO.P,R52,2*%
%TO.N,Net-(SW52-VOUT)*%
X332540615Y-155511178D03*
%TD*%
D21*
%TO.P,C132,1*%
%TO.N,/multiplexers/keys/KEYS_4_4*%
X249508818Y-173169348D03*
%TO.P,C132,2*%
%TO.N,GND*%
X249309222Y-174108370D03*
%TD*%
D23*
%TO.P,SW35,1,VDD*%
%TO.N,+3V3*%
X257700851Y-137011122D03*
%TO.P,SW35,2,GND*%
%TO.N,GND*%
X258240257Y-139042666D03*
%TO.P,SW35,3,VOUT*%
%TO.N,Net-(SW35-VOUT)*%
X259559331Y-137406156D03*
%TD*%
D26*
%TO.P,C105,1*%
%TO.N,GND*%
X256859439Y-157278986D03*
%TO.P,C105,2*%
%TO.N,+3V3*%
X257059035Y-156339964D03*
%TD*%
D23*
%TO.P,SW5,1,VDD*%
%TO.N,+3V3*%
X229345043Y-87163835D03*
%TO.P,SW5,2,GND*%
%TO.N,GND*%
X229884449Y-89195379D03*
%TO.P,SW5,3,VOUT*%
%TO.N,Net-(SW5-VOUT)*%
X231203523Y-87558869D03*
%TD*%
D26*
%TO.P,C47,1*%
%TO.N,GND*%
X269439302Y-121001742D03*
%TO.P,C47,2*%
%TO.N,+3V3*%
X269638898Y-120062720D03*
%TD*%
D19*
%TO.P,C39,1*%
%TO.N,GND*%
X192557958Y-104716462D03*
%TO.P,C39,2*%
%TO.N,+3V3*%
X192557958Y-103756462D03*
%TD*%
D21*
%TO.P,C70,1*%
%TO.N,/multiplexers/keys/KEYS_2_2*%
X206187546Y-125009951D03*
%TO.P,C70,2*%
%TO.N,GND*%
X205987950Y-125948973D03*
%TD*%
D18*
%TO.P,C122,1*%
%TO.N,/multiplexers/keys/KEYS_3_13*%
X478231758Y-138932862D03*
%TO.P,C122,2*%
%TO.N,GND*%
X478231758Y-139892862D03*
%TD*%
D19*
%TO.P,C165,1*%
%TO.N,GND*%
X472592958Y-188536462D03*
%TO.P,C165,2*%
%TO.N,+3V3*%
X472592958Y-187576462D03*
%TD*%
%TO.P,C95,1*%
%TO.N,GND*%
X147314208Y-145673962D03*
%TO.P,C95,2*%
%TO.N,+3V3*%
X147314208Y-144713962D03*
%TD*%
D26*
%TO.P,C43,1*%
%TO.N,GND*%
X232171878Y-113080307D03*
%TO.P,C43,2*%
%TO.N,+3V3*%
X232371474Y-112141285D03*
%TD*%
D25*
%TO.P,SW72,1,VDD*%
%TO.N,+3V3*%
X454914558Y-168536562D03*
%TO.P,SW72,2,GND*%
%TO.N,GND*%
X455864558Y-170411562D03*
%TO.P,SW72,3,VOUT*%
%TO.N,Net-(SW72-VOUT)*%
X456814558Y-168536562D03*
%TD*%
D21*
%TO.P,C154,1*%
%TO.N,/multiplexers/keys/KEYS_5_2*%
X245548100Y-191803060D03*
%TO.P,C154,2*%
%TO.N,GND*%
X245348504Y-192742082D03*
%TD*%
D17*
%TO.P,R51,1*%
%TO.N,/multiplexers/keys/KEYS_3_6*%
X313694834Y-158474185D03*
%TO.P,R51,2*%
%TO.N,Net-(SW51-VOUT)*%
X313906904Y-159471895D03*
%TD*%
%TO.P,R9,1*%
%TO.N,/multiplexers/keys/KEYS_0_8*%
X328773069Y-91973545D03*
%TO.P,R9,2*%
%TO.N,Net-(SW9-VOUT)*%
X328985139Y-92971255D03*
%TD*%
D16*
%TO.P,C25,1*%
%TO.N,GND*%
X347980064Y-89915819D03*
%TO.P,C25,2*%
%TO.N,+3V3*%
X347780468Y-88976797D03*
%TD*%
D25*
%TO.P,SW17,1,VDD*%
%TO.N,+3V3*%
X193929558Y-103766562D03*
%TO.P,SW17,2,GND*%
%TO.N,GND*%
X194879558Y-105641562D03*
%TO.P,SW17,3,VOUT*%
%TO.N,Net-(SW17-VOUT)*%
X195829558Y-103766562D03*
%TD*%
D21*
%TO.P,C72,1*%
%TO.N,/multiplexers/keys/KEYS_2_3*%
X224821258Y-128970669D03*
%TO.P,C72,2*%
%TO.N,GND*%
X224621662Y-129909691D03*
%TD*%
D26*
%TO.P,C45,1*%
%TO.N,GND*%
X250805590Y-117041024D03*
%TO.P,C45,2*%
%TO.N,+3V3*%
X251005186Y-116102002D03*
%TD*%
D19*
%TO.P,C29,1*%
%TO.N,GND*%
X387820458Y-82808962D03*
%TO.P,C29,2*%
%TO.N,+3V3*%
X387820458Y-81848962D03*
%TD*%
D22*
%TO.P,R12,1*%
%TO.N,/multiplexers/keys/KEYS_0_11*%
X392417858Y-80828362D03*
%TO.P,R12,2*%
%TO.N,Net-(SW12-VOUT)*%
X392417858Y-81848362D03*
%TD*%
D18*
%TO.P,C116,1*%
%TO.N,/multiplexers/keys/KEYS_3_10*%
X392506758Y-143695362D03*
%TO.P,C116,2*%
%TO.N,GND*%
X392506758Y-144655362D03*
%TD*%
D22*
%TO.P,R41,1*%
%TO.N,/multiplexers/keys/KEYS_2_11*%
X400990358Y-124643362D03*
%TO.P,R41,2*%
%TO.N,Net-(SW41-VOUT)*%
X400990358Y-125663362D03*
%TD*%
D19*
%TO.P,C61,1*%
%TO.N,GND*%
X429730458Y-107573962D03*
%TO.P,C61,2*%
%TO.N,+3V3*%
X429730458Y-106613962D03*
%TD*%
D17*
%TO.P,R24,1*%
%TO.N,/multiplexers/keys/KEYS_1_9*%
X347699250Y-112295147D03*
%TO.P,R24,2*%
%TO.N,Net-(SW24-VOUT)*%
X347911320Y-113292857D03*
%TD*%
D25*
%TO.P,SW29,1,VDD*%
%TO.N,+3V3*%
X464439558Y-101861562D03*
%TO.P,SW29,2,GND*%
%TO.N,GND*%
X465389558Y-103736562D03*
%TO.P,SW29,3,VOUT*%
%TO.N,Net-(SW29-VOUT)*%
X466339558Y-101861562D03*
%TD*%
D19*
%TO.P,C119,1*%
%TO.N,GND*%
X436874208Y-145673962D03*
%TO.P,C119,2*%
%TO.N,+3V3*%
X436874208Y-144713962D03*
%TD*%
D22*
%TO.P,R80,1*%
%TO.N,/multiplexers/keys/KEYS_5_8*%
X477190358Y-186555862D03*
%TO.P,R80,2*%
%TO.N,Net-(SW81-VOUT)*%
X477190358Y-187575862D03*
%TD*%
D24*
%TO.P,SW68,1,VDD*%
%TO.N,+3V3*%
X356640390Y-169875140D03*
%TO.P,SW68,2,GND*%
%TO.N,GND*%
X357959464Y-171511650D03*
%TO.P,SW68,3,VOUT*%
%TO.N,Net-(SW68-VOUT)*%
X358498870Y-169480106D03*
%TD*%
D27*
%TO.P,R73,1*%
%TO.N,/multiplexers/keys/KEYS_5_1*%
X211920877Y-184653329D03*
%TO.P,R73,2*%
%TO.N,Net-(SW74-VOUT)*%
X211708807Y-185651039D03*
%TD*%
D24*
%TO.P,SW22,1,VDD*%
%TO.N,+3V3*%
X307490813Y-121895440D03*
%TO.P,SW22,2,GND*%
%TO.N,GND*%
X308809887Y-123531950D03*
%TO.P,SW22,3,VOUT*%
%TO.N,Net-(SW22-VOUT)*%
X309349293Y-121500406D03*
%TD*%
D20*
%TO.P,C142,1*%
%TO.N,/multiplexers/keys/KEYS_4_10*%
X379234174Y-164021002D03*
%TO.P,C142,2*%
%TO.N,GND*%
X379433770Y-164960024D03*
%TD*%
D25*
%TO.P,SW13,1,VDD*%
%TO.N,+3V3*%
X408242058Y-81859062D03*
%TO.P,SW13,2,GND*%
%TO.N,GND*%
X409192058Y-83734062D03*
%TO.P,SW13,3,VOUT*%
%TO.N,Net-(SW13-VOUT)*%
X410142058Y-81859062D03*
%TD*%
D22*
%TO.P,R60,1*%
%TO.N,/multiplexers/keys/KEYS_4_1*%
X187630358Y-162743362D03*
%TO.P,R60,2*%
%TO.N,Net-(SW60-VOUT)*%
X187630358Y-163763362D03*
%TD*%
D17*
%TO.P,R22,1*%
%TO.N,/multiplexers/keys/KEYS_1_7*%
X310431826Y-120216582D03*
%TO.P,R22,2*%
%TO.N,Net-(SW22-VOUT)*%
X310643896Y-121214292D03*
%TD*%
D22*
%TO.P,R58,1*%
%TO.N,/multiplexers/keys/KEYS_3_13*%
X477190358Y-138930862D03*
%TO.P,R58,2*%
%TO.N,Net-(SW58-VOUT)*%
X477190358Y-139950862D03*
%TD*%
D19*
%TO.P,C87,1*%
%TO.N,GND*%
X396392958Y-126623962D03*
%TO.P,C87,2*%
%TO.N,+3V3*%
X396392958Y-125663962D03*
%TD*%
D25*
%TO.P,SW28,1,VDD*%
%TO.N,+3V3*%
X431102058Y-106624062D03*
%TO.P,SW28,2,GND*%
%TO.N,GND*%
X432052058Y-108499062D03*
%TO.P,SW28,3,VOUT*%
%TO.N,Net-(SW28-VOUT)*%
X433002058Y-106624062D03*
%TD*%
%TO.P,SW2,1,VDD*%
%TO.N,+3V3*%
X170117058Y-81859062D03*
%TO.P,SW2,2,GND*%
%TO.N,GND*%
X171067058Y-83734062D03*
%TO.P,SW2,3,VOUT*%
%TO.N,Net-(SW2-VOUT)*%
X172017058Y-81859062D03*
%TD*%
D20*
%TO.P,C158,1*%
%TO.N,/multiplexers/keys/KEYS_5_4*%
X334281398Y-193051597D03*
%TO.P,C158,2*%
%TO.N,GND*%
X334480994Y-193990619D03*
%TD*%
D22*
%TO.P,R29,1*%
%TO.N,/multiplexers/keys/KEYS_1_14*%
X467665358Y-100830862D03*
%TO.P,R29,2*%
%TO.N,Net-(SW29-VOUT)*%
X467665358Y-101850862D03*
%TD*%
%TO.P,R79,1*%
%TO.N,/multiplexers/keys/KEYS_5_7*%
X458140358Y-186555862D03*
%TO.P,R79,2*%
%TO.N,Net-(SW80-VOUT)*%
X458140358Y-187575862D03*
%TD*%
D18*
%TO.P,C36,1*%
%TO.N,/multiplexers/keys/KEYS_0_13*%
X463944258Y-81782862D03*
%TO.P,C36,2*%
%TO.N,GND*%
X463944258Y-82742862D03*
%TD*%
D25*
%TO.P,SW57,1,VDD*%
%TO.N,+3V3*%
X438245808Y-144724062D03*
%TO.P,SW57,2,GND*%
%TO.N,GND*%
X439195808Y-146599062D03*
%TO.P,SW57,3,VOUT*%
%TO.N,Net-(SW57-VOUT)*%
X440145808Y-144724062D03*
%TD*%
D26*
%TO.P,C99,1*%
%TO.N,GND*%
X200958303Y-145396833D03*
%TO.P,C99,2*%
%TO.N,+3V3*%
X201157899Y-144457811D03*
%TD*%
D27*
%TO.P,R32,1*%
%TO.N,/multiplexers/keys/KEYS_2_2*%
X205169318Y-124791476D03*
%TO.P,R32,2*%
%TO.N,Net-(SW32-VOUT)*%
X204957248Y-125789186D03*
%TD*%
D17*
%TO.P,R53,1*%
%TO.N,/multiplexers/keys/KEYS_3_8*%
X350962257Y-150552750D03*
%TO.P,R53,2*%
%TO.N,Net-(SW53-VOUT)*%
X351174327Y-151550460D03*
%TD*%
D18*
%TO.P,C98,1*%
%TO.N,/multiplexers/keys/KEYS_3_1*%
X183909258Y-143695362D03*
%TO.P,C98,2*%
%TO.N,GND*%
X183909258Y-144655362D03*
%TD*%
D25*
%TO.P,SW1,1,VDD*%
%TO.N,+3V3*%
X145352058Y-82811562D03*
%TO.P,SW1,2,GND*%
%TO.N,GND*%
X146302058Y-84686562D03*
%TO.P,SW1,3,VOUT*%
%TO.N,Net-(SW1-VOUT)*%
X147252058Y-82811562D03*
%TD*%
D21*
%TO.P,C104,1*%
%TO.N,/multiplexers/keys/KEYS_3_4*%
X244152680Y-152555278D03*
%TO.P,C104,2*%
%TO.N,GND*%
X243953084Y-153494300D03*
%TD*%
D24*
%TO.P,SW36,1,VDD*%
%TO.N,+3V3*%
X302134675Y-142509511D03*
%TO.P,SW36,2,GND*%
%TO.N,GND*%
X303453749Y-144146021D03*
%TO.P,SW36,3,VOUT*%
%TO.N,Net-(SW36-VOUT)*%
X303993155Y-142114477D03*
%TD*%
D17*
%TO.P,R23,1*%
%TO.N,/multiplexers/keys/KEYS_1_8*%
X329065538Y-116255865D03*
%TO.P,R23,2*%
%TO.N,Net-(SW23-VOUT)*%
X329277608Y-117253575D03*
%TD*%
D26*
%TO.P,C71,1*%
%TO.N,GND*%
X218894305Y-129733660D03*
%TO.P,C71,2*%
%TO.N,+3V3*%
X219093901Y-128794638D03*
%TD*%
D20*
%TO.P,C112,1*%
%TO.N,/multiplexers/keys/KEYS_3_8*%
X351981316Y-150338187D03*
%TO.P,C112,2*%
%TO.N,GND*%
X352180912Y-151277209D03*
%TD*%
D23*
%TO.P,SW49,1,VDD*%
%TO.N,+3V3*%
X239764850Y-152674296D03*
%TO.P,SW49,2,GND*%
%TO.N,GND*%
X240304256Y-154705840D03*
%TO.P,SW49,3,VOUT*%
%TO.N,Net-(SW49-VOUT)*%
X241623330Y-153069330D03*
%TD*%
D26*
%TO.P,C155,1*%
%TO.N,GND*%
X267571715Y-198507128D03*
%TO.P,C155,2*%
%TO.N,+3V3*%
X267771311Y-197568106D03*
%TD*%
D19*
%TO.P,C93,1*%
%TO.N,GND*%
X467830458Y-121861462D03*
%TO.P,C93,2*%
%TO.N,+3V3*%
X467830458Y-120901462D03*
%TD*%
D25*
%TO.P,SW14,1,VDD*%
%TO.N,+3V3*%
X459677058Y-82811562D03*
%TO.P,SW14,2,GND*%
%TO.N,GND*%
X460627058Y-84686562D03*
%TO.P,SW14,3,VOUT*%
%TO.N,Net-(SW14-VOUT)*%
X461577058Y-82811562D03*
%TD*%
D22*
%TO.P,R46,1*%
%TO.N,/multiplexers/keys/KEYS_3_1*%
X182867858Y-143693362D03*
%TO.P,R46,2*%
%TO.N,Net-(SW46-VOUT)*%
X182867858Y-144713362D03*
%TD*%
D24*
%TO.P,SW77,1,VDD*%
%TO.N,+3V3*%
X330321326Y-194945018D03*
%TO.P,SW77,2,GND*%
%TO.N,GND*%
X331640400Y-196581528D03*
%TO.P,SW77,3,VOUT*%
%TO.N,Net-(SW77-VOUT)*%
X332179806Y-194549984D03*
%TD*%
D19*
%TO.P,C33,1*%
%TO.N,GND*%
X154457958Y-107573962D03*
%TO.P,C33,2*%
%TO.N,+3V3*%
X154457958Y-106613962D03*
%TD*%
D24*
%TO.P,SW67,1,VDD*%
%TO.N,+3V3*%
X338006678Y-173835858D03*
%TO.P,SW67,2,GND*%
%TO.N,GND*%
X339325752Y-175472368D03*
%TO.P,SW67,3,VOUT*%
%TO.N,Net-(SW67-VOUT)*%
X339865158Y-173440824D03*
%TD*%
D17*
%TO.P,R81,1*%
%TO.N,/multiplexers/keys/KEYS_4_6*%
X303680267Y-180078435D03*
%TO.P,R81,2*%
%TO.N,Net-(SW65-VOUT)*%
X303892337Y-181076145D03*
%TD*%
D16*
%TO.P,C55,1*%
%TO.N,GND*%
X362247818Y-111227600D03*
%TO.P,C55,2*%
%TO.N,+3V3*%
X362048222Y-110288578D03*
%TD*%
D28*
%TO.P,U6,1,COM*%
%TO.N,/ADC1_IN7*%
X391830400Y-129794000D03*
%TO.P,U6,2,I7*%
%TO.N,/multiplexers/keys/KEYS_2_9*%
X391830400Y-130444000D03*
%TO.P,U6,3,I6*%
%TO.N,/multiplexers/keys/KEYS_1_12*%
X391830400Y-131094000D03*
%TO.P,U6,4,I5*%
%TO.N,/multiplexers/keys/KEYS_1_11*%
X391830400Y-131744000D03*
%TO.P,U6,5,I4*%
%TO.N,/multiplexers/keys/KEYS_1_10*%
X391830400Y-132394000D03*
%TO.P,U6,6,I3*%
%TO.N,/multiplexers/keys/KEYS_1_9*%
X391830400Y-133044000D03*
%TO.P,U6,7,I2*%
%TO.N,/multiplexers/keys/KEYS_0_11*%
X391830400Y-133694000D03*
%TO.P,U6,8,I1*%
%TO.N,/multiplexers/keys/KEYS_0_10*%
X391830400Y-134344000D03*
%TO.P,U6,9,I0*%
%TO.N,/multiplexers/keys/KEYS_0_9*%
X391830400Y-134994000D03*
%TO.P,U6,10,S0*%
%TO.N,/S0*%
X391830400Y-135644000D03*
%TO.P,U6,11,S1*%
%TO.N,/S1*%
X391830400Y-136294000D03*
%TO.P,U6,12,GND*%
%TO.N,GND*%
X391830400Y-136944000D03*
%TO.P,U6,13,S3*%
%TO.N,/S3*%
X386105400Y-136944000D03*
%TO.P,U6,14,S2*%
%TO.N,/S2*%
X386105400Y-136294000D03*
%TO.P,U6,15,~{E}*%
%TO.N,GND*%
X386105400Y-135644000D03*
%TO.P,U6,16,I15*%
%TO.N,/multiplexers/keys/KEYS_5_5*%
X386105400Y-134994000D03*
%TO.P,U6,17,I14*%
%TO.N,/multiplexers/keys/KEYS_4_11*%
X386105400Y-134344000D03*
%TO.P,U6,18,I13*%
%TO.N,/multiplexers/keys/KEYS_4_10*%
X386105400Y-133694000D03*
%TO.P,U6,19,I12*%
%TO.N,/multiplexers/keys/KEYS_4_9*%
X386105400Y-133044000D03*
%TO.P,U6,20,I11*%
%TO.N,/multiplexers/keys/KEYS_3_10*%
X386105400Y-132394000D03*
%TO.P,U6,21,I10*%
%TO.N,/multiplexers/keys/KEYS_3_9*%
X386105400Y-131744000D03*
%TO.P,U6,22,I9*%
%TO.N,/multiplexers/keys/KEYS_2_11*%
X386105400Y-131094000D03*
%TO.P,U6,23,I8*%
%TO.N,/multiplexers/keys/KEYS_2_10*%
X386105400Y-130444000D03*
%TO.P,U6,24,VCC*%
%TO.N,+3V3*%
X386105400Y-129794000D03*
%TD*%
D21*
%TO.P,C18,1*%
%TO.N,/multiplexers/keys/KEYS_0_5*%
X257025012Y-91995714D03*
%TO.P,C18,2*%
%TO.N,GND*%
X256825416Y-92934736D03*
%TD*%
D18*
%TO.P,C164,1*%
%TO.N,/multiplexers/keys/KEYS_5_7*%
X459181758Y-186557862D03*
%TO.P,C164,2*%
%TO.N,GND*%
X459181758Y-187517862D03*
%TD*%
D23*
%TO.P,SW18,1,VDD*%
%TO.N,+3V3*%
X215077290Y-108475616D03*
%TO.P,SW18,2,GND*%
%TO.N,GND*%
X215616696Y-110507160D03*
%TO.P,SW18,3,VOUT*%
%TO.N,Net-(SW18-VOUT)*%
X216935770Y-108870650D03*
%TD*%
D20*
%TO.P,C28,1*%
%TO.N,/multiplexers/keys/KEYS_0_10*%
X371717979Y-82847368D03*
%TO.P,C28,2*%
%TO.N,GND*%
X371917575Y-83786390D03*
%TD*%
D21*
%TO.P,C46,1*%
%TO.N,/multiplexers/keys/KEYS_1_5*%
X256732543Y-116278033D03*
%TO.P,C46,2*%
%TO.N,GND*%
X256532947Y-117217055D03*
%TD*%
D18*
%TO.P,C88,1*%
%TO.N,/multiplexers/keys/KEYS_2_11*%
X402031758Y-124645362D03*
%TO.P,C88,2*%
%TO.N,GND*%
X402031758Y-125605362D03*
%TD*%
D17*
%TO.P,R40,1*%
%TO.N,/multiplexers/keys/KEYS_2_10*%
X379610535Y-124987782D03*
%TO.P,R40,2*%
%TO.N,Net-(SW40-VOUT)*%
X379822605Y-125985492D03*
%TD*%
D16*
%TO.P,C157,1*%
%TO.N,GND*%
X329177195Y-196159331D03*
%TO.P,C157,2*%
%TO.N,+3V3*%
X328977599Y-195220309D03*
%TD*%
D19*
%TO.P,C117,1*%
%TO.N,GND*%
X405917958Y-145673962D03*
%TO.P,C117,2*%
%TO.N,+3V3*%
X405917958Y-144713962D03*
%TD*%
D27*
%TO.P,R50,1*%
%TO.N,/multiplexers/keys/KEYS_3_5*%
X261768164Y-156297520D03*
%TO.P,R50,2*%
%TO.N,Net-(SW50-VOUT)*%
X261556094Y-157295230D03*
%TD*%
D19*
%TO.P,C57,1*%
%TO.N,GND*%
X382105458Y-104716462D03*
%TO.P,C57,2*%
%TO.N,+3V3*%
X382105458Y-103756462D03*
%TD*%
D24*
%TO.P,SW53,1,VDD*%
%TO.N,+3V3*%
X348021244Y-152231608D03*
%TO.P,SW53,2,GND*%
%TO.N,GND*%
X349340318Y-153868118D03*
%TO.P,SW53,3,VOUT*%
%TO.N,Net-(SW53-VOUT)*%
X349879724Y-151836574D03*
%TD*%
D23*
%TO.P,SW33,1,VDD*%
%TO.N,+3V3*%
X220433428Y-129089687D03*
%TO.P,SW33,2,GND*%
%TO.N,GND*%
X220972834Y-131121231D03*
%TO.P,SW33,3,VOUT*%
%TO.N,Net-(SW33-VOUT)*%
X222291908Y-129484721D03*
%TD*%
D24*
%TO.P,SW69,1,VDD*%
%TO.N,+3V3*%
X375274102Y-165914423D03*
%TO.P,SW69,2,GND*%
%TO.N,GND*%
X376593176Y-167550933D03*
%TO.P,SW69,3,VOUT*%
%TO.N,Net-(SW69-VOUT)*%
X377132582Y-165519389D03*
%TD*%
D25*
%TO.P,SW71,1,VDD*%
%TO.N,+3V3*%
X423958308Y-163774062D03*
%TO.P,SW71,2,GND*%
%TO.N,GND*%
X424908308Y-165649062D03*
%TO.P,SW71,3,VOUT*%
%TO.N,Net-(SW71-VOUT)*%
X425858308Y-163774062D03*
%TD*%
D16*
%TO.P,C111,1*%
%TO.N,GND*%
X346877113Y-153445921D03*
%TO.P,C111,2*%
%TO.N,+3V3*%
X346677517Y-152506899D03*
%TD*%
D25*
%TO.P,SW81,1,VDD*%
%TO.N,+3V3*%
X473964558Y-187586562D03*
%TO.P,SW81,2,GND*%
%TO.N,GND*%
X474914558Y-189461562D03*
%TO.P,SW81,3,VOUT*%
%TO.N,Net-(SW81-VOUT)*%
X475864558Y-187586562D03*
%TD*%
D19*
%TO.P,C7,1*%
%TO.N,GND*%
X143980458Y-83761462D03*
%TO.P,C7,2*%
%TO.N,+3V3*%
X143980458Y-82801462D03*
%TD*%
D16*
%TO.P,C49,1*%
%TO.N,GND*%
X306346682Y-123109753D03*
%TO.P,C49,2*%
%TO.N,+3V3*%
X306147086Y-122170731D03*
%TD*%
D19*
%TO.P,C67,1*%
%TO.N,GND*%
X178270458Y-126623962D03*
%TO.P,C67,2*%
%TO.N,+3V3*%
X178270458Y-125663962D03*
%TD*%
D20*
%TO.P,C78,1*%
%TO.N,/multiplexers/keys/KEYS_2_6*%
X306094747Y-140616090D03*
%TO.P,C78,2*%
%TO.N,GND*%
X306294343Y-141555112D03*
%TD*%
D22*
%TO.P,R14,1*%
%TO.N,/multiplexers/keys/KEYS_1_0*%
X159055358Y-105593362D03*
%TO.P,R14,2*%
%TO.N,Net-(SW15-VOUT)*%
X159055358Y-106613362D03*
%TD*%
D19*
%TO.P,C5,1*%
%TO.N,+3V3*%
X384581400Y-129788800D03*
%TO.P,C5,2*%
%TO.N,GND*%
X384581400Y-128828800D03*
%TD*%
D22*
%TO.P,R55,1*%
%TO.N,/multiplexers/keys/KEYS_3_10*%
X391465358Y-143693362D03*
%TO.P,R55,2*%
%TO.N,Net-(SW55-VOUT)*%
X391465358Y-144713362D03*
%TD*%
D27*
%TO.P,R49,1*%
%TO.N,/multiplexers/keys/KEYS_3_4*%
X243134452Y-152336803D03*
%TO.P,R49,2*%
%TO.N,Net-(SW49-VOUT)*%
X242922382Y-153334513D03*
%TD*%
D19*
%TO.P,C89,1*%
%TO.N,GND*%
X415442958Y-126623962D03*
%TO.P,C89,2*%
%TO.N,+3V3*%
X415442958Y-125663962D03*
%TD*%
D28*
%TO.P,U4,1,COM*%
%TO.N,/ADC1_IN5*%
X254500300Y-143440200D03*
%TO.P,U4,2,I7*%
%TO.N,/multiplexers/keys/KEYS_3_5*%
X254500300Y-144090200D03*
%TO.P,U4,3,I6*%
%TO.N,/multiplexers/keys/KEYS_3_4*%
X254500300Y-144740200D03*
%TO.P,U4,4,I5*%
%TO.N,/multiplexers/keys/KEYS_2_5*%
X254500300Y-145390200D03*
%TO.P,U4,5,I4*%
%TO.N,/multiplexers/keys/KEYS_2_4*%
X254500300Y-146040200D03*
%TO.P,U4,6,I3*%
%TO.N,/multiplexers/keys/KEYS_1_6*%
X254500300Y-146690200D03*
%TO.P,U4,7,I2*%
%TO.N,/multiplexers/keys/KEYS_1_5*%
X254500300Y-147340200D03*
%TO.P,U4,8,I1*%
%TO.N,/multiplexers/keys/KEYS_0_6*%
X254500300Y-147990200D03*
%TO.P,U4,9,I0*%
%TO.N,/multiplexers/keys/KEYS_0_5*%
X254500300Y-148640200D03*
%TO.P,U4,10,S0*%
%TO.N,/S0*%
X254500300Y-149290200D03*
%TO.P,U4,11,S1*%
%TO.N,/S1*%
X254500300Y-149940200D03*
%TO.P,U4,12,GND*%
%TO.N,GND*%
X254500300Y-150590200D03*
%TO.P,U4,13,S3*%
%TO.N,/S3*%
X248775300Y-150590200D03*
%TO.P,U4,14,S2*%
%TO.N,/S2*%
X248775300Y-149940200D03*
%TO.P,U4,15,~{E}*%
%TO.N,GND*%
X248775300Y-149290200D03*
%TO.P,U4,16,I15*%
%TO.N,unconnected-(U4-I15-Pad16)*%
X248775300Y-148640200D03*
%TO.P,U4,17,I14*%
%TO.N,unconnected-(U4-I14-Pad17)*%
X248775300Y-147990200D03*
%TO.P,U4,18,I13*%
%TO.N,unconnected-(U4-I13-Pad18)*%
X248775300Y-147340200D03*
%TO.P,U4,19,I12*%
%TO.N,unconnected-(U4-I12-Pad19)*%
X248775300Y-146690200D03*
%TO.P,U4,20,I11*%
%TO.N,unconnected-(U4-I11-Pad20)*%
X248775300Y-146040200D03*
%TO.P,U4,21,I10*%
%TO.N,/multiplexers/keys/KEYS_5_3*%
X248775300Y-145390200D03*
%TO.P,U4,22,I9*%
%TO.N,/multiplexers/keys/KEYS_4_5*%
X248775300Y-144740200D03*
%TO.P,U4,23,I8*%
%TO.N,/multiplexers/keys/KEYS_4_4*%
X248775300Y-144090200D03*
%TO.P,U4,24,VCC*%
%TO.N,+3V3*%
X248775300Y-143440200D03*
%TD*%
D26*
%TO.P,C13,1*%
%TO.N,GND*%
X209172208Y-83847090D03*
%TO.P,C13,2*%
%TO.N,+3V3*%
X209371804Y-82908068D03*
%TD*%
D19*
%TO.P,C149,1*%
%TO.N,GND*%
X144932958Y-183773962D03*
%TO.P,C149,2*%
%TO.N,+3V3*%
X144932958Y-182813962D03*
%TD*%
D24*
%TO.P,SW25,1,VDD*%
%TO.N,+3V3*%
X363391949Y-110013287D03*
%TO.P,SW25,2,GND*%
%TO.N,GND*%
X364711023Y-111649797D03*
%TO.P,SW25,3,VOUT*%
%TO.N,Net-(SW25-VOUT)*%
X365250429Y-109618253D03*
%TD*%
D19*
%TO.P,C145,1*%
%TO.N,GND*%
X422586708Y-164723962D03*
%TO.P,C145,2*%
%TO.N,+3V3*%
X422586708Y-163763962D03*
%TD*%
D20*
%TO.P,C84,1*%
%TO.N,/multiplexers/keys/KEYS_2_9*%
X361995882Y-128733937D03*
%TO.P,C84,2*%
%TO.N,GND*%
X362195478Y-129672959D03*
%TD*%
D27*
%TO.P,R47,1*%
%TO.N,/multiplexers/keys/KEYS_3_2*%
X205867028Y-144415367D03*
%TO.P,R47,2*%
%TO.N,Net-(SW47-VOUT)*%
X205654958Y-145413077D03*
%TD*%
D24*
%TO.P,SW54,1,VDD*%
%TO.N,+3V3*%
X366654956Y-148270890D03*
%TO.P,SW54,2,GND*%
%TO.N,GND*%
X367974030Y-149907400D03*
%TO.P,SW54,3,VOUT*%
%TO.N,Net-(SW54-VOUT)*%
X368513436Y-147875856D03*
%TD*%
D20*
%TO.P,C56,1*%
%TO.N,/multiplexers/keys/KEYS_1_10*%
X367352021Y-108119866D03*
%TO.P,C56,2*%
%TO.N,GND*%
X367551617Y-109058888D03*
%TD*%
D21*
%TO.P,C130,1*%
%TO.N,/multiplexers/keys/KEYS_4_3*%
X230875106Y-169208631D03*
%TO.P,C130,2*%
%TO.N,GND*%
X230675510Y-170147653D03*
%TD*%
D18*
%TO.P,C120,1*%
%TO.N,/multiplexers/keys/KEYS_3_12*%
X442513008Y-143695362D03*
%TO.P,C120,2*%
%TO.N,GND*%
X442513008Y-144655362D03*
%TD*%
D27*
%TO.P,R18,1*%
%TO.N,/multiplexers/keys/KEYS_1_3*%
X218446892Y-108138123D03*
%TO.P,R18,2*%
%TO.N,Net-(SW18-VOUT)*%
X218234822Y-109135833D03*
%TD*%
D22*
%TO.P,R16,1*%
%TO.N,/multiplexers/keys/KEYS_1_1*%
X178105358Y-105593362D03*
%TO.P,R16,2*%
%TO.N,Net-(SW16-VOUT)*%
X178105358Y-106613362D03*
%TD*%
D25*
%TO.P,SW59,1,VDD*%
%TO.N,+3V3*%
X153448308Y-163774062D03*
%TO.P,SW59,2,GND*%
%TO.N,GND*%
X154398308Y-165649062D03*
%TO.P,SW59,3,VOUT*%
%TO.N,Net-(SW59-VOUT)*%
X155348308Y-163774062D03*
%TD*%
D22*
%TO.P,R43,1*%
%TO.N,/multiplexers/keys/KEYS_2_13*%
X443852858Y-124643362D03*
%TO.P,R43,2*%
%TO.N,Net-(SW43-VOUT)*%
X443852858Y-125663362D03*
%TD*%
D16*
%TO.P,C51,1*%
%TO.N,GND*%
X324980394Y-119149036D03*
%TO.P,C51,2*%
%TO.N,+3V3*%
X324780798Y-118210014D03*
%TD*%
D22*
%TO.P,R30,1*%
%TO.N,/multiplexers/keys/KEYS_2_0*%
X159055358Y-124643362D03*
%TO.P,R30,2*%
%TO.N,Net-(SW30-VOUT)*%
X159055358Y-125663362D03*
%TD*%
D27*
%TO.P,R6,1*%
%TO.N,/multiplexers/keys/KEYS_0_5*%
X256006784Y-91777239D03*
%TO.P,R6,2*%
%TO.N,Net-(SW6-VOUT)*%
X255794714Y-92774949D03*
%TD*%
D25*
%TO.P,SW44,1,VDD*%
%TO.N,+3V3*%
X469202058Y-120911562D03*
%TO.P,SW44,2,GND*%
%TO.N,GND*%
X470152058Y-122786562D03*
%TO.P,SW44,3,VOUT*%
%TO.N,Net-(SW44-VOUT)*%
X471102058Y-120911562D03*
%TD*%
D18*
%TO.P,C162,1*%
%TO.N,/multiplexers/keys/KEYS_5_6*%
X440131758Y-186557862D03*
%TO.P,C162,2*%
%TO.N,GND*%
X440131758Y-187517862D03*
%TD*%
%TO.P,C118,1*%
%TO.N,/multiplexers/keys/KEYS_3_11*%
X411556758Y-143695362D03*
%TO.P,C118,2*%
%TO.N,GND*%
X411556758Y-144655362D03*
%TD*%
%TO.P,C60,1*%
%TO.N,/multiplexers/keys/KEYS_1_12*%
X406794258Y-105595362D03*
%TO.P,C60,2*%
%TO.N,GND*%
X406794258Y-106555362D03*
%TD*%
D22*
%TO.P,R71,1*%
%TO.N,/multiplexers/keys/KEYS_4_13*%
X458140358Y-167505862D03*
%TO.P,R71,2*%
%TO.N,Net-(SW72-VOUT)*%
X458140358Y-168525862D03*
%TD*%
%TO.P,R26,1*%
%TO.N,/multiplexers/keys/KEYS_1_11*%
X386702858Y-102735862D03*
%TO.P,R26,2*%
%TO.N,Net-(SW26-VOUT)*%
X386702858Y-103755862D03*
%TD*%
D19*
%TO.P,C35,1*%
%TO.N,GND*%
X458305458Y-83761462D03*
%TO.P,C35,2*%
%TO.N,+3V3*%
X458305458Y-82801462D03*
%TD*%
%TO.P,C121,1*%
%TO.N,GND*%
X472592958Y-140911462D03*
%TO.P,C121,2*%
%TO.N,+3V3*%
X472592958Y-139951462D03*
%TD*%
D22*
%TO.P,R3,1*%
%TO.N,/multiplexers/keys/KEYS_0_2*%
X192392858Y-80828362D03*
%TO.P,R3,2*%
%TO.N,Net-(SW3-VOUT)*%
X192392858Y-81848362D03*
%TD*%
D25*
%TO.P,SW70,1,VDD*%
%TO.N,+3V3*%
X397764558Y-163774062D03*
%TO.P,SW70,2,GND*%
%TO.N,GND*%
X398714558Y-165649062D03*
%TO.P,SW70,3,VOUT*%
%TO.N,Net-(SW70-VOUT)*%
X399664558Y-163774062D03*
%TD*%
D26*
%TO.P,C127,1*%
%TO.N,GND*%
X206314441Y-166010904D03*
%TO.P,C127,2*%
%TO.N,+3V3*%
X206514037Y-165071882D03*
%TD*%
D21*
%TO.P,C48,1*%
%TO.N,/multiplexers/keys/KEYS_1_6*%
X275366255Y-120238751D03*
%TO.P,C48,2*%
%TO.N,GND*%
X275166659Y-121177773D03*
%TD*%
D16*
%TO.P,C23,1*%
%TO.N,GND*%
X324687925Y-94866716D03*
%TO.P,C23,2*%
%TO.N,+3V3*%
X324488329Y-93927694D03*
%TD*%
%TO.P,C83,1*%
%TO.N,GND*%
X356891679Y-131841671D03*
%TO.P,C83,2*%
%TO.N,+3V3*%
X356692083Y-130902649D03*
%TD*%
%TO.P,C107,1*%
%TO.N,GND*%
X309609690Y-161367356D03*
%TO.P,C107,2*%
%TO.N,+3V3*%
X309410094Y-160428334D03*
%TD*%
D26*
%TO.P,C153,1*%
%TO.N,GND*%
X239621147Y-192566051D03*
%TO.P,C153,2*%
%TO.N,+3V3*%
X239820743Y-191627029D03*
%TD*%
D16*
%TO.P,C27,1*%
%TO.N,GND*%
X366613776Y-85955102D03*
%TO.P,C27,2*%
%TO.N,+3V3*%
X366414180Y-85016080D03*
%TD*%
D23*
%TO.P,SW48,1,VDD*%
%TO.N,+3V3*%
X221131138Y-148713578D03*
%TO.P,SW48,2,GND*%
%TO.N,GND*%
X221670544Y-150745122D03*
%TO.P,SW48,3,VOUT*%
%TO.N,Net-(SW48-VOUT)*%
X222989618Y-149108612D03*
%TD*%
D16*
%TO.P,C81,1*%
%TO.N,GND*%
X338257968Y-135802389D03*
%TO.P,C81,2*%
%TO.N,+3V3*%
X338058372Y-134863367D03*
%TD*%
D25*
%TO.P,SW12,1,VDD*%
%TO.N,+3V3*%
X389192058Y-81859062D03*
%TO.P,SW12,2,GND*%
%TO.N,GND*%
X390142058Y-83734062D03*
%TO.P,SW12,3,VOUT*%
%TO.N,Net-(SW12-VOUT)*%
X391092058Y-81859062D03*
%TD*%
D18*
%TO.P,C146,1*%
%TO.N,/multiplexers/keys/KEYS_4_12*%
X428225508Y-162745362D03*
%TO.P,C146,2*%
%TO.N,GND*%
X428225508Y-163705362D03*
%TD*%
D27*
%TO.P,R7,1*%
%TO.N,/multiplexers/keys/KEYS_0_6*%
X274640496Y-95737957D03*
%TO.P,R7,2*%
%TO.N,Net-(SW7-VOUT)*%
X274428426Y-96735667D03*
%TD*%
D20*
%TO.P,C22,1*%
%TO.N,/multiplexers/keys/KEYS_0_7*%
X311158416Y-95719700D03*
%TO.P,C22,2*%
%TO.N,GND*%
X311358012Y-96658722D03*
%TD*%
D19*
%TO.P,C1,1*%
%TO.N,+3V3*%
X164236400Y-123111200D03*
%TO.P,C1,2*%
%TO.N,GND*%
X164236400Y-122151200D03*
%TD*%
%TO.P,C143,1*%
%TO.N,GND*%
X396392958Y-164723962D03*
%TO.P,C143,2*%
%TO.N,+3V3*%
X396392958Y-163763962D03*
%TD*%
D25*
%TO.P,SW43,1,VDD*%
%TO.N,+3V3*%
X440627058Y-125674062D03*
%TO.P,SW43,2,GND*%
%TO.N,GND*%
X441577058Y-127549062D03*
%TO.P,SW43,3,VOUT*%
%TO.N,Net-(SW43-VOUT)*%
X442527058Y-125674062D03*
%TD*%
D23*
%TO.P,SW21,1,VDD*%
%TO.N,+3V3*%
X270978425Y-120357769D03*
%TO.P,SW21,2,GND*%
%TO.N,GND*%
X271517831Y-122389313D03*
%TO.P,SW21,3,VOUT*%
%TO.N,Net-(SW21-VOUT)*%
X272836905Y-120752803D03*
%TD*%
D24*
%TO.P,SW38,1,VDD*%
%TO.N,+3V3*%
X339402099Y-134588076D03*
%TO.P,SW38,2,GND*%
%TO.N,GND*%
X340721173Y-136224586D03*
%TO.P,SW38,3,VOUT*%
%TO.N,Net-(SW38-VOUT)*%
X341260579Y-134193042D03*
%TD*%
D27*
%TO.P,R21,1*%
%TO.N,/multiplexers/keys/KEYS_1_6*%
X274348027Y-120020276D03*
%TO.P,R21,2*%
%TO.N,Net-(SW21-VOUT)*%
X274135957Y-121017986D03*
%TD*%
D21*
%TO.P,C100,1*%
%TO.N,/multiplexers/keys/KEYS_3_2*%
X206885256Y-144633842D03*
%TO.P,C100,2*%
%TO.N,GND*%
X206685660Y-145572864D03*
%TD*%
D16*
%TO.P,C53,1*%
%TO.N,GND*%
X343614106Y-115188318D03*
%TO.P,C53,2*%
%TO.N,+3V3*%
X343414510Y-114249296D03*
%TD*%
D23*
%TO.P,SW50,1,VDD*%
%TO.N,+3V3*%
X258398562Y-156635013D03*
%TO.P,SW50,2,GND*%
%TO.N,GND*%
X258937968Y-158666557D03*
%TO.P,SW50,3,VOUT*%
%TO.N,Net-(SW50-VOUT)*%
X260257042Y-157030047D03*
%TD*%
D18*
%TO.P,C32,1*%
%TO.N,/multiplexers/keys/KEYS_0_12*%
X412509258Y-80830362D03*
%TO.P,C32,2*%
%TO.N,GND*%
X412509258Y-81790362D03*
%TD*%
D19*
%TO.P,C115,1*%
%TO.N,GND*%
X386867958Y-145673962D03*
%TO.P,C115,2*%
%TO.N,+3V3*%
X386867958Y-144713962D03*
%TD*%
D18*
%TO.P,C2,1*%
%TO.N,+3V3*%
X224028000Y-137264200D03*
%TO.P,C2,2*%
%TO.N,GND*%
X224028000Y-138224200D03*
%TD*%
D21*
%TO.P,C102,1*%
%TO.N,/multiplexers/keys/KEYS_3_3*%
X225518968Y-148594560D03*
%TO.P,C102,2*%
%TO.N,GND*%
X225319372Y-149533582D03*
%TD*%
D20*
%TO.P,C50,1*%
%TO.N,/multiplexers/keys/KEYS_1_7*%
X311450885Y-120002019D03*
%TO.P,C50,2*%
%TO.N,GND*%
X311650481Y-120941041D03*
%TD*%
D22*
%TO.P,R31,1*%
%TO.N,/multiplexers/keys/KEYS_2_1*%
X182867858Y-124643362D03*
%TO.P,R31,2*%
%TO.N,Net-(SW31-VOUT)*%
X182867858Y-125663362D03*
%TD*%
D19*
%TO.P,C63,1*%
%TO.N,GND*%
X463067958Y-102811462D03*
%TO.P,C63,2*%
%TO.N,+3V3*%
X463067958Y-101851462D03*
%TD*%
D16*
%TO.P,C137,1*%
%TO.N,GND*%
X336862547Y-175050171D03*
%TO.P,C137,2*%
%TO.N,+3V3*%
X336662951Y-174111149D03*
%TD*%
D19*
%TO.P,C147,1*%
%TO.N,GND*%
X453542958Y-169486462D03*
%TO.P,C147,2*%
%TO.N,+3V3*%
X453542958Y-168526462D03*
%TD*%
D24*
%TO.P,SW10,1,VDD*%
%TO.N,+3V3*%
X349124195Y-88701506D03*
%TO.P,SW10,2,GND*%
%TO.N,GND*%
X350443269Y-90338016D03*
%TO.P,SW10,3,VOUT*%
%TO.N,Net-(SW10-VOUT)*%
X350982675Y-88306472D03*
%TD*%
D17*
%TO.P,R11,1*%
%TO.N,/multiplexers/keys/KEYS_0_10*%
X370698920Y-83061931D03*
%TO.P,R11,2*%
%TO.N,Net-(SW11-VOUT)*%
X370910990Y-84059641D03*
%TD*%
D23*
%TO.P,SW20,1,VDD*%
%TO.N,+3V3*%
X252344713Y-116397051D03*
%TO.P,SW20,2,GND*%
%TO.N,GND*%
X252884119Y-118428595D03*
%TO.P,SW20,3,VOUT*%
%TO.N,Net-(SW20-VOUT)*%
X254203193Y-116792085D03*
%TD*%
D21*
%TO.P,C128,1*%
%TO.N,/multiplexers/keys/KEYS_4_2*%
X212241394Y-165247913D03*
%TO.P,C128,2*%
%TO.N,GND*%
X212041798Y-166186935D03*
%TD*%
%TO.P,C106,1*%
%TO.N,/multiplexers/keys/KEYS_3_5*%
X262786392Y-156515995D03*
%TO.P,C106,2*%
%TO.N,GND*%
X262586796Y-157455017D03*
%TD*%
D25*
%TO.P,SW27,1,VDD*%
%TO.N,+3V3*%
X402527058Y-106624062D03*
%TO.P,SW27,2,GND*%
%TO.N,GND*%
X403477058Y-108499062D03*
%TO.P,SW27,3,VOUT*%
%TO.N,Net-(SW27-VOUT)*%
X404427058Y-106624062D03*
%TD*%
%TO.P,SW31,1,VDD*%
%TO.N,+3V3*%
X179642058Y-125674062D03*
%TO.P,SW31,2,GND*%
%TO.N,GND*%
X180592058Y-127549062D03*
%TO.P,SW31,3,VOUT*%
%TO.N,Net-(SW31-VOUT)*%
X181542058Y-125674062D03*
%TD*%
D22*
%TO.P,R72,1*%
%TO.N,/multiplexers/keys/KEYS_5_0*%
X149530358Y-181793362D03*
%TO.P,R72,2*%
%TO.N,Net-(SW73-VOUT)*%
X149530358Y-182813362D03*
%TD*%
D26*
%TO.P,C17,1*%
%TO.N,GND*%
X251098059Y-92758705D03*
%TO.P,C17,2*%
%TO.N,+3V3*%
X251297655Y-91819683D03*
%TD*%
D25*
%TO.P,SW15,1,VDD*%
%TO.N,+3V3*%
X155829558Y-106624062D03*
%TO.P,SW15,2,GND*%
%TO.N,GND*%
X156779558Y-108499062D03*
%TO.P,SW15,3,VOUT*%
%TO.N,Net-(SW15-VOUT)*%
X157729558Y-106624062D03*
%TD*%
D18*
%TO.P,C64,1*%
%TO.N,/multiplexers/keys/KEYS_1_14*%
X468706758Y-100832862D03*
%TO.P,C64,2*%
%TO.N,GND*%
X468706758Y-101792862D03*
%TD*%
D22*
%TO.P,R15,1*%
%TO.N,/multiplexers/keys/KEYS_0_13*%
X462902858Y-81780862D03*
%TO.P,R15,2*%
%TO.N,Net-(SW14-VOUT)*%
X462902858Y-82800862D03*
%TD*%
D20*
%TO.P,C80,1*%
%TO.N,/multiplexers/keys/KEYS_2_7*%
X324728459Y-136655372D03*
%TO.P,C80,2*%
%TO.N,GND*%
X324928055Y-137594394D03*
%TD*%
%TO.P,C86,1*%
%TO.N,/multiplexers/keys/KEYS_2_10*%
X380629594Y-124773219D03*
%TO.P,C86,2*%
%TO.N,GND*%
X380829190Y-125712241D03*
%TD*%
D18*
%TO.P,C148,1*%
%TO.N,/multiplexers/keys/KEYS_4_13*%
X459181758Y-167507862D03*
%TO.P,C148,2*%
%TO.N,GND*%
X459181758Y-168467862D03*
%TD*%
D21*
%TO.P,C74,1*%
%TO.N,/multiplexers/keys/KEYS_2_4*%
X243454970Y-132931386D03*
%TO.P,C74,2*%
%TO.N,GND*%
X243255374Y-133870408D03*
%TD*%
D19*
%TO.P,C161,1*%
%TO.N,GND*%
X434492958Y-188536462D03*
%TO.P,C161,2*%
%TO.N,+3V3*%
X434492958Y-187576462D03*
%TD*%
D21*
%TO.P,C134,1*%
%TO.N,/multiplexers/keys/KEYS_4_5*%
X268142530Y-177130066D03*
%TO.P,C134,2*%
%TO.N,GND*%
X267942934Y-178069088D03*
%TD*%
D24*
%TO.P,SW40,1,VDD*%
%TO.N,+3V3*%
X376669522Y-126666640D03*
%TO.P,SW40,2,GND*%
%TO.N,GND*%
X377988596Y-128303150D03*
%TO.P,SW40,3,VOUT*%
%TO.N,Net-(SW40-VOUT)*%
X378528002Y-126271606D03*
%TD*%
D18*
%TO.P,C68,1*%
%TO.N,/multiplexers/keys/KEYS_2_1*%
X183909258Y-124645362D03*
%TO.P,C68,2*%
%TO.N,GND*%
X183909258Y-125605362D03*
%TD*%
D22*
%TO.P,R57,1*%
%TO.N,/multiplexers/keys/KEYS_3_12*%
X441471608Y-143693362D03*
%TO.P,R57,2*%
%TO.N,Net-(SW57-VOUT)*%
X441471608Y-144713362D03*
%TD*%
D17*
%TO.P,R68,1*%
%TO.N,/multiplexers/keys/KEYS_4_10*%
X378215115Y-164235565D03*
%TO.P,R68,2*%
%TO.N,Net-(SW69-VOUT)*%
X378427185Y-165233275D03*
%TD*%
%TO.P,R36,1*%
%TO.N,/multiplexers/keys/KEYS_2_6*%
X305075688Y-140830653D03*
%TO.P,R36,2*%
%TO.N,Net-(SW36-VOUT)*%
X305287758Y-141828363D03*
%TD*%
D23*
%TO.P,SW61,1,VDD*%
%TO.N,+3V3*%
X207853564Y-165366931D03*
%TO.P,SW61,2,GND*%
%TO.N,GND*%
X208392970Y-167398475D03*
%TO.P,SW61,3,VOUT*%
%TO.N,Net-(SW61-VOUT)*%
X209712044Y-165761965D03*
%TD*%
D19*
%TO.P,C65,1*%
%TO.N,GND*%
X154457958Y-126623962D03*
%TO.P,C65,2*%
%TO.N,+3V3*%
X154457958Y-125663962D03*
%TD*%
D18*
%TO.P,C126,1*%
%TO.N,/multiplexers/keys/KEYS_4_1*%
X188671758Y-162745362D03*
%TO.P,C126,2*%
%TO.N,GND*%
X188671758Y-163705362D03*
%TD*%
%TO.P,C92,1*%
%TO.N,/multiplexers/keys/KEYS_2_13*%
X444894258Y-124645362D03*
%TO.P,C92,2*%
%TO.N,GND*%
X444894258Y-125605362D03*
%TD*%
D21*
%TO.P,C76,1*%
%TO.N,/multiplexers/keys/KEYS_2_5*%
X262088681Y-136892104D03*
%TO.P,C76,2*%
%TO.N,GND*%
X261889085Y-137831126D03*
%TD*%
D25*
%TO.P,SW42,1,VDD*%
%TO.N,+3V3*%
X416814558Y-125674062D03*
%TO.P,SW42,2,GND*%
%TO.N,GND*%
X417764558Y-127549062D03*
%TO.P,SW42,3,VOUT*%
%TO.N,Net-(SW42-VOUT)*%
X418714558Y-125674062D03*
%TD*%
D18*
%TO.P,C8,1*%
%TO.N,/multiplexers/keys/KEYS_0_0*%
X149619258Y-81782862D03*
%TO.P,C8,2*%
%TO.N,GND*%
X149619258Y-82742862D03*
%TD*%
D22*
%TO.P,R28,1*%
%TO.N,/multiplexers/keys/KEYS_1_13*%
X434327858Y-105593362D03*
%TO.P,R28,2*%
%TO.N,Net-(SW28-VOUT)*%
X434327858Y-106613362D03*
%TD*%
%TO.P,R44,1*%
%TO.N,/multiplexers/keys/KEYS_2_14*%
X472427858Y-119880862D03*
%TO.P,R44,2*%
%TO.N,Net-(SW44-VOUT)*%
X472427858Y-120900862D03*
%TD*%
D16*
%TO.P,C79,1*%
%TO.N,GND*%
X319624256Y-139763106D03*
%TO.P,C79,2*%
%TO.N,+3V3*%
X319424660Y-138824084D03*
%TD*%
D23*
%TO.P,SW32,1,VDD*%
%TO.N,+3V3*%
X201799716Y-125128969D03*
%TO.P,SW32,2,GND*%
%TO.N,GND*%
X202339122Y-127160513D03*
%TO.P,SW32,3,VOUT*%
%TO.N,Net-(SW32-VOUT)*%
X203658196Y-125524003D03*
%TD*%
D16*
%TO.P,C159,1*%
%TO.N,GND*%
X368773832Y-187742806D03*
%TO.P,C159,2*%
%TO.N,+3V3*%
X368574236Y-186803784D03*
%TD*%
D17*
%TO.P,R67,1*%
%TO.N,/multiplexers/keys/KEYS_4_9*%
X359581403Y-168196282D03*
%TO.P,R67,2*%
%TO.N,Net-(SW68-VOUT)*%
X359793473Y-169193992D03*
%TD*%
D18*
%TO.P,C94,1*%
%TO.N,/multiplexers/keys/KEYS_2_14*%
X473469258Y-119882862D03*
%TO.P,C94,2*%
%TO.N,GND*%
X473469258Y-120842862D03*
%TD*%
%TO.P,C166,1*%
%TO.N,/multiplexers/keys/KEYS_5_8*%
X478231758Y-186557862D03*
%TO.P,C166,2*%
%TO.N,GND*%
X478231758Y-187517862D03*
%TD*%
D17*
%TO.P,R37,1*%
%TO.N,/multiplexers/keys/KEYS_2_7*%
X323709400Y-136869935D03*
%TO.P,R37,2*%
%TO.N,Net-(SW37-VOUT)*%
X323921470Y-137867645D03*
%TD*%
D20*
%TO.P,C26,1*%
%TO.N,/multiplexers/keys/KEYS_0_9*%
X353084267Y-86808085D03*
%TO.P,C26,2*%
%TO.N,GND*%
X353283863Y-87747107D03*
%TD*%
D17*
%TO.P,R66,1*%
%TO.N,/multiplexers/keys/KEYS_4_8*%
X340947691Y-172157000D03*
%TO.P,R66,2*%
%TO.N,Net-(SW67-VOUT)*%
X341159761Y-173154710D03*
%TD*%
D26*
%TO.P,C75,1*%
%TO.N,GND*%
X256161728Y-137655095D03*
%TO.P,C75,2*%
%TO.N,+3V3*%
X256361324Y-136716073D03*
%TD*%
D18*
%TO.P,C90,1*%
%TO.N,/multiplexers/keys/KEYS_2_12*%
X421081758Y-124645362D03*
%TO.P,C90,2*%
%TO.N,GND*%
X421081758Y-125605362D03*
%TD*%
D24*
%TO.P,SW66,1,VDD*%
%TO.N,+3V3*%
X319372966Y-177796576D03*
%TO.P,SW66,2,GND*%
%TO.N,GND*%
X320692040Y-179433086D03*
%TO.P,SW66,3,VOUT*%
%TO.N,Net-(SW66-VOUT)*%
X321231446Y-177401542D03*
%TD*%
D16*
%TO.P,C21,1*%
%TO.N,GND*%
X306054213Y-98827434D03*
%TO.P,C21,2*%
%TO.N,+3V3*%
X305854617Y-97888412D03*
%TD*%
D26*
%TO.P,C103,1*%
%TO.N,GND*%
X238225727Y-153318269D03*
%TO.P,C103,2*%
%TO.N,+3V3*%
X238425323Y-152379247D03*
%TD*%
D19*
%TO.P,C97,1*%
%TO.N,GND*%
X178270458Y-145673962D03*
%TO.P,C97,2*%
%TO.N,+3V3*%
X178270458Y-144713962D03*
%TD*%
D24*
%TO.P,SW37,1,VDD*%
%TO.N,+3V3*%
X320768387Y-138548793D03*
%TO.P,SW37,2,GND*%
%TO.N,GND*%
X322087461Y-140185303D03*
%TO.P,SW37,3,VOUT*%
%TO.N,Net-(SW37-VOUT)*%
X322626867Y-138153759D03*
%TD*%
D16*
%TO.P,C167,1*%
%TO.N,GND*%
X299595123Y-182971606D03*
%TO.P,C167,2*%
%TO.N,+3V3*%
X299395527Y-182032584D03*
%TD*%
D18*
%TO.P,C10,1*%
%TO.N,/multiplexers/keys/KEYS_0_1*%
X174384258Y-80830362D03*
%TO.P,C10,2*%
%TO.N,GND*%
X174384258Y-81790362D03*
%TD*%
%TO.P,C12,1*%
%TO.N,/multiplexers/keys/KEYS_0_2*%
X193434258Y-80830362D03*
%TO.P,C12,2*%
%TO.N,GND*%
X193434258Y-81790362D03*
%TD*%
D25*
%TO.P,SW41,1,VDD*%
%TO.N,+3V3*%
X397764558Y-125674062D03*
%TO.P,SW41,2,GND*%
%TO.N,GND*%
X398714558Y-127549062D03*
%TO.P,SW41,3,VOUT*%
%TO.N,Net-(SW41-VOUT)*%
X399664558Y-125674062D03*
%TD*%
D26*
%TO.P,C101,1*%
%TO.N,GND*%
X219592015Y-149357551D03*
%TO.P,C101,2*%
%TO.N,+3V3*%
X219791611Y-148418529D03*
%TD*%
D27*
%TO.P,R48,1*%
%TO.N,/multiplexers/keys/KEYS_3_3*%
X224500740Y-148376085D03*
%TO.P,R48,2*%
%TO.N,Net-(SW48-VOUT)*%
X224288670Y-149373795D03*
%TD*%
D26*
%TO.P,C73,1*%
%TO.N,GND*%
X237528017Y-133694377D03*
%TO.P,C73,2*%
%TO.N,+3V3*%
X237727613Y-132755355D03*
%TD*%
D25*
%TO.P,SW60,1,VDD*%
%TO.N,+3V3*%
X184404558Y-163774062D03*
%TO.P,SW60,2,GND*%
%TO.N,GND*%
X185354558Y-165649062D03*
%TO.P,SW60,3,VOUT*%
%TO.N,Net-(SW60-VOUT)*%
X186304558Y-163774062D03*
%TD*%
D24*
%TO.P,SW24,1,VDD*%
%TO.N,+3V3*%
X344758237Y-113974005D03*
%TO.P,SW24,2,GND*%
%TO.N,GND*%
X346077311Y-115610515D03*
%TO.P,SW24,3,VOUT*%
%TO.N,Net-(SW24-VOUT)*%
X346616717Y-113578971D03*
%TD*%
D23*
%TO.P,SW34,1,VDD*%
%TO.N,+3V3*%
X239067140Y-133050404D03*
%TO.P,SW34,2,GND*%
%TO.N,GND*%
X239606546Y-135081948D03*
%TO.P,SW34,3,VOUT*%
%TO.N,Net-(SW34-VOUT)*%
X240925620Y-133445438D03*
%TD*%
D17*
%TO.P,R38,1*%
%TO.N,/multiplexers/keys/KEYS_2_8*%
X342343112Y-132909218D03*
%TO.P,R38,2*%
%TO.N,Net-(SW38-VOUT)*%
X342555182Y-133906928D03*
%TD*%
D24*
%TO.P,SW78,1,VDD*%
%TO.N,+3V3*%
X369917963Y-186528493D03*
%TO.P,SW78,2,GND*%
%TO.N,GND*%
X371237037Y-188165003D03*
%TO.P,SW78,3,VOUT*%
%TO.N,Net-(SW78-VOUT)*%
X371776443Y-186133459D03*
%TD*%
D26*
%TO.P,C15,1*%
%TO.N,GND*%
X227805920Y-87807808D03*
%TO.P,C15,2*%
%TO.N,+3V3*%
X228005516Y-86868786D03*
%TD*%
D24*
%TO.P,SW8,1,VDD*%
%TO.N,+3V3*%
X307198344Y-97613121D03*
%TO.P,SW8,2,GND*%
%TO.N,GND*%
X308517418Y-99249631D03*
%TO.P,SW8,3,VOUT*%
%TO.N,Net-(SW8-VOUT)*%
X309056824Y-97218087D03*
%TD*%
D20*
%TO.P,C140,1*%
%TO.N,/multiplexers/keys/KEYS_4_9*%
X360600462Y-167981719D03*
%TO.P,C140,2*%
%TO.N,GND*%
X360800058Y-168920741D03*
%TD*%
%TO.P,C108,1*%
%TO.N,/multiplexers/keys/KEYS_3_6*%
X314713893Y-158259622D03*
%TO.P,C108,2*%
%TO.N,GND*%
X314913489Y-159198644D03*
%TD*%
D19*
%TO.P,C6,1*%
%TO.N,+3V3*%
X425526200Y-123797000D03*
%TO.P,C6,2*%
%TO.N,GND*%
X425526200Y-122837000D03*
%TD*%
D26*
%TO.P,C131,1*%
%TO.N,GND*%
X243581865Y-173932339D03*
%TO.P,C131,2*%
%TO.N,+3V3*%
X243781461Y-172993317D03*
%TD*%
D18*
%TO.P,C144,1*%
%TO.N,/multiplexers/keys/KEYS_4_11*%
X402031758Y-162745362D03*
%TO.P,C144,2*%
%TO.N,GND*%
X402031758Y-163705362D03*
%TD*%
D19*
%TO.P,C3,1*%
%TO.N,+3V3*%
X247142000Y-143431200D03*
%TO.P,C3,2*%
%TO.N,GND*%
X247142000Y-142471200D03*
%TD*%
D26*
%TO.P,C129,1*%
%TO.N,GND*%
X224948153Y-169971622D03*
%TO.P,C129,2*%
%TO.N,+3V3*%
X225147749Y-169032600D03*
%TD*%
%TO.P,C19,1*%
%TO.N,GND*%
X269731771Y-96719423D03*
%TO.P,C19,2*%
%TO.N,+3V3*%
X269931367Y-95780401D03*
%TD*%
D22*
%TO.P,R13,1*%
%TO.N,/multiplexers/keys/KEYS_0_12*%
X411467858Y-80828362D03*
%TO.P,R13,2*%
%TO.N,Net-(SW13-VOUT)*%
X411467858Y-81848362D03*
%TD*%
D25*
%TO.P,SW16,1,VDD*%
%TO.N,+3V3*%
X174879558Y-106624062D03*
%TO.P,SW16,2,GND*%
%TO.N,GND*%
X175829558Y-108499062D03*
%TO.P,SW16,3,VOUT*%
%TO.N,Net-(SW16-VOUT)*%
X176779558Y-106624062D03*
%TD*%
D20*
%TO.P,C52,1*%
%TO.N,/multiplexers/keys/KEYS_1_8*%
X330084597Y-116041302D03*
%TO.P,C52,2*%
%TO.N,GND*%
X330284193Y-116980324D03*
%TD*%
%TO.P,C160,1*%
%TO.N,/multiplexers/keys/KEYS_5_5*%
X373878035Y-184635072D03*
%TO.P,C160,2*%
%TO.N,GND*%
X374077631Y-185574094D03*
%TD*%
D25*
%TO.P,SW30,1,VDD*%
%TO.N,+3V3*%
X155829558Y-125674062D03*
%TO.P,SW30,2,GND*%
%TO.N,GND*%
X156779558Y-127549062D03*
%TO.P,SW30,3,VOUT*%
%TO.N,Net-(SW30-VOUT)*%
X157729558Y-125674062D03*
%TD*%
D18*
%TO.P,C96,1*%
%TO.N,/multiplexers/keys/KEYS_3_0*%
X152953008Y-143695362D03*
%TO.P,C96,2*%
%TO.N,GND*%
X152953008Y-144655362D03*
%TD*%
D23*
%TO.P,SW4,1,VDD*%
%TO.N,+3V3*%
X210711331Y-83203117D03*
%TO.P,SW4,2,GND*%
%TO.N,GND*%
X211250737Y-85234661D03*
%TO.P,SW4,3,VOUT*%
%TO.N,Net-(SW4-VOUT)*%
X212569811Y-83598151D03*
%TD*%
D22*
%TO.P,R56,1*%
%TO.N,/multiplexers/keys/KEYS_3_11*%
X410515358Y-143693362D03*
%TO.P,R56,2*%
%TO.N,Net-(SW56-VOUT)*%
X410515358Y-144713362D03*
%TD*%
D18*
%TO.P,C66,1*%
%TO.N,/multiplexers/keys/KEYS_2_0*%
X160096758Y-124645362D03*
%TO.P,C66,2*%
%TO.N,GND*%
X160096758Y-125605362D03*
%TD*%
D29*
%TO.N,GND*%
X230475087Y-171105002D03*
X393462258Y-82768462D03*
X178003758Y-108490962D03*
X372123868Y-84742492D03*
X231965380Y-114051802D03*
X160099758Y-126583462D03*
X173241258Y-83725962D03*
X472592958Y-141904662D03*
X158953758Y-127540962D03*
X468709758Y-102770962D03*
X453542958Y-189529662D03*
X255304960Y-94590395D03*
X477088758Y-189453462D03*
X206485237Y-146530213D03*
X144932958Y-184767162D03*
X330198017Y-93654106D03*
X148476258Y-84678462D03*
X188674758Y-164683462D03*
X323738927Y-177798279D03*
X237321519Y-134665872D03*
X319830753Y-140734603D03*
X463947258Y-83720962D03*
X462801258Y-84678462D03*
X256332524Y-118174404D03*
X322817045Y-178973122D03*
X241734918Y-135526067D03*
X406797258Y-107533462D03*
X374283924Y-186530196D03*
X478234758Y-188495962D03*
X367757910Y-110014990D03*
X183032958Y-165717162D03*
X224741655Y-170943117D03*
X243752661Y-154451649D03*
X229155054Y-171803312D03*
X400888758Y-165640962D03*
X366836028Y-111189833D03*
X439255458Y-127617162D03*
X472326258Y-122778462D03*
X143980458Y-84754662D03*
X256624993Y-93892085D03*
X158953758Y-108490962D03*
X255012491Y-118872714D03*
X233332854Y-88941188D03*
X239414649Y-193537546D03*
X387747258Y-104675962D03*
X402034758Y-164683462D03*
X458038758Y-170403462D03*
X223798916Y-151189241D03*
X355702756Y-172060950D03*
X400888758Y-127540962D03*
X304183333Y-182933839D03*
X273098649Y-199640508D03*
X160099758Y-107533462D03*
X374336468Y-168100233D03*
X206805654Y-186606290D03*
X211219053Y-187466485D03*
X267742511Y-179026437D03*
X262386373Y-158412366D03*
X187528758Y-165640962D03*
X379640063Y-165916126D03*
X351465323Y-153408154D03*
X310642423Y-98789667D03*
X378718181Y-167090969D03*
X213331669Y-110091084D03*
X342372639Y-173837561D03*
X329568604Y-119111269D03*
X243054951Y-134827757D03*
X262009079Y-178864552D03*
X360084469Y-171051686D03*
X329383692Y-197130828D03*
X467563758Y-103728462D03*
X435372258Y-107533462D03*
X242432628Y-155149959D03*
X477088758Y-141828462D03*
X415442958Y-127617162D03*
X352387205Y-152233311D03*
X347083610Y-154417418D03*
X434226258Y-108490962D03*
X421084758Y-126583462D03*
X182766258Y-146590962D03*
X157718508Y-164683462D03*
X309816187Y-162338853D03*
X204467494Y-127604632D03*
X343768060Y-134589779D03*
X200751805Y-146368328D03*
X467830458Y-122854662D03*
X218687807Y-130705155D03*
X183912258Y-126583462D03*
X411366258Y-83725962D03*
X387820458Y-83802162D03*
X438988758Y-189453462D03*
X212539086Y-186768175D03*
X223101206Y-131565350D03*
X269525273Y-97690918D03*
X473472258Y-121820962D03*
X192291258Y-83725962D03*
X206107943Y-166982399D03*
X428228508Y-164683462D03*
X361006351Y-169876843D03*
X151810008Y-146590962D03*
X261688662Y-138788475D03*
X422586708Y-165717162D03*
X249108799Y-175065719D03*
X368980329Y-188714303D03*
X236378779Y-114911997D03*
X338464465Y-136773886D03*
X342846178Y-135764622D03*
X147314208Y-146667162D03*
X149622258Y-83720962D03*
X443751258Y-127540962D03*
X429730458Y-108567162D03*
X197053758Y-105633462D03*
X305578754Y-143686057D03*
X371201986Y-85917335D03*
X306500636Y-142511214D03*
X243828048Y-194397741D03*
X198199758Y-104675962D03*
X150574758Y-183733462D03*
X208965710Y-84818585D03*
X219385517Y-150329046D03*
X370099035Y-149447436D03*
X405917958Y-146667162D03*
X419938758Y-127540962D03*
X371020917Y-148272593D03*
X410413758Y-146590962D03*
X330490486Y-117936426D03*
X256652941Y-158250481D03*
X472592958Y-189529662D03*
X274966236Y-122135122D03*
X261066340Y-159110676D03*
X459184758Y-188495962D03*
X440134758Y-188495962D03*
X382105458Y-105709662D03*
X267365217Y-199478623D03*
X154457958Y-127617162D03*
X458038758Y-189453462D03*
X442516008Y-145633462D03*
X392316258Y-83725962D03*
X396392958Y-127617162D03*
X243375367Y-174903834D03*
X324212466Y-139725339D03*
X412512258Y-82768462D03*
X401155458Y-108567162D03*
X266422478Y-179724747D03*
X275258705Y-97852803D03*
X192557958Y-105709662D03*
X247788766Y-175764029D03*
X250599092Y-118012519D03*
X152956008Y-145633462D03*
X411559758Y-145633462D03*
X325186891Y-120120533D03*
X217745068Y-110951279D03*
X348186561Y-90887316D03*
X334687287Y-194946721D03*
X269232804Y-121973237D03*
X386601258Y-105633462D03*
X352568274Y-89878052D03*
X453542958Y-170479662D03*
X332831611Y-157368872D03*
X273646203Y-122833432D03*
X232012821Y-89639498D03*
X250891561Y-93730200D03*
X211841375Y-167144284D03*
X361479889Y-131803904D03*
X182766258Y-127540962D03*
X238019229Y-154289764D03*
X366820273Y-86926599D03*
X310934892Y-123071986D03*
X478234758Y-140870962D03*
X178270458Y-146667162D03*
X306553179Y-124081250D03*
X299801620Y-183943103D03*
X315119782Y-160154746D03*
X381035483Y-126668343D03*
X318435332Y-179982386D03*
X405651258Y-108490962D03*
X458305458Y-84754662D03*
X154457958Y-108567162D03*
X353490156Y-88703209D03*
X149428758Y-184690962D03*
X396392958Y-165717162D03*
X305105215Y-181758996D03*
X406870458Y-83802162D03*
X402034758Y-126583462D03*
X237698812Y-114213687D03*
X245148081Y-193699431D03*
X168745458Y-83802162D03*
X333753493Y-156194029D03*
X427082508Y-165640962D03*
X271778616Y-200338818D03*
X260368629Y-139486785D03*
X210521342Y-167842594D03*
X444897258Y-126583462D03*
X362454315Y-112199097D03*
X205787527Y-126906322D03*
X193437258Y-82768462D03*
X156572508Y-165640962D03*
X214699142Y-84980470D03*
X365717322Y-150456700D03*
X373362042Y-187705039D03*
X306260710Y-99798931D03*
X325134348Y-138550496D03*
X314197900Y-161329589D03*
X436874208Y-146667162D03*
X174387258Y-82768462D03*
X362401771Y-130629061D03*
X391363758Y-146590962D03*
X392509758Y-145633462D03*
X224421239Y-130867040D03*
X324894422Y-95838213D03*
X434492958Y-189529662D03*
X311856774Y-121897143D03*
X328449898Y-158378136D03*
X187795458Y-83802162D03*
X337069044Y-176021668D03*
X255955230Y-138626590D03*
X179149758Y-107533462D03*
X463067958Y-103804662D03*
X225118949Y-150490931D03*
X386867958Y-146667162D03*
X349124198Y-113975708D03*
X311564305Y-97614824D03*
X213379109Y-85678780D03*
X357098176Y-132813168D03*
X173507958Y-108567162D03*
X459184758Y-169445962D03*
X152076708Y-165717162D03*
X178270458Y-127617162D03*
X200054095Y-126744437D03*
X375731888Y-128852450D03*
X333765405Y-196121564D03*
X183912258Y-145633462D03*
X348202316Y-115150551D03*
X219065101Y-110252969D03*
X380113601Y-127843186D03*
X273938672Y-98551113D03*
X227599422Y-88779303D03*
X441370008Y-146590962D03*
X205165204Y-147228523D03*
X329276135Y-94828949D03*
X301197041Y-144695321D03*
X343820603Y-116159815D03*
X341450757Y-175012404D03*
%TO.N,/multiplexers/keys/KEYS_0_0*%
X150522258Y-81783462D03*
%TO.N,/multiplexers/keys/KEYS_0_1*%
X175287258Y-80830962D03*
%TO.N,/multiplexers/keys/KEYS_0_2*%
X194337258Y-80830962D03*
%TO.N,/multiplexers/keys/KEYS_0_3*%
X215982303Y-83272430D03*
%TO.N,/multiplexers/keys/KEYS_0_4*%
X234616015Y-87233148D03*
%TO.N,/multiplexers/keys/KEYS_0_5*%
X257908154Y-92184045D03*
%TO.N,/multiplexers/keys/KEYS_0_6*%
X276541866Y-96144763D03*
%TO.N,/multiplexers/keys/KEYS_0_7*%
X312041809Y-95532542D03*
%TO.N,/multiplexers/keys/KEYS_0_8*%
X330675521Y-91571824D03*
%TO.N,/multiplexers/keys/KEYS_0_9*%
X353967660Y-86620927D03*
%TO.N,/multiplexers/keys/KEYS_0_10*%
X372601372Y-82660210D03*
%TO.N,/multiplexers/keys/KEYS_0_11*%
X394362258Y-80830962D03*
%TO.N,/multiplexers/keys/KEYS_0_12*%
X413412258Y-80830962D03*
%TO.N,/multiplexers/keys/KEYS_1_0*%
X160999758Y-105595962D03*
%TO.N,/multiplexers/keys/KEYS_0_13*%
X464847258Y-81783462D03*
%TO.N,/multiplexers/keys/KEYS_1_1*%
X180049758Y-105595962D03*
%TO.N,/multiplexers/keys/KEYS_1_2*%
X199099758Y-102738462D03*
%TO.N,/multiplexers/keys/KEYS_1_3*%
X220348262Y-108544929D03*
%TO.N,/multiplexers/keys/KEYS_1_4*%
X238981973Y-112505647D03*
%TO.N,/multiplexers/keys/KEYS_1_5*%
X257615685Y-116466364D03*
%TO.N,/multiplexers/keys/KEYS_1_6*%
X276249397Y-120427082D03*
%TO.N,/multiplexers/keys/KEYS_1_7*%
X312334278Y-119814861D03*
%TO.N,/multiplexers/keys/KEYS_1_8*%
X330967990Y-115854144D03*
%TO.N,/multiplexers/keys/KEYS_1_9*%
X349601702Y-111893426D03*
%TO.N,/multiplexers/keys/KEYS_1_10*%
X368235414Y-107932708D03*
%TO.N,/multiplexers/keys/KEYS_1_11*%
X388647258Y-102738462D03*
%TO.N,/multiplexers/keys/KEYS_1_12*%
X407697258Y-105595962D03*
%TO.N,/multiplexers/keys/KEYS_1_13*%
X436272258Y-105595962D03*
%TO.N,/multiplexers/keys/KEYS_1_14*%
X469609758Y-100833462D03*
%TO.N,/multiplexers/keys/KEYS_2_0*%
X160999758Y-124645962D03*
%TO.N,/multiplexers/keys/KEYS_2_1*%
X184812258Y-124645962D03*
%TO.N,/multiplexers/keys/KEYS_2_2*%
X207070688Y-125198282D03*
%TO.N,/multiplexers/keys/KEYS_2_3*%
X225704400Y-129159000D03*
%TO.N,/multiplexers/keys/KEYS_2_4*%
X244338112Y-133119717D03*
%TO.N,/multiplexers/keys/KEYS_2_5*%
X262971823Y-137080435D03*
%TO.N,/multiplexers/keys/KEYS_2_6*%
X306978140Y-140428932D03*
%TO.N,/multiplexers/keys/KEYS_2_7*%
X325611852Y-136468214D03*
%TO.N,/multiplexers/keys/KEYS_2_8*%
X344245564Y-132507497D03*
%TO.N,/multiplexers/keys/KEYS_2_9*%
X362879275Y-128546779D03*
%TO.N,/multiplexers/keys/KEYS_2_10*%
X381512987Y-124586061D03*
%TO.N,/multiplexers/keys/KEYS_2_11*%
X402934758Y-124645962D03*
%TO.N,/multiplexers/keys/KEYS_2_12*%
X421984758Y-124645962D03*
%TO.N,/multiplexers/keys/KEYS_2_13*%
X445797258Y-124645962D03*
%TO.N,/multiplexers/keys/KEYS_2_14*%
X474372258Y-119883462D03*
%TO.N,/multiplexers/keys/KEYS_3_0*%
X153856008Y-143695962D03*
%TO.N,/multiplexers/keys/KEYS_3_1*%
X184812258Y-143695962D03*
%TO.N,/multiplexers/keys/KEYS_3_2*%
X207768398Y-144822173D03*
%TO.N,/multiplexers/keys/KEYS_3_3*%
X226402110Y-148782891D03*
%TO.N,/multiplexers/keys/KEYS_3_4*%
X245035822Y-152743609D03*
%TO.N,/multiplexers/keys/KEYS_3_5*%
X263669534Y-156704326D03*
%TO.N,/multiplexers/keys/KEYS_3_6*%
X315597286Y-158072464D03*
%TO.N,/multiplexers/keys/KEYS_3_7*%
X334230997Y-154111747D03*
%TO.N,/multiplexers/keys/KEYS_3_8*%
X352864709Y-150151029D03*
%TO.N,/multiplexers/keys/KEYS_3_9*%
X371498421Y-146190311D03*
%TO.N,/multiplexers/keys/KEYS_3_10*%
X393409758Y-143695962D03*
%TO.N,/multiplexers/keys/KEYS_3_11*%
X412459758Y-143695962D03*
%TO.N,/multiplexers/keys/KEYS_3_12*%
X443416008Y-143695962D03*
%TO.N,/multiplexers/keys/KEYS_3_13*%
X479134758Y-138933462D03*
%TO.N,/multiplexers/keys/KEYS_4_0*%
X158618508Y-162745962D03*
%TO.N,/multiplexers/keys/KEYS_4_1*%
X189574758Y-162745962D03*
%TO.N,/multiplexers/keys/KEYS_4_2*%
X213124536Y-165436244D03*
%TO.N,/multiplexers/keys/KEYS_4_3*%
X231758248Y-169396962D03*
%TO.N,/multiplexers/keys/KEYS_4_4*%
X250391960Y-173357679D03*
%TO.N,/multiplexers/keys/KEYS_4_5*%
X269025672Y-177318397D03*
%TO.N,/multiplexers/keys/KEYS_4_7*%
X324216431Y-175715997D03*
%TO.N,/multiplexers/keys/KEYS_4_8*%
X342850143Y-171755279D03*
%TO.N,/multiplexers/keys/KEYS_4_9*%
X361483855Y-167794561D03*
%TO.N,/multiplexers/keys/KEYS_4_10*%
X380117567Y-163833844D03*
%TO.N,/multiplexers/keys/KEYS_4_11*%
X402934758Y-162745962D03*
%TO.N,/multiplexers/keys/KEYS_4_12*%
X429128508Y-162745962D03*
%TO.N,/multiplexers/keys/KEYS_4_13*%
X460084758Y-167508462D03*
%TO.N,/multiplexers/keys/KEYS_5_0*%
X151474758Y-181795962D03*
%TO.N,/multiplexers/keys/KEYS_5_1*%
X213822247Y-185060135D03*
%TO.N,/multiplexers/keys/KEYS_5_2*%
X246431242Y-191991391D03*
%TO.N,/multiplexers/keys/KEYS_5_3*%
X274381810Y-197932468D03*
%TO.N,/multiplexers/keys/KEYS_5_4*%
X335164791Y-192864439D03*
%TO.N,/multiplexers/keys/KEYS_5_5*%
X374761428Y-184447914D03*
%TO.N,/multiplexers/keys/KEYS_5_6*%
X441034758Y-186558462D03*
%TO.N,/multiplexers/keys/KEYS_5_7*%
X460084758Y-186558462D03*
%TO.N,/multiplexers/keys/KEYS_5_8*%
X479134758Y-186558462D03*
%TO.N,/multiplexers/keys/KEYS_4_6*%
X305582719Y-179676714D03*
%TD*%
D30*
%TO.N,+3V3*%
X366642977Y-148263110D02*
X366654956Y-148270890D01*
D31*
X228005515Y-86868786D02*
X229337263Y-87151857D01*
X405917958Y-144713962D02*
X407279458Y-144713962D01*
D32*
X386105400Y-129794000D02*
X384586600Y-129794000D01*
D30*
X145341958Y-82801462D02*
X145352058Y-82811562D01*
X210703551Y-83191139D02*
X210711331Y-83203118D01*
X473954458Y-139951462D02*
X473964558Y-139961562D01*
X201791936Y-125116991D02*
X201799716Y-125128970D01*
D31*
X154457958Y-125663962D02*
X155819458Y-125663962D01*
D30*
X423948208Y-163763962D02*
X423958308Y-163774062D01*
X438235708Y-144713962D02*
X438245808Y-144724062D01*
X330309347Y-194937238D02*
X330321326Y-194945018D01*
D31*
X262415172Y-176954035D02*
X263746920Y-177237106D01*
D30*
X320756408Y-138541013D02*
X320768387Y-138548793D01*
D31*
X251297654Y-91819683D02*
X252629402Y-92102754D01*
D30*
X300727275Y-181749513D02*
X300739254Y-181757293D01*
X179631958Y-125663962D02*
X179642058Y-125674062D01*
D32*
X319227200Y-145234600D02*
X320717100Y-145234600D01*
D30*
X207845784Y-165354953D02*
X207853564Y-165366932D01*
X189156958Y-81848962D02*
X189167058Y-81859062D01*
D31*
X201157898Y-144457811D02*
X202489646Y-144740882D01*
D30*
X233703221Y-112424356D02*
X233711001Y-112436335D01*
D31*
X406870458Y-81848962D02*
X408231958Y-81848962D01*
D30*
X454904458Y-187576462D02*
X454914558Y-187586562D01*
X349112216Y-88693726D02*
X349124195Y-88701506D01*
D31*
X178270458Y-125663962D02*
X179631958Y-125663962D01*
X467830458Y-120901462D02*
X469191958Y-120901462D01*
D30*
X155819458Y-125663962D02*
X155829558Y-125674062D01*
D31*
X346677517Y-152506900D02*
X348009265Y-152223828D01*
X213737762Y-108180567D02*
X215069510Y-108463638D01*
X300790948Y-142784803D02*
X302122696Y-142501731D01*
D30*
X179631958Y-144713962D02*
X179642058Y-144724062D01*
D31*
X178270458Y-144713962D02*
X179631958Y-144713962D01*
X305854617Y-97888413D02*
X307186365Y-97605341D01*
X237727612Y-132755355D02*
X239059360Y-133038426D01*
X362048222Y-110288579D02*
X363379970Y-110005507D01*
X436874208Y-144713962D02*
X438235708Y-144713962D01*
D30*
X464429458Y-101851462D02*
X464439558Y-101861562D01*
X337994699Y-173828078D02*
X338006678Y-173835858D01*
X376657543Y-126658860D02*
X376669522Y-126666640D01*
X388229458Y-144713962D02*
X388239558Y-144724062D01*
D31*
X299395527Y-182032585D02*
X300727275Y-181749513D01*
X168745458Y-81848962D02*
X170106958Y-81848962D01*
X200460188Y-124833920D02*
X201791936Y-125116991D01*
D30*
X416804458Y-125663962D02*
X416814558Y-125674062D01*
X193919458Y-103756462D02*
X193929558Y-103766562D01*
D31*
X154457958Y-106613962D02*
X155819458Y-106613962D01*
D30*
X383466958Y-103756462D02*
X383477058Y-103766562D01*
D31*
X396392958Y-163763962D02*
X397754458Y-163763962D01*
X328043805Y-156467618D02*
X329375553Y-156184546D01*
D32*
X225508900Y-137268000D02*
X224031800Y-137268000D01*
D31*
X458305458Y-82801462D02*
X459666958Y-82801462D01*
X368574236Y-186803785D02*
X369905984Y-186520713D01*
D30*
X329375553Y-156184546D02*
X329387532Y-156192326D01*
X459666958Y-82801462D02*
X459677058Y-82811562D01*
X389181958Y-81848962D02*
X389192058Y-81859062D01*
X407279458Y-144713962D02*
X407289558Y-144724062D01*
D31*
X429730458Y-106613962D02*
X431091958Y-106613962D01*
X183032958Y-163763962D02*
X184394458Y-163763962D01*
X439255458Y-125663962D02*
X440616958Y-125663962D01*
X401155458Y-106613962D02*
X402516958Y-106613962D01*
X422586708Y-163763962D02*
X423948208Y-163763962D01*
X347780468Y-88976798D02*
X349112216Y-88693726D01*
D30*
X363379970Y-110005507D02*
X363391949Y-110013287D01*
X358023831Y-130619578D02*
X358035810Y-130627358D01*
D31*
X192557958Y-103756462D02*
X193919458Y-103756462D01*
X328977599Y-195220310D02*
X330309347Y-194937238D01*
X365311229Y-148546182D02*
X366642977Y-148263110D01*
D30*
X221123358Y-148701600D02*
X221131138Y-148713579D01*
X239059360Y-133038426D02*
X239067140Y-133050405D01*
X402516958Y-106613962D02*
X402527058Y-106624062D01*
D31*
X207211747Y-184695773D02*
X208543495Y-184978844D01*
D30*
X307478834Y-121887660D02*
X307490813Y-121895440D01*
X427048200Y-123797000D02*
X427050200Y-123795000D01*
X184394458Y-163763962D02*
X184404558Y-163774062D01*
X375262123Y-165906643D02*
X375274102Y-165914423D01*
X435854458Y-187576462D02*
X435864558Y-187586562D01*
X174869458Y-106613962D02*
X174879558Y-106624062D01*
X164239000Y-123113800D02*
X164236400Y-123111200D01*
X339390120Y-134580296D02*
X339402099Y-134588076D01*
X408231958Y-81848962D02*
X408242058Y-81859062D01*
D31*
X387820458Y-81848962D02*
X389181958Y-81848962D01*
D30*
X397754458Y-125663962D02*
X397764558Y-125674062D01*
D31*
X173507958Y-106613962D02*
X174869458Y-106613962D01*
D30*
X148675708Y-144713962D02*
X148685808Y-144724062D01*
D31*
X251005185Y-116102002D02*
X252336933Y-116385073D01*
D30*
X208543495Y-184978844D02*
X208551275Y-184990823D01*
D31*
X472592958Y-187576462D02*
X473954458Y-187576462D01*
X243781460Y-172993317D02*
X245113208Y-173276388D01*
D30*
X245113208Y-173276388D02*
X245120988Y-173288367D01*
X170106958Y-81848962D02*
X170117058Y-81859062D01*
D31*
X373930375Y-166189715D02*
X375262123Y-165906643D01*
D30*
X473954458Y-187576462D02*
X473964558Y-187586562D01*
D31*
X324780798Y-118210015D02*
X326112546Y-117926943D01*
D30*
X344746258Y-113966225D02*
X344758237Y-113974005D01*
X239757070Y-152662318D02*
X239764850Y-152674297D01*
X320717100Y-145234600D02*
X320733500Y-145218200D01*
D31*
X415442958Y-125663962D02*
X416804458Y-125663962D01*
X225147748Y-169032600D02*
X226479496Y-169315671D01*
D30*
X384586600Y-129794000D02*
X384581400Y-129788800D01*
D31*
X143980458Y-82801462D02*
X145341958Y-82801462D01*
X269931366Y-95780401D02*
X271263114Y-96063472D01*
X453542958Y-168526462D02*
X454904458Y-168526462D01*
D30*
X469191958Y-120901462D02*
X469202058Y-120911562D01*
D31*
X356692083Y-130902650D02*
X358023831Y-130619578D01*
D30*
X356628411Y-169867360D02*
X356640390Y-169875140D01*
D31*
X232371473Y-112141285D02*
X233703221Y-112424356D01*
D30*
X307186365Y-97605341D02*
X307198344Y-97613121D01*
X248766300Y-143431200D02*
X248775300Y-143440200D01*
D31*
X463067958Y-101851462D02*
X464429458Y-101851462D01*
X375325795Y-126941932D02*
X376657543Y-126658860D01*
X309410094Y-160428335D02*
X310741842Y-160145263D01*
X306147086Y-122170732D02*
X307478834Y-121887660D01*
X269638897Y-120062720D02*
X270970645Y-120345791D01*
X267771310Y-197568106D02*
X269103058Y-197851177D01*
X336662951Y-174111150D02*
X337994699Y-173828078D01*
D30*
X226479496Y-169315671D02*
X226487276Y-169327650D01*
X263746920Y-177237106D02*
X263754700Y-177249085D01*
D32*
X247142000Y-143431200D02*
X248766300Y-143431200D01*
D31*
X396392958Y-125663962D02*
X397754458Y-125663962D01*
X382105458Y-103756462D02*
X383466958Y-103756462D01*
X152076708Y-163763962D02*
X153438208Y-163763962D01*
D30*
X397754458Y-163763962D02*
X397764558Y-163774062D01*
X319360987Y-177788796D02*
X319372966Y-177796576D01*
D31*
X238425322Y-152379247D02*
X239757070Y-152662318D01*
D30*
X241152490Y-191910100D02*
X241160270Y-191922079D01*
X454904458Y-168526462D02*
X454914558Y-168536562D01*
D31*
X219093900Y-128794638D02*
X220425648Y-129077709D01*
D30*
X270970645Y-120345791D02*
X270978425Y-120357770D01*
X252336933Y-116385073D02*
X252344713Y-116397052D01*
X229337263Y-87151857D02*
X229345043Y-87163836D01*
X302122696Y-142501731D02*
X302134675Y-142509511D01*
D31*
X219791610Y-148418529D02*
X221123358Y-148701600D01*
D30*
X326112546Y-117926943D02*
X326124525Y-117934723D01*
D31*
X206514036Y-165071882D02*
X207845784Y-165354953D01*
X239820742Y-191627029D02*
X241152490Y-191910100D01*
D32*
X165826600Y-123113800D02*
X164239000Y-123113800D01*
D30*
X146294458Y-182813962D02*
X146304558Y-182824062D01*
X369905984Y-186520713D02*
X369917963Y-186528493D01*
D31*
X366414180Y-85016081D02*
X367745928Y-84733009D01*
D30*
X325820077Y-93644623D02*
X325832056Y-93652403D01*
X153438208Y-163763962D02*
X153448308Y-163774062D01*
D31*
X318029239Y-178071868D02*
X319360987Y-177788796D01*
D30*
X258390782Y-156623035D02*
X258398562Y-156635014D01*
D31*
X434492958Y-187576462D02*
X435854458Y-187576462D01*
D30*
X155819458Y-106613962D02*
X155829558Y-106624062D01*
D31*
X257059034Y-156339964D02*
X258390782Y-156623035D01*
X355296663Y-170150432D02*
X356628411Y-169867360D01*
D30*
X220425648Y-129077709D02*
X220433428Y-129089688D01*
X257693071Y-136999144D02*
X257700851Y-137011123D01*
X431091958Y-106613962D02*
X431102058Y-106624062D01*
X425526200Y-123797000D02*
X427048200Y-123797000D01*
D31*
X472592958Y-139951462D02*
X473954458Y-139951462D01*
D30*
X252629402Y-92102754D02*
X252637182Y-92114733D01*
D31*
X209371803Y-82908068D02*
X210703551Y-83191139D01*
X338058372Y-134863368D02*
X339390120Y-134580296D01*
X256361323Y-136716073D02*
X257693071Y-136999144D01*
D30*
X224031800Y-137268000D02*
X224028000Y-137264200D01*
X310741842Y-160145263D02*
X310753821Y-160153043D01*
X215069510Y-108463638D02*
X215077290Y-108475617D01*
D31*
X343414510Y-114249297D02*
X344746258Y-113966225D01*
D30*
X348009265Y-152223828D02*
X348021244Y-152231608D01*
D31*
X144932958Y-182813962D02*
X146294458Y-182813962D01*
X386867958Y-144713962D02*
X388229458Y-144713962D01*
X324488329Y-93927695D02*
X325820077Y-93644623D01*
D30*
X440616958Y-125663962D02*
X440627058Y-125674062D01*
X367745928Y-84733009D02*
X367757907Y-84740789D01*
D31*
X319424660Y-138824085D02*
X320756408Y-138541013D01*
D30*
X202489646Y-144740882D02*
X202497426Y-144752861D01*
X271263114Y-96063472D02*
X271270894Y-96075451D01*
D31*
X453542958Y-187576462D02*
X454904458Y-187576462D01*
X187795458Y-81848962D02*
X189156958Y-81848962D01*
X147314208Y-144713962D02*
X148675708Y-144713962D01*
D30*
X269103058Y-197851177D02*
X269110838Y-197863156D01*
D31*
%TO.N,GND*%
X198196758Y-103697862D02*
X198196758Y-104672962D01*
D30*
X256622682Y-93888527D02*
X256624993Y-93892085D01*
D31*
X211250737Y-85234661D02*
X213369502Y-85685019D01*
X417764558Y-127549062D02*
X419930658Y-127549062D01*
D30*
X462793158Y-84686562D02*
X462801258Y-84678462D01*
D31*
X356891678Y-131841672D02*
X357098176Y-132813168D01*
D30*
X197045658Y-105641562D02*
X197053758Y-105633462D01*
D31*
X233533278Y-87983838D02*
X233330543Y-88937630D01*
D30*
X311560746Y-97612513D02*
X311564305Y-97614824D01*
D31*
X261889086Y-137831125D02*
X261686351Y-138784917D01*
D30*
X343764501Y-134587468D02*
X343768060Y-134589779D01*
D31*
X442513008Y-144655362D02*
X442513008Y-145630462D01*
X275166660Y-121177772D02*
X274963925Y-122131564D01*
X152953008Y-144655362D02*
X152953008Y-145630462D01*
D30*
X182758158Y-127549062D02*
X182766258Y-127540962D01*
D31*
X329177194Y-196159332D02*
X329383692Y-197130828D01*
X267571715Y-198507127D02*
X267365217Y-199478623D01*
D30*
X206482926Y-146526655D02*
X206485237Y-146530213D01*
D31*
X343561767Y-133633676D02*
X343764501Y-134587468D01*
X245660394Y-175319910D02*
X247779159Y-175770268D01*
D30*
X198196758Y-104672962D02*
X198199758Y-104675962D01*
D31*
X160096758Y-106555362D02*
X160096758Y-107530462D01*
X396392958Y-164723962D02*
X396392958Y-165717162D01*
X347980063Y-89915820D02*
X348186561Y-90887316D01*
X340721173Y-136224586D02*
X342839939Y-135774229D01*
D30*
X224418928Y-130863482D02*
X224421239Y-130867040D01*
X205785216Y-126902764D02*
X205787527Y-126906322D01*
D31*
X386867958Y-145673962D02*
X386867958Y-146667162D01*
D30*
X434218158Y-108499062D02*
X434226258Y-108490962D01*
D31*
X440131758Y-187517862D02*
X440131758Y-188492962D01*
X402031758Y-125605362D02*
X402031758Y-126580462D01*
X360800058Y-168920740D02*
X361002792Y-169874532D01*
X396392958Y-126623962D02*
X396392958Y-127617162D01*
D30*
X381031924Y-126666032D02*
X381035483Y-126668343D01*
X232003214Y-89645737D02*
X232012821Y-89639498D01*
D31*
X367551617Y-109058887D02*
X367754351Y-110012679D01*
D30*
X427074408Y-165649062D02*
X427082508Y-165640962D01*
X341444518Y-175022011D02*
X341450757Y-175012404D01*
D31*
X249309223Y-174108369D02*
X249106488Y-175062161D01*
D30*
X214696831Y-84976912D02*
X214699142Y-84980470D01*
D31*
X382105458Y-104716462D02*
X382105458Y-105709662D01*
X180592058Y-127549062D02*
X182758158Y-127549062D01*
X302058328Y-183393803D02*
X304177094Y-182943446D01*
D30*
X435369258Y-107530462D02*
X435372258Y-107533462D01*
D31*
X376593176Y-167550933D02*
X378711942Y-167100576D01*
D30*
X158945658Y-108499062D02*
X158953758Y-108490962D01*
D31*
X156779558Y-108499062D02*
X158945658Y-108499062D01*
D30*
X440131758Y-188492962D02*
X440134758Y-188495962D01*
D31*
X346077311Y-115610515D02*
X348196077Y-115160158D01*
D30*
X342839939Y-135774229D02*
X342846178Y-135764622D01*
X329269896Y-94838556D02*
X329276135Y-94828949D01*
X348196077Y-115160158D02*
X348202316Y-115150551D01*
X274963925Y-122131564D02*
X274966236Y-122135122D01*
D31*
X218894305Y-129733659D02*
X218687807Y-130705155D01*
X371237037Y-188165003D02*
X373355803Y-187714646D01*
D30*
X380107362Y-127852793D02*
X380113601Y-127843186D01*
X157715508Y-164680462D02*
X157718508Y-164683462D01*
D31*
X478231758Y-139892862D02*
X478231758Y-140867962D01*
D30*
X219062790Y-110249411D02*
X219065101Y-110252969D01*
X463944258Y-83717962D02*
X463947258Y-83720962D01*
D31*
X239606546Y-135081948D02*
X241725311Y-135532306D01*
X319624255Y-139763107D02*
X319830753Y-140734603D01*
X269650244Y-199894699D02*
X271769009Y-200345057D01*
D30*
X410405658Y-146599062D02*
X410413758Y-146590962D01*
D31*
X154457958Y-107573962D02*
X154457958Y-108567162D01*
X144932958Y-183773962D02*
X144932958Y-184767162D01*
X269731771Y-96719422D02*
X269525273Y-97690918D01*
X205987951Y-125948972D02*
X205785216Y-126902764D01*
D30*
X311853215Y-121894832D02*
X311856774Y-121897143D01*
D31*
X406794258Y-106555362D02*
X406794258Y-107530462D01*
D30*
X193434258Y-82765462D02*
X193437258Y-82768462D01*
X183909258Y-126580462D02*
X183912258Y-126583462D01*
X411358158Y-83734062D02*
X411366258Y-83725962D01*
D31*
X398714558Y-127549062D02*
X400880658Y-127549062D01*
X206685661Y-145572863D02*
X206482926Y-146526655D01*
D30*
X273636596Y-122839671D02*
X273646203Y-122833432D01*
D31*
X323532634Y-176842176D02*
X323735368Y-177795968D01*
X209172208Y-83847089D02*
X208965710Y-84818585D01*
X463067958Y-102811462D02*
X463067958Y-103804662D01*
D30*
X353486597Y-88700898D02*
X353490156Y-88703209D01*
D31*
X157715508Y-163705362D02*
X157715508Y-164680462D01*
X453542958Y-188536462D02*
X453542958Y-189529662D01*
D30*
X261686351Y-138784917D02*
X261688662Y-138788475D01*
X406794258Y-107530462D02*
X406797258Y-107533462D01*
D31*
X200260593Y-125772941D02*
X200054095Y-126744437D01*
X241699676Y-193953622D02*
X243818441Y-194403980D01*
X422586708Y-164723962D02*
X422586708Y-165717162D01*
X147314208Y-145673962D02*
X147314208Y-146667162D01*
X214899566Y-84023120D02*
X214696831Y-84976912D01*
X188671758Y-163705362D02*
X188671758Y-164680462D01*
X359354884Y-132263868D02*
X361473650Y-131813511D01*
X328243400Y-157406640D02*
X328449898Y-158378136D01*
X178270458Y-145673962D02*
X178270458Y-146667162D01*
X455864558Y-189461562D02*
X458030658Y-189461562D01*
X240304256Y-154705840D02*
X242423021Y-155156198D01*
X175829558Y-108499062D02*
X177995658Y-108499062D01*
D30*
X361002792Y-169874532D02*
X361006351Y-169876843D01*
D31*
X256859439Y-157278985D02*
X256652941Y-158250481D01*
D30*
X205155597Y-147234762D02*
X205165204Y-147228523D01*
X322810806Y-178982729D02*
X322817045Y-178973122D01*
X442513008Y-145630462D02*
X442516008Y-145633462D01*
X261056733Y-159116915D02*
X261066340Y-159110676D01*
X477080658Y-141836562D02*
X477088758Y-141828462D01*
X352383646Y-152231000D02*
X352387205Y-152233311D01*
X150571758Y-183730462D02*
X150574758Y-183733462D01*
D31*
X149635808Y-146599062D02*
X151801908Y-146599062D01*
X243953085Y-153494299D02*
X243750350Y-154448091D01*
X375525390Y-127880954D02*
X375731888Y-128852450D01*
X180592058Y-146599062D02*
X182758158Y-146599062D01*
D30*
X241725311Y-135532306D02*
X241734918Y-135526067D01*
X217735461Y-110957518D02*
X217745068Y-110951279D01*
D31*
X258240257Y-139042666D02*
X260359022Y-139493024D01*
D30*
X333749934Y-156191718D02*
X333753493Y-156194029D01*
X371017358Y-148270282D02*
X371020917Y-148272593D01*
D31*
X224621663Y-129909690D02*
X224418928Y-130863482D01*
D30*
X245145770Y-193695873D02*
X245148081Y-193699431D01*
X392506758Y-145630462D02*
X392509758Y-145633462D01*
D31*
X367974030Y-149907400D02*
X370092796Y-149457043D01*
X458305458Y-83761462D02*
X458305458Y-84754662D01*
D30*
X236369172Y-114918236D02*
X236378779Y-114911997D01*
D31*
X267942935Y-178069087D02*
X267740200Y-179022879D01*
X387744258Y-103697862D02*
X387744258Y-104672962D01*
X459181758Y-168467862D02*
X459181758Y-169442962D01*
X252884119Y-118428595D02*
X255002884Y-118878953D01*
X463944258Y-82742862D02*
X463944258Y-83717962D01*
D30*
X183909258Y-145630462D02*
X183912258Y-145633462D01*
X374280365Y-186527885D02*
X374283924Y-186530196D01*
X249106488Y-175062161D02*
X249108799Y-175065719D01*
D31*
X459181758Y-187517862D02*
X459181758Y-188492962D01*
X362195478Y-129672958D02*
X362398212Y-130626750D01*
X146302058Y-84686562D02*
X148468158Y-84686562D01*
X256161728Y-137655094D02*
X255955230Y-138626590D01*
X350443269Y-90338016D02*
X352562035Y-89887659D01*
D30*
X273929065Y-98557352D02*
X273938672Y-98551113D01*
D31*
X234250407Y-114467878D02*
X236369172Y-114918236D01*
X239621147Y-192566050D02*
X239414649Y-193537546D01*
X262215577Y-177893056D02*
X262009079Y-178864552D01*
D30*
X160096758Y-107530462D02*
X160099758Y-107533462D01*
D31*
X331640400Y-196581528D02*
X333759166Y-196131171D01*
D30*
X361473650Y-131813511D02*
X361479889Y-131803904D01*
D31*
X439195808Y-146599062D02*
X441361908Y-146599062D01*
D30*
X243818441Y-194403980D02*
X243828048Y-194397741D01*
D31*
X187795458Y-82808962D02*
X187795458Y-83802162D01*
X428225508Y-163705362D02*
X428225508Y-164680462D01*
D30*
X393459258Y-82765462D02*
X393462258Y-82768462D01*
D31*
X435369258Y-106555362D02*
X435369258Y-107530462D01*
X154457958Y-126623962D02*
X154457958Y-127617162D01*
X429730458Y-107573962D02*
X429730458Y-108567162D01*
D30*
X360078230Y-171061293D02*
X360084469Y-171051686D01*
D31*
X147254558Y-184699062D02*
X149420658Y-184699062D01*
D30*
X148468158Y-84686562D02*
X148476258Y-84678462D01*
D31*
X243581865Y-173932338D02*
X243375367Y-174903834D01*
X318228834Y-179010890D02*
X318435332Y-179982386D01*
D30*
X306497077Y-142508903D02*
X306500636Y-142511214D01*
D31*
X444894258Y-125605362D02*
X444894258Y-126580462D01*
X269439302Y-121001741D02*
X269232804Y-121973237D01*
X207012152Y-185634794D02*
X206805654Y-186606290D01*
X349340318Y-153868118D02*
X351459084Y-153417761D01*
X220972834Y-131121231D02*
X223091599Y-131571589D01*
D30*
X412509258Y-82765462D02*
X412512258Y-82768462D01*
X211839064Y-167140726D02*
X211841375Y-167144284D01*
X310928653Y-123081593D02*
X310934892Y-123071986D01*
D31*
X408239558Y-146599062D02*
X410405658Y-146599062D01*
D30*
X444894258Y-126580462D02*
X444897258Y-126583462D01*
D31*
X406870458Y-82808962D02*
X406870458Y-83802162D01*
X403477058Y-108499062D02*
X405643158Y-108499062D01*
D30*
X472318158Y-122786562D02*
X472326258Y-122778462D01*
D31*
X327151130Y-95288913D02*
X329269896Y-94838556D01*
X441577058Y-127549062D02*
X443743158Y-127549062D01*
X336862546Y-175050172D02*
X337069044Y-176021668D01*
D30*
X441361908Y-146599062D02*
X441370008Y-146590962D01*
X332825372Y-157378479D02*
X332831611Y-157368872D01*
D31*
X209090681Y-187022366D02*
X211209446Y-187472724D01*
D30*
X225116638Y-150487373D02*
X225118949Y-150490931D01*
D31*
X206314441Y-166010903D02*
X206107943Y-166982399D01*
D30*
X187520658Y-165649062D02*
X187528758Y-165640962D01*
X402031758Y-126580462D02*
X402034758Y-126583462D01*
D31*
X311358012Y-96658721D02*
X311560746Y-97612513D01*
X193434258Y-81790362D02*
X193434258Y-82765462D01*
D30*
X478231758Y-140867962D02*
X478234758Y-140870962D01*
X443743158Y-127549062D02*
X443751258Y-127540962D01*
D31*
X160096758Y-125605362D02*
X160096758Y-126580462D01*
D30*
X392308158Y-83734062D02*
X392316258Y-83725962D01*
D31*
X379433770Y-164960023D02*
X379636504Y-165913815D01*
X271810300Y-98106994D02*
X273929065Y-98557352D01*
X212739510Y-185810825D02*
X212536775Y-186764617D01*
X322087461Y-140185303D02*
X324206227Y-139734946D01*
D30*
X458030658Y-170411562D02*
X458038758Y-170403462D01*
X310636184Y-98799274D02*
X310642423Y-98789667D01*
D31*
X415442958Y-126623962D02*
X415442958Y-127617162D01*
X390142058Y-83734062D02*
X392308158Y-83734062D01*
X364711023Y-111649797D02*
X366829789Y-111199440D01*
D30*
X212536775Y-186764617D02*
X212539086Y-186768175D01*
D31*
X327443599Y-119571233D02*
X329562365Y-119120876D01*
X171067058Y-83734062D02*
X173233158Y-83734062D01*
X311650481Y-120941040D02*
X311853215Y-121894832D01*
D30*
X458030658Y-189461562D02*
X458038758Y-189453462D01*
D31*
X355496258Y-171089454D02*
X355702756Y-172060950D01*
X343614105Y-115188319D02*
X343820603Y-116159815D01*
D30*
X428225508Y-164680462D02*
X428228508Y-164683462D01*
X459181758Y-188492962D02*
X459184758Y-188495962D01*
D31*
X215616696Y-110507160D02*
X217735461Y-110957518D01*
D30*
X467555658Y-103736562D02*
X467563758Y-103728462D01*
X304177094Y-182943446D02*
X304183333Y-182933839D01*
X242423021Y-155156198D02*
X242432628Y-155149959D01*
X211209446Y-187472724D02*
X211219053Y-187466485D01*
D31*
X353283863Y-87747106D02*
X353486597Y-88700898D01*
X262586797Y-157455016D02*
X262384062Y-158408808D01*
D30*
X188671758Y-164680462D02*
X188674758Y-164683462D01*
X273096338Y-199636950D02*
X273098649Y-199640508D01*
D31*
X238225727Y-153318268D02*
X238019229Y-154289764D01*
X374077631Y-185574093D02*
X374280365Y-186527885D01*
D30*
X262384062Y-158408808D02*
X262386373Y-158412366D01*
D31*
X473469258Y-120842862D02*
X473469258Y-121817962D01*
D30*
X158945658Y-127549062D02*
X158953758Y-127540962D01*
D31*
X264294106Y-179280628D02*
X266412871Y-179730986D01*
X436814558Y-189461562D02*
X438980658Y-189461562D01*
D30*
X334683728Y-194944410D02*
X334687287Y-194946721D01*
D31*
X300990543Y-143723825D02*
X301197041Y-144695321D01*
X424908308Y-165649062D02*
X427074408Y-165649062D01*
X474914558Y-141836562D02*
X477080658Y-141836562D01*
X237899236Y-113256337D02*
X237696501Y-114210129D01*
X411556758Y-144655362D02*
X411556758Y-145630462D01*
X213538167Y-109119588D02*
X213331669Y-110091084D01*
X329991724Y-92698003D02*
X330194458Y-93651795D01*
D30*
X324206227Y-139734946D02*
X324212466Y-139725339D01*
X247779159Y-175770268D02*
X247788766Y-175764029D01*
X174384258Y-82765462D02*
X174387258Y-82768462D01*
X192283158Y-83734062D02*
X192291258Y-83725962D01*
X255295353Y-94596634D02*
X255304960Y-94590395D01*
X400880658Y-165649062D02*
X400888758Y-165640962D01*
D31*
X333547200Y-155237926D02*
X333749934Y-156191718D01*
X256825417Y-92934735D02*
X256622682Y-93888527D01*
X474914558Y-189461562D02*
X477080658Y-189461562D01*
X179146758Y-106555362D02*
X179146758Y-107530462D01*
X370814624Y-147316490D02*
X371017358Y-148270282D01*
X371917575Y-83786389D02*
X372120309Y-84740181D01*
X352180912Y-151277208D02*
X352383646Y-152231000D01*
X342166346Y-172881458D02*
X342369080Y-173835250D01*
X306054212Y-98827435D02*
X306260710Y-99798931D01*
X387820458Y-82808962D02*
X387820458Y-83802162D01*
X243255375Y-133870407D02*
X243052640Y-134824199D01*
D30*
X315116223Y-160152435D02*
X315119782Y-160154746D01*
D31*
X304898922Y-180802893D02*
X305101656Y-181756685D01*
X368773831Y-187742807D02*
X368980329Y-188714303D01*
X453542958Y-169486462D02*
X453542958Y-170479662D01*
X183909258Y-144655362D02*
X183909258Y-145630462D01*
X478231758Y-187517862D02*
X478231758Y-188492962D01*
D30*
X255002884Y-118878953D02*
X255012491Y-118872714D01*
X149420658Y-184699062D02*
X149428758Y-184690962D01*
D31*
X348917905Y-113019605D02*
X349120639Y-113973397D01*
D30*
X366829789Y-111199440D02*
X366836028Y-111189833D01*
D31*
X203036832Y-146784404D02*
X205155597Y-147234762D01*
X200958303Y-145396832D02*
X200751805Y-146368328D01*
X192557958Y-104716462D02*
X192557958Y-105709662D01*
D30*
X223789309Y-151195480D02*
X223798916Y-151189241D01*
D31*
X250805590Y-117041023D02*
X250599092Y-118012519D01*
X154398308Y-165649062D02*
X156564408Y-165649062D01*
X183909258Y-125605362D02*
X183909258Y-126580462D01*
X149619258Y-82742862D02*
X149619258Y-83717962D01*
D30*
X305101656Y-181756685D02*
X305105215Y-181758996D01*
X237696501Y-114210129D02*
X237698812Y-114213687D01*
X152953008Y-145630462D02*
X152956008Y-145633462D01*
X370092796Y-149457043D02*
X370099035Y-149447436D01*
X156564408Y-165649062D02*
X156572508Y-165640962D01*
X213369502Y-85685019D02*
X213379109Y-85678780D01*
D31*
X303453749Y-144146021D02*
X305572515Y-143695664D01*
D30*
X151801908Y-146599062D02*
X151810008Y-146590962D01*
D31*
X330706606Y-157828836D02*
X332825372Y-157378479D01*
X185354558Y-165649062D02*
X187520658Y-165649062D01*
D30*
X230472776Y-171101444D02*
X230475087Y-171105002D01*
X204457887Y-127610871D02*
X204467494Y-127604632D01*
X330486927Y-117934115D02*
X330490486Y-117936426D01*
D31*
X455864558Y-170411562D02*
X458030658Y-170411562D01*
D30*
X260359022Y-139493024D02*
X260368629Y-139486785D01*
D31*
X314913489Y-159198643D02*
X315116223Y-160152435D01*
X467830458Y-121861462D02*
X467830458Y-122854662D01*
D30*
X468706758Y-102767962D02*
X468709758Y-102770962D01*
X271769009Y-200345057D02*
X271778616Y-200338818D01*
X305572515Y-143695664D02*
X305578754Y-143686057D01*
D31*
X219265525Y-109295619D02*
X219062790Y-110249411D01*
D30*
X210511735Y-167848833D02*
X210521342Y-167842594D01*
D31*
X377988596Y-128303150D02*
X380107362Y-127852793D01*
X219592015Y-149357550D02*
X219385517Y-150329046D01*
X432052058Y-108499062D02*
X434218158Y-108499062D01*
X338257967Y-135802390D02*
X338464465Y-136773886D01*
X421081758Y-125605362D02*
X421081758Y-126580462D01*
X178270458Y-126623962D02*
X178270458Y-127617162D01*
D30*
X438980658Y-189461562D02*
X438988758Y-189453462D01*
D31*
X174384258Y-81790362D02*
X174384258Y-82765462D01*
D30*
X402031758Y-164680462D02*
X402034758Y-164683462D01*
D31*
X150571758Y-182755362D02*
X150571758Y-183730462D01*
D30*
X149619258Y-83717962D02*
X149622258Y-83720962D01*
D31*
X392506758Y-144655362D02*
X392506758Y-145630462D01*
D30*
X342369080Y-173835250D02*
X342372639Y-173837561D01*
D31*
X237528017Y-133694376D02*
X237321519Y-134665872D01*
D30*
X351459084Y-153417761D02*
X351465323Y-153408154D01*
D31*
X346877112Y-153445922D02*
X347083610Y-154417418D01*
X330284193Y-116980323D02*
X330486927Y-117934115D01*
X208392970Y-167398475D02*
X210511735Y-167848833D01*
D30*
X266412871Y-179730986D02*
X266422478Y-179724747D01*
X256330213Y-118170846D02*
X256332524Y-118174404D01*
X177995658Y-108499062D02*
X178003758Y-108490962D01*
D31*
X362247817Y-111227601D02*
X362454315Y-112199097D01*
D30*
X243750350Y-154448091D02*
X243752661Y-154451649D01*
D31*
X472592958Y-140911462D02*
X472592958Y-141904662D01*
D30*
X160096758Y-126580462D02*
X160099758Y-126583462D01*
X173233158Y-83734062D02*
X173241258Y-83725962D01*
D31*
X402031758Y-163705362D02*
X402031758Y-164680462D01*
X357959464Y-171511650D02*
X360078230Y-171061293D01*
D30*
X372120309Y-84740181D02*
X372123868Y-84742492D01*
D31*
X320692040Y-179433086D02*
X322810806Y-178982729D01*
D30*
X323735368Y-177795968D02*
X323738927Y-177798279D01*
D31*
X324687924Y-94866717D02*
X324894422Y-95838213D01*
X202339122Y-127160513D02*
X204457887Y-127610871D01*
X308809887Y-123531950D02*
X310928653Y-123081593D01*
X401155458Y-107573962D02*
X401155458Y-108567162D01*
X183032958Y-164723962D02*
X183032958Y-165717162D01*
D30*
X421081758Y-126580462D02*
X421084758Y-126583462D01*
X349120639Y-113973397D02*
X349124198Y-113975708D01*
D31*
X143980458Y-83761462D02*
X143980458Y-84754662D01*
X225319373Y-149533581D02*
X225116638Y-150487373D01*
D30*
X379636504Y-165913815D02*
X379640063Y-165916126D01*
X243052640Y-134824199D02*
X243054951Y-134827757D01*
D31*
X369076981Y-86377299D02*
X371195747Y-85926942D01*
X439255458Y-126623962D02*
X439255458Y-127617162D01*
X256532948Y-117217054D02*
X256330213Y-118170846D01*
D30*
X367754351Y-110012679D02*
X367757910Y-110014990D01*
D31*
X212041799Y-166186934D02*
X211839064Y-167140726D01*
X271517831Y-122389313D02*
X273636596Y-122839671D01*
D30*
X325130789Y-138548185D02*
X325134348Y-138550496D01*
X459181758Y-169442962D02*
X459184758Y-169445962D01*
X233330543Y-88937630D02*
X233332854Y-88941188D01*
D31*
X393459258Y-81790362D02*
X393459258Y-82765462D01*
D30*
X400880658Y-127549062D02*
X400888758Y-127540962D01*
D31*
X173507958Y-107573962D02*
X173507958Y-108567162D01*
X221670544Y-150745122D02*
X223789309Y-151195480D01*
X227805920Y-87807807D02*
X227599422Y-88779303D01*
X334480994Y-193990618D02*
X334683728Y-194944410D01*
D30*
X391355658Y-146599062D02*
X391363758Y-146590962D01*
D31*
X258937968Y-158666557D02*
X261056733Y-159116915D01*
D30*
X419930658Y-127549062D02*
X419938758Y-127540962D01*
D31*
X472592958Y-188536462D02*
X472592958Y-189529662D01*
X324928055Y-137594393D02*
X325130789Y-138548185D01*
X253176588Y-94146276D02*
X255295353Y-94596634D01*
D30*
X229145447Y-171809551D02*
X229155054Y-171803312D01*
X411556758Y-145630462D02*
X411559758Y-145633462D01*
D31*
X436874208Y-145673962D02*
X436874208Y-146667162D01*
X224948153Y-169971621D02*
X224741655Y-170943117D01*
D30*
X179146758Y-107530462D02*
X179149758Y-107533462D01*
D31*
X194879558Y-105641562D02*
X197045658Y-105641562D01*
X306346681Y-123109754D02*
X306553179Y-124081250D01*
D30*
X405643158Y-108499062D02*
X405651258Y-108490962D01*
D31*
X312072895Y-161789553D02*
X314191661Y-161339196D01*
X409192058Y-83734062D02*
X411358158Y-83734062D01*
X384427058Y-105641562D02*
X386593158Y-105641562D01*
X405917958Y-145673962D02*
X405917958Y-146667162D01*
X245348505Y-192742081D02*
X245145770Y-193695873D01*
X275459129Y-96895453D02*
X275256394Y-97849245D01*
D30*
X182758158Y-146599062D02*
X182766258Y-146590962D01*
D31*
X152076708Y-164723962D02*
X152076708Y-165717162D01*
X470152058Y-122786562D02*
X472318158Y-122786562D01*
D30*
X362398212Y-130626750D02*
X362401771Y-130629061D01*
D31*
X465389558Y-103736562D02*
X467555658Y-103736562D01*
X232171878Y-113080306D02*
X231965380Y-114051802D01*
X230675511Y-170147652D02*
X230472776Y-171101444D01*
X190117058Y-83734062D02*
X192283158Y-83734062D01*
D30*
X386593158Y-105641562D02*
X386601258Y-105633462D01*
X352562035Y-89887659D02*
X352568274Y-89878052D01*
X478231758Y-188492962D02*
X478234758Y-188495962D01*
D31*
X299595122Y-182971607D02*
X299801620Y-183943103D01*
X398714558Y-165649062D02*
X400880658Y-165649062D01*
D30*
X223091599Y-131571589D02*
X223101206Y-131565350D01*
D31*
X273299073Y-198683158D02*
X273096338Y-199636950D01*
D30*
X314191661Y-161339196D02*
X314197900Y-161329589D01*
D31*
X229884449Y-89195379D02*
X232003214Y-89645737D01*
D30*
X267740200Y-179022879D02*
X267742511Y-179026437D01*
X387744258Y-104672962D02*
X387747258Y-104675962D01*
X329562365Y-119120876D02*
X329568604Y-119111269D01*
X473469258Y-121817962D02*
X473472258Y-121820962D01*
D31*
X339325752Y-175472368D02*
X341444518Y-175022011D01*
D30*
X333759166Y-196131171D02*
X333765405Y-196121564D01*
D31*
X309609689Y-161367357D02*
X309816187Y-162338853D01*
X434492958Y-188536462D02*
X434492958Y-189529662D01*
X251098059Y-92758704D02*
X250891561Y-93730200D01*
X306294343Y-141555111D02*
X306497077Y-142508903D01*
D30*
X330194458Y-93651795D02*
X330198017Y-93654106D01*
D31*
X412509258Y-81790362D02*
X412509258Y-82765462D01*
D30*
X371195747Y-85926942D02*
X371201986Y-85917335D01*
X378711942Y-167100576D02*
X378718181Y-167090969D01*
D31*
X168745458Y-82808962D02*
X168745458Y-83802162D01*
X468706758Y-101792862D02*
X468706758Y-102767962D01*
X460627058Y-84686562D02*
X462793158Y-84686562D01*
X324980393Y-119149037D02*
X325186891Y-120120533D01*
X374129970Y-167128737D02*
X374336468Y-168100233D01*
D30*
X477080658Y-189461562D02*
X477088758Y-189453462D01*
X373355803Y-187714646D02*
X373362042Y-187705039D01*
D31*
X308517418Y-99249631D02*
X310636184Y-98799274D01*
X366613775Y-85955103D02*
X366820273Y-86926599D01*
X156779558Y-127549062D02*
X158945658Y-127549062D01*
D30*
X275256394Y-97849245D02*
X275258705Y-97852803D01*
D31*
X389189558Y-146599062D02*
X391355658Y-146599062D01*
X380829190Y-125712240D02*
X381031924Y-126666032D01*
X365510824Y-149485204D02*
X365717322Y-150456700D01*
X227026682Y-171359193D02*
X229145447Y-171809551D01*
D30*
%TO.N,/multiplexers/keys/KEYS_0_0*%
X150521658Y-81782862D02*
X150522258Y-81783462D01*
X149617258Y-81780862D02*
X149619258Y-81782862D01*
X149619258Y-81782862D02*
X150521658Y-81782862D01*
X148577858Y-81780862D02*
X149617258Y-81780862D01*
%TO.N,/multiplexers/keys/KEYS_0_1*%
X173342858Y-80828362D02*
X174382258Y-80828362D01*
X174384258Y-80830362D02*
X175286658Y-80830362D01*
X174382258Y-80828362D02*
X174384258Y-80830362D01*
X175286658Y-80830362D02*
X175287258Y-80830962D01*
%TO.N,/multiplexers/keys/KEYS_0_2*%
X193434258Y-80830362D02*
X194336658Y-80830362D01*
X194336658Y-80830362D02*
X194337258Y-80830962D01*
X192392858Y-80828362D02*
X193432258Y-80828362D01*
X193432258Y-80828362D02*
X193434258Y-80830362D01*
%TO.N,/multiplexers/keys/KEYS_0_3*%
X215981841Y-83271718D02*
X215982303Y-83272430D01*
X214080934Y-82865623D02*
X215097620Y-83081727D01*
X215097620Y-83081727D02*
X215099161Y-83084099D01*
X215099161Y-83084099D02*
X215981841Y-83271718D01*
%TO.N,/multiplexers/keys/KEYS_0_4*%
X232714646Y-86826341D02*
X233731332Y-87042445D01*
X233731332Y-87042445D02*
X233732873Y-87044817D01*
X233732873Y-87044817D02*
X234615553Y-87232436D01*
X234615553Y-87232436D02*
X234616015Y-87233148D01*
%TO.N,/multiplexers/keys/KEYS_0_5*%
X257023471Y-91993342D02*
X257025012Y-91995714D01*
X257907692Y-92183333D02*
X257908154Y-92184045D01*
X257025012Y-91995714D02*
X257907692Y-92183333D01*
X256006785Y-91777238D02*
X257023471Y-91993342D01*
%TO.N,/multiplexers/keys/KEYS_0_6*%
X275658724Y-95956432D02*
X276541404Y-96144051D01*
X276541404Y-96144051D02*
X276541866Y-96144763D01*
X274640497Y-95737956D02*
X275657183Y-95954060D01*
X275657183Y-95954060D02*
X275658724Y-95956432D01*
%TO.N,/multiplexers/keys/KEYS_0_7*%
X311156044Y-95718159D02*
X311158416Y-95719699D01*
X312041097Y-95532080D02*
X312041809Y-95532542D01*
X310139358Y-95934262D02*
X311156044Y-95718159D01*
X311158416Y-95719699D02*
X312041097Y-95532080D01*
%TO.N,/multiplexers/keys/KEYS_0_8*%
X328773070Y-91973544D02*
X329789756Y-91757441D01*
X330674809Y-91571362D02*
X330675521Y-91571824D01*
X329792128Y-91758981D02*
X330674809Y-91571362D01*
X329789756Y-91757441D02*
X329792128Y-91758981D01*
%TO.N,/multiplexers/keys/KEYS_0_9*%
X353966948Y-86620465D02*
X353967660Y-86620927D01*
X353084267Y-86808084D02*
X353966948Y-86620465D01*
X353081895Y-86806544D02*
X353084267Y-86808084D01*
X352065209Y-87022647D02*
X353081895Y-86806544D01*
%TO.N,/multiplexers/keys/KEYS_0_10*%
X372600660Y-82659748D02*
X372601372Y-82660210D01*
X371715607Y-82845827D02*
X371717979Y-82847367D01*
X371717979Y-82847367D02*
X372600660Y-82659748D01*
X370698921Y-83061930D02*
X371715607Y-82845827D01*
%TO.N,/multiplexers/keys/KEYS_0_11*%
X393459258Y-80830362D02*
X394361658Y-80830362D01*
X394361658Y-80830362D02*
X394362258Y-80830962D01*
X393457258Y-80828362D02*
X393459258Y-80830362D01*
X392417858Y-80828362D02*
X393457258Y-80828362D01*
%TO.N,/multiplexers/keys/KEYS_0_12*%
X411467858Y-80828362D02*
X412507258Y-80828362D01*
X412509258Y-80830362D02*
X413411658Y-80830362D01*
X413411658Y-80830362D02*
X413412258Y-80830962D01*
X412507258Y-80828362D02*
X412509258Y-80830362D01*
%TO.N,/multiplexers/keys/KEYS_1_0*%
X160094758Y-105593362D02*
X160096758Y-105595362D01*
X160096758Y-105595362D02*
X160999158Y-105595362D01*
X160999158Y-105595362D02*
X160999758Y-105595962D01*
X159055358Y-105593362D02*
X160094758Y-105593362D01*
%TO.N,/multiplexers/keys/KEYS_0_13*%
X464846658Y-81782862D02*
X464847258Y-81783462D01*
X463944258Y-81782862D02*
X464846658Y-81782862D01*
X462902858Y-81780862D02*
X463942258Y-81780862D01*
X463942258Y-81780862D02*
X463944258Y-81782862D01*
%TO.N,/multiplexers/keys/KEYS_1_1*%
X180049158Y-105595362D02*
X180049758Y-105595962D01*
X179144758Y-105593362D02*
X179146758Y-105595362D01*
X178105358Y-105593362D02*
X179144758Y-105593362D01*
X179146758Y-105595362D02*
X180049158Y-105595362D01*
%TO.N,/multiplexers/keys/KEYS_1_2*%
X199099158Y-102737862D02*
X199099758Y-102738462D01*
X198194758Y-102735862D02*
X198196758Y-102737862D01*
X198196758Y-102737862D02*
X199099158Y-102737862D01*
X197155358Y-102735862D02*
X198194758Y-102735862D01*
%TO.N,/multiplexers/keys/KEYS_1_3*%
X219463579Y-108354226D02*
X219465120Y-108356598D01*
X218446893Y-108138122D02*
X219463579Y-108354226D01*
X219465120Y-108356598D02*
X220347800Y-108544217D01*
X220347800Y-108544217D02*
X220348262Y-108544929D01*
%TO.N,/multiplexers/keys/KEYS_1_4*%
X238098831Y-112317316D02*
X238981511Y-112504935D01*
X238097290Y-112314944D02*
X238098831Y-112317316D01*
X237080604Y-112098840D02*
X238097290Y-112314944D01*
X238981511Y-112504935D02*
X238981973Y-112505647D01*
%TO.N,/multiplexers/keys/KEYS_1_5*%
X257615223Y-116465652D02*
X257615685Y-116466364D01*
X256731002Y-116275661D02*
X256732543Y-116278033D01*
X256732543Y-116278033D02*
X257615223Y-116465652D01*
X255714316Y-116059557D02*
X256731002Y-116275661D01*
%TO.N,/multiplexers/keys/KEYS_1_6*%
X275366255Y-120238751D02*
X276248935Y-120426370D01*
X276248935Y-120426370D02*
X276249397Y-120427082D01*
X274348028Y-120020275D02*
X275364714Y-120236379D01*
X275364714Y-120236379D02*
X275366255Y-120238751D01*
%TO.N,/multiplexers/keys/KEYS_1_7*%
X312333566Y-119814399D02*
X312334278Y-119814861D01*
X311448513Y-120000478D02*
X311450885Y-120002018D01*
X311450885Y-120002018D02*
X312333566Y-119814399D01*
X310431827Y-120216581D02*
X311448513Y-120000478D01*
%TO.N,/multiplexers/keys/KEYS_1_8*%
X330967278Y-115853682D02*
X330967990Y-115854144D01*
X330084597Y-116041301D02*
X330967278Y-115853682D01*
X329065539Y-116255864D02*
X330082225Y-116039761D01*
X330082225Y-116039761D02*
X330084597Y-116041301D01*
%TO.N,/multiplexers/keys/KEYS_1_9*%
X348718309Y-112080583D02*
X349600990Y-111892964D01*
X348715937Y-112079043D02*
X348718309Y-112080583D01*
X347699251Y-112295146D02*
X348715937Y-112079043D01*
X349600990Y-111892964D02*
X349601702Y-111893426D01*
%TO.N,/multiplexers/keys/KEYS_1_10*%
X368234702Y-107932246D02*
X368235414Y-107932708D01*
X367349649Y-108118325D02*
X367352021Y-108119865D01*
X367352021Y-108119865D02*
X368234702Y-107932246D01*
X366332963Y-108334428D02*
X367349649Y-108118325D01*
%TO.N,/multiplexers/keys/KEYS_1_11*%
X386702858Y-102735862D02*
X387742258Y-102735862D01*
X387744258Y-102737862D02*
X388646658Y-102737862D01*
X388646658Y-102737862D02*
X388647258Y-102738462D01*
X387742258Y-102735862D02*
X387744258Y-102737862D01*
%TO.N,/multiplexers/keys/KEYS_1_12*%
X405752858Y-105593362D02*
X406792258Y-105593362D01*
X406794258Y-105595362D02*
X407696658Y-105595362D01*
X407696658Y-105595362D02*
X407697258Y-105595962D01*
X406792258Y-105593362D02*
X406794258Y-105595362D01*
%TO.N,/multiplexers/keys/KEYS_1_13*%
X434327858Y-105593362D02*
X435367258Y-105593362D01*
X435369258Y-105595362D02*
X436271658Y-105595362D01*
X436271658Y-105595362D02*
X436272258Y-105595962D01*
X435367258Y-105593362D02*
X435369258Y-105595362D01*
%TO.N,/multiplexers/keys/KEYS_1_14*%
X468704758Y-100830862D02*
X468706758Y-100832862D01*
X467665358Y-100830862D02*
X468704758Y-100830862D01*
X468706758Y-100832862D02*
X469609158Y-100832862D01*
X469609158Y-100832862D02*
X469609758Y-100833462D01*
%TO.N,/multiplexers/keys/KEYS_2_0*%
X159055358Y-124643362D02*
X160094758Y-124643362D01*
X160999158Y-124645362D02*
X160999758Y-124645962D01*
X160096758Y-124645362D02*
X160999158Y-124645362D01*
X160094758Y-124643362D02*
X160096758Y-124645362D01*
%TO.N,/multiplexers/keys/KEYS_2_1*%
X183907258Y-124643362D02*
X183909258Y-124645362D01*
X182867858Y-124643362D02*
X183907258Y-124643362D01*
X183909258Y-124645362D02*
X184811658Y-124645362D01*
X184811658Y-124645362D02*
X184812258Y-124645962D01*
%TO.N,/multiplexers/keys/KEYS_2_2*%
X207070226Y-125197570D02*
X207070688Y-125198282D01*
X206186005Y-125007579D02*
X206187546Y-125009951D01*
X205169319Y-124791475D02*
X206186005Y-125007579D01*
X206187546Y-125009951D02*
X207070226Y-125197570D01*
%TO.N,/multiplexers/keys/KEYS_2_3*%
X225703938Y-129158288D02*
X225704400Y-129159000D01*
X223803031Y-128752193D02*
X224819717Y-128968297D01*
X224821258Y-128970669D02*
X225703938Y-129158288D01*
X224819717Y-128968297D02*
X224821258Y-128970669D01*
%TO.N,/multiplexers/keys/KEYS_2_4*%
X244337650Y-133119005D02*
X244338112Y-133119717D01*
X242436743Y-132712910D02*
X243453429Y-132929014D01*
X243454970Y-132931386D02*
X244337650Y-133119005D01*
X243453429Y-132929014D02*
X243454970Y-132931386D01*
%TO.N,/multiplexers/keys/KEYS_2_5*%
X262087140Y-136889732D02*
X262088681Y-136892104D01*
X261070454Y-136673628D02*
X262087140Y-136889732D01*
X262971361Y-137079723D02*
X262971823Y-137080435D01*
X262088681Y-136892104D02*
X262971361Y-137079723D01*
%TO.N,/multiplexers/keys/KEYS_2_6*%
X306977428Y-140428470D02*
X306978140Y-140428932D01*
X306094747Y-140616089D02*
X306977428Y-140428470D01*
X306092375Y-140614549D02*
X306094747Y-140616089D01*
X305075689Y-140830652D02*
X306092375Y-140614549D01*
%TO.N,/multiplexers/keys/KEYS_2_7*%
X323709401Y-136869934D02*
X324726087Y-136653831D01*
X324728459Y-136655371D02*
X325611140Y-136467752D01*
X324726087Y-136653831D02*
X324728459Y-136655371D01*
X325611140Y-136467752D02*
X325611852Y-136468214D01*
%TO.N,/multiplexers/keys/KEYS_2_8*%
X343362171Y-132694654D02*
X344244852Y-132507035D01*
X343359799Y-132693114D02*
X343362171Y-132694654D01*
X342343113Y-132909217D02*
X343359799Y-132693114D01*
X344244852Y-132507035D02*
X344245564Y-132507497D01*
%TO.N,/multiplexers/keys/KEYS_2_9*%
X361995882Y-128733936D02*
X362878563Y-128546317D01*
X361993510Y-128732396D02*
X361995882Y-128733936D01*
X360976824Y-128948499D02*
X361993510Y-128732396D01*
X362878563Y-128546317D02*
X362879275Y-128546779D01*
%TO.N,/multiplexers/keys/KEYS_2_10*%
X379610536Y-124987781D02*
X380627222Y-124771678D01*
X381512275Y-124585599D02*
X381512987Y-124586061D01*
X380627222Y-124771678D02*
X380629594Y-124773218D01*
X380629594Y-124773218D02*
X381512275Y-124585599D01*
%TO.N,/multiplexers/keys/KEYS_2_11*%
X402031758Y-124645362D02*
X402934158Y-124645362D01*
X402934158Y-124645362D02*
X402934758Y-124645962D01*
X402029758Y-124643362D02*
X402031758Y-124645362D01*
X400990358Y-124643362D02*
X402029758Y-124643362D01*
%TO.N,/multiplexers/keys/KEYS_2_12*%
X421984158Y-124645362D02*
X421984758Y-124645962D01*
X421079758Y-124643362D02*
X421081758Y-124645362D01*
X420040358Y-124643362D02*
X421079758Y-124643362D01*
X421081758Y-124645362D02*
X421984158Y-124645362D01*
%TO.N,/multiplexers/keys/KEYS_2_13*%
X444892258Y-124643362D02*
X444894258Y-124645362D01*
X444894258Y-124645362D02*
X445796658Y-124645362D01*
X443852858Y-124643362D02*
X444892258Y-124643362D01*
X445796658Y-124645362D02*
X445797258Y-124645962D01*
%TO.N,/multiplexers/keys/KEYS_2_14*%
X473467258Y-119880862D02*
X473469258Y-119882862D01*
X472427858Y-119880862D02*
X473467258Y-119880862D01*
X473469258Y-119882862D02*
X474371658Y-119882862D01*
X474371658Y-119882862D02*
X474372258Y-119883462D01*
%TO.N,/multiplexers/keys/KEYS_3_0*%
X152953008Y-143695362D02*
X153855408Y-143695362D01*
X153855408Y-143695362D02*
X153856008Y-143695962D01*
X152951008Y-143693362D02*
X152953008Y-143695362D01*
X151911608Y-143693362D02*
X152951008Y-143693362D01*
%TO.N,/multiplexers/keys/KEYS_3_1*%
X183907258Y-143693362D02*
X183909258Y-143695362D01*
X184811658Y-143695362D02*
X184812258Y-143695962D01*
X182867858Y-143693362D02*
X183907258Y-143693362D01*
X183909258Y-143695362D02*
X184811658Y-143695362D01*
%TO.N,/multiplexers/keys/KEYS_3_2*%
X205867029Y-144415366D02*
X206883715Y-144631470D01*
X207767936Y-144821461D02*
X207768398Y-144822173D01*
X206883715Y-144631470D02*
X206885256Y-144633842D01*
X206885256Y-144633842D02*
X207767936Y-144821461D01*
%TO.N,/multiplexers/keys/KEYS_3_3*%
X224500741Y-148376084D02*
X225517427Y-148592188D01*
X225517427Y-148592188D02*
X225518968Y-148594560D01*
X225518968Y-148594560D02*
X226401648Y-148782179D01*
X226401648Y-148782179D02*
X226402110Y-148782891D01*
%TO.N,/multiplexers/keys/KEYS_3_4*%
X244152680Y-152555278D02*
X245035360Y-152742897D01*
X245035360Y-152742897D02*
X245035822Y-152743609D01*
X244151139Y-152552906D02*
X244152680Y-152555278D01*
X243134453Y-152336802D02*
X244151139Y-152552906D01*
%TO.N,/multiplexers/keys/KEYS_3_5*%
X263669072Y-156703614D02*
X263669534Y-156704326D01*
X261768165Y-156297519D02*
X262784851Y-156513623D01*
X262784851Y-156513623D02*
X262786392Y-156515995D01*
X262786392Y-156515995D02*
X263669072Y-156703614D01*
%TO.N,/multiplexers/keys/KEYS_3_6*%
X313694835Y-158474184D02*
X314711521Y-158258081D01*
X315596574Y-158072002D02*
X315597286Y-158072464D01*
X314711521Y-158258081D02*
X314713893Y-158259621D01*
X314713893Y-158259621D02*
X315596574Y-158072002D01*
%TO.N,/multiplexers/keys/KEYS_3_7*%
X333345232Y-154297364D02*
X333347604Y-154298904D01*
X332328546Y-154513467D02*
X333345232Y-154297364D01*
X334230285Y-154111285D02*
X334230997Y-154111747D01*
X333347604Y-154298904D02*
X334230285Y-154111285D01*
%TO.N,/multiplexers/keys/KEYS_3_8*%
X351981316Y-150338186D02*
X352863997Y-150150567D01*
X350962258Y-150552749D02*
X351978944Y-150336646D01*
X352863997Y-150150567D02*
X352864709Y-150151029D01*
X351978944Y-150336646D02*
X351981316Y-150338186D01*
%TO.N,/multiplexers/keys/KEYS_3_9*%
X370612656Y-146375928D02*
X370615028Y-146377468D01*
X371497709Y-146189849D02*
X371498421Y-146190311D01*
X370615028Y-146377468D02*
X371497709Y-146189849D01*
X369595970Y-146592031D02*
X370612656Y-146375928D01*
%TO.N,/multiplexers/keys/KEYS_3_10*%
X393409158Y-143695362D02*
X393409758Y-143695962D01*
X392504758Y-143693362D02*
X392506758Y-143695362D01*
X392506758Y-143695362D02*
X393409158Y-143695362D01*
X391465358Y-143693362D02*
X392504758Y-143693362D01*
%TO.N,/multiplexers/keys/KEYS_3_11*%
X411554758Y-143693362D02*
X411556758Y-143695362D01*
X410515358Y-143693362D02*
X411554758Y-143693362D01*
X412459158Y-143695362D02*
X412459758Y-143695962D01*
X411556758Y-143695362D02*
X412459158Y-143695362D01*
%TO.N,/multiplexers/keys/KEYS_3_12*%
X441471608Y-143693362D02*
X442511008Y-143693362D01*
X442511008Y-143693362D02*
X442513008Y-143695362D01*
X443415408Y-143695362D02*
X443416008Y-143695962D01*
X442513008Y-143695362D02*
X443415408Y-143695362D01*
%TO.N,/multiplexers/keys/KEYS_3_13*%
X479134158Y-138932862D02*
X479134758Y-138933462D01*
X477190358Y-138930862D02*
X478229758Y-138930862D01*
X478229758Y-138930862D02*
X478231758Y-138932862D01*
X478231758Y-138932862D02*
X479134158Y-138932862D01*
%TO.N,/multiplexers/keys/KEYS_4_0*%
X156674108Y-162743362D02*
X157713508Y-162743362D01*
X157715508Y-162745362D02*
X158617908Y-162745362D01*
X157713508Y-162743362D02*
X157715508Y-162745362D01*
X158617908Y-162745362D02*
X158618508Y-162745962D01*
%TO.N,/multiplexers/keys/KEYS_4_1*%
X189574158Y-162745362D02*
X189574758Y-162745962D01*
X187630358Y-162743362D02*
X188669758Y-162743362D01*
X188669758Y-162743362D02*
X188671758Y-162745362D01*
X188671758Y-162745362D02*
X189574158Y-162745362D01*
%TO.N,/multiplexers/keys/KEYS_4_2*%
X213124074Y-165435532D02*
X213124536Y-165436244D01*
X212241394Y-165247913D02*
X213124074Y-165435532D01*
X211223167Y-165029437D02*
X212239853Y-165245541D01*
X212239853Y-165245541D02*
X212241394Y-165247913D01*
%TO.N,/multiplexers/keys/KEYS_4_3*%
X231757786Y-169396250D02*
X231758248Y-169396962D01*
X229856879Y-168990155D02*
X230873565Y-169206259D01*
X230873565Y-169206259D02*
X230875106Y-169208631D01*
X230875106Y-169208631D02*
X231757786Y-169396250D01*
%TO.N,/multiplexers/keys/KEYS_4_4*%
X250391498Y-173356967D02*
X250391960Y-173357679D01*
X249507277Y-173166976D02*
X249508818Y-173169348D01*
X249508818Y-173169348D02*
X250391498Y-173356967D01*
X248490591Y-172950872D02*
X249507277Y-173166976D01*
%TO.N,/multiplexers/keys/KEYS_4_5*%
X268142530Y-177130066D02*
X269025210Y-177317685D01*
X268140989Y-177127694D02*
X268142530Y-177130066D01*
X267124303Y-176911590D02*
X268140989Y-177127694D01*
X269025210Y-177317685D02*
X269025672Y-177318397D01*
%TO.N,/multiplexers/keys/KEYS_4_7*%
X323330666Y-175901614D02*
X323333038Y-175903154D01*
X322313980Y-176117717D02*
X323330666Y-175901614D01*
X323333038Y-175903154D02*
X324215719Y-175715535D01*
X324215719Y-175715535D02*
X324216431Y-175715997D01*
%TO.N,/multiplexers/keys/KEYS_4_8*%
X340947692Y-172156999D02*
X341964378Y-171940896D01*
X341966750Y-171942436D02*
X342849431Y-171754817D01*
X342849431Y-171754817D02*
X342850143Y-171755279D01*
X341964378Y-171940896D02*
X341966750Y-171942436D01*
%TO.N,/multiplexers/keys/KEYS_4_9*%
X359581404Y-168196281D02*
X360598090Y-167980178D01*
X360600462Y-167981718D02*
X361483143Y-167794099D01*
X360598090Y-167980178D02*
X360600462Y-167981718D01*
X361483143Y-167794099D02*
X361483855Y-167794561D01*
%TO.N,/multiplexers/keys/KEYS_4_10*%
X379231802Y-164019461D02*
X379234174Y-164021001D01*
X378215116Y-164235564D02*
X379231802Y-164019461D01*
X380116855Y-163833382D02*
X380117567Y-163833844D01*
X379234174Y-164021001D02*
X380116855Y-163833382D01*
%TO.N,/multiplexers/keys/KEYS_4_11*%
X402934158Y-162745362D02*
X402934758Y-162745962D01*
X402029758Y-162743362D02*
X402031758Y-162745362D01*
X402031758Y-162745362D02*
X402934158Y-162745362D01*
X400990358Y-162743362D02*
X402029758Y-162743362D01*
%TO.N,/multiplexers/keys/KEYS_4_12*%
X427184108Y-162743362D02*
X428223508Y-162743362D01*
X429127908Y-162745362D02*
X429128508Y-162745962D01*
X428223508Y-162743362D02*
X428225508Y-162745362D01*
X428225508Y-162745362D02*
X429127908Y-162745362D01*
%TO.N,/multiplexers/keys/KEYS_4_13*%
X459181758Y-167507862D02*
X460084158Y-167507862D01*
X459179758Y-167505862D02*
X459181758Y-167507862D01*
X458140358Y-167505862D02*
X459179758Y-167505862D01*
X460084158Y-167507862D02*
X460084758Y-167508462D01*
%TO.N,/multiplexers/keys/KEYS_5_0*%
X149530358Y-181793362D02*
X150569758Y-181793362D01*
X150571758Y-181795362D02*
X151474158Y-181795362D01*
X151474158Y-181795362D02*
X151474758Y-181795962D01*
X150569758Y-181793362D02*
X150571758Y-181795362D01*
%TO.N,/multiplexers/keys/KEYS_5_1*%
X211920878Y-184653328D02*
X212937564Y-184869432D01*
X212939105Y-184871804D02*
X213821785Y-185059423D01*
X213821785Y-185059423D02*
X213822247Y-185060135D01*
X212937564Y-184869432D02*
X212939105Y-184871804D01*
%TO.N,/multiplexers/keys/KEYS_5_2*%
X245546559Y-191800688D02*
X245548100Y-191803060D01*
X245548100Y-191803060D02*
X246430780Y-191990679D01*
X246430780Y-191990679D02*
X246431242Y-191991391D01*
X244529873Y-191584584D02*
X245546559Y-191800688D01*
%TO.N,/multiplexers/keys/KEYS_5_3*%
X272480441Y-197525661D02*
X273497127Y-197741765D01*
X273497127Y-197741765D02*
X273498668Y-197744137D01*
X273498668Y-197744137D02*
X274381348Y-197931756D01*
X274381348Y-197931756D02*
X274381810Y-197932468D01*
%TO.N,/multiplexers/keys/KEYS_5_4*%
X334279026Y-193050056D02*
X334281398Y-193051596D01*
X334281398Y-193051596D02*
X335164079Y-192863977D01*
X335164079Y-192863977D02*
X335164791Y-192864439D01*
X333262340Y-193266159D02*
X334279026Y-193050056D01*
%TO.N,/multiplexers/keys/KEYS_5_5*%
X373875663Y-184633531D02*
X373878035Y-184635071D01*
X372858977Y-184849634D02*
X373875663Y-184633531D01*
X374760716Y-184447452D02*
X374761428Y-184447914D01*
X373878035Y-184635071D02*
X374760716Y-184447452D01*
%TO.N,/multiplexers/keys/KEYS_5_6*%
X440129758Y-186555862D02*
X440131758Y-186557862D01*
X440131758Y-186557862D02*
X441034158Y-186557862D01*
X441034158Y-186557862D02*
X441034758Y-186558462D01*
X439090358Y-186555862D02*
X440129758Y-186555862D01*
%TO.N,/multiplexers/keys/KEYS_5_7*%
X459181758Y-186557862D02*
X460084158Y-186557862D01*
X460084158Y-186557862D02*
X460084758Y-186558462D01*
X459179758Y-186555862D02*
X459181758Y-186557862D01*
X458140358Y-186555862D02*
X459179758Y-186555862D01*
%TO.N,/multiplexers/keys/KEYS_5_8*%
X479134158Y-186557862D02*
X479134758Y-186558462D01*
X477190358Y-186555862D02*
X478229758Y-186555862D01*
X478231758Y-186557862D02*
X479134158Y-186557862D01*
X478229758Y-186555862D02*
X478231758Y-186557862D01*
%TO.N,/multiplexers/keys/KEYS_4_6*%
X304699326Y-179863871D02*
X305582007Y-179676252D01*
X305582007Y-179676252D02*
X305582719Y-179676714D01*
X304696954Y-179862331D02*
X304699326Y-179863871D01*
X303680268Y-180078434D02*
X304696954Y-179862331D01*
%TO.N,Net-(SW1-VOUT)*%
X148567158Y-82811562D02*
X148577858Y-82800862D01*
X147252058Y-82811562D02*
X148567158Y-82811562D01*
%TO.N,Net-(SW2-VOUT)*%
X173332158Y-81859062D02*
X173342858Y-81848362D01*
X172017058Y-81859062D02*
X173332158Y-81859062D01*
%TO.N,Net-(SW3-VOUT)*%
X191067058Y-81859062D02*
X192382158Y-81859062D01*
X192382158Y-81859062D02*
X192392858Y-81848362D01*
%TO.N,Net-(SW4-VOUT)*%
X213856173Y-83871575D02*
X213868864Y-83863334D01*
X212569811Y-83598151D02*
X213856173Y-83871575D01*
%TO.N,Net-(SW5-VOUT)*%
X231203523Y-87558869D02*
X232489885Y-87832293D01*
X232489885Y-87832293D02*
X232502576Y-87824052D01*
%TO.N,Net-(SW6-VOUT)*%
X255782024Y-92783190D02*
X255794715Y-92774949D01*
X254495662Y-92509766D02*
X255782024Y-92783190D01*
%TO.N,Net-(SW7-VOUT)*%
X273129374Y-96470484D02*
X274415736Y-96743908D01*
X274415736Y-96743908D02*
X274428427Y-96735667D01*
%TO.N,Net-(SW8-VOUT)*%
X310343186Y-96944664D02*
X310351428Y-96931973D01*
X309056824Y-97218088D02*
X310343186Y-96944664D01*
%TO.N,Net-(SW9-VOUT)*%
X327690536Y-93257370D02*
X328976898Y-92983946D01*
X328976898Y-92983946D02*
X328985140Y-92971255D01*
%TO.N,Net-(SW10-VOUT)*%
X350982675Y-88306473D02*
X352269037Y-88033049D01*
X352269037Y-88033049D02*
X352277279Y-88020358D01*
%TO.N,Net-(SW11-VOUT)*%
X369616387Y-84345756D02*
X370902749Y-84072332D01*
X370902749Y-84072332D02*
X370910991Y-84059641D01*
%TO.N,Net-(SW12-VOUT)*%
X392407158Y-81859062D02*
X392417858Y-81848362D01*
X391092058Y-81859062D02*
X392407158Y-81859062D01*
%TO.N,Net-(SW13-VOUT)*%
X410142058Y-81859062D02*
X411457158Y-81859062D01*
X411457158Y-81859062D02*
X411467858Y-81848362D01*
%TO.N,Net-(SW15-VOUT)*%
X157729558Y-106624062D02*
X159044658Y-106624062D01*
X159044658Y-106624062D02*
X159055358Y-106613362D01*
%TO.N,Net-(SW14-VOUT)*%
X462892158Y-82811562D02*
X462902858Y-82800862D01*
X461577058Y-82811562D02*
X462892158Y-82811562D01*
%TO.N,Net-(SW16-VOUT)*%
X176779558Y-106624062D02*
X178094658Y-106624062D01*
X178094658Y-106624062D02*
X178105358Y-106613362D01*
%TO.N,Net-(SW17-VOUT)*%
X195829558Y-103766562D02*
X197144658Y-103766562D01*
X197144658Y-103766562D02*
X197155358Y-103755862D01*
%TO.N,Net-(SW18-VOUT)*%
X218222132Y-109144074D02*
X218234823Y-109135833D01*
X216935770Y-108870650D02*
X218222132Y-109144074D01*
%TO.N,Net-(SW19-VOUT)*%
X236855843Y-113104792D02*
X236868534Y-113096551D01*
X235569481Y-112831368D02*
X236855843Y-113104792D01*
%TO.N,Net-(SW20-VOUT)*%
X254203193Y-116792085D02*
X255489555Y-117065509D01*
X255489555Y-117065509D02*
X255502246Y-117057268D01*
%TO.N,Net-(SW21-VOUT)*%
X272836905Y-120752803D02*
X274123267Y-121026227D01*
X274123267Y-121026227D02*
X274135958Y-121017986D01*
%TO.N,Net-(SW22-VOUT)*%
X309349293Y-121500407D02*
X310635655Y-121226983D01*
X310635655Y-121226983D02*
X310643897Y-121214292D01*
%TO.N,Net-(SW23-VOUT)*%
X329269367Y-117266266D02*
X329277609Y-117253575D01*
X327983005Y-117539690D02*
X329269367Y-117266266D01*
%TO.N,Net-(SW24-VOUT)*%
X346616717Y-113578972D02*
X347903079Y-113305548D01*
X347903079Y-113305548D02*
X347911321Y-113292857D01*
%TO.N,Net-(SW25-VOUT)*%
X365250429Y-109618254D02*
X366536791Y-109344830D01*
X366536791Y-109344830D02*
X366545033Y-109332139D01*
%TO.N,Net-(SW26-VOUT)*%
X386692158Y-103766562D02*
X386702858Y-103755862D01*
X385377058Y-103766562D02*
X386692158Y-103766562D01*
%TO.N,Net-(SW27-VOUT)*%
X405742158Y-106624062D02*
X405752858Y-106613362D01*
X404427058Y-106624062D02*
X405742158Y-106624062D01*
%TO.N,Net-(SW28-VOUT)*%
X433002058Y-106624062D02*
X434317158Y-106624062D01*
X434317158Y-106624062D02*
X434327858Y-106613362D01*
%TO.N,Net-(SW29-VOUT)*%
X467654658Y-101861562D02*
X467665358Y-101850862D01*
X466339558Y-101861562D02*
X467654658Y-101861562D01*
%TO.N,Net-(SW30-VOUT)*%
X157729558Y-125674062D02*
X159044658Y-125674062D01*
X159044658Y-125674062D02*
X159055358Y-125663362D01*
%TO.N,Net-(SW31-VOUT)*%
X182857158Y-125674062D02*
X182867858Y-125663362D01*
X181542058Y-125674062D02*
X182857158Y-125674062D01*
%TO.N,Net-(SW32-VOUT)*%
X204944558Y-125797427D02*
X204957249Y-125789186D01*
X203658196Y-125524003D02*
X204944558Y-125797427D01*
%TO.N,Net-(SW33-VOUT)*%
X222291908Y-129484721D02*
X223578270Y-129758145D01*
X223578270Y-129758145D02*
X223590961Y-129749904D01*
%TO.N,Net-(SW34-VOUT)*%
X240925620Y-133445438D02*
X242211982Y-133718862D01*
X242211982Y-133718862D02*
X242224673Y-133710621D01*
%TO.N,Net-(SW35-VOUT)*%
X259559331Y-137406156D02*
X260845693Y-137679580D01*
X260845693Y-137679580D02*
X260858384Y-137671339D01*
%TO.N,Net-(SW36-VOUT)*%
X305279517Y-141841054D02*
X305287759Y-141828363D01*
X303993155Y-142114478D02*
X305279517Y-141841054D01*
%TO.N,Net-(SW37-VOUT)*%
X323913229Y-137880336D02*
X323921471Y-137867645D01*
X322626867Y-138153760D02*
X323913229Y-137880336D01*
%TO.N,Net-(SW38-VOUT)*%
X342546941Y-133919619D02*
X342555183Y-133906928D01*
X341260579Y-134193043D02*
X342546941Y-133919619D01*
%TO.N,Net-(SW39-VOUT)*%
X359894290Y-130232325D02*
X361180652Y-129958901D01*
X361180652Y-129958901D02*
X361188894Y-129946210D01*
%TO.N,Net-(SW40-VOUT)*%
X378528002Y-126271607D02*
X379814364Y-125998183D01*
X379814364Y-125998183D02*
X379822606Y-125985492D01*
%TO.N,Net-(SW41-VOUT)*%
X400979658Y-125674062D02*
X400990358Y-125663362D01*
X399664558Y-125674062D02*
X400979658Y-125674062D01*
%TO.N,Net-(SW42-VOUT)*%
X418714558Y-125674062D02*
X420029658Y-125674062D01*
X420029658Y-125674062D02*
X420040358Y-125663362D01*
%TO.N,Net-(SW43-VOUT)*%
X442527058Y-125674062D02*
X443842158Y-125674062D01*
X443842158Y-125674062D02*
X443852858Y-125663362D01*
%TO.N,Net-(SW44-VOUT)*%
X471102058Y-120911562D02*
X472417158Y-120911562D01*
X472417158Y-120911562D02*
X472427858Y-120900862D01*
%TO.N,Net-(SW45-VOUT)*%
X150585808Y-144724062D02*
X151900908Y-144724062D01*
X151900908Y-144724062D02*
X151911608Y-144713362D01*
%TO.N,Net-(SW46-VOUT)*%
X181542058Y-144724062D02*
X182857158Y-144724062D01*
X182857158Y-144724062D02*
X182867858Y-144713362D01*
%TO.N,Net-(SW47-VOUT)*%
X204355906Y-145147894D02*
X205642268Y-145421318D01*
X205642268Y-145421318D02*
X205654959Y-145413077D01*
%TO.N,Net-(SW48-VOUT)*%
X222989618Y-149108612D02*
X224275980Y-149382036D01*
X224275980Y-149382036D02*
X224288671Y-149373795D01*
%TO.N,Net-(SW49-VOUT)*%
X242909692Y-153342754D02*
X242922383Y-153334513D01*
X241623330Y-153069330D02*
X242909692Y-153342754D01*
%TO.N,Net-(SW50-VOUT)*%
X260257042Y-157030047D02*
X261543404Y-157303471D01*
X261543404Y-157303471D02*
X261556095Y-157295230D01*
%TO.N,Net-(SW51-VOUT)*%
X313898663Y-159484586D02*
X313906905Y-159471895D01*
X312612301Y-159758010D02*
X313898663Y-159484586D01*
%TO.N,Net-(SW52-VOUT)*%
X331246012Y-155797293D02*
X332532374Y-155523869D01*
X332532374Y-155523869D02*
X332540616Y-155511178D01*
%TO.N,Net-(SW53-VOUT)*%
X351166086Y-151563151D02*
X351174328Y-151550460D01*
X349879724Y-151836575D02*
X351166086Y-151563151D01*
%TO.N,Net-(SW54-VOUT)*%
X369799798Y-147602433D02*
X369808040Y-147589742D01*
X368513436Y-147875857D02*
X369799798Y-147602433D01*
%TO.N,Net-(SW55-VOUT)*%
X391454658Y-144724062D02*
X391465358Y-144713362D01*
X390139558Y-144724062D02*
X391454658Y-144724062D01*
%TO.N,Net-(SW56-VOUT)*%
X410504658Y-144724062D02*
X410515358Y-144713362D01*
X409189558Y-144724062D02*
X410504658Y-144724062D01*
%TO.N,Net-(SW57-VOUT)*%
X440145808Y-144724062D02*
X441460908Y-144724062D01*
X441460908Y-144724062D02*
X441471608Y-144713362D01*
%TO.N,Net-(SW58-VOUT)*%
X477179658Y-139961562D02*
X477190358Y-139950862D01*
X475864558Y-139961562D02*
X477179658Y-139961562D01*
%TO.N,Net-(SW59-VOUT)*%
X156663408Y-163774062D02*
X156674108Y-163763362D01*
X155348308Y-163774062D02*
X156663408Y-163774062D01*
%TO.N,Net-(SW60-VOUT)*%
X186304558Y-163774062D02*
X187619658Y-163774062D01*
X187619658Y-163774062D02*
X187630358Y-163763362D01*
%TO.N,Net-(SW61-VOUT)*%
X209712044Y-165761965D02*
X210998406Y-166035389D01*
X210998406Y-166035389D02*
X211011097Y-166027148D01*
%TO.N,Net-(SW62-VOUT)*%
X229632118Y-169996107D02*
X229644809Y-169987866D01*
X228345756Y-169722683D02*
X229632118Y-169996107D01*
%TO.N,Net-(SW63-VOUT)*%
X246979468Y-173683400D02*
X248265830Y-173956824D01*
X248265830Y-173956824D02*
X248278521Y-173948583D01*
%TO.N,Net-(SW64-VOUT)*%
X266899542Y-177917542D02*
X266912233Y-177909301D01*
X265613180Y-177644118D02*
X266899542Y-177917542D01*
%TO.N,Net-(SW66-VOUT)*%
X321231446Y-177401543D02*
X322517808Y-177128119D01*
X322517808Y-177128119D02*
X322526050Y-177115428D01*
%TO.N,Net-(SW67-VOUT)*%
X339865158Y-173440825D02*
X341151520Y-173167401D01*
X341151520Y-173167401D02*
X341159762Y-173154710D01*
%TO.N,Net-(SW68-VOUT)*%
X359785232Y-169206683D02*
X359793474Y-169193992D01*
X358498870Y-169480107D02*
X359785232Y-169206683D01*
%TO.N,Net-(SW69-VOUT)*%
X377132582Y-165519390D02*
X378418944Y-165245966D01*
X378418944Y-165245966D02*
X378427186Y-165233275D01*
%TO.N,Net-(SW70-VOUT)*%
X399664558Y-163774062D02*
X400979658Y-163774062D01*
X400979658Y-163774062D02*
X400990358Y-163763362D01*
%TO.N,Net-(SW71-VOUT)*%
X425858308Y-163774062D02*
X427173408Y-163774062D01*
X427173408Y-163774062D02*
X427184108Y-163763362D01*
%TO.N,Net-(SW72-VOUT)*%
X458129658Y-168536562D02*
X458140358Y-168525862D01*
X456814558Y-168536562D02*
X458129658Y-168536562D01*
%TO.N,Net-(SW73-VOUT)*%
X148204558Y-182824062D02*
X149519658Y-182824062D01*
X149519658Y-182824062D02*
X149530358Y-182813362D01*
%TO.N,Net-(SW74-VOUT)*%
X210409755Y-185385856D02*
X211696117Y-185659280D01*
X211696117Y-185659280D02*
X211708808Y-185651039D01*
%TO.N,Net-(SW75-VOUT)*%
X243018750Y-192317112D02*
X244305112Y-192590536D01*
X244305112Y-192590536D02*
X244317803Y-192582295D01*
%TO.N,Net-(SW76-VOUT)*%
X272255680Y-198531613D02*
X272268371Y-198523372D01*
X270969318Y-198258189D02*
X272255680Y-198531613D01*
%TO.N,Net-(SW77-VOUT)*%
X333466168Y-194276561D02*
X333474410Y-194263870D01*
X332179806Y-194549985D02*
X333466168Y-194276561D01*
%TO.N,Net-(SW78-VOUT)*%
X373062805Y-185860036D02*
X373071047Y-185847345D01*
X371776443Y-186133460D02*
X373062805Y-185860036D01*
%TO.N,Net-(SW79-VOUT)*%
X439079658Y-187586562D02*
X439090358Y-187575862D01*
X437764558Y-187586562D02*
X439079658Y-187586562D01*
%TO.N,Net-(SW80-VOUT)*%
X458129658Y-187586562D02*
X458140358Y-187575862D01*
X456814558Y-187586562D02*
X458129658Y-187586562D01*
%TO.N,Net-(SW81-VOUT)*%
X475864558Y-187586562D02*
X477179658Y-187586562D01*
X477179658Y-187586562D02*
X477190358Y-187575862D01*
%TO.N,Net-(SW65-VOUT)*%
X302597734Y-181362260D02*
X303884096Y-181088836D01*
X303884096Y-181088836D02*
X303892338Y-181076145D01*
%TD*%
M02*
