%TF.GenerationSoftware,KiCad,Pcbnew,8.0.1*%
%TF.CreationDate,2024-04-11T15:05:29-07:00*%
%TF.ProjectId,Erebus,45726562-7573-42e6-9b69-6361645f7063,rev?*%
%TF.SameCoordinates,Original*%
%TF.FileFunction,Paste,Top*%
%TF.FilePolarity,Positive*%
%FSLAX46Y46*%
G04 Gerber Fmt 4.6, Leading zero omitted, Abs format (unit mm)*
G04 Created by KiCad (PCBNEW 8.0.1) date 2024-04-11 15:05:29*
%MOMM*%
%LPD*%
G01*
G04 APERTURE LIST*
G04 Aperture macros list*
%AMRoundRect*
0 Rectangle with rounded corners*
0 $1 Rounding radius*
0 $2 $3 $4 $5 $6 $7 $8 $9 X,Y pos of 4 corners*
0 Add a 4 corners polygon primitive as box body*
4,1,4,$2,$3,$4,$5,$6,$7,$8,$9,$2,$3,0*
0 Add four circle primitives for the rounded corners*
1,1,$1+$1,$2,$3*
1,1,$1+$1,$4,$5*
1,1,$1+$1,$6,$7*
1,1,$1+$1,$8,$9*
0 Add four rect primitives between the rounded corners*
20,1,$1+$1,$2,$3,$4,$5,0*
20,1,$1+$1,$4,$5,$6,$7,0*
20,1,$1+$1,$6,$7,$8,$9,0*
20,1,$1+$1,$8,$9,$2,$3,0*%
G04 Aperture macros list end*
%ADD10RoundRect,0.200000X-0.200000X-0.275000X0.200000X-0.275000X0.200000X0.275000X-0.200000X0.275000X0*%
%ADD11RoundRect,0.135000X-0.135000X-0.185000X0.135000X-0.185000X0.135000X0.185000X-0.135000X0.185000X0*%
%ADD12R,1.400000X1.200000*%
%ADD13RoundRect,0.375000X-0.625000X-0.375000X0.625000X-0.375000X0.625000X0.375000X-0.625000X0.375000X0*%
%ADD14RoundRect,0.500000X-0.500000X-1.400000X0.500000X-1.400000X0.500000X1.400000X-0.500000X1.400000X0*%
%ADD15RoundRect,0.150000X-0.587500X-0.150000X0.587500X-0.150000X0.587500X0.150000X-0.587500X0.150000X0*%
%ADD16RoundRect,0.237500X-0.250000X-0.237500X0.250000X-0.237500X0.250000X0.237500X-0.250000X0.237500X0*%
%ADD17RoundRect,0.140000X-0.140000X-0.170000X0.140000X-0.170000X0.140000X0.170000X-0.140000X0.170000X0*%
%ADD18RoundRect,0.250000X-0.312500X-0.625000X0.312500X-0.625000X0.312500X0.625000X-0.312500X0.625000X0*%
%ADD19RoundRect,0.250000X-0.325000X-0.650000X0.325000X-0.650000X0.325000X0.650000X-0.325000X0.650000X0*%
%ADD20RoundRect,0.075000X-0.662500X-0.075000X0.662500X-0.075000X0.662500X0.075000X-0.662500X0.075000X0*%
%ADD21RoundRect,0.075000X-0.075000X-0.662500X0.075000X-0.662500X0.075000X0.662500X-0.075000X0.662500X0*%
%ADD22R,1.700000X1.000000*%
%ADD23RoundRect,0.112500X-0.187500X-0.112500X0.187500X-0.112500X0.187500X0.112500X-0.187500X0.112500X0*%
%ADD24O,0.270000X1.500000*%
%ADD25O,1.500000X0.270000*%
G04 APERTURE END LIST*
D10*
%TO.C,R82*%
X207649900Y-251704600D03*
X209299900Y-251704600D03*
%TD*%
D11*
%TO.C,R89*%
X199614900Y-260434600D03*
X200634900Y-260434600D03*
%TD*%
%TO.C,R83*%
X199614900Y-248494600D03*
X200634900Y-248494600D03*
%TD*%
%TO.C,R84*%
X199614900Y-250484600D03*
X200634900Y-250484600D03*
%TD*%
D12*
%TO.C,Y1*%
X174344900Y-269894600D03*
X176544900Y-269894600D03*
X176544900Y-268194600D03*
X174344900Y-268194600D03*
%TD*%
D13*
%TO.C,U8*%
X174594900Y-260399600D03*
X174594900Y-262699600D03*
D14*
X180894900Y-262699600D03*
D13*
X174594900Y-264999600D03*
%TD*%
D15*
%TO.C,Q1*%
X203087400Y-248949600D03*
X203087400Y-250849600D03*
X204962400Y-249899600D03*
%TD*%
D16*
%TO.C,R90*%
X183932400Y-259754600D03*
X185757400Y-259754600D03*
%TD*%
D17*
%TO.C,C170*%
X207424900Y-253944600D03*
X208384900Y-253944600D03*
%TD*%
D11*
%TO.C,R92*%
X191964900Y-255194600D03*
X192984900Y-255194600D03*
%TD*%
D18*
%TO.C,R93*%
X188362400Y-267194600D03*
X191287400Y-267194600D03*
%TD*%
D17*
%TO.C,C173*%
X179024900Y-267804600D03*
X179984900Y-267804600D03*
%TD*%
D18*
%TO.C,R94*%
X188362400Y-270484600D03*
X191287400Y-270484600D03*
%TD*%
D11*
%TO.C,R87*%
X199614900Y-256454600D03*
X200634900Y-256454600D03*
%TD*%
D19*
%TO.C,C171*%
X192369900Y-249174600D03*
X195319900Y-249174600D03*
%TD*%
D17*
%TO.C,C174*%
X179024900Y-269774600D03*
X179984900Y-269774600D03*
%TD*%
D20*
%TO.C,U1*%
X275824300Y-138902700D03*
X275824300Y-139402700D03*
X275824300Y-139902700D03*
X275824300Y-140402700D03*
X275824300Y-140902700D03*
X275824300Y-141402700D03*
X275824300Y-141902700D03*
X275824300Y-142402700D03*
X275824300Y-142902700D03*
X275824300Y-143402700D03*
X275824300Y-143902700D03*
X275824300Y-144402700D03*
D21*
X277236800Y-145815200D03*
X277736800Y-145815200D03*
X278236800Y-145815200D03*
X278736800Y-145815200D03*
X279236800Y-145815200D03*
X279736800Y-145815200D03*
X280236800Y-145815200D03*
X280736800Y-145815200D03*
X281236800Y-145815200D03*
X281736800Y-145815200D03*
X282236800Y-145815200D03*
X282736800Y-145815200D03*
D20*
X284149300Y-144402700D03*
X284149300Y-143902700D03*
X284149300Y-143402700D03*
X284149300Y-142902700D03*
X284149300Y-142402700D03*
X284149300Y-141902700D03*
X284149300Y-141402700D03*
X284149300Y-140902700D03*
X284149300Y-140402700D03*
X284149300Y-139902700D03*
X284149300Y-139402700D03*
X284149300Y-138902700D03*
D21*
X282736800Y-137490200D03*
X282236800Y-137490200D03*
X281736800Y-137490200D03*
X281236800Y-137490200D03*
X280736800Y-137490200D03*
X280236800Y-137490200D03*
X279736800Y-137490200D03*
X279236800Y-137490200D03*
X278736800Y-137490200D03*
X278236800Y-137490200D03*
X277736800Y-137490200D03*
X277236800Y-137490200D03*
%TD*%
D22*
%TO.C,SW82*%
X188644900Y-260124600D03*
X194944900Y-260124600D03*
X188644900Y-263924600D03*
X194944900Y-263924600D03*
%TD*%
D16*
%TO.C,R95*%
X183932400Y-264774600D03*
X185757400Y-264774600D03*
%TD*%
D11*
%TO.C,R88*%
X199614900Y-258444600D03*
X200634900Y-258444600D03*
%TD*%
D16*
%TO.C,R91*%
X183932400Y-262264600D03*
X185757400Y-262264600D03*
%TD*%
D11*
%TO.C,R86*%
X199614900Y-254464600D03*
X200634900Y-254464600D03*
%TD*%
D23*
%TO.C,D1*%
X207589900Y-248974600D03*
X209689900Y-248974600D03*
%TD*%
D11*
%TO.C,R85*%
X199614900Y-252474600D03*
X200634900Y-252474600D03*
%TD*%
D19*
%TO.C,C172*%
X192369900Y-252524600D03*
X195319900Y-252524600D03*
%TD*%
D24*
%TO.C,U9*%
X175569900Y-257249600D03*
X176069900Y-257249600D03*
X176569900Y-257249600D03*
X177069900Y-257249600D03*
X177569900Y-257249600D03*
X178069900Y-257249600D03*
X178569900Y-257249600D03*
X179069900Y-257249600D03*
X179569900Y-257249600D03*
X180069900Y-257249600D03*
X180569900Y-257249600D03*
X181069900Y-257249600D03*
D25*
X182569900Y-255749600D03*
X182569900Y-255249600D03*
X182569900Y-254749600D03*
X182569900Y-254249600D03*
X182569900Y-253749600D03*
X182569900Y-253249600D03*
X182569900Y-252749600D03*
X182569900Y-252249600D03*
X182569900Y-251749600D03*
X182569900Y-251249600D03*
X182569900Y-250749600D03*
X182569900Y-250249600D03*
D24*
X181069900Y-248749600D03*
X180569900Y-248749600D03*
X180069900Y-248749600D03*
X179569900Y-248749600D03*
X179069900Y-248749600D03*
X178569900Y-248749600D03*
X178069900Y-248749600D03*
X177569900Y-248749600D03*
X177069900Y-248749600D03*
X176569900Y-248749600D03*
X176069900Y-248749600D03*
X175569900Y-248749600D03*
D25*
X174069900Y-250249600D03*
X174069900Y-250749600D03*
X174069900Y-251249600D03*
X174069900Y-251749600D03*
X174069900Y-252249600D03*
X174069900Y-252749600D03*
X174069900Y-253249600D03*
X174069900Y-253749600D03*
X174069900Y-254249600D03*
X174069900Y-254749600D03*
X174069900Y-255249600D03*
X174069900Y-255749600D03*
%TD*%
D15*
%TO.C,Q2*%
X203087400Y-253574600D03*
X203087400Y-255474600D03*
X204962400Y-254524600D03*
%TD*%
D19*
%TO.C,C169*%
X202929900Y-258424600D03*
X205879900Y-258424600D03*
%TD*%
M02*
