M48
; DRILL file {KiCad 8.0.1} date 2024-04-11T15:05:29-0700
; FORMAT={-:-/ absolute / inch / decimal}
; #@! TF.CreationDate,2024-04-11T15:05:29-07:00
; #@! TF.GenerationSoftware,Kicad,Pcbnew,8.0.1
; #@! TF.FileFunction,NonPlated,1,2,NPTH
FMAT,2
INCH
; #@! TA.AperFunction,NonPlated,NPTH,ComponentDrill
T1C0.0689
; #@! TA.AperFunction,NonPlated,NPTH,ComponentDrill
T2C0.1570
%
G90
G05
T1
X5.5599Y-3.2964
X5.5974Y-7.2339
X5.6912Y-5.7339
X5.8787Y-6.4839
X5.9599Y-3.2964
X5.9724Y-4.2339
X5.9724Y-4.9839
X5.9974Y-7.2339
X6.0912Y-5.7339
X6.2787Y-6.4839
X6.3724Y-4.2339
X6.3724Y-4.9839
X6.5349Y-3.2589
X6.7224Y-4.2339
X6.9099Y-4.9839
X6.9099Y-5.7339
X6.9349Y-3.2589
X7.0974Y-6.4839
X7.1224Y-4.2339
X7.2849Y-3.2589
X7.3099Y-4.9839
X7.3099Y-5.7339
X7.4724Y-4.1214
X7.4974Y-6.4839
X7.6849Y-3.2589
X7.7783Y-4.9279
X7.8058Y-5.7005
X7.8724Y-4.1214
X8.0167Y-6.512
X8.0441Y-7.2846
X8.1292Y-3.2772
X8.1696Y-5.011
X8.197Y-5.7836
X8.3011Y-4.2722
X8.4079Y-6.5952
X8.4354Y-7.3678
X8.5119Y-5.0838
X8.5204Y-3.3604
X8.5394Y-5.8564
X8.6923Y-4.3554
X8.7503Y-6.668
X8.8628Y-3.4332
X8.9032Y-5.167
X8.9307Y-5.9396
X9.0347Y-4.4282
X9.1415Y-6.7511
X9.2455Y-5.2397
X9.254Y-3.5163
X9.273Y-6.0123
X9.3279Y-7.5575
X9.4259Y-4.5113
X9.4839Y-6.8239
X9.6368Y-5.3229
X9.6643Y-6.0955
X9.7192Y-7.6407
X9.7683Y-4.5841
X9.7798Y-3.6281
X9.8751Y-6.9071
X9.9791Y-5.3957
X10.0066Y-6.1683
X10.1595Y-4.6673
X10.171Y-3.7113
X10.2175Y-6.9798
X10.3704Y-5.4788
X10.3979Y-6.2514
X10.4284Y-7.7914
X10.5019Y-4.74
X10.5134Y-3.784
X10.6087Y-7.063
X10.8196Y-7.8746
X10.8931Y-4.8232
X10.9047Y-3.8672
X11.6886Y-7.2249
X11.7435Y-5.6797
X11.9429Y-3.9122
X11.9544Y-4.8682
X12.0799Y-7.1418
X12.0829Y-6.3744
X12.1348Y-5.5966
X12.3341Y-3.829
X12.3457Y-4.785
X12.4222Y-7.069
X12.4741Y-6.2912
X12.4771Y-5.5238
X12.6765Y-3.7562
X12.688Y-4.7122
X12.8135Y-6.9858
X12.8165Y-6.2184
X12.8532Y-7.7441
X12.8684Y-5.4407
X13.0678Y-3.6731
X13.0793Y-4.6291
X13.1558Y-6.9131
X13.2077Y-6.1353
X13.2108Y-5.3679
X13.2445Y-7.661
X13.4216Y-4.5563
X13.5471Y-6.8299
X13.5501Y-6.0625
X13.5935Y-3.5613
X13.602Y-5.2847
X13.8129Y-4.4731
X13.8894Y-6.7571
X13.9413Y-5.9793
X13.9444Y-5.2119
X13.9848Y-3.4782
X14.1552Y-4.4004
X14.2807Y-6.674
X14.2837Y-5.9066
X14.3271Y-3.4054
X14.3356Y-5.1288
X14.4122Y-7.4128
X14.5465Y-4.3172
X14.623Y-6.6012
X14.675Y-5.8234
X14.678Y-5.056
X14.7184Y-3.3222
X14.8034Y-7.3296
X14.9349Y-4.1214
X15.0143Y-6.518
X15.0692Y-4.9728
X15.1224Y-5.7339
X15.1599Y-3.2589
X15.3349Y-4.1214
X15.4974Y-4.9839
X15.4974Y-6.4839
X15.5224Y-5.7339
X15.5599Y-3.2589
X15.6849Y-4.2339
X15.8724Y-5.7339
X15.8974Y-4.9839
X15.8974Y-6.4839
X15.9099Y-3.2589
X16.0849Y-4.2339
X16.2474Y-4.9839
X16.2724Y-5.7339
X16.3099Y-3.2589
X16.5287Y-6.4839
X16.6474Y-4.9839
X16.8099Y-4.2339
X16.9287Y-6.4839
X16.9974Y-7.4214
X17.0912Y-5.7339
X17.1849Y-4.9839
X17.2099Y-4.2339
X17.3974Y-7.4214
X17.4912Y-5.7339
X17.5849Y-4.9839
X17.7474Y-6.6714
X17.7474Y-7.4214
X17.9349Y-3.2964
X18.1224Y-4.0464
X18.1474Y-6.6714
X18.1474Y-7.4214
X18.3099Y-4.7964
X18.3349Y-3.2964
X18.4974Y-5.5464
X18.4974Y-7.4214
X18.5224Y-4.0464
X18.7099Y-4.7964
X18.8974Y-5.5464
X18.8974Y-7.4214
T2
X5.6099Y-6.1589
X6.5474Y-6.1589
X9.1326Y-7.1837
X10.0497Y-7.3787
X12.5228Y-7.4821
X13.4398Y-7.2872
X16.5412Y-3.9089
X16.8224Y-5.4089
X17.4787Y-3.9089
X17.7599Y-5.4089
M30
