%TF.GenerationSoftware,KiCad,Pcbnew,8.0.1*%
%TF.CreationDate,2024-04-11T15:05:29-07:00*%
%TF.ProjectId,Erebus,45726562-7573-42e6-9b69-6361645f7063,rev?*%
%TF.SameCoordinates,Original*%
%TF.FileFunction,Other,Comment*%
%FSLAX46Y46*%
G04 Gerber Fmt 4.6, Leading zero omitted, Abs format (unit mm)*
G04 Created by KiCad (PCBNEW 8.0.1) date 2024-04-11 15:05:29*
%MOMM*%
%LPD*%
G01*
G04 APERTURE LIST*
%ADD10C,0.150000*%
%ADD11C,0.300000*%
%ADD12C,0.100000*%
G04 APERTURE END LIST*
D10*
X240769254Y-184932359D02*
X240977166Y-183954211D01*
X240977166Y-183954211D02*
X241154707Y-184722192D01*
X241154707Y-184722192D02*
X241629264Y-184092819D01*
X241629264Y-184092819D02*
X241421352Y-185070967D01*
X242001892Y-184172024D02*
X242446078Y-185288779D01*
X242653990Y-184310631D02*
X241793980Y-185150171D01*
X242566013Y-185411638D02*
X243311268Y-185570047D01*
X243527284Y-185469913D02*
X243610540Y-185536293D01*
X243610540Y-185536293D02*
X243796854Y-185575895D01*
X243796854Y-185575895D02*
X243899911Y-185549118D01*
X243899911Y-185549118D02*
X243966291Y-185465862D01*
X243966291Y-185465862D02*
X243976192Y-185419283D01*
X243976192Y-185419283D02*
X243949414Y-185316226D01*
X243949414Y-185316226D02*
X243866158Y-185249846D01*
X243866158Y-185249846D02*
X243726422Y-185220144D01*
X243726422Y-185220144D02*
X243643166Y-185153765D01*
X243643166Y-185153765D02*
X243616389Y-185050707D01*
X243616389Y-185050707D02*
X243626289Y-185004129D01*
X243626289Y-185004129D02*
X243692669Y-184920872D01*
X243692669Y-184920872D02*
X243795726Y-184894095D01*
X243795726Y-184894095D02*
X243935462Y-184923797D01*
X243935462Y-184923797D02*
X244018718Y-184990176D01*
X244354668Y-185012902D02*
X244727296Y-185092106D01*
X244563707Y-184716554D02*
X244385497Y-185554967D01*
X244385497Y-185554967D02*
X244412275Y-185658024D01*
X244412275Y-185658024D02*
X244495531Y-185724404D01*
X244495531Y-185724404D02*
X244588688Y-185744205D01*
X245333944Y-185902614D02*
X245442850Y-185390251D01*
X245442850Y-185390251D02*
X245416072Y-185287193D01*
X245416072Y-185287193D02*
X245332816Y-185220814D01*
X245332816Y-185220814D02*
X245146502Y-185181211D01*
X245146502Y-185181211D02*
X245043445Y-185207989D01*
X245343844Y-185856035D02*
X245240787Y-185882813D01*
X245240787Y-185882813D02*
X245007894Y-185833310D01*
X245007894Y-185833310D02*
X244924638Y-185766930D01*
X244924638Y-185766930D02*
X244897861Y-185663873D01*
X244897861Y-185663873D02*
X244917662Y-185570716D01*
X244917662Y-185570716D02*
X244984041Y-185487459D01*
X244984041Y-185487459D02*
X245087099Y-185460682D01*
X245087099Y-185460682D02*
X245319991Y-185510185D01*
X245319991Y-185510185D02*
X245423049Y-185483408D01*
X245799728Y-186001619D02*
X246007640Y-185023472D01*
X245928436Y-185396099D02*
X246031493Y-185369322D01*
X246031493Y-185369322D02*
X246217807Y-185408924D01*
X246217807Y-185408924D02*
X246301063Y-185475304D01*
X246301063Y-185475304D02*
X246337741Y-185531783D01*
X246337741Y-185531783D02*
X246364518Y-185634840D01*
X246364518Y-185634840D02*
X246305115Y-185914311D01*
X246305115Y-185914311D02*
X246238736Y-185997567D01*
X246238736Y-185997567D02*
X246182257Y-186034245D01*
X246182257Y-186034245D02*
X246079199Y-186061023D01*
X246079199Y-186061023D02*
X245892885Y-186021420D01*
X245892885Y-186021420D02*
X245809629Y-185955041D01*
X429266343Y-99868381D02*
X429266343Y-98868381D01*
X429266343Y-98868381D02*
X429599676Y-99582666D01*
X429599676Y-99582666D02*
X429933009Y-98868381D01*
X429933009Y-98868381D02*
X429933009Y-99868381D01*
X430313962Y-98868381D02*
X430980628Y-99868381D01*
X430980628Y-98868381D02*
X430313962Y-99868381D01*
X431123486Y-99963619D02*
X431885390Y-99963619D01*
X432075867Y-99820762D02*
X432171105Y-99868381D01*
X432171105Y-99868381D02*
X432361581Y-99868381D01*
X432361581Y-99868381D02*
X432456819Y-99820762D01*
X432456819Y-99820762D02*
X432504438Y-99725523D01*
X432504438Y-99725523D02*
X432504438Y-99677904D01*
X432504438Y-99677904D02*
X432456819Y-99582666D01*
X432456819Y-99582666D02*
X432361581Y-99535047D01*
X432361581Y-99535047D02*
X432218724Y-99535047D01*
X432218724Y-99535047D02*
X432123486Y-99487428D01*
X432123486Y-99487428D02*
X432075867Y-99392190D01*
X432075867Y-99392190D02*
X432075867Y-99344571D01*
X432075867Y-99344571D02*
X432123486Y-99249333D01*
X432123486Y-99249333D02*
X432218724Y-99201714D01*
X432218724Y-99201714D02*
X432361581Y-99201714D01*
X432361581Y-99201714D02*
X432456819Y-99249333D01*
X432790153Y-99201714D02*
X433171105Y-99201714D01*
X432933010Y-98868381D02*
X432933010Y-99725523D01*
X432933010Y-99725523D02*
X432980629Y-99820762D01*
X432980629Y-99820762D02*
X433075867Y-99868381D01*
X433075867Y-99868381D02*
X433171105Y-99868381D01*
X433933010Y-99868381D02*
X433933010Y-99344571D01*
X433933010Y-99344571D02*
X433885391Y-99249333D01*
X433885391Y-99249333D02*
X433790153Y-99201714D01*
X433790153Y-99201714D02*
X433599677Y-99201714D01*
X433599677Y-99201714D02*
X433504439Y-99249333D01*
X433933010Y-99820762D02*
X433837772Y-99868381D01*
X433837772Y-99868381D02*
X433599677Y-99868381D01*
X433599677Y-99868381D02*
X433504439Y-99820762D01*
X433504439Y-99820762D02*
X433456820Y-99725523D01*
X433456820Y-99725523D02*
X433456820Y-99630285D01*
X433456820Y-99630285D02*
X433504439Y-99535047D01*
X433504439Y-99535047D02*
X433599677Y-99487428D01*
X433599677Y-99487428D02*
X433837772Y-99487428D01*
X433837772Y-99487428D02*
X433933010Y-99439809D01*
X434409201Y-99868381D02*
X434409201Y-98868381D01*
X434409201Y-99249333D02*
X434504439Y-99201714D01*
X434504439Y-99201714D02*
X434694915Y-99201714D01*
X434694915Y-99201714D02*
X434790153Y-99249333D01*
X434790153Y-99249333D02*
X434837772Y-99296952D01*
X434837772Y-99296952D02*
X434885391Y-99392190D01*
X434885391Y-99392190D02*
X434885391Y-99677904D01*
X434885391Y-99677904D02*
X434837772Y-99773142D01*
X434837772Y-99773142D02*
X434790153Y-99820762D01*
X434790153Y-99820762D02*
X434694915Y-99868381D01*
X434694915Y-99868381D02*
X434504439Y-99868381D01*
X434504439Y-99868381D02*
X434409201Y-99820762D01*
X436410093Y-137968381D02*
X436410093Y-136968381D01*
X436410093Y-136968381D02*
X436743426Y-137682666D01*
X436743426Y-137682666D02*
X437076759Y-136968381D01*
X437076759Y-136968381D02*
X437076759Y-137968381D01*
X437457712Y-136968381D02*
X438124378Y-137968381D01*
X438124378Y-136968381D02*
X437457712Y-137968381D01*
X438267236Y-138063619D02*
X439029140Y-138063619D01*
X439219617Y-137920762D02*
X439314855Y-137968381D01*
X439314855Y-137968381D02*
X439505331Y-137968381D01*
X439505331Y-137968381D02*
X439600569Y-137920762D01*
X439600569Y-137920762D02*
X439648188Y-137825523D01*
X439648188Y-137825523D02*
X439648188Y-137777904D01*
X439648188Y-137777904D02*
X439600569Y-137682666D01*
X439600569Y-137682666D02*
X439505331Y-137635047D01*
X439505331Y-137635047D02*
X439362474Y-137635047D01*
X439362474Y-137635047D02*
X439267236Y-137587428D01*
X439267236Y-137587428D02*
X439219617Y-137492190D01*
X439219617Y-137492190D02*
X439219617Y-137444571D01*
X439219617Y-137444571D02*
X439267236Y-137349333D01*
X439267236Y-137349333D02*
X439362474Y-137301714D01*
X439362474Y-137301714D02*
X439505331Y-137301714D01*
X439505331Y-137301714D02*
X439600569Y-137349333D01*
X439933903Y-137301714D02*
X440314855Y-137301714D01*
X440076760Y-136968381D02*
X440076760Y-137825523D01*
X440076760Y-137825523D02*
X440124379Y-137920762D01*
X440124379Y-137920762D02*
X440219617Y-137968381D01*
X440219617Y-137968381D02*
X440314855Y-137968381D01*
X441076760Y-137968381D02*
X441076760Y-137444571D01*
X441076760Y-137444571D02*
X441029141Y-137349333D01*
X441029141Y-137349333D02*
X440933903Y-137301714D01*
X440933903Y-137301714D02*
X440743427Y-137301714D01*
X440743427Y-137301714D02*
X440648189Y-137349333D01*
X441076760Y-137920762D02*
X440981522Y-137968381D01*
X440981522Y-137968381D02*
X440743427Y-137968381D01*
X440743427Y-137968381D02*
X440648189Y-137920762D01*
X440648189Y-137920762D02*
X440600570Y-137825523D01*
X440600570Y-137825523D02*
X440600570Y-137730285D01*
X440600570Y-137730285D02*
X440648189Y-137635047D01*
X440648189Y-137635047D02*
X440743427Y-137587428D01*
X440743427Y-137587428D02*
X440981522Y-137587428D01*
X440981522Y-137587428D02*
X441076760Y-137539809D01*
X441552951Y-137968381D02*
X441552951Y-136968381D01*
X441552951Y-137349333D02*
X441648189Y-137301714D01*
X441648189Y-137301714D02*
X441838665Y-137301714D01*
X441838665Y-137301714D02*
X441933903Y-137349333D01*
X441933903Y-137349333D02*
X441981522Y-137396952D01*
X441981522Y-137396952D02*
X442029141Y-137492190D01*
X442029141Y-137492190D02*
X442029141Y-137777904D01*
X442029141Y-137777904D02*
X441981522Y-137873142D01*
X441981522Y-137873142D02*
X441933903Y-137920762D01*
X441933903Y-137920762D02*
X441838665Y-137968381D01*
X441838665Y-137968381D02*
X441648189Y-137968381D01*
X441648189Y-137968381D02*
X441552951Y-137920762D01*
X327121140Y-188718630D02*
X326913229Y-187740483D01*
X326913229Y-187740483D02*
X327387786Y-188369856D01*
X327387786Y-188369856D02*
X327565327Y-187601875D01*
X327565327Y-187601875D02*
X327773239Y-188580023D01*
X327937955Y-187522671D02*
X328797965Y-188362210D01*
X328590053Y-187384063D02*
X328145866Y-188500818D01*
X328957501Y-188425666D02*
X329702757Y-188267257D01*
X329859369Y-188087919D02*
X329962427Y-188114696D01*
X329962427Y-188114696D02*
X330148740Y-188075094D01*
X330148740Y-188075094D02*
X330231997Y-188008715D01*
X330231997Y-188008715D02*
X330258774Y-187905657D01*
X330258774Y-187905657D02*
X330248873Y-187859079D01*
X330248873Y-187859079D02*
X330182494Y-187775822D01*
X330182494Y-187775822D02*
X330079436Y-187749045D01*
X330079436Y-187749045D02*
X329939701Y-187778747D01*
X329939701Y-187778747D02*
X329836644Y-187751969D01*
X329836644Y-187751969D02*
X329770264Y-187668713D01*
X329770264Y-187668713D02*
X329760363Y-187622134D01*
X329760363Y-187622134D02*
X329787141Y-187519077D01*
X329787141Y-187519077D02*
X329870397Y-187452697D01*
X329870397Y-187452697D02*
X330010133Y-187422996D01*
X330010133Y-187422996D02*
X330113190Y-187449773D01*
X330429339Y-187333891D02*
X330801967Y-187254686D01*
X330499770Y-186978140D02*
X330677980Y-187816552D01*
X330677980Y-187816552D02*
X330744360Y-187899808D01*
X330744360Y-187899808D02*
X330847417Y-187926586D01*
X330847417Y-187926586D02*
X330940574Y-187906785D01*
X331685830Y-187748376D02*
X331576924Y-187236013D01*
X331576924Y-187236013D02*
X331510544Y-187152756D01*
X331510544Y-187152756D02*
X331407487Y-187125979D01*
X331407487Y-187125979D02*
X331221173Y-187165581D01*
X331221173Y-187165581D02*
X331137917Y-187231961D01*
X331675929Y-187701797D02*
X331592673Y-187768177D01*
X331592673Y-187768177D02*
X331359781Y-187817680D01*
X331359781Y-187817680D02*
X331256723Y-187790902D01*
X331256723Y-187790902D02*
X331190344Y-187707646D01*
X331190344Y-187707646D02*
X331170543Y-187614489D01*
X331170543Y-187614489D02*
X331197320Y-187511431D01*
X331197320Y-187511431D02*
X331280576Y-187445052D01*
X331280576Y-187445052D02*
X331513469Y-187395549D01*
X331513469Y-187395549D02*
X331596725Y-187329169D01*
X332151615Y-187649370D02*
X331943703Y-186671222D01*
X332022907Y-187043850D02*
X332106164Y-186977471D01*
X332106164Y-186977471D02*
X332292478Y-186937868D01*
X332292478Y-186937868D02*
X332395535Y-186964646D01*
X332395535Y-186964646D02*
X332452014Y-187001324D01*
X332452014Y-187001324D02*
X332518394Y-187084580D01*
X332518394Y-187084580D02*
X332577797Y-187364051D01*
X332577797Y-187364051D02*
X332551020Y-187467108D01*
X332551020Y-187467108D02*
X332514342Y-187523587D01*
X332514342Y-187523587D02*
X332431085Y-187589967D01*
X332431085Y-187589967D02*
X332244772Y-187629569D01*
X332244772Y-187629569D02*
X332141714Y-187602792D01*
X151612593Y-157018381D02*
X151612593Y-156018381D01*
X151612593Y-156018381D02*
X151945926Y-156732666D01*
X151945926Y-156732666D02*
X152279259Y-156018381D01*
X152279259Y-156018381D02*
X152279259Y-157018381D01*
X152660212Y-156018381D02*
X153326878Y-157018381D01*
X153326878Y-156018381D02*
X152660212Y-157018381D01*
X153469736Y-157113619D02*
X154231640Y-157113619D01*
X154422117Y-156970762D02*
X154517355Y-157018381D01*
X154517355Y-157018381D02*
X154707831Y-157018381D01*
X154707831Y-157018381D02*
X154803069Y-156970762D01*
X154803069Y-156970762D02*
X154850688Y-156875523D01*
X154850688Y-156875523D02*
X154850688Y-156827904D01*
X154850688Y-156827904D02*
X154803069Y-156732666D01*
X154803069Y-156732666D02*
X154707831Y-156685047D01*
X154707831Y-156685047D02*
X154564974Y-156685047D01*
X154564974Y-156685047D02*
X154469736Y-156637428D01*
X154469736Y-156637428D02*
X154422117Y-156542190D01*
X154422117Y-156542190D02*
X154422117Y-156494571D01*
X154422117Y-156494571D02*
X154469736Y-156399333D01*
X154469736Y-156399333D02*
X154564974Y-156351714D01*
X154564974Y-156351714D02*
X154707831Y-156351714D01*
X154707831Y-156351714D02*
X154803069Y-156399333D01*
X155136403Y-156351714D02*
X155517355Y-156351714D01*
X155279260Y-156018381D02*
X155279260Y-156875523D01*
X155279260Y-156875523D02*
X155326879Y-156970762D01*
X155326879Y-156970762D02*
X155422117Y-157018381D01*
X155422117Y-157018381D02*
X155517355Y-157018381D01*
X156279260Y-157018381D02*
X156279260Y-156494571D01*
X156279260Y-156494571D02*
X156231641Y-156399333D01*
X156231641Y-156399333D02*
X156136403Y-156351714D01*
X156136403Y-156351714D02*
X155945927Y-156351714D01*
X155945927Y-156351714D02*
X155850689Y-156399333D01*
X156279260Y-156970762D02*
X156184022Y-157018381D01*
X156184022Y-157018381D02*
X155945927Y-157018381D01*
X155945927Y-157018381D02*
X155850689Y-156970762D01*
X155850689Y-156970762D02*
X155803070Y-156875523D01*
X155803070Y-156875523D02*
X155803070Y-156780285D01*
X155803070Y-156780285D02*
X155850689Y-156685047D01*
X155850689Y-156685047D02*
X155945927Y-156637428D01*
X155945927Y-156637428D02*
X156184022Y-156637428D01*
X156184022Y-156637428D02*
X156279260Y-156589809D01*
X156755451Y-157018381D02*
X156755451Y-156018381D01*
X156755451Y-156399333D02*
X156850689Y-156351714D01*
X156850689Y-156351714D02*
X157041165Y-156351714D01*
X157041165Y-156351714D02*
X157136403Y-156399333D01*
X157136403Y-156399333D02*
X157184022Y-156446952D01*
X157184022Y-156446952D02*
X157231641Y-156542190D01*
X157231641Y-156542190D02*
X157231641Y-156827904D01*
X157231641Y-156827904D02*
X157184022Y-156923142D01*
X157184022Y-156923142D02*
X157136403Y-156970762D01*
X157136403Y-156970762D02*
X157041165Y-157018381D01*
X157041165Y-157018381D02*
X156850689Y-157018381D01*
X156850689Y-157018381D02*
X156755451Y-156970762D01*
D11*
%TO.C,U9*%
X175719900Y-257749600D02*
G75*
G02*
X175419900Y-257749600I-150000J0D01*
G01*
X175419900Y-257749600D02*
G75*
G02*
X175719900Y-257749600I150000J0D01*
G01*
D12*
%TO.C,SW62*%
X227421397Y-170723876D02*
X227030117Y-170121358D01*
X227527016Y-170226977D02*
X226924498Y-170618257D01*
%TO.C,SW65*%
X302054893Y-182155968D02*
X301663613Y-182758486D01*
X302160512Y-182652867D02*
X301557994Y-182261587D01*
%TO.C,SW45*%
X149889808Y-145387562D02*
X149381808Y-145895562D01*
X149889808Y-145895562D02*
X149381808Y-145387562D01*
%TO.C,SW55*%
X389443558Y-145387562D02*
X388935558Y-145895562D01*
X389443558Y-145895562D02*
X388935558Y-145387562D01*
%TO.C,SW56*%
X408493558Y-145387562D02*
X407985558Y-145895562D01*
X408493558Y-145895562D02*
X407985558Y-145387562D01*
%TO.C,SW52*%
X330703171Y-156591001D02*
X330311891Y-157193519D01*
X330808790Y-157087900D02*
X330206272Y-156696620D01*
%TO.C,SW74*%
X209485396Y-186387049D02*
X209094116Y-185784531D01*
X209591015Y-185890150D02*
X208988497Y-186281430D01*
%TO.C,SW39*%
X359351449Y-131026033D02*
X358960169Y-131628551D01*
X359457068Y-131522932D02*
X358854550Y-131131652D01*
%TO.C,SW26*%
X384681058Y-104430062D02*
X384173058Y-104938062D01*
X384681058Y-104938062D02*
X384173058Y-104430062D01*
%TO.C,SW58*%
X475168558Y-140625062D02*
X474660558Y-141133062D01*
X475168558Y-141133062D02*
X474660558Y-140625062D01*
%TO.C,SW9*%
X327147695Y-94051078D02*
X326756415Y-94653596D01*
X327253314Y-94547977D02*
X326650796Y-94156697D01*
%TO.C,SW80*%
X456118558Y-188250062D02*
X455610558Y-188758062D01*
X456118558Y-188758062D02*
X455610558Y-188250062D01*
%TO.C,SW76*%
X270044959Y-199259382D02*
X269653679Y-198656864D01*
X270150578Y-198762483D02*
X269548060Y-199153763D01*
%TO.C,SW63*%
X246055109Y-174684593D02*
X245663829Y-174082075D01*
X246160728Y-174187694D02*
X245558210Y-174578974D01*
%TO.C,SW75*%
X242094391Y-193318305D02*
X241703111Y-192715787D01*
X242200010Y-192821406D02*
X241597492Y-193212686D01*
%TO.C,SW79*%
X437068558Y-188250062D02*
X436560558Y-188758062D01*
X437068558Y-188758062D02*
X436560558Y-188250062D01*
%TO.C,SW51*%
X312069460Y-160551718D02*
X311678180Y-161154236D01*
X312175079Y-161048617D02*
X311572561Y-160657337D01*
%TO.C,SW7*%
X272205015Y-97471677D02*
X271813735Y-96869159D01*
X272310634Y-96974778D02*
X271708116Y-97366058D01*
%TO.C,SW64*%
X264688821Y-178645311D02*
X264297541Y-178042793D01*
X264794440Y-178148412D02*
X264191922Y-178539692D01*
%TO.C,SW19*%
X234645122Y-113832561D02*
X234253842Y-113230043D01*
X234750741Y-113335662D02*
X234148223Y-113726942D01*
%TO.C,SW46*%
X180846058Y-145387562D02*
X180338058Y-145895562D01*
X180846058Y-145895562D02*
X180338058Y-145387562D01*
%TO.C,SW3*%
X190371058Y-82522562D02*
X189863058Y-83030562D01*
X190371058Y-83030562D02*
X189863058Y-82522562D01*
%TO.C,SW23*%
X327440164Y-118333398D02*
X327048884Y-118935916D01*
X327545783Y-118830297D02*
X326943265Y-118439017D01*
%TO.C,SW6*%
X253571303Y-93510959D02*
X253180023Y-92908441D01*
X253676922Y-93014060D02*
X253074404Y-93405340D01*
%TO.C,SW73*%
X147508558Y-183487562D02*
X147000558Y-183995562D01*
X147508558Y-183995562D02*
X147000558Y-183487562D01*
%TO.C,SW11*%
X369073546Y-85139464D02*
X368682266Y-85741982D01*
X369179165Y-85636363D02*
X368576647Y-85245083D01*
%TO.C,SW47*%
X203431547Y-146149087D02*
X203040267Y-145546569D01*
X203537166Y-145652188D02*
X202934648Y-146043468D01*
%TO.C,SW35*%
X258634972Y-138407349D02*
X258243692Y-137804831D01*
X258740591Y-137910450D02*
X258138073Y-138301730D01*
%TO.C,SW5*%
X230279164Y-88560062D02*
X229887884Y-87957544D01*
X230384783Y-88063163D02*
X229782265Y-88454443D01*
%TO.C,SW72*%
X456118558Y-169200062D02*
X455610558Y-169708062D01*
X456118558Y-169708062D02*
X455610558Y-169200062D01*
%TO.C,SW17*%
X195133558Y-104430062D02*
X194625558Y-104938062D01*
X195133558Y-104938062D02*
X194625558Y-104430062D01*
%TO.C,SW29*%
X465643558Y-102525062D02*
X465135558Y-103033062D01*
X465643558Y-103033062D02*
X465135558Y-102525062D01*
%TO.C,SW68*%
X357956029Y-170273815D02*
X357564749Y-170876333D01*
X358061648Y-170770714D02*
X357459130Y-170379434D01*
%TO.C,SW22*%
X308806452Y-122294115D02*
X308415172Y-122896633D01*
X308912071Y-122791014D02*
X308309553Y-122399734D01*
%TO.C,SW13*%
X409446058Y-82522562D02*
X408938058Y-83030562D01*
X409446058Y-83030562D02*
X408938058Y-82522562D01*
%TO.C,SW28*%
X432306058Y-107287562D02*
X431798058Y-107795562D01*
X432306058Y-107795562D02*
X431798058Y-107287562D01*
%TO.C,SW2*%
X171321058Y-82522562D02*
X170813058Y-83030562D01*
X171321058Y-83030562D02*
X170813058Y-82522562D01*
%TO.C,SW57*%
X439449808Y-145387562D02*
X438941808Y-145895562D01*
X439449808Y-145895562D02*
X438941808Y-145387562D01*
%TO.C,SW1*%
X146556058Y-83475062D02*
X146048058Y-83983062D01*
X146556058Y-83983062D02*
X146048058Y-83475062D01*
%TO.C,SW36*%
X303450314Y-142908186D02*
X303059034Y-143510704D01*
X303555933Y-143405085D02*
X302953415Y-143013805D01*
%TO.C,SW49*%
X240698971Y-154070523D02*
X240307691Y-153468005D01*
X240804590Y-153573624D02*
X240202072Y-153964904D01*
%TO.C,SW14*%
X460881058Y-83475062D02*
X460373058Y-83983062D01*
X460881058Y-83983062D02*
X460373058Y-83475062D01*
%TO.C,SW77*%
X331636965Y-195343693D02*
X331245685Y-195946211D01*
X331742584Y-195840592D02*
X331140066Y-195449312D01*
%TO.C,SW67*%
X339322317Y-174234533D02*
X338931037Y-174837051D01*
X339427936Y-174731432D02*
X338825418Y-174340152D01*
%TO.C,SW18*%
X216011411Y-109871843D02*
X215620131Y-109269325D01*
X216117030Y-109374944D02*
X215514512Y-109766224D01*
%TO.C,SW53*%
X349336883Y-152630283D02*
X348945603Y-153232801D01*
X349442502Y-153127182D02*
X348839984Y-152735902D01*
%TO.C,SW33*%
X221367549Y-130485914D02*
X220976269Y-129883396D01*
X221473168Y-129989015D02*
X220870650Y-130380295D01*
%TO.C,SW69*%
X376589741Y-166313098D02*
X376198461Y-166915616D01*
X376695360Y-166809997D02*
X376092842Y-166418717D01*
%TO.C,SW71*%
X425162308Y-164437562D02*
X424654308Y-164945562D01*
X425162308Y-164945562D02*
X424654308Y-164437562D01*
%TO.C,SW81*%
X475168558Y-188250062D02*
X474660558Y-188758062D01*
X475168558Y-188758062D02*
X474660558Y-188250062D01*
%TO.C,SW25*%
X364707588Y-110411962D02*
X364316308Y-111014480D01*
X364813207Y-110908861D02*
X364210689Y-110517581D01*
%TO.C,SW54*%
X367970595Y-148669565D02*
X367579315Y-149272083D01*
X368076214Y-149166464D02*
X367473696Y-148775184D01*
%TO.C,SW59*%
X154652308Y-164437562D02*
X154144308Y-164945562D01*
X154652308Y-164945562D02*
X154144308Y-164437562D01*
%TO.C,SW44*%
X470406058Y-121575062D02*
X469898058Y-122083062D01*
X470406058Y-122083062D02*
X469898058Y-121575062D01*
%TO.C,SW70*%
X398968558Y-164437562D02*
X398460558Y-164945562D01*
X398968558Y-164945562D02*
X398460558Y-164437562D01*
%TO.C,SW48*%
X222065259Y-150109805D02*
X221673979Y-149507287D01*
X222170878Y-149612906D02*
X221568360Y-150004186D01*
%TO.C,SW12*%
X390396058Y-82522562D02*
X389888058Y-83030562D01*
X390396058Y-83030562D02*
X389888058Y-82522562D01*
%TO.C,SW43*%
X441831058Y-126337562D02*
X441323058Y-126845562D01*
X441831058Y-126845562D02*
X441323058Y-126337562D01*
%TO.C,SW21*%
X271912546Y-121753996D02*
X271521266Y-121151478D01*
X272018165Y-121257097D02*
X271415647Y-121648377D01*
%TO.C,SW38*%
X340717738Y-134986751D02*
X340326458Y-135589269D01*
X340823357Y-135483650D02*
X340220839Y-135092370D01*
%TO.C,SW50*%
X259332683Y-158031240D02*
X258941403Y-157428722D01*
X259438302Y-157534341D02*
X258835784Y-157925621D01*
%TO.C,SW10*%
X350439834Y-89100181D02*
X350048554Y-89702699D01*
X350545453Y-89597080D02*
X349942935Y-89205800D01*
%TO.C,SW20*%
X253278834Y-117793278D02*
X252887554Y-117190760D01*
X253384453Y-117296379D02*
X252781935Y-117687659D01*
%TO.C,SW27*%
X403731058Y-107287562D02*
X403223058Y-107795562D01*
X403731058Y-107795562D02*
X403223058Y-107287562D01*
%TO.C,SW31*%
X180846058Y-126337562D02*
X180338058Y-126845562D01*
X180846058Y-126845562D02*
X180338058Y-126337562D01*
%TO.C,SW15*%
X157033558Y-107287562D02*
X156525558Y-107795562D01*
X157033558Y-107795562D02*
X156525558Y-107287562D01*
%TO.C,SW40*%
X377985161Y-127065315D02*
X377593881Y-127667833D01*
X378090780Y-127562214D02*
X377488262Y-127170934D01*
%TO.C,SW61*%
X208787685Y-166763158D02*
X208396405Y-166160640D01*
X208893304Y-166266259D02*
X208290786Y-166657539D01*
%TO.C,SW42*%
X418018558Y-126337562D02*
X417510558Y-126845562D01*
X418018558Y-126845562D02*
X417510558Y-126337562D01*
%TO.C,SW32*%
X202733837Y-126525196D02*
X202342557Y-125922678D01*
X202839456Y-126028297D02*
X202236938Y-126419577D01*
%TO.C,SW66*%
X320688605Y-178195251D02*
X320297325Y-178797769D01*
X320794224Y-178692150D02*
X320191706Y-178300870D01*
%TO.C,SW37*%
X322084026Y-138947468D02*
X321692746Y-139549986D01*
X322189645Y-139444367D02*
X321587127Y-139053087D01*
%TO.C,SW41*%
X398968558Y-126337562D02*
X398460558Y-126845562D01*
X398968558Y-126845562D02*
X398460558Y-126337562D01*
%TO.C,SW60*%
X185608558Y-164437562D02*
X185100558Y-164945562D01*
X185608558Y-164945562D02*
X185100558Y-164437562D01*
%TO.C,SW24*%
X346073876Y-114372680D02*
X345682596Y-114975198D01*
X346179495Y-114869579D02*
X345576977Y-114478299D01*
%TO.C,SW34*%
X240001261Y-134446631D02*
X239609981Y-133844113D01*
X240106880Y-133949732D02*
X239504362Y-134341012D01*
%TO.C,SW78*%
X371233602Y-186927168D02*
X370842322Y-187529686D01*
X371339221Y-187424067D02*
X370736703Y-187032787D01*
%TO.C,SW8*%
X308513983Y-98011796D02*
X308122703Y-98614314D01*
X308619602Y-98508695D02*
X308017084Y-98117415D01*
%TO.C,SW16*%
X176083558Y-107287562D02*
X175575558Y-107795562D01*
X176083558Y-107795562D02*
X175575558Y-107287562D01*
%TO.C,SW30*%
X157033558Y-126337562D02*
X156525558Y-126845562D01*
X157033558Y-126845562D02*
X156525558Y-126337562D01*
%TO.C,SW4*%
X211645452Y-84599344D02*
X211254172Y-83996826D01*
X211751071Y-84102445D02*
X211148553Y-84493725D01*
%TD*%
M02*
