%TF.GenerationSoftware,KiCad,Pcbnew,8.0.1*%
%TF.CreationDate,2024-04-11T15:05:29-07:00*%
%TF.ProjectId,Erebus,45726562-7573-42e6-9b69-6361645f7063,rev?*%
%TF.SameCoordinates,Original*%
%TF.FileFunction,Paste,Bot*%
%TF.FilePolarity,Positive*%
%FSLAX46Y46*%
G04 Gerber Fmt 4.6, Leading zero omitted, Abs format (unit mm)*
G04 Created by KiCad (PCBNEW 8.0.1) date 2024-04-11 15:05:29*
%MOMM*%
%LPD*%
G01*
G04 APERTURE LIST*
G04 Aperture macros list*
%AMRoundRect*
0 Rectangle with rounded corners*
0 $1 Rounding radius*
0 $2 $3 $4 $5 $6 $7 $8 $9 X,Y pos of 4 corners*
0 Add a 4 corners polygon primitive as box body*
4,1,4,$2,$3,$4,$5,$6,$7,$8,$9,$2,$3,0*
0 Add four circle primitives for the rounded corners*
1,1,$1+$1,$2,$3*
1,1,$1+$1,$4,$5*
1,1,$1+$1,$6,$7*
1,1,$1+$1,$8,$9*
0 Add four rect primitives between the rounded corners*
20,1,$1+$1,$2,$3,$4,$5,0*
20,1,$1+$1,$4,$5,$6,$7,0*
20,1,$1+$1,$6,$7,$8,$9,0*
20,1,$1+$1,$8,$9,$2,$3,0*%
G04 Aperture macros list end*
%ADD10RoundRect,0.140000X0.195393X-0.101596X0.137177X0.172286X-0.195393X0.101596X-0.137177X-0.172286X0*%
%ADD11RoundRect,0.135000X-0.209025X0.093586X-0.152889X-0.170514X0.209025X-0.093586X0.152889X0.170514X0*%
%ADD12RoundRect,0.140000X-0.170000X0.140000X-0.170000X-0.140000X0.170000X-0.140000X0.170000X0.140000X0*%
%ADD13RoundRect,0.140000X0.170000X-0.140000X0.170000X0.140000X-0.170000X0.140000X-0.170000X-0.140000X0*%
%ADD14RoundRect,0.140000X-0.195393X0.101596X-0.137177X-0.172286X0.195393X-0.101596X0.137177X0.172286X0*%
%ADD15RoundRect,0.140000X-0.137177X0.172286X-0.195393X-0.101596X0.137177X-0.172286X0.195393X0.101596X0*%
%ADD16RoundRect,0.135000X-0.185000X0.135000X-0.185000X-0.135000X0.185000X-0.135000X0.185000X0.135000X0*%
%ADD17RoundRect,0.150000X-0.024574X0.605848X-0.268870X-0.543475X0.024574X-0.605848X0.268870X0.543475X0*%
%ADD18RoundRect,0.150000X-0.268870X0.543475X-0.024574X-0.605848X0.268870X-0.543475X0.024574X0.605848X0*%
%ADD19RoundRect,0.150000X-0.150000X0.587500X-0.150000X-0.587500X0.150000X-0.587500X0.150000X0.587500X0*%
%ADD20RoundRect,0.140000X0.137177X-0.172286X0.195393X0.101596X-0.137177X0.172286X-0.195393X-0.101596X0*%
%ADD21RoundRect,0.135000X-0.152889X0.170514X-0.209025X-0.093586X0.152889X-0.170514X0.209025X0.093586X0*%
%ADD22RoundRect,0.100000X0.637500X0.100000X-0.637500X0.100000X-0.637500X-0.100000X0.637500X-0.100000X0*%
G04 APERTURE END LIST*
D10*
%TO.C,C109*%
X328243401Y-157406639D03*
X328043805Y-156467617D03*
%TD*%
D11*
%TO.C,R77*%
X372858976Y-184849635D03*
X373071046Y-185847345D03*
%TD*%
D12*
%TO.C,C124*%
X157715508Y-162745362D03*
X157715508Y-163705362D03*
%TD*%
D13*
%TO.C,C31*%
X406870458Y-82808962D03*
X406870458Y-81848962D03*
%TD*%
D10*
%TO.C,C139*%
X355496259Y-171089453D03*
X355296663Y-170150431D03*
%TD*%
D14*
%TO.C,C138*%
X341966750Y-171942437D03*
X342166346Y-172881459D03*
%TD*%
D13*
%TO.C,C4*%
X319227200Y-145234600D03*
X319227200Y-144274600D03*
%TD*%
D10*
%TO.C,C77*%
X300990544Y-143723824D03*
X300790948Y-142784802D03*
%TD*%
D12*
%TO.C,C62*%
X435369258Y-105595362D03*
X435369258Y-106555362D03*
%TD*%
D15*
%TO.C,C20*%
X275658724Y-95956432D03*
X275459128Y-96895454D03*
%TD*%
D16*
%TO.C,R59*%
X156674108Y-162743362D03*
X156674108Y-163763362D03*
%TD*%
D17*
%TO.C,SW62*%
X226487276Y-169327649D03*
X227026682Y-171359193D03*
X228345756Y-169722683D03*
%TD*%
D12*
%TO.C,C38*%
X179146758Y-105595362D03*
X179146758Y-106555362D03*
%TD*%
D18*
%TO.C,SW65*%
X300739254Y-181757293D03*
X302058328Y-183393803D03*
X302597734Y-181362259D03*
%TD*%
D14*
%TO.C,C136*%
X323333038Y-175903155D03*
X323532634Y-176842177D03*
%TD*%
D19*
%TO.C,SW45*%
X148685808Y-144724062D03*
X149635808Y-146599062D03*
X150585808Y-144724062D03*
%TD*%
D20*
%TO.C,C133*%
X262215577Y-177893057D03*
X262415173Y-176954035D03*
%TD*%
D21*
%TO.C,R63*%
X248490590Y-172950873D03*
X248278520Y-173948583D03*
%TD*%
D14*
%TO.C,C24*%
X329792128Y-91758982D03*
X329991724Y-92698004D03*
%TD*%
D12*
%TO.C,C150*%
X150571758Y-181795362D03*
X150571758Y-182755362D03*
%TD*%
D16*
%TO.C,R69*%
X400990358Y-162743362D03*
X400990358Y-163763362D03*
%TD*%
D19*
%TO.C,SW55*%
X388239558Y-144724062D03*
X389189558Y-146599062D03*
X390139558Y-144724062D03*
%TD*%
D15*
%TO.C,C44*%
X238098831Y-112317316D03*
X237899235Y-113256338D03*
%TD*%
D20*
%TO.C,C151*%
X207012152Y-185634795D03*
X207211748Y-184695773D03*
%TD*%
D19*
%TO.C,SW56*%
X407289558Y-144724062D03*
X408239558Y-146599062D03*
X409189558Y-144724062D03*
%TD*%
D21*
%TO.C,R35*%
X261070453Y-136673629D03*
X260858383Y-137671339D03*
%TD*%
%TO.C,R4*%
X214080933Y-82865624D03*
X213868863Y-83863334D03*
%TD*%
D18*
%TO.C,SW52*%
X329387532Y-156192326D03*
X330706606Y-157828836D03*
X331246012Y-155797292D03*
%TD*%
D11*
%TO.C,R54*%
X369595969Y-146592032D03*
X369808039Y-147589742D03*
%TD*%
D17*
%TO.C,SW74*%
X208551275Y-184990822D03*
X209090681Y-187022366D03*
X210409755Y-185385856D03*
%TD*%
D13*
%TO.C,C163*%
X453542958Y-188536462D03*
X453542958Y-187576462D03*
%TD*%
D18*
%TO.C,SW39*%
X358035810Y-130627358D03*
X359354884Y-132263868D03*
X359894290Y-130232324D03*
%TD*%
D16*
%TO.C,R27*%
X405752858Y-105593362D03*
X405752858Y-106613362D03*
%TD*%
D13*
%TO.C,C91*%
X439255458Y-126623962D03*
X439255458Y-125663962D03*
%TD*%
D19*
%TO.C,SW26*%
X383477058Y-103766562D03*
X384427058Y-105641562D03*
X385377058Y-103766562D03*
%TD*%
D14*
%TO.C,C82*%
X343362171Y-132694655D03*
X343561767Y-133633677D03*
%TD*%
D16*
%TO.C,R78*%
X439090358Y-186555862D03*
X439090358Y-187575862D03*
%TD*%
D19*
%TO.C,SW58*%
X473964558Y-139961562D03*
X474914558Y-141836562D03*
X475864558Y-139961562D03*
%TD*%
D13*
%TO.C,C125*%
X183032958Y-164723962D03*
X183032958Y-163763962D03*
%TD*%
%TO.C,C123*%
X152076708Y-164723962D03*
X152076708Y-163763962D03*
%TD*%
%TO.C,C11*%
X187795458Y-82808962D03*
X187795458Y-81848962D03*
%TD*%
D21*
%TO.C,R34*%
X242436742Y-132712911D03*
X242224672Y-133710621D03*
%TD*%
D13*
%TO.C,C59*%
X401155458Y-107573962D03*
X401155458Y-106613962D03*
%TD*%
D15*
%TO.C,C14*%
X215099161Y-83084099D03*
X214899565Y-84023121D03*
%TD*%
D12*
%TO.C,C34*%
X160096758Y-105595362D03*
X160096758Y-106555362D03*
%TD*%
D10*
%TO.C,C141*%
X374129971Y-167128736D03*
X373930375Y-166189714D03*
%TD*%
D15*
%TO.C,C152*%
X212939105Y-184871804D03*
X212739509Y-185810826D03*
%TD*%
D18*
%TO.C,SW9*%
X325832056Y-93652403D03*
X327151130Y-95288913D03*
X327690536Y-93257369D03*
%TD*%
D21*
%TO.C,R5*%
X232714645Y-86826342D03*
X232502575Y-87824052D03*
%TD*%
D19*
%TO.C,SW80*%
X454914558Y-187586562D03*
X455864558Y-189461562D03*
X456814558Y-187586562D03*
%TD*%
D21*
%TO.C,R62*%
X229856878Y-168990156D03*
X229644808Y-169987866D03*
%TD*%
D12*
%TO.C,C40*%
X198196758Y-102737862D03*
X198196758Y-103697862D03*
%TD*%
D11*
%TO.C,R76*%
X333262339Y-193266160D03*
X333474409Y-194263870D03*
%TD*%
D21*
%TO.C,R33*%
X223803030Y-128752194D03*
X223590960Y-129749904D03*
%TD*%
D17*
%TO.C,SW76*%
X269110838Y-197863155D03*
X269650244Y-199894699D03*
X270969318Y-198258189D03*
%TD*%
D10*
%TO.C,C113*%
X365510825Y-149485203D03*
X365311229Y-148546181D03*
%TD*%
D11*
%TO.C,R8*%
X310139357Y-95934263D03*
X310351427Y-96931973D03*
%TD*%
D17*
%TO.C,SW63*%
X245120988Y-173288366D03*
X245660394Y-175319910D03*
X246979468Y-173683400D03*
%TD*%
D10*
%TO.C,C85*%
X375525391Y-127880953D03*
X375325795Y-126941931D03*
%TD*%
D21*
%TO.C,R20*%
X255714315Y-116059558D03*
X255502245Y-117057268D03*
%TD*%
D11*
%TO.C,R65*%
X322313979Y-176117718D03*
X322526049Y-177115428D03*
%TD*%
D21*
%TO.C,R64*%
X267124302Y-176911591D03*
X266912232Y-177909301D03*
%TD*%
D11*
%TO.C,R39*%
X360976823Y-128948500D03*
X361188893Y-129946210D03*
%TD*%
D17*
%TO.C,SW75*%
X241160270Y-191922078D03*
X241699676Y-193953622D03*
X243018750Y-192317112D03*
%TD*%
D20*
%TO.C,C69*%
X200260593Y-125772942D03*
X200460189Y-124833920D03*
%TD*%
D22*
%TO.C,U5*%
X326458500Y-145218200D03*
X326458500Y-145868200D03*
X326458500Y-146518200D03*
X326458500Y-147168200D03*
X326458500Y-147818200D03*
X326458500Y-148468200D03*
X326458500Y-149118200D03*
X326458500Y-149768200D03*
X326458500Y-150418200D03*
X326458500Y-151068200D03*
X326458500Y-151718200D03*
X326458500Y-152368200D03*
X320733500Y-152368200D03*
X320733500Y-151718200D03*
X320733500Y-151068200D03*
X320733500Y-150418200D03*
X320733500Y-149768200D03*
X320733500Y-149118200D03*
X320733500Y-148468200D03*
X320733500Y-147818200D03*
X320733500Y-147168200D03*
X320733500Y-146518200D03*
X320733500Y-145868200D03*
X320733500Y-145218200D03*
%TD*%
D21*
%TO.C,R19*%
X237080603Y-112098841D03*
X236868533Y-113096551D03*
%TD*%
D13*
%TO.C,C37*%
X173507958Y-107573962D03*
X173507958Y-106613962D03*
%TD*%
D19*
%TO.C,SW79*%
X435864558Y-187586562D03*
X436814558Y-189461562D03*
X437764558Y-187586562D03*
%TD*%
D16*
%TO.C,R42*%
X420040358Y-124643362D03*
X420040358Y-125663362D03*
%TD*%
D12*
%TO.C,C30*%
X393459258Y-80830362D03*
X393459258Y-81790362D03*
%TD*%
D14*
%TO.C,C54*%
X348718309Y-112080584D03*
X348917905Y-113019606D03*
%TD*%
D18*
%TO.C,SW51*%
X310753821Y-160153043D03*
X312072895Y-161789553D03*
X312612301Y-159758009D03*
%TD*%
D21*
%TO.C,R61*%
X211223166Y-165029438D03*
X211011096Y-166027148D03*
%TD*%
D17*
%TO.C,SW7*%
X271270894Y-96075450D03*
X271810300Y-98106994D03*
X273129374Y-96470484D03*
%TD*%
D21*
%TO.C,R75*%
X272480440Y-197525662D03*
X272268370Y-198523372D03*
%TD*%
D17*
%TO.C,SW64*%
X263754700Y-177249084D03*
X264294106Y-179280628D03*
X265613180Y-177644118D03*
%TD*%
D14*
%TO.C,C114*%
X370615028Y-146377469D03*
X370814624Y-147316491D03*
%TD*%
D16*
%TO.C,R70*%
X427184108Y-162743362D03*
X427184108Y-163763362D03*
%TD*%
D22*
%TO.C,U2*%
X231233900Y-137268000D03*
X231233900Y-137918000D03*
X231233900Y-138568000D03*
X231233900Y-139218000D03*
X231233900Y-139868000D03*
X231233900Y-140518000D03*
X231233900Y-141168000D03*
X231233900Y-141818000D03*
X231233900Y-142468000D03*
X231233900Y-143118000D03*
X231233900Y-143768000D03*
X231233900Y-144418000D03*
X225508900Y-144418000D03*
X225508900Y-143768000D03*
X225508900Y-143118000D03*
X225508900Y-142468000D03*
X225508900Y-141818000D03*
X225508900Y-141168000D03*
X225508900Y-140518000D03*
X225508900Y-139868000D03*
X225508900Y-139218000D03*
X225508900Y-138568000D03*
X225508900Y-137918000D03*
X225508900Y-137268000D03*
%TD*%
D16*
%TO.C,R45*%
X151911608Y-143693362D03*
X151911608Y-144713362D03*
%TD*%
D14*
%TO.C,C168*%
X304699326Y-179863872D03*
X304898922Y-180802894D03*
%TD*%
D15*
%TO.C,C156*%
X273498668Y-197744137D03*
X273299072Y-198683159D03*
%TD*%
D22*
%TO.C,U7*%
X432775200Y-123795000D03*
X432775200Y-124445000D03*
X432775200Y-125095000D03*
X432775200Y-125745000D03*
X432775200Y-126395000D03*
X432775200Y-127045000D03*
X432775200Y-127695000D03*
X432775200Y-128345000D03*
X432775200Y-128995000D03*
X432775200Y-129645000D03*
X432775200Y-130295000D03*
X432775200Y-130945000D03*
X427050200Y-130945000D03*
X427050200Y-130295000D03*
X427050200Y-129645000D03*
X427050200Y-128995000D03*
X427050200Y-128345000D03*
X427050200Y-127695000D03*
X427050200Y-127045000D03*
X427050200Y-126395000D03*
X427050200Y-125745000D03*
X427050200Y-125095000D03*
X427050200Y-124445000D03*
X427050200Y-123795000D03*
%TD*%
D11*
%TO.C,R25*%
X366332962Y-108334429D03*
X366545032Y-109332139D03*
%TD*%
%TO.C,R10*%
X352065208Y-87022648D03*
X352277278Y-88020358D03*
%TD*%
D10*
%TO.C,C135*%
X318228835Y-179010889D03*
X318029239Y-178071867D03*
%TD*%
D12*
%TO.C,C58*%
X387744258Y-102737862D03*
X387744258Y-103697862D03*
%TD*%
D17*
%TO.C,SW19*%
X233711001Y-112436334D03*
X234250407Y-114467878D03*
X235569481Y-112831368D03*
%TD*%
D16*
%TO.C,R17*%
X197155358Y-102735862D03*
X197155358Y-103755862D03*
%TD*%
D21*
%TO.C,R74*%
X244529872Y-191584585D03*
X244317802Y-192582295D03*
%TD*%
D14*
%TO.C,C110*%
X333347604Y-154298905D03*
X333547200Y-155237927D03*
%TD*%
D19*
%TO.C,SW46*%
X179642058Y-144724062D03*
X180592058Y-146599062D03*
X181542058Y-144724062D03*
%TD*%
D15*
%TO.C,C16*%
X233732873Y-87044817D03*
X233533277Y-87983839D03*
%TD*%
D19*
%TO.C,SW3*%
X189167058Y-81859062D03*
X190117058Y-83734062D03*
X191067058Y-81859062D03*
%TD*%
D18*
%TO.C,SW23*%
X326124525Y-117934723D03*
X327443599Y-119571233D03*
X327983005Y-117539689D03*
%TD*%
D16*
%TO.C,R2*%
X173342858Y-80828362D03*
X173342858Y-81848362D03*
%TD*%
D17*
%TO.C,SW6*%
X252637182Y-92114732D03*
X253176588Y-94146276D03*
X254495662Y-92509766D03*
%TD*%
D22*
%TO.C,U3*%
X171551600Y-123113800D03*
X171551600Y-123763800D03*
X171551600Y-124413800D03*
X171551600Y-125063800D03*
X171551600Y-125713800D03*
X171551600Y-126363800D03*
X171551600Y-127013800D03*
X171551600Y-127663800D03*
X171551600Y-128313800D03*
X171551600Y-128963800D03*
X171551600Y-129613800D03*
X171551600Y-130263800D03*
X165826600Y-130263800D03*
X165826600Y-129613800D03*
X165826600Y-128963800D03*
X165826600Y-128313800D03*
X165826600Y-127663800D03*
X165826600Y-127013800D03*
X165826600Y-126363800D03*
X165826600Y-125713800D03*
X165826600Y-125063800D03*
X165826600Y-124413800D03*
X165826600Y-123763800D03*
X165826600Y-123113800D03*
%TD*%
D19*
%TO.C,SW73*%
X146304558Y-182824062D03*
X147254558Y-184699062D03*
X148204558Y-182824062D03*
%TD*%
D16*
%TO.C,R1*%
X148577858Y-81780862D03*
X148577858Y-82800862D03*
%TD*%
D13*
%TO.C,C9*%
X168745458Y-82808962D03*
X168745458Y-81848962D03*
%TD*%
D18*
%TO.C,SW11*%
X367757907Y-84740789D03*
X369076981Y-86377299D03*
X369616387Y-84345755D03*
%TD*%
D20*
%TO.C,C41*%
X213538167Y-109119589D03*
X213737763Y-108180567D03*
%TD*%
D15*
%TO.C,C42*%
X219465120Y-108356598D03*
X219265524Y-109295620D03*
%TD*%
D17*
%TO.C,SW47*%
X202497426Y-144752860D03*
X203036832Y-146784404D03*
X204355906Y-145147894D03*
%TD*%
D11*
%TO.C,R52*%
X332328545Y-154513468D03*
X332540615Y-155511178D03*
%TD*%
D15*
%TO.C,C132*%
X249508818Y-173169348D03*
X249309222Y-174108370D03*
%TD*%
D17*
%TO.C,SW35*%
X257700851Y-137011122D03*
X258240257Y-139042666D03*
X259559331Y-137406156D03*
%TD*%
D20*
%TO.C,C105*%
X256859439Y-157278986D03*
X257059035Y-156339964D03*
%TD*%
D17*
%TO.C,SW5*%
X229345043Y-87163835D03*
X229884449Y-89195379D03*
X231203523Y-87558869D03*
%TD*%
D20*
%TO.C,C47*%
X269439302Y-121001742D03*
X269638898Y-120062720D03*
%TD*%
D13*
%TO.C,C39*%
X192557958Y-104716462D03*
X192557958Y-103756462D03*
%TD*%
D15*
%TO.C,C70*%
X206187546Y-125009951D03*
X205987950Y-125948973D03*
%TD*%
D12*
%TO.C,C122*%
X478231758Y-138932862D03*
X478231758Y-139892862D03*
%TD*%
D13*
%TO.C,C165*%
X472592958Y-188536462D03*
X472592958Y-187576462D03*
%TD*%
%TO.C,C95*%
X147314208Y-145673962D03*
X147314208Y-144713962D03*
%TD*%
D20*
%TO.C,C43*%
X232171878Y-113080307D03*
X232371474Y-112141285D03*
%TD*%
D19*
%TO.C,SW72*%
X454914558Y-168536562D03*
X455864558Y-170411562D03*
X456814558Y-168536562D03*
%TD*%
D15*
%TO.C,C154*%
X245548100Y-191803060D03*
X245348504Y-192742082D03*
%TD*%
D11*
%TO.C,R51*%
X313694834Y-158474185D03*
X313906904Y-159471895D03*
%TD*%
%TO.C,R9*%
X328773069Y-91973545D03*
X328985139Y-92971255D03*
%TD*%
D10*
%TO.C,C25*%
X347980064Y-89915819D03*
X347780468Y-88976797D03*
%TD*%
D19*
%TO.C,SW17*%
X193929558Y-103766562D03*
X194879558Y-105641562D03*
X195829558Y-103766562D03*
%TD*%
D15*
%TO.C,C72*%
X224821258Y-128970669D03*
X224621662Y-129909691D03*
%TD*%
D20*
%TO.C,C45*%
X250805590Y-117041024D03*
X251005186Y-116102002D03*
%TD*%
D13*
%TO.C,C29*%
X387820458Y-82808962D03*
X387820458Y-81848962D03*
%TD*%
D16*
%TO.C,R12*%
X392417858Y-80828362D03*
X392417858Y-81848362D03*
%TD*%
D12*
%TO.C,C116*%
X392506758Y-143695362D03*
X392506758Y-144655362D03*
%TD*%
D16*
%TO.C,R41*%
X400990358Y-124643362D03*
X400990358Y-125663362D03*
%TD*%
D13*
%TO.C,C61*%
X429730458Y-107573962D03*
X429730458Y-106613962D03*
%TD*%
D11*
%TO.C,R24*%
X347699250Y-112295147D03*
X347911320Y-113292857D03*
%TD*%
D19*
%TO.C,SW29*%
X464439558Y-101861562D03*
X465389558Y-103736562D03*
X466339558Y-101861562D03*
%TD*%
D13*
%TO.C,C119*%
X436874208Y-145673962D03*
X436874208Y-144713962D03*
%TD*%
D16*
%TO.C,R80*%
X477190358Y-186555862D03*
X477190358Y-187575862D03*
%TD*%
D18*
%TO.C,SW68*%
X356640390Y-169875140D03*
X357959464Y-171511650D03*
X358498870Y-169480106D03*
%TD*%
D21*
%TO.C,R73*%
X211920877Y-184653329D03*
X211708807Y-185651039D03*
%TD*%
D18*
%TO.C,SW22*%
X307490813Y-121895440D03*
X308809887Y-123531950D03*
X309349293Y-121500406D03*
%TD*%
D14*
%TO.C,C142*%
X379234174Y-164021002D03*
X379433770Y-164960024D03*
%TD*%
D19*
%TO.C,SW13*%
X408242058Y-81859062D03*
X409192058Y-83734062D03*
X410142058Y-81859062D03*
%TD*%
D16*
%TO.C,R60*%
X187630358Y-162743362D03*
X187630358Y-163763362D03*
%TD*%
D11*
%TO.C,R22*%
X310431826Y-120216582D03*
X310643896Y-121214292D03*
%TD*%
D16*
%TO.C,R58*%
X477190358Y-138930862D03*
X477190358Y-139950862D03*
%TD*%
D13*
%TO.C,C87*%
X396392958Y-126623962D03*
X396392958Y-125663962D03*
%TD*%
D19*
%TO.C,SW28*%
X431102058Y-106624062D03*
X432052058Y-108499062D03*
X433002058Y-106624062D03*
%TD*%
%TO.C,SW2*%
X170117058Y-81859062D03*
X171067058Y-83734062D03*
X172017058Y-81859062D03*
%TD*%
D14*
%TO.C,C158*%
X334281398Y-193051597D03*
X334480994Y-193990619D03*
%TD*%
D16*
%TO.C,R29*%
X467665358Y-100830862D03*
X467665358Y-101850862D03*
%TD*%
%TO.C,R79*%
X458140358Y-186555862D03*
X458140358Y-187575862D03*
%TD*%
D12*
%TO.C,C36*%
X463944258Y-81782862D03*
X463944258Y-82742862D03*
%TD*%
D19*
%TO.C,SW57*%
X438245808Y-144724062D03*
X439195808Y-146599062D03*
X440145808Y-144724062D03*
%TD*%
D20*
%TO.C,C99*%
X200958303Y-145396833D03*
X201157899Y-144457811D03*
%TD*%
D21*
%TO.C,R32*%
X205169318Y-124791476D03*
X204957248Y-125789186D03*
%TD*%
D11*
%TO.C,R53*%
X350962257Y-150552750D03*
X351174327Y-151550460D03*
%TD*%
D12*
%TO.C,C98*%
X183909258Y-143695362D03*
X183909258Y-144655362D03*
%TD*%
D19*
%TO.C,SW1*%
X145352058Y-82811562D03*
X146302058Y-84686562D03*
X147252058Y-82811562D03*
%TD*%
D15*
%TO.C,C104*%
X244152680Y-152555278D03*
X243953084Y-153494300D03*
%TD*%
D18*
%TO.C,SW36*%
X302134675Y-142509511D03*
X303453749Y-144146021D03*
X303993155Y-142114477D03*
%TD*%
D11*
%TO.C,R23*%
X329065538Y-116255865D03*
X329277608Y-117253575D03*
%TD*%
D20*
%TO.C,C71*%
X218894305Y-129733660D03*
X219093901Y-128794638D03*
%TD*%
D14*
%TO.C,C112*%
X351981316Y-150338187D03*
X352180912Y-151277209D03*
%TD*%
D17*
%TO.C,SW49*%
X239764850Y-152674296D03*
X240304256Y-154705840D03*
X241623330Y-153069330D03*
%TD*%
D20*
%TO.C,C155*%
X267571715Y-198507128D03*
X267771311Y-197568106D03*
%TD*%
D13*
%TO.C,C93*%
X467830458Y-121861462D03*
X467830458Y-120901462D03*
%TD*%
D19*
%TO.C,SW14*%
X459677058Y-82811562D03*
X460627058Y-84686562D03*
X461577058Y-82811562D03*
%TD*%
D16*
%TO.C,R46*%
X182867858Y-143693362D03*
X182867858Y-144713362D03*
%TD*%
D18*
%TO.C,SW77*%
X330321326Y-194945018D03*
X331640400Y-196581528D03*
X332179806Y-194549984D03*
%TD*%
D13*
%TO.C,C33*%
X154457958Y-107573962D03*
X154457958Y-106613962D03*
%TD*%
D18*
%TO.C,SW67*%
X338006678Y-173835858D03*
X339325752Y-175472368D03*
X339865158Y-173440824D03*
%TD*%
D11*
%TO.C,R81*%
X303680267Y-180078435D03*
X303892337Y-181076145D03*
%TD*%
D10*
%TO.C,C55*%
X362247818Y-111227600D03*
X362048222Y-110288578D03*
%TD*%
D22*
%TO.C,U6*%
X391830400Y-129794000D03*
X391830400Y-130444000D03*
X391830400Y-131094000D03*
X391830400Y-131744000D03*
X391830400Y-132394000D03*
X391830400Y-133044000D03*
X391830400Y-133694000D03*
X391830400Y-134344000D03*
X391830400Y-134994000D03*
X391830400Y-135644000D03*
X391830400Y-136294000D03*
X391830400Y-136944000D03*
X386105400Y-136944000D03*
X386105400Y-136294000D03*
X386105400Y-135644000D03*
X386105400Y-134994000D03*
X386105400Y-134344000D03*
X386105400Y-133694000D03*
X386105400Y-133044000D03*
X386105400Y-132394000D03*
X386105400Y-131744000D03*
X386105400Y-131094000D03*
X386105400Y-130444000D03*
X386105400Y-129794000D03*
%TD*%
D15*
%TO.C,C18*%
X257025012Y-91995714D03*
X256825416Y-92934736D03*
%TD*%
D12*
%TO.C,C164*%
X459181758Y-186557862D03*
X459181758Y-187517862D03*
%TD*%
D17*
%TO.C,SW18*%
X215077290Y-108475616D03*
X215616696Y-110507160D03*
X216935770Y-108870650D03*
%TD*%
D14*
%TO.C,C28*%
X371717979Y-82847368D03*
X371917575Y-83786390D03*
%TD*%
D15*
%TO.C,C46*%
X256732543Y-116278033D03*
X256532947Y-117217055D03*
%TD*%
D12*
%TO.C,C88*%
X402031758Y-124645362D03*
X402031758Y-125605362D03*
%TD*%
D11*
%TO.C,R40*%
X379610535Y-124987782D03*
X379822605Y-125985492D03*
%TD*%
D10*
%TO.C,C157*%
X329177195Y-196159331D03*
X328977599Y-195220309D03*
%TD*%
D13*
%TO.C,C117*%
X405917958Y-145673962D03*
X405917958Y-144713962D03*
%TD*%
D21*
%TO.C,R50*%
X261768164Y-156297520D03*
X261556094Y-157295230D03*
%TD*%
D13*
%TO.C,C57*%
X382105458Y-104716462D03*
X382105458Y-103756462D03*
%TD*%
D18*
%TO.C,SW53*%
X348021244Y-152231608D03*
X349340318Y-153868118D03*
X349879724Y-151836574D03*
%TD*%
D17*
%TO.C,SW33*%
X220433428Y-129089687D03*
X220972834Y-131121231D03*
X222291908Y-129484721D03*
%TD*%
D18*
%TO.C,SW69*%
X375274102Y-165914423D03*
X376593176Y-167550933D03*
X377132582Y-165519389D03*
%TD*%
D19*
%TO.C,SW71*%
X423958308Y-163774062D03*
X424908308Y-165649062D03*
X425858308Y-163774062D03*
%TD*%
D10*
%TO.C,C111*%
X346877113Y-153445921D03*
X346677517Y-152506899D03*
%TD*%
D19*
%TO.C,SW81*%
X473964558Y-187586562D03*
X474914558Y-189461562D03*
X475864558Y-187586562D03*
%TD*%
D13*
%TO.C,C7*%
X143980458Y-83761462D03*
X143980458Y-82801462D03*
%TD*%
D10*
%TO.C,C49*%
X306346682Y-123109753D03*
X306147086Y-122170731D03*
%TD*%
D13*
%TO.C,C67*%
X178270458Y-126623962D03*
X178270458Y-125663962D03*
%TD*%
D14*
%TO.C,C78*%
X306094747Y-140616090D03*
X306294343Y-141555112D03*
%TD*%
D16*
%TO.C,R14*%
X159055358Y-105593362D03*
X159055358Y-106613362D03*
%TD*%
D13*
%TO.C,C5*%
X384581400Y-129788800D03*
X384581400Y-128828800D03*
%TD*%
D16*
%TO.C,R55*%
X391465358Y-143693362D03*
X391465358Y-144713362D03*
%TD*%
D21*
%TO.C,R49*%
X243134452Y-152336803D03*
X242922382Y-153334513D03*
%TD*%
D13*
%TO.C,C89*%
X415442958Y-126623962D03*
X415442958Y-125663962D03*
%TD*%
D22*
%TO.C,U4*%
X254500300Y-143440200D03*
X254500300Y-144090200D03*
X254500300Y-144740200D03*
X254500300Y-145390200D03*
X254500300Y-146040200D03*
X254500300Y-146690200D03*
X254500300Y-147340200D03*
X254500300Y-147990200D03*
X254500300Y-148640200D03*
X254500300Y-149290200D03*
X254500300Y-149940200D03*
X254500300Y-150590200D03*
X248775300Y-150590200D03*
X248775300Y-149940200D03*
X248775300Y-149290200D03*
X248775300Y-148640200D03*
X248775300Y-147990200D03*
X248775300Y-147340200D03*
X248775300Y-146690200D03*
X248775300Y-146040200D03*
X248775300Y-145390200D03*
X248775300Y-144740200D03*
X248775300Y-144090200D03*
X248775300Y-143440200D03*
%TD*%
D20*
%TO.C,C13*%
X209172208Y-83847090D03*
X209371804Y-82908068D03*
%TD*%
D13*
%TO.C,C149*%
X144932958Y-183773962D03*
X144932958Y-182813962D03*
%TD*%
D18*
%TO.C,SW25*%
X363391949Y-110013287D03*
X364711023Y-111649797D03*
X365250429Y-109618253D03*
%TD*%
D13*
%TO.C,C145*%
X422586708Y-164723962D03*
X422586708Y-163763962D03*
%TD*%
D14*
%TO.C,C84*%
X361995882Y-128733937D03*
X362195478Y-129672959D03*
%TD*%
D21*
%TO.C,R47*%
X205867028Y-144415367D03*
X205654958Y-145413077D03*
%TD*%
D18*
%TO.C,SW54*%
X366654956Y-148270890D03*
X367974030Y-149907400D03*
X368513436Y-147875856D03*
%TD*%
D14*
%TO.C,C56*%
X367352021Y-108119866D03*
X367551617Y-109058888D03*
%TD*%
D15*
%TO.C,C130*%
X230875106Y-169208631D03*
X230675510Y-170147653D03*
%TD*%
D12*
%TO.C,C120*%
X442513008Y-143695362D03*
X442513008Y-144655362D03*
%TD*%
D21*
%TO.C,R18*%
X218446892Y-108138123D03*
X218234822Y-109135833D03*
%TD*%
D16*
%TO.C,R16*%
X178105358Y-105593362D03*
X178105358Y-106613362D03*
%TD*%
D19*
%TO.C,SW59*%
X153448308Y-163774062D03*
X154398308Y-165649062D03*
X155348308Y-163774062D03*
%TD*%
D16*
%TO.C,R43*%
X443852858Y-124643362D03*
X443852858Y-125663362D03*
%TD*%
D10*
%TO.C,C51*%
X324980394Y-119149036D03*
X324780798Y-118210014D03*
%TD*%
D16*
%TO.C,R30*%
X159055358Y-124643362D03*
X159055358Y-125663362D03*
%TD*%
D21*
%TO.C,R6*%
X256006784Y-91777239D03*
X255794714Y-92774949D03*
%TD*%
D19*
%TO.C,SW44*%
X469202058Y-120911562D03*
X470152058Y-122786562D03*
X471102058Y-120911562D03*
%TD*%
D12*
%TO.C,C162*%
X440131758Y-186557862D03*
X440131758Y-187517862D03*
%TD*%
%TO.C,C118*%
X411556758Y-143695362D03*
X411556758Y-144655362D03*
%TD*%
%TO.C,C60*%
X406794258Y-105595362D03*
X406794258Y-106555362D03*
%TD*%
D16*
%TO.C,R71*%
X458140358Y-167505862D03*
X458140358Y-168525862D03*
%TD*%
%TO.C,R26*%
X386702858Y-102735862D03*
X386702858Y-103755862D03*
%TD*%
D13*
%TO.C,C35*%
X458305458Y-83761462D03*
X458305458Y-82801462D03*
%TD*%
%TO.C,C121*%
X472592958Y-140911462D03*
X472592958Y-139951462D03*
%TD*%
D16*
%TO.C,R3*%
X192392858Y-80828362D03*
X192392858Y-81848362D03*
%TD*%
D19*
%TO.C,SW70*%
X397764558Y-163774062D03*
X398714558Y-165649062D03*
X399664558Y-163774062D03*
%TD*%
D20*
%TO.C,C127*%
X206314441Y-166010904D03*
X206514037Y-165071882D03*
%TD*%
D15*
%TO.C,C48*%
X275366255Y-120238751D03*
X275166659Y-121177773D03*
%TD*%
D10*
%TO.C,C23*%
X324687925Y-94866716D03*
X324488329Y-93927694D03*
%TD*%
%TO.C,C83*%
X356891679Y-131841671D03*
X356692083Y-130902649D03*
%TD*%
%TO.C,C107*%
X309609690Y-161367356D03*
X309410094Y-160428334D03*
%TD*%
D20*
%TO.C,C153*%
X239621147Y-192566051D03*
X239820743Y-191627029D03*
%TD*%
D10*
%TO.C,C27*%
X366613776Y-85955102D03*
X366414180Y-85016080D03*
%TD*%
D17*
%TO.C,SW48*%
X221131138Y-148713578D03*
X221670544Y-150745122D03*
X222989618Y-149108612D03*
%TD*%
D10*
%TO.C,C81*%
X338257968Y-135802389D03*
X338058372Y-134863367D03*
%TD*%
D19*
%TO.C,SW12*%
X389192058Y-81859062D03*
X390142058Y-83734062D03*
X391092058Y-81859062D03*
%TD*%
D12*
%TO.C,C146*%
X428225508Y-162745362D03*
X428225508Y-163705362D03*
%TD*%
D21*
%TO.C,R7*%
X274640496Y-95737957D03*
X274428426Y-96735667D03*
%TD*%
D14*
%TO.C,C22*%
X311158416Y-95719700D03*
X311358012Y-96658722D03*
%TD*%
D13*
%TO.C,C1*%
X164236400Y-123111200D03*
X164236400Y-122151200D03*
%TD*%
%TO.C,C143*%
X396392958Y-164723962D03*
X396392958Y-163763962D03*
%TD*%
D19*
%TO.C,SW43*%
X440627058Y-125674062D03*
X441577058Y-127549062D03*
X442527058Y-125674062D03*
%TD*%
D17*
%TO.C,SW21*%
X270978425Y-120357769D03*
X271517831Y-122389313D03*
X272836905Y-120752803D03*
%TD*%
D18*
%TO.C,SW38*%
X339402099Y-134588076D03*
X340721173Y-136224586D03*
X341260579Y-134193042D03*
%TD*%
D21*
%TO.C,R21*%
X274348027Y-120020276D03*
X274135957Y-121017986D03*
%TD*%
D15*
%TO.C,C100*%
X206885256Y-144633842D03*
X206685660Y-145572864D03*
%TD*%
D10*
%TO.C,C53*%
X343614106Y-115188318D03*
X343414510Y-114249296D03*
%TD*%
D17*
%TO.C,SW50*%
X258398562Y-156635013D03*
X258937968Y-158666557D03*
X260257042Y-157030047D03*
%TD*%
D12*
%TO.C,C32*%
X412509258Y-80830362D03*
X412509258Y-81790362D03*
%TD*%
D13*
%TO.C,C115*%
X386867958Y-145673962D03*
X386867958Y-144713962D03*
%TD*%
D12*
%TO.C,C2*%
X224028000Y-137264200D03*
X224028000Y-138224200D03*
%TD*%
D15*
%TO.C,C102*%
X225518968Y-148594560D03*
X225319372Y-149533582D03*
%TD*%
D14*
%TO.C,C50*%
X311450885Y-120002019D03*
X311650481Y-120941041D03*
%TD*%
D16*
%TO.C,R31*%
X182867858Y-124643362D03*
X182867858Y-125663362D03*
%TD*%
D13*
%TO.C,C63*%
X463067958Y-102811462D03*
X463067958Y-101851462D03*
%TD*%
D10*
%TO.C,C137*%
X336862547Y-175050171D03*
X336662951Y-174111149D03*
%TD*%
D13*
%TO.C,C147*%
X453542958Y-169486462D03*
X453542958Y-168526462D03*
%TD*%
D18*
%TO.C,SW10*%
X349124195Y-88701506D03*
X350443269Y-90338016D03*
X350982675Y-88306472D03*
%TD*%
D11*
%TO.C,R11*%
X370698920Y-83061931D03*
X370910990Y-84059641D03*
%TD*%
D17*
%TO.C,SW20*%
X252344713Y-116397051D03*
X252884119Y-118428595D03*
X254203193Y-116792085D03*
%TD*%
D15*
%TO.C,C128*%
X212241394Y-165247913D03*
X212041798Y-166186935D03*
%TD*%
%TO.C,C106*%
X262786392Y-156515995D03*
X262586796Y-157455017D03*
%TD*%
D19*
%TO.C,SW27*%
X402527058Y-106624062D03*
X403477058Y-108499062D03*
X404427058Y-106624062D03*
%TD*%
%TO.C,SW31*%
X179642058Y-125674062D03*
X180592058Y-127549062D03*
X181542058Y-125674062D03*
%TD*%
D16*
%TO.C,R72*%
X149530358Y-181793362D03*
X149530358Y-182813362D03*
%TD*%
D20*
%TO.C,C17*%
X251098059Y-92758705D03*
X251297655Y-91819683D03*
%TD*%
D19*
%TO.C,SW15*%
X155829558Y-106624062D03*
X156779558Y-108499062D03*
X157729558Y-106624062D03*
%TD*%
D12*
%TO.C,C64*%
X468706758Y-100832862D03*
X468706758Y-101792862D03*
%TD*%
D16*
%TO.C,R15*%
X462902858Y-81780862D03*
X462902858Y-82800862D03*
%TD*%
D14*
%TO.C,C80*%
X324728459Y-136655372D03*
X324928055Y-137594394D03*
%TD*%
%TO.C,C86*%
X380629594Y-124773219D03*
X380829190Y-125712241D03*
%TD*%
D12*
%TO.C,C148*%
X459181758Y-167507862D03*
X459181758Y-168467862D03*
%TD*%
D15*
%TO.C,C74*%
X243454970Y-132931386D03*
X243255374Y-133870408D03*
%TD*%
D13*
%TO.C,C161*%
X434492958Y-188536462D03*
X434492958Y-187576462D03*
%TD*%
D15*
%TO.C,C134*%
X268142530Y-177130066D03*
X267942934Y-178069088D03*
%TD*%
D18*
%TO.C,SW40*%
X376669522Y-126666640D03*
X377988596Y-128303150D03*
X378528002Y-126271606D03*
%TD*%
D12*
%TO.C,C68*%
X183909258Y-124645362D03*
X183909258Y-125605362D03*
%TD*%
D16*
%TO.C,R57*%
X441471608Y-143693362D03*
X441471608Y-144713362D03*
%TD*%
D11*
%TO.C,R68*%
X378215115Y-164235565D03*
X378427185Y-165233275D03*
%TD*%
%TO.C,R36*%
X305075688Y-140830653D03*
X305287758Y-141828363D03*
%TD*%
D17*
%TO.C,SW61*%
X207853564Y-165366931D03*
X208392970Y-167398475D03*
X209712044Y-165761965D03*
%TD*%
D13*
%TO.C,C65*%
X154457958Y-126623962D03*
X154457958Y-125663962D03*
%TD*%
D12*
%TO.C,C126*%
X188671758Y-162745362D03*
X188671758Y-163705362D03*
%TD*%
%TO.C,C92*%
X444894258Y-124645362D03*
X444894258Y-125605362D03*
%TD*%
D15*
%TO.C,C76*%
X262088681Y-136892104D03*
X261889085Y-137831126D03*
%TD*%
D19*
%TO.C,SW42*%
X416814558Y-125674062D03*
X417764558Y-127549062D03*
X418714558Y-125674062D03*
%TD*%
D12*
%TO.C,C8*%
X149619258Y-81782862D03*
X149619258Y-82742862D03*
%TD*%
D16*
%TO.C,R28*%
X434327858Y-105593362D03*
X434327858Y-106613362D03*
%TD*%
%TO.C,R44*%
X472427858Y-119880862D03*
X472427858Y-120900862D03*
%TD*%
D10*
%TO.C,C79*%
X319624256Y-139763106D03*
X319424660Y-138824084D03*
%TD*%
D17*
%TO.C,SW32*%
X201799716Y-125128969D03*
X202339122Y-127160513D03*
X203658196Y-125524003D03*
%TD*%
D10*
%TO.C,C159*%
X368773832Y-187742806D03*
X368574236Y-186803784D03*
%TD*%
D11*
%TO.C,R67*%
X359581403Y-168196282D03*
X359793473Y-169193992D03*
%TD*%
D12*
%TO.C,C94*%
X473469258Y-119882862D03*
X473469258Y-120842862D03*
%TD*%
%TO.C,C166*%
X478231758Y-186557862D03*
X478231758Y-187517862D03*
%TD*%
D11*
%TO.C,R37*%
X323709400Y-136869935D03*
X323921470Y-137867645D03*
%TD*%
D14*
%TO.C,C26*%
X353084267Y-86808085D03*
X353283863Y-87747107D03*
%TD*%
D11*
%TO.C,R66*%
X340947691Y-172157000D03*
X341159761Y-173154710D03*
%TD*%
D20*
%TO.C,C75*%
X256161728Y-137655095D03*
X256361324Y-136716073D03*
%TD*%
D12*
%TO.C,C90*%
X421081758Y-124645362D03*
X421081758Y-125605362D03*
%TD*%
D18*
%TO.C,SW66*%
X319372966Y-177796576D03*
X320692040Y-179433086D03*
X321231446Y-177401542D03*
%TD*%
D10*
%TO.C,C21*%
X306054213Y-98827434D03*
X305854617Y-97888412D03*
%TD*%
D20*
%TO.C,C103*%
X238225727Y-153318269D03*
X238425323Y-152379247D03*
%TD*%
D13*
%TO.C,C97*%
X178270458Y-145673962D03*
X178270458Y-144713962D03*
%TD*%
D18*
%TO.C,SW37*%
X320768387Y-138548793D03*
X322087461Y-140185303D03*
X322626867Y-138153759D03*
%TD*%
D10*
%TO.C,C167*%
X299595123Y-182971606D03*
X299395527Y-182032584D03*
%TD*%
D12*
%TO.C,C10*%
X174384258Y-80830362D03*
X174384258Y-81790362D03*
%TD*%
%TO.C,C12*%
X193434258Y-80830362D03*
X193434258Y-81790362D03*
%TD*%
D19*
%TO.C,SW41*%
X397764558Y-125674062D03*
X398714558Y-127549062D03*
X399664558Y-125674062D03*
%TD*%
D20*
%TO.C,C101*%
X219592015Y-149357551D03*
X219791611Y-148418529D03*
%TD*%
D21*
%TO.C,R48*%
X224500740Y-148376085D03*
X224288670Y-149373795D03*
%TD*%
D20*
%TO.C,C73*%
X237528017Y-133694377D03*
X237727613Y-132755355D03*
%TD*%
D19*
%TO.C,SW60*%
X184404558Y-163774062D03*
X185354558Y-165649062D03*
X186304558Y-163774062D03*
%TD*%
D18*
%TO.C,SW24*%
X344758237Y-113974005D03*
X346077311Y-115610515D03*
X346616717Y-113578971D03*
%TD*%
D17*
%TO.C,SW34*%
X239067140Y-133050404D03*
X239606546Y-135081948D03*
X240925620Y-133445438D03*
%TD*%
D11*
%TO.C,R38*%
X342343112Y-132909218D03*
X342555182Y-133906928D03*
%TD*%
D18*
%TO.C,SW78*%
X369917963Y-186528493D03*
X371237037Y-188165003D03*
X371776443Y-186133459D03*
%TD*%
D20*
%TO.C,C15*%
X227805920Y-87807808D03*
X228005516Y-86868786D03*
%TD*%
D18*
%TO.C,SW8*%
X307198344Y-97613121D03*
X308517418Y-99249631D03*
X309056824Y-97218087D03*
%TD*%
D14*
%TO.C,C140*%
X360600462Y-167981719D03*
X360800058Y-168920741D03*
%TD*%
%TO.C,C108*%
X314713893Y-158259622D03*
X314913489Y-159198644D03*
%TD*%
D13*
%TO.C,C6*%
X425526200Y-123797000D03*
X425526200Y-122837000D03*
%TD*%
D20*
%TO.C,C131*%
X243581865Y-173932339D03*
X243781461Y-172993317D03*
%TD*%
D12*
%TO.C,C144*%
X402031758Y-162745362D03*
X402031758Y-163705362D03*
%TD*%
D13*
%TO.C,C3*%
X247142000Y-143431200D03*
X247142000Y-142471200D03*
%TD*%
D20*
%TO.C,C129*%
X224948153Y-169971622D03*
X225147749Y-169032600D03*
%TD*%
%TO.C,C19*%
X269731771Y-96719423D03*
X269931367Y-95780401D03*
%TD*%
D16*
%TO.C,R13*%
X411467858Y-80828362D03*
X411467858Y-81848362D03*
%TD*%
D19*
%TO.C,SW16*%
X174879558Y-106624062D03*
X175829558Y-108499062D03*
X176779558Y-106624062D03*
%TD*%
D14*
%TO.C,C52*%
X330084597Y-116041302D03*
X330284193Y-116980324D03*
%TD*%
%TO.C,C160*%
X373878035Y-184635072D03*
X374077631Y-185574094D03*
%TD*%
D19*
%TO.C,SW30*%
X155829558Y-125674062D03*
X156779558Y-127549062D03*
X157729558Y-125674062D03*
%TD*%
D12*
%TO.C,C96*%
X152953008Y-143695362D03*
X152953008Y-144655362D03*
%TD*%
D17*
%TO.C,SW4*%
X210711331Y-83203117D03*
X211250737Y-85234661D03*
X212569811Y-83598151D03*
%TD*%
D16*
%TO.C,R56*%
X410515358Y-143693362D03*
X410515358Y-144713362D03*
%TD*%
D12*
%TO.C,C66*%
X160096758Y-124645362D03*
X160096758Y-125605362D03*
%TD*%
M02*
