M48
; DRILL file {KiCad 8.0.1} date 2024-04-11T15:05:29-0700
; FORMAT={-:-/ absolute / inch / decimal}
; #@! TF.CreationDate,2024-04-11T15:05:29-07:00
; #@! TF.GenerationSoftware,Kicad,Pcbnew,8.0.1
; #@! TF.FileFunction,Plated,1,2,PTH
FMAT,2
INCH
; #@! TA.AperFunction,Plated,PTH,ViaDrill
T1C0.0118
; #@! TA.AperFunction,Plated,PTH,ComponentDrill
T2C0.0394
; #@! TA.AperFunction,Plated,PTH,ComponentDrill
T3C0.0591
; #@! TA.AperFunction,Plated,PTH,ComponentDrill
T4C0.1200
%
G90
G05
T1
X5.6685Y-3.3368
X5.706Y-7.2743
X5.7998Y-5.7743
X5.8455Y-3.3338
X5.883Y-7.2713
X5.8906Y-3.2961
X5.9261Y-3.2198
X5.9281Y-7.2336
X5.9636Y-7.1573
X5.9768Y-5.7713
X5.9873Y-6.5243
X6.0219Y-5.7336
X6.0573Y-5.6573
X6.081Y-4.2743
X6.081Y-5.0243
X6.1643Y-6.5213
X6.2094Y-6.4836
X6.2448Y-6.4073
X6.258Y-4.2713
X6.258Y-5.0213
X6.3031Y-4.2336
X6.3031Y-4.9836
X6.3386Y-4.1573
X6.3386Y-4.9073
X6.6435Y-3.2993
X6.8205Y-3.2963
X6.831Y-4.2743
X6.8656Y-3.2586
X6.9011Y-3.1823
X7.008Y-4.2713
X7.0185Y-5.0243
X7.0185Y-5.7743
X7.0531Y-4.2336
X7.0886Y-4.1573
X7.1955Y-5.0213
X7.1955Y-5.7713
X7.206Y-6.5243
X7.2406Y-4.9836
X7.2406Y-5.7336
X7.2761Y-4.9073
X7.2761Y-5.6573
X7.383Y-6.5213
X7.3935Y-3.2993
X7.4281Y-6.4836
X7.4636Y-6.4073
X7.5705Y-3.2963
X7.581Y-4.1618
X7.6156Y-3.2586
X7.6511Y-3.1823
X7.758Y-4.1588
X7.8031Y-4.1211
X7.8386Y-4.0448
X7.8761Y-4.9899
X7.9036Y-5.7625
X8.0499Y-5.0238
X8.0774Y-5.7964
X8.1019Y-4.9963
X8.1145Y-6.5741
X8.1293Y-5.7689
X8.142Y-7.3467
X8.1524Y-4.9291
X8.1799Y-5.7017
X8.227Y-3.3393
X8.2882Y-6.608
X8.3157Y-7.3806
X8.3402Y-6.5805
X8.3677Y-7.3531
X8.3907Y-6.5132
X8.3989Y-4.3343
X8.4008Y-3.3732
X8.4182Y-7.2858
X8.4527Y-3.3457
X8.5032Y-3.2784
X8.5726Y-4.3682
X8.6098Y-5.1459
X8.6246Y-4.3407
X8.6372Y-5.9185
X8.6751Y-4.2734
X8.7835Y-5.1797
X8.811Y-5.9523
X8.8355Y-5.1522
X8.8481Y-6.73
X8.863Y-5.9248
X8.886Y-5.085
X8.9135Y-5.8576
X8.9606Y-3.4952
X9.0219Y-6.7639
X9.0738Y-6.7364
X9.1243Y-6.6692
X9.1325Y-4.4902
X9.1344Y-3.5291
X9.1863Y-3.5016
X9.2369Y-3.4344
X9.3063Y-4.5241
X9.3434Y-5.3018
X9.3582Y-4.4966
X9.3708Y-6.0744
X9.4087Y-4.4294
X9.4258Y-7.6196
X9.5171Y-5.3357
X9.5446Y-6.1083
X9.5691Y-5.3082
X9.5817Y-6.886
X9.5966Y-6.0808
X9.5995Y-7.6535
X9.6196Y-5.2409
X9.6471Y-6.0135
X9.6515Y-7.626
X9.702Y-7.5587
X9.7555Y-6.9198
X9.8074Y-6.8924
X9.858Y-6.8251
X9.8661Y-4.6462
X9.8776Y-3.6902
X10.0399Y-4.68
X10.0514Y-3.724
X10.077Y-5.4577
X10.0918Y-4.6525
X10.1033Y-3.6965
X10.1044Y-6.2303
X10.1423Y-4.5853
X10.1539Y-3.6293
X10.2507Y-5.4916
X10.2782Y-6.2642
X10.3027Y-5.4641
X10.3153Y-7.0419
X10.3302Y-6.2367
X10.3532Y-5.3969
X10.3807Y-6.1695
X10.4891Y-7.0758
X10.5262Y-7.8535
X10.541Y-7.0483
X10.5916Y-6.981
X10.5997Y-4.8021
X10.6112Y-3.8461
X10.6999Y-7.8874
X10.7519Y-7.8599
X10.7735Y-4.836
X10.785Y-3.88
X10.8024Y-7.7926
X10.8254Y-4.8085
X10.837Y-3.8525
X10.876Y-4.7412
X10.8875Y-3.7852
X11.8032Y-7.2419
X11.8582Y-5.6967
X11.9757Y-7.2021
X12.012Y-7.1559
X12.0307Y-5.6569
X12.0308Y-7.0739
X12.0575Y-3.9291
X12.067Y-5.6107
X12.069Y-4.8851
X12.0858Y-5.5287
X12.1975Y-6.3913
X12.23Y-3.8894
X12.2415Y-4.8454
X12.2663Y-3.8431
X12.2778Y-4.7991
X12.2851Y-3.7611
X12.2966Y-4.7171
X12.37Y-6.3516
X12.4063Y-6.3053
X12.4251Y-6.2233
X12.5368Y-7.0859
X12.5918Y-5.5407
X12.7093Y-7.0462
X12.7456Y-6.9999
X12.7643Y-5.501
X12.7644Y-6.918
X12.7911Y-3.7732
X12.8006Y-5.4547
X12.8026Y-4.7292
X12.8194Y-5.3728
X12.9311Y-6.2354
X12.9636Y-3.7334
X12.9679Y-7.7611
X12.9751Y-4.6894
X12.9999Y-3.6872
X13.0114Y-4.6432
X13.0187Y-3.6052
X13.0302Y-4.5612
X13.1036Y-6.1956
X13.1399Y-6.1494
X13.1404Y-7.7213
X13.1587Y-6.0674
X13.1767Y-7.6751
X13.1955Y-7.5931
X13.2704Y-6.93
X13.3254Y-5.3848
X13.4429Y-6.8903
X13.4792Y-6.844
X13.4979Y-5.3451
X13.498Y-6.762
X13.5342Y-5.2988
X13.5362Y-4.5732
X13.553Y-5.2168
X13.6647Y-6.0794
X13.7081Y-3.5782
X13.7088Y-4.5335
X13.745Y-4.4872
X13.7638Y-4.4053
X13.8372Y-6.0397
X13.8735Y-5.9934
X13.8806Y-3.5385
X13.8923Y-5.9115
X13.9169Y-3.4923
X13.9357Y-3.4103
X14.004Y-6.7741
X14.059Y-5.2289
X14.1766Y-6.7343
X14.2128Y-6.6881
X14.2315Y-5.1891
X14.2316Y-6.6061
X14.2678Y-5.1429
X14.2699Y-4.4173
X14.2866Y-5.0609
X14.3983Y-5.9235
X14.4417Y-3.4223
X14.4424Y-4.3776
X14.4787Y-4.3313
X14.4975Y-4.2493
X14.5268Y-7.4297
X14.5708Y-5.8838
X14.6071Y-5.8375
X14.6143Y-3.3826
X14.6259Y-5.7555
X14.6505Y-3.3363
X14.6693Y-3.2543
X14.6993Y-7.39
X14.7356Y-7.3437
X14.7377Y-6.6181
X14.7544Y-7.2617
X14.7926Y-5.0729
X14.9102Y-6.5784
X14.9465Y-6.5321
X14.9651Y-5.0332
X14.9653Y-6.4502
X15.0014Y-4.9869
X15.0202Y-4.905
X15.0435Y-4.1618
X15.2205Y-4.1588
X15.231Y-5.7743
X15.2656Y-4.1211
X15.2685Y-3.2993
X15.3011Y-4.0448
X15.408Y-5.7713
X15.4455Y-3.2963
X15.4531Y-5.7336
X15.4886Y-5.6573
X15.4906Y-3.2586
X15.5261Y-3.1823
X15.606Y-5.0243
X15.606Y-6.5243
X15.783Y-5.0213
X15.783Y-6.5213
X15.7935Y-4.2743
X15.8281Y-4.9836
X15.8281Y-6.4836
X15.8636Y-4.9073
X15.8636Y-6.4073
X15.9705Y-4.2713
X15.981Y-5.7743
X16.0156Y-4.2336
X16.0185Y-3.2993
X16.0511Y-4.1573
X16.158Y-5.7713
X16.1955Y-3.2963
X16.2031Y-5.7336
X16.2386Y-5.6573
X16.2406Y-3.2586
X16.2761Y-3.1823
X16.356Y-5.0243
X16.533Y-5.0213
X16.5781Y-4.9836
X16.6136Y-4.9073
X16.6373Y-6.5243
X16.8143Y-6.5213
X16.8594Y-6.4836
X16.8948Y-6.4073
X16.9185Y-4.2743
X17.0955Y-4.2713
X17.106Y-7.4618
X17.1406Y-4.2336
X17.1761Y-4.1573
X17.1998Y-5.7743
X17.283Y-7.4588
X17.2935Y-5.0243
X17.3281Y-7.4211
X17.3636Y-7.3448
X17.3768Y-5.7713
X17.4219Y-5.7336
X17.4573Y-5.6573
X17.4705Y-5.0213
X17.5156Y-4.9836
X17.5511Y-4.9073
X17.856Y-6.7118
X17.856Y-7.4618
X18.033Y-6.7088
X18.033Y-7.4588
X18.0435Y-3.3368
X18.0781Y-6.6711
X18.0781Y-7.4211
X18.1136Y-6.5948
X18.1136Y-7.3448
X18.2205Y-3.3338
X18.231Y-4.0868
X18.2656Y-3.2961
X18.3011Y-3.2198
X18.408Y-4.0838
X18.4185Y-4.8368
X18.4531Y-4.0461
X18.4886Y-3.9698
X18.5955Y-4.8338
X18.606Y-5.5868
X18.606Y-7.4618
X18.6406Y-4.7961
X18.6761Y-4.7198
X18.783Y-5.5838
X18.783Y-7.4588
X18.8281Y-5.5461
X18.8281Y-7.4211
X18.8636Y-5.4698
X18.8636Y-7.3448
T2
X7.3285Y-9.8356
X7.3285Y-9.9356
X7.3285Y-10.0356
X7.4285Y-9.8356
X7.4285Y-9.9356
X7.4285Y-10.0356
X11.124Y-6.352
X11.124Y-6.452
X11.3071Y-6.352
X11.3071Y-6.452
X17.024Y-3.004
X17.024Y-3.5749
X17.1224Y-3.5749
X17.2208Y-3.004
X17.2208Y-3.5749
T4
X5.6099Y-6.7589
X6.5474Y-6.7589
X9.0079Y-7.7706
X9.9249Y-7.9655
X12.6475Y-8.069
X13.5646Y-7.8741
X16.5412Y-4.5089
X16.8224Y-6.0089
X17.4787Y-4.5089
X17.7599Y-6.0089
T3
G00X16.902Y-3.3052
M15
G01X16.902Y-3.254
M16
G05
G00X17.3429Y-3.3052
M15
G01X17.3429Y-3.254
M16
G05
M30
