%TF.GenerationSoftware,KiCad,Pcbnew,8.0.1*%
%TF.CreationDate,2024-04-11T15:05:29-07:00*%
%TF.ProjectId,Erebus,45726562-7573-42e6-9b69-6361645f7063,rev?*%
%TF.SameCoordinates,Original*%
%TF.FileFunction,Copper,L1,Top*%
%TF.FilePolarity,Positive*%
%FSLAX46Y46*%
G04 Gerber Fmt 4.6, Leading zero omitted, Abs format (unit mm)*
G04 Created by KiCad (PCBNEW 8.0.1) date 2024-04-11 15:05:29*
%MOMM*%
%LPD*%
G01*
G04 APERTURE LIST*
G04 Aperture macros list*
%AMRoundRect*
0 Rectangle with rounded corners*
0 $1 Rounding radius*
0 $2 $3 $4 $5 $6 $7 $8 $9 X,Y pos of 4 corners*
0 Add a 4 corners polygon primitive as box body*
4,1,4,$2,$3,$4,$5,$6,$7,$8,$9,$2,$3,0*
0 Add four circle primitives for the rounded corners*
1,1,$1+$1,$2,$3*
1,1,$1+$1,$4,$5*
1,1,$1+$1,$6,$7*
1,1,$1+$1,$8,$9*
0 Add four rect primitives between the rounded corners*
20,1,$1+$1,$2,$3,$4,$5,0*
20,1,$1+$1,$4,$5,$6,$7,0*
20,1,$1+$1,$6,$7,$8,$9,0*
20,1,$1+$1,$8,$9,$2,$3,0*%
G04 Aperture macros list end*
%TA.AperFunction,SMDPad,CuDef*%
%ADD10RoundRect,0.200000X-0.200000X-0.275000X0.200000X-0.275000X0.200000X0.275000X-0.200000X0.275000X0*%
%TD*%
%TA.AperFunction,SMDPad,CuDef*%
%ADD11RoundRect,0.135000X-0.135000X-0.185000X0.135000X-0.185000X0.135000X0.185000X-0.135000X0.185000X0*%
%TD*%
%TA.AperFunction,SMDPad,CuDef*%
%ADD12R,1.400000X1.200000*%
%TD*%
%TA.AperFunction,ComponentPad*%
%ADD13C,4.000000*%
%TD*%
%TA.AperFunction,SMDPad,CuDef*%
%ADD14RoundRect,0.375000X-0.625000X-0.375000X0.625000X-0.375000X0.625000X0.375000X-0.625000X0.375000X0*%
%TD*%
%TA.AperFunction,SMDPad,CuDef*%
%ADD15RoundRect,0.500000X-0.500000X-1.400000X0.500000X-1.400000X0.500000X1.400000X-0.500000X1.400000X0*%
%TD*%
%TA.AperFunction,SMDPad,CuDef*%
%ADD16RoundRect,0.150000X-0.587500X-0.150000X0.587500X-0.150000X0.587500X0.150000X-0.587500X0.150000X0*%
%TD*%
%TA.AperFunction,SMDPad,CuDef*%
%ADD17RoundRect,0.237500X-0.250000X-0.237500X0.250000X-0.237500X0.250000X0.237500X-0.250000X0.237500X0*%
%TD*%
%TA.AperFunction,SMDPad,CuDef*%
%ADD18RoundRect,0.140000X-0.140000X-0.170000X0.140000X-0.170000X0.140000X0.170000X-0.140000X0.170000X0*%
%TD*%
%TA.AperFunction,ComponentPad*%
%ADD19R,1.700000X1.700000*%
%TD*%
%TA.AperFunction,ComponentPad*%
%ADD20O,1.700000X1.700000*%
%TD*%
%TA.AperFunction,SMDPad,CuDef*%
%ADD21RoundRect,0.250000X-0.312500X-0.625000X0.312500X-0.625000X0.312500X0.625000X-0.312500X0.625000X0*%
%TD*%
%TA.AperFunction,ComponentPad*%
%ADD22C,2.000000*%
%TD*%
%TA.AperFunction,ComponentPad*%
%ADD23RoundRect,0.500000X0.500000X-0.500000X0.500000X0.500000X-0.500000X0.500000X-0.500000X-0.500000X0*%
%TD*%
%TA.AperFunction,ComponentPad*%
%ADD24RoundRect,0.550000X0.550000X-1.150000X0.550000X1.150000X-0.550000X1.150000X-0.550000X-1.150000X0*%
%TD*%
%TA.AperFunction,SMDPad,CuDef*%
%ADD25RoundRect,0.250000X-0.325000X-0.650000X0.325000X-0.650000X0.325000X0.650000X-0.325000X0.650000X0*%
%TD*%
%TA.AperFunction,SMDPad,CuDef*%
%ADD26RoundRect,0.075000X-0.662500X-0.075000X0.662500X-0.075000X0.662500X0.075000X-0.662500X0.075000X0*%
%TD*%
%TA.AperFunction,SMDPad,CuDef*%
%ADD27RoundRect,0.075000X-0.075000X-0.662500X0.075000X-0.662500X0.075000X0.662500X-0.075000X0.662500X0*%
%TD*%
%TA.AperFunction,SMDPad,CuDef*%
%ADD28R,1.700000X1.000000*%
%TD*%
%TA.AperFunction,SMDPad,CuDef*%
%ADD29RoundRect,0.112500X-0.187500X-0.112500X0.187500X-0.112500X0.187500X0.112500X-0.187500X0.112500X0*%
%TD*%
%TA.AperFunction,SMDPad,CuDef*%
%ADD30O,0.270000X1.500000*%
%TD*%
%TA.AperFunction,SMDPad,CuDef*%
%ADD31O,1.500000X0.270000*%
%TD*%
%TA.AperFunction,ViaPad*%
%ADD32C,0.700000*%
%TD*%
G04 APERTURE END LIST*
D10*
%TO.P,R82,1*%
%TO.N,Net-(D1-K)*%
X207649900Y-251704600D03*
%TO.P,R82,2*%
%TO.N,/BOOT0*%
X209299900Y-251704600D03*
%TD*%
D11*
%TO.P,R89,1*%
%TO.N,Net-(Q2-G)*%
X199614900Y-260434600D03*
%TO.P,R89,2*%
%TO.N,GND*%
X200634900Y-260434600D03*
%TD*%
%TO.P,R83,1*%
%TO.N,/BOOT0*%
X199614900Y-248494600D03*
%TO.P,R83,2*%
%TO.N,GND*%
X200634900Y-248494600D03*
%TD*%
%TO.P,R84,1*%
%TO.N,Net-(Q1-D)*%
X199614900Y-250484600D03*
%TO.P,R84,2*%
%TO.N,/BOOT0*%
X200634900Y-250484600D03*
%TD*%
D12*
%TO.P,Y1,1,1*%
%TO.N,/OSC_IN*%
X174344900Y-269894600D03*
%TO.P,Y1,2,2*%
%TO.N,GND*%
X176544900Y-269894600D03*
%TO.P,Y1,3,3*%
%TO.N,Net-(C174-Pad2)*%
X176544900Y-268194600D03*
%TO.P,Y1,4,4*%
%TO.N,GND*%
X174344900Y-268194600D03*
%TD*%
D13*
%TO.P,S75,*%
%TO.N,*%
X252092558Y-202324856D03*
X228800418Y-197373958D03*
%TD*%
D14*
%TO.P,U8,1,GND*%
%TO.N,GND*%
X174594900Y-260399600D03*
%TO.P,U8,2,VO*%
%TO.N,+3V3*%
X174594900Y-262699600D03*
D15*
X180894900Y-262699600D03*
D14*
%TO.P,U8,3,VI*%
%TO.N,+5V*%
X174594900Y-264999600D03*
%TD*%
D13*
%TO.P,S28,*%
%TO.N,*%
X443958308Y-114526562D03*
X420145808Y-114526562D03*
%TD*%
D16*
%TO.P,Q1,1,G*%
%TO.N,Net-(Q1-G)*%
X203087400Y-248949600D03*
%TO.P,Q1,2,S*%
%TO.N,GND*%
X203087400Y-250849600D03*
%TO.P,Q1,3,D*%
%TO.N,Net-(Q1-D)*%
X204962400Y-249899600D03*
%TD*%
D17*
%TO.P,R90,1*%
%TO.N,/USB_D-*%
X183932400Y-259754600D03*
%TO.P,R90,2*%
%TO.N,/EWSB_D-*%
X185757400Y-259754600D03*
%TD*%
D18*
%TO.P,C170,1*%
%TO.N,/~{RESET}*%
X207424900Y-253944600D03*
%TO.P,C170,2*%
%TO.N,GND*%
X208384900Y-253944600D03*
%TD*%
D11*
%TO.P,R92,1*%
%TO.N,+3V3*%
X191964900Y-255194600D03*
%TO.P,R92,2*%
%TO.N,/EWSB_D+*%
X192984900Y-255194600D03*
%TD*%
D19*
%TO.P,JP2,1,A*%
%TO.N,+3V3*%
X287199600Y-161340800D03*
D20*
%TO.P,JP2,2,B*%
%TO.N,/BOOT0*%
X287199600Y-163880800D03*
%TD*%
D19*
%TO.P,SWD1,1,Pin_1*%
%TO.N,GND*%
X186144900Y-249824600D03*
D20*
%TO.P,SWD1,2,Pin_2*%
%TO.N,/SWO*%
X188684900Y-249824600D03*
%TO.P,SWD1,3,Pin_3*%
%TO.N,GND*%
X186144900Y-252364600D03*
%TO.P,SWD1,4,Pin_4*%
%TO.N,/SWCLK*%
X188684900Y-252364600D03*
%TO.P,SWD1,5,Pin_5*%
%TO.N,+3V3*%
X186144900Y-254904600D03*
%TO.P,SWD1,6,Pin_6*%
%TO.N,/SWDIO*%
X188684900Y-254904600D03*
%TD*%
D21*
%TO.P,R93,1*%
%TO.N,/in_esr*%
X188362400Y-267194600D03*
%TO.P,R93,2*%
%TO.N,GND*%
X191287400Y-267194600D03*
%TD*%
D18*
%TO.P,C173,1*%
%TO.N,GND*%
X179024900Y-267804600D03*
%TO.P,C173,2*%
%TO.N,/OSC_IN*%
X179984900Y-267804600D03*
%TD*%
D21*
%TO.P,R94,1*%
%TO.N,/out_esr*%
X188362400Y-270484600D03*
%TO.P,R94,2*%
%TO.N,GND*%
X191287400Y-270484600D03*
%TD*%
D19*
%TO.P,JP1,1,A*%
%TO.N,GND*%
X282549600Y-161340800D03*
D20*
%TO.P,JP1,2,B*%
%TO.N,/~{RESET}*%
X282549600Y-163880800D03*
%TD*%
D13*
%TO.P,S57,*%
%TO.N,*%
X451102058Y-152626562D03*
X427289558Y-152626562D03*
%TD*%
%TO.P,S77,*%
%TO.N,*%
X344539658Y-200001864D03*
X321247518Y-204952762D03*
%TD*%
D22*
%TO.P,ENCODER1,A,A*%
%TO.N,/ENCODER_A*%
X432409558Y-90801600D03*
%TO.P,ENCODER1,B,B*%
%TO.N,/ENCODER_B*%
X437409558Y-90801600D03*
D23*
%TO.P,ENCODER1,C,C*%
%TO.N,GND*%
X434909558Y-90801600D03*
D24*
%TO.P,ENCODER1,MP*%
%TO.N,N/C*%
X429309558Y-83301600D03*
X440509558Y-83301600D03*
D22*
%TO.P,ENCODER1,S1,S1*%
%TO.N,GND*%
X437409558Y-76301600D03*
%TO.P,ENCODER1,S2,S2*%
%TO.N,/ENCODER_SW*%
X432409558Y-76301600D03*
%TD*%
D11*
%TO.P,R87,1*%
%TO.N,Net-(Q2-D)*%
X199614900Y-256454600D03*
%TO.P,R87,2*%
%TO.N,/~{RESET}*%
X200634900Y-256454600D03*
%TD*%
D25*
%TO.P,C171,1*%
%TO.N,+5V*%
X192369900Y-249174600D03*
%TO.P,C171,2*%
%TO.N,/in_esr*%
X195319900Y-249174600D03*
%TD*%
D18*
%TO.P,C174,1*%
%TO.N,GND*%
X179024900Y-269774600D03*
%TO.P,C174,2*%
%TO.N,Net-(C174-Pad2)*%
X179984900Y-269774600D03*
%TD*%
D26*
%TO.P,U1,1,VBAT*%
%TO.N,unconnected-(U1-VBAT-Pad1)*%
X275824300Y-138902700D03*
%TO.P,U1,2,PC13*%
%TO.N,unconnected-(U1-PC13-Pad2)*%
X275824300Y-139402700D03*
%TO.P,U1,3,PC14*%
%TO.N,unconnected-(U1-PC14-Pad3)*%
X275824300Y-139902700D03*
%TO.P,U1,4,PC15*%
%TO.N,/ENCODER_SW*%
X275824300Y-140402700D03*
%TO.P,U1,5,PF0*%
%TO.N,unconnected-(U1-PF0-Pad5)*%
X275824300Y-140902700D03*
%TO.P,U1,6,PF1*%
%TO.N,unconnected-(U1-PF1-Pad6)*%
X275824300Y-141402700D03*
%TO.P,U1,7,NRST*%
%TO.N,/~{RESET}*%
X275824300Y-141902700D03*
%TO.P,U1,8,VSSA*%
%TO.N,GND*%
X275824300Y-142402700D03*
%TO.P,U1,9,VDDA*%
%TO.N,unconnected-(U1-VDDA-Pad9)*%
X275824300Y-142902700D03*
%TO.P,U1,10,PA0*%
%TO.N,/ENCODER_A*%
X275824300Y-143402700D03*
%TO.P,U1,11,PA1*%
%TO.N,/ENCODER_B*%
X275824300Y-143902700D03*
%TO.P,U1,12,PA2*%
%TO.N,/ADC1_IN3*%
X275824300Y-144402700D03*
D27*
%TO.P,U1,13,PA3*%
%TO.N,/ADC1_IN4*%
X277236800Y-145815200D03*
%TO.P,U1,14,PA4*%
%TO.N,unconnected-(U1-PA4-Pad14)*%
X277736800Y-145815200D03*
%TO.P,U1,15,PA5*%
%TO.N,unconnected-(U1-PA5-Pad15)*%
X278236800Y-145815200D03*
%TO.P,U1,16,PA6*%
%TO.N,/ADC2_IN3*%
X278736800Y-145815200D03*
%TO.P,U1,17,PA7*%
%TO.N,/ADC2_IN4*%
X279236800Y-145815200D03*
%TO.P,U1,18,PB0*%
%TO.N,unconnected-(U1-PB0-Pad18)*%
X279736800Y-145815200D03*
%TO.P,U1,19,PB1*%
%TO.N,/S2*%
X280236800Y-145815200D03*
%TO.P,U1,20,PB2*%
%TO.N,/S3*%
X280736800Y-145815200D03*
%TO.P,U1,21,PB10*%
%TO.N,/S1*%
X281236800Y-145815200D03*
%TO.P,U1,22,PB11*%
%TO.N,/S0*%
X281736800Y-145815200D03*
%TO.P,U1,23,VSS*%
%TO.N,GND*%
X282236800Y-145815200D03*
%TO.P,U1,24,VDD*%
%TO.N,unconnected-(U1-VDD-Pad24)*%
X282736800Y-145815200D03*
D26*
%TO.P,U1,25,PB12*%
%TO.N,/ADC4_IN4*%
X284149300Y-144402700D03*
%TO.P,U1,26,PB13*%
%TO.N,unconnected-(U1-PB13-Pad26)*%
X284149300Y-143902700D03*
%TO.P,U1,27,PB14*%
%TO.N,/ADC4_IN3*%
X284149300Y-143402700D03*
%TO.P,U1,28,PB15*%
%TO.N,unconnected-(U1-PB15-Pad28)*%
X284149300Y-142902700D03*
%TO.P,U1,29,PA8*%
%TO.N,unconnected-(U1-PA8-Pad29)*%
X284149300Y-142402700D03*
%TO.P,U1,30,PA9*%
%TO.N,unconnected-(U1-PA9-Pad30)*%
X284149300Y-141902700D03*
%TO.P,U1,31,PA10*%
%TO.N,unconnected-(U1-PA10-Pad31)*%
X284149300Y-141402700D03*
%TO.P,U1,32,PA11*%
%TO.N,unconnected-(U1-PA11-Pad32)*%
X284149300Y-140902700D03*
%TO.P,U1,33,PA12*%
%TO.N,unconnected-(U1-PA12-Pad33)*%
X284149300Y-140402700D03*
%TO.P,U1,34,PA13*%
%TO.N,unconnected-(U1-PA13-Pad34)*%
X284149300Y-139902700D03*
%TO.P,U1,35,VSS*%
%TO.N,GND*%
X284149300Y-139402700D03*
%TO.P,U1,36,VDD*%
%TO.N,unconnected-(U1-VDD-Pad36)*%
X284149300Y-138902700D03*
D27*
%TO.P,U1,37,PA14*%
%TO.N,unconnected-(U1-PA14-Pad37)*%
X282736800Y-137490200D03*
%TO.P,U1,38,PA15*%
%TO.N,unconnected-(U1-PA15-Pad38)*%
X282236800Y-137490200D03*
%TO.P,U1,39,PB3*%
%TO.N,unconnected-(U1-PB3-Pad39)*%
X281736800Y-137490200D03*
%TO.P,U1,40,PB4*%
%TO.N,unconnected-(U1-PB4-Pad40)*%
X281236800Y-137490200D03*
%TO.P,U1,41,PB5*%
%TO.N,unconnected-(U1-PB5-Pad41)*%
X280736800Y-137490200D03*
%TO.P,U1,42,PB6*%
%TO.N,unconnected-(U1-PB6-Pad42)*%
X280236800Y-137490200D03*
%TO.P,U1,43,PB7*%
%TO.N,unconnected-(U1-PB7-Pad43)*%
X279736800Y-137490200D03*
%TO.P,U1,44,BOOT0*%
%TO.N,/BOOT0*%
X279236800Y-137490200D03*
%TO.P,U1,45,PB8*%
%TO.N,unconnected-(U1-PB8-Pad45)*%
X278736800Y-137490200D03*
%TO.P,U1,46,PB9*%
%TO.N,unconnected-(U1-PB9-Pad46)*%
X278236800Y-137490200D03*
%TO.P,U1,47,VSS*%
%TO.N,GND*%
X277736800Y-137490200D03*
%TO.P,U1,48,VDD*%
%TO.N,unconnected-(U1-VDD-Pad48)*%
X277236800Y-137490200D03*
%TD*%
D13*
%TO.P,S59,*%
%TO.N,*%
X166304558Y-171676562D03*
X142492058Y-171676562D03*
%TD*%
D28*
%TO.P,SW82,1,A*%
%TO.N,+3V3*%
X188644900Y-260124600D03*
X194944900Y-260124600D03*
%TO.P,SW82,2,B*%
%TO.N,/reset/switch*%
X188644900Y-263924600D03*
X194944900Y-263924600D03*
%TD*%
D17*
%TO.P,R95,1*%
%TO.N,/OSC_OUT*%
X183932400Y-264774600D03*
%TO.P,R95,2*%
%TO.N,Net-(C174-Pad2)*%
X185757400Y-264774600D03*
%TD*%
D11*
%TO.P,R88,1*%
%TO.N,/reset/switch*%
X199614900Y-258444600D03*
%TO.P,R88,2*%
%TO.N,Net-(Q2-G)*%
X200634900Y-258444600D03*
%TD*%
D17*
%TO.P,R91,1*%
%TO.N,/USB_D+*%
X183932400Y-262264600D03*
%TO.P,R91,2*%
%TO.N,/EWSB_D+*%
X185757400Y-262264600D03*
%TD*%
D11*
%TO.P,R86,1*%
%TO.N,Net-(Q1-G)*%
X199614900Y-254464600D03*
%TO.P,R86,2*%
%TO.N,GND*%
X200634900Y-254464600D03*
%TD*%
D29*
%TO.P,D1,1,K*%
%TO.N,Net-(D1-K)*%
X207589900Y-248974600D03*
%TO.P,D1,2,A*%
%TO.N,/reset/switch*%
X209689900Y-248974600D03*
%TD*%
D11*
%TO.P,R85,1*%
%TO.N,Net-(Q2-D)*%
X199614900Y-252474600D03*
%TO.P,R85,2*%
%TO.N,Net-(Q1-G)*%
X200634900Y-252474600D03*
%TD*%
D25*
%TO.P,C172,1*%
%TO.N,+3V3*%
X192369900Y-252524600D03*
%TO.P,C172,2*%
%TO.N,/out_esr*%
X195319900Y-252524600D03*
%TD*%
D30*
%TO.P,U9,1,VBAT*%
%TO.N,+3V3*%
X175569900Y-257249600D03*
%TO.P,U9,2,PC13/TAMPER-RTC*%
%TO.N,unconnected-(U9-PC13{slash}TAMPER-RTC-Pad2)*%
X176069900Y-257249600D03*
%TO.P,U9,3,PC14/OSC32_IN*%
%TO.N,unconnected-(U9-PC14{slash}OSC32_IN-Pad3)*%
X176569900Y-257249600D03*
%TO.P,U9,4,PC15/OSC32_OUT*%
%TO.N,/ENCODER_SW*%
X177069900Y-257249600D03*
%TO.P,U9,5,PD0/OSC_IN*%
%TO.N,/OSC_IN*%
X177569900Y-257249600D03*
%TO.P,U9,6,PD1/OSC_OUT*%
%TO.N,/OSC_OUT*%
X178069900Y-257249600D03*
%TO.P,U9,7,NRST*%
%TO.N,/~{RESET}*%
X178569900Y-257249600D03*
%TO.P,U9,8,VSSA*%
%TO.N,GND*%
X179069900Y-257249600D03*
%TO.P,U9,9,VDDA*%
%TO.N,unconnected-(U9-VDDA-Pad9)*%
X179569900Y-257249600D03*
%TO.P,U9,10,PA0/WKUP*%
%TO.N,/ENCODER_A*%
X180069900Y-257249600D03*
%TO.P,U9,11,PA1*%
%TO.N,/ENCODER_B*%
X180569900Y-257249600D03*
%TO.P,U9,12,PA2*%
%TO.N,unconnected-(U9-PA2-Pad12)*%
X181069900Y-257249600D03*
D31*
%TO.P,U9,13,PA3*%
%TO.N,/ADC1_IN3*%
X182569900Y-255749600D03*
%TO.P,U9,14,PA4*%
%TO.N,/ADC1_IN4*%
X182569900Y-255249600D03*
%TO.P,U9,15,PA5*%
%TO.N,/ADC1_IN5*%
X182569900Y-254749600D03*
%TO.P,U9,16,PA6*%
%TO.N,/ADC1_IN6*%
X182569900Y-254249600D03*
%TO.P,U9,17,PA7*%
%TO.N,/ADC1_IN7*%
X182569900Y-253749600D03*
%TO.P,U9,18,PB0*%
%TO.N,/ADC1_IN8*%
X182569900Y-253249600D03*
%TO.P,U9,19,PB1*%
%TO.N,/S2*%
X182569900Y-252749600D03*
%TO.P,U9,20,PB2*%
%TO.N,/S3*%
X182569900Y-252249600D03*
%TO.P,U9,21,PB10*%
%TO.N,/S1*%
X182569900Y-251749600D03*
%TO.P,U9,22,PB11*%
%TO.N,/S0*%
X182569900Y-251249600D03*
%TO.P,U9,23,VSS*%
%TO.N,GND*%
X182569900Y-250749600D03*
%TO.P,U9,24,VDD*%
%TO.N,unconnected-(U9-VDD-Pad24)*%
X182569900Y-250249600D03*
D30*
%TO.P,U9,25,PB12*%
%TO.N,/ADC4_IN3*%
X181069900Y-248749600D03*
%TO.P,U9,26,PB13*%
%TO.N,/ADC4_IN4*%
X180569900Y-248749600D03*
%TO.P,U9,27,PB14*%
%TO.N,unconnected-(U9-PB14-Pad27)*%
X180069900Y-248749600D03*
%TO.P,U9,28,PB15*%
%TO.N,unconnected-(U9-PB15-Pad28)*%
X179569900Y-248749600D03*
%TO.P,U9,29,PA8*%
%TO.N,unconnected-(U9-PA8-Pad29)*%
X179069900Y-248749600D03*
%TO.P,U9,30,PA9*%
%TO.N,unconnected-(U9-PA9-Pad30)*%
X178569900Y-248749600D03*
%TO.P,U9,31,PA10*%
%TO.N,unconnected-(U9-PA10-Pad31)*%
X178069900Y-248749600D03*
%TO.P,U9,32,PA11*%
%TO.N,/USB_D-*%
X177569900Y-248749600D03*
%TO.P,U9,33,PA12*%
%TO.N,/USB_D+*%
X177069900Y-248749600D03*
%TO.P,U9,34,PA13*%
%TO.N,/SWDIO*%
X176569900Y-248749600D03*
%TO.P,U9,35,PF6*%
%TO.N,/I2C1_SCL*%
X176069900Y-248749600D03*
%TO.P,U9,36,PF7*%
%TO.N,/I2C1_SDA*%
X175569900Y-248749600D03*
D31*
%TO.P,U9,37,PA14*%
%TO.N,/SWCLK*%
X174069900Y-250249600D03*
%TO.P,U9,38,PA15*%
%TO.N,unconnected-(U9-PA15-Pad38)*%
X174069900Y-250749600D03*
%TO.P,U9,39,PB3*%
%TO.N,/SWO*%
X174069900Y-251249600D03*
%TO.P,U9,40,PB4*%
%TO.N,unconnected-(U9-PB4-Pad40)*%
X174069900Y-251749600D03*
%TO.P,U9,41,PB5*%
%TO.N,unconnected-(U9-PB5-Pad41)*%
X174069900Y-252249600D03*
%TO.P,U9,42,PB6*%
%TO.N,unconnected-(U9-PB6-Pad42)*%
X174069900Y-252749600D03*
%TO.P,U9,43,PB7*%
%TO.N,unconnected-(U9-PB7-Pad43)*%
X174069900Y-253249600D03*
%TO.P,U9,44,BOOT0*%
%TO.N,/BOOT0*%
X174069900Y-253749600D03*
%TO.P,U9,45,PB8*%
%TO.N,unconnected-(U9-PB8-Pad45)*%
X174069900Y-254249600D03*
%TO.P,U9,46,PB9*%
%TO.N,unconnected-(U9-PB9-Pad46)*%
X174069900Y-254749600D03*
%TO.P,U9,47,VSS*%
%TO.N,unconnected-(U9-VSS-Pad47)*%
X174069900Y-255249600D03*
%TO.P,U9,48,VDD*%
%TO.N,unconnected-(U9-VDD-Pad48)*%
X174069900Y-255749600D03*
%TD*%
D16*
%TO.P,Q2,1,G*%
%TO.N,Net-(Q2-G)*%
X203087400Y-253574600D03*
%TO.P,Q2,2,S*%
%TO.N,GND*%
X203087400Y-255474600D03*
%TO.P,Q2,3,D*%
%TO.N,Net-(Q2-D)*%
X204962400Y-254524600D03*
%TD*%
D25*
%TO.P,C169,1*%
%TO.N,/BOOT0*%
X202929900Y-258424600D03*
%TO.P,C169,2*%
%TO.N,GND*%
X205879900Y-258424600D03*
%TD*%
D32*
%TO.N,GND*%
X230475087Y-171105002D03*
X393462258Y-82768462D03*
X178003758Y-108490962D03*
X372123868Y-84742492D03*
X231965380Y-114051802D03*
X160099758Y-126583462D03*
X173241258Y-83725962D03*
X472592958Y-141904662D03*
X158953758Y-127540962D03*
X468709758Y-102770962D03*
X453542958Y-189529662D03*
X255304960Y-94590395D03*
X477088758Y-189453462D03*
X206485237Y-146530213D03*
X144932958Y-184767162D03*
X330198017Y-93654106D03*
X148476258Y-84678462D03*
X188674758Y-164683462D03*
X323738927Y-177798279D03*
X237321519Y-134665872D03*
X319830753Y-140734603D03*
X463947258Y-83720962D03*
X462801258Y-84678462D03*
X256332524Y-118174404D03*
X322817045Y-178973122D03*
X241734918Y-135526067D03*
X406797258Y-107533462D03*
X374283924Y-186530196D03*
X478234758Y-188495962D03*
X367757910Y-110014990D03*
X183032958Y-165717162D03*
X224741655Y-170943117D03*
X243752661Y-154451649D03*
X229155054Y-171803312D03*
X400888758Y-165640962D03*
X366836028Y-111189833D03*
X439255458Y-127617162D03*
X472326258Y-122778462D03*
X143980458Y-84754662D03*
X256624993Y-93892085D03*
X158953758Y-108490962D03*
X255012491Y-118872714D03*
X233332854Y-88941188D03*
X239414649Y-193537546D03*
X387747258Y-104675962D03*
X402034758Y-164683462D03*
X458038758Y-170403462D03*
X223798916Y-151189241D03*
X355702756Y-172060950D03*
X400888758Y-127540962D03*
X304183333Y-182933839D03*
X273098649Y-199640508D03*
X160099758Y-107533462D03*
X374336468Y-168100233D03*
X206805654Y-186606290D03*
X211219053Y-187466485D03*
X267742511Y-179026437D03*
X262386373Y-158412366D03*
X187528758Y-165640962D03*
X379640063Y-165916126D03*
X351465323Y-153408154D03*
X310642423Y-98789667D03*
X378718181Y-167090969D03*
X213331669Y-110091084D03*
X342372639Y-173837561D03*
X329568604Y-119111269D03*
X243054951Y-134827757D03*
X262009079Y-178864552D03*
X360084469Y-171051686D03*
X329383692Y-197130828D03*
X467563758Y-103728462D03*
X435372258Y-107533462D03*
X242432628Y-155149959D03*
X477088758Y-141828462D03*
X415442958Y-127617162D03*
X352387205Y-152233311D03*
X347083610Y-154417418D03*
X434226258Y-108490962D03*
X421084758Y-126583462D03*
X182766258Y-146590962D03*
X157718508Y-164683462D03*
X309816187Y-162338853D03*
X204467494Y-127604632D03*
X343768060Y-134589779D03*
X200751805Y-146368328D03*
X467830458Y-122854662D03*
X218687807Y-130705155D03*
X183912258Y-126583462D03*
X411366258Y-83725962D03*
X387820458Y-83802162D03*
X438988758Y-189453462D03*
X212539086Y-186768175D03*
X223101206Y-131565350D03*
X269525273Y-97690918D03*
X473472258Y-121820962D03*
X192291258Y-83725962D03*
X206107943Y-166982399D03*
X428228508Y-164683462D03*
X361006351Y-169876843D03*
X151810008Y-146590962D03*
X261688662Y-138788475D03*
X422586708Y-165717162D03*
X249108799Y-175065719D03*
X368980329Y-188714303D03*
X236378779Y-114911997D03*
X338464465Y-136773886D03*
X342846178Y-135764622D03*
X147314208Y-146667162D03*
X149622258Y-83720962D03*
X443751258Y-127540962D03*
X429730458Y-108567162D03*
X197053758Y-105633462D03*
X305578754Y-143686057D03*
X371201986Y-85917335D03*
X306500636Y-142511214D03*
X243828048Y-194397741D03*
X198199758Y-104675962D03*
X150574758Y-183733462D03*
X208965710Y-84818585D03*
X219385517Y-150329046D03*
X370099035Y-149447436D03*
X405917958Y-146667162D03*
X419938758Y-127540962D03*
X371020917Y-148272593D03*
X410413758Y-146590962D03*
X330490486Y-117936426D03*
X256652941Y-158250481D03*
X472592958Y-189529662D03*
X274966236Y-122135122D03*
X261066340Y-159110676D03*
X459184758Y-188495962D03*
X440134758Y-188495962D03*
X382105458Y-105709662D03*
X267365217Y-199478623D03*
X154457958Y-127617162D03*
X458038758Y-189453462D03*
X442516008Y-145633462D03*
X392316258Y-83725962D03*
X396392958Y-127617162D03*
X243375367Y-174903834D03*
X324212466Y-139725339D03*
X412512258Y-82768462D03*
X401155458Y-108567162D03*
X266422478Y-179724747D03*
X275258705Y-97852803D03*
X192557958Y-105709662D03*
X247788766Y-175764029D03*
X250599092Y-118012519D03*
X152956008Y-145633462D03*
X411559758Y-145633462D03*
X325186891Y-120120533D03*
X217745068Y-110951279D03*
X348186561Y-90887316D03*
X334687287Y-194946721D03*
X269232804Y-121973237D03*
X386601258Y-105633462D03*
X352568274Y-89878052D03*
X453542958Y-170479662D03*
X332831611Y-157368872D03*
X273646203Y-122833432D03*
X232012821Y-89639498D03*
X250891561Y-93730200D03*
X211841375Y-167144284D03*
X361479889Y-131803904D03*
X182766258Y-127540962D03*
X238019229Y-154289764D03*
X366820273Y-86926599D03*
X310934892Y-123071986D03*
X478234758Y-140870962D03*
X178270458Y-146667162D03*
X306553179Y-124081250D03*
X299801620Y-183943103D03*
X315119782Y-160154746D03*
X381035483Y-126668343D03*
X318435332Y-179982386D03*
X405651258Y-108490962D03*
X458305458Y-84754662D03*
X154457958Y-108567162D03*
X353490156Y-88703209D03*
X149428758Y-184690962D03*
X396392958Y-165717162D03*
X305105215Y-181758996D03*
X406870458Y-83802162D03*
X402034758Y-126583462D03*
X237698812Y-114213687D03*
X245148081Y-193699431D03*
X168745458Y-83802162D03*
X333753493Y-156194029D03*
X427082508Y-165640962D03*
X271778616Y-200338818D03*
X260368629Y-139486785D03*
X210521342Y-167842594D03*
X444897258Y-126583462D03*
X362454315Y-112199097D03*
X205787527Y-126906322D03*
X193437258Y-82768462D03*
X156572508Y-165640962D03*
X214699142Y-84980470D03*
X365717322Y-150456700D03*
X373362042Y-187705039D03*
X306260710Y-99798931D03*
X325134348Y-138550496D03*
X314197900Y-161329589D03*
X436874208Y-146667162D03*
X174387258Y-82768462D03*
X362401771Y-130629061D03*
X391363758Y-146590962D03*
X392509758Y-145633462D03*
X224421239Y-130867040D03*
X324894422Y-95838213D03*
X434492958Y-189529662D03*
X311856774Y-121897143D03*
X328449898Y-158378136D03*
X187795458Y-83802162D03*
X337069044Y-176021668D03*
X255955230Y-138626590D03*
X179149758Y-107533462D03*
X463067958Y-103804662D03*
X225118949Y-150490931D03*
X386867958Y-146667162D03*
X349124198Y-113975708D03*
X311564305Y-97614824D03*
X213379109Y-85678780D03*
X357098176Y-132813168D03*
X173507958Y-108567162D03*
X459184758Y-169445962D03*
X152076708Y-165717162D03*
X178270458Y-127617162D03*
X200054095Y-126744437D03*
X375731888Y-128852450D03*
X333765405Y-196121564D03*
X183912258Y-145633462D03*
X348202316Y-115150551D03*
X219065101Y-110252969D03*
X380113601Y-127843186D03*
X273938672Y-98551113D03*
X227599422Y-88779303D03*
X441370008Y-146590962D03*
X205165204Y-147228523D03*
X329276135Y-94828949D03*
X301197041Y-144695321D03*
X343820603Y-116159815D03*
X341450757Y-175012404D03*
%TO.N,/multiplexers/keys/KEYS_0_0*%
X150522258Y-81783462D03*
%TO.N,/multiplexers/keys/KEYS_0_1*%
X175287258Y-80830962D03*
%TO.N,/multiplexers/keys/KEYS_0_2*%
X194337258Y-80830962D03*
%TO.N,/multiplexers/keys/KEYS_0_3*%
X215982303Y-83272430D03*
%TO.N,/multiplexers/keys/KEYS_0_4*%
X234616015Y-87233148D03*
%TO.N,/multiplexers/keys/KEYS_0_5*%
X257908154Y-92184045D03*
%TO.N,/multiplexers/keys/KEYS_0_6*%
X276541866Y-96144763D03*
%TO.N,/multiplexers/keys/KEYS_0_7*%
X312041809Y-95532542D03*
%TO.N,/multiplexers/keys/KEYS_0_8*%
X330675521Y-91571824D03*
%TO.N,/multiplexers/keys/KEYS_0_9*%
X353967660Y-86620927D03*
%TO.N,/multiplexers/keys/KEYS_0_10*%
X372601372Y-82660210D03*
%TO.N,/multiplexers/keys/KEYS_0_11*%
X394362258Y-80830962D03*
%TO.N,/multiplexers/keys/KEYS_0_12*%
X413412258Y-80830962D03*
%TO.N,/multiplexers/keys/KEYS_1_0*%
X160999758Y-105595962D03*
%TO.N,/multiplexers/keys/KEYS_0_13*%
X464847258Y-81783462D03*
%TO.N,/multiplexers/keys/KEYS_1_1*%
X180049758Y-105595962D03*
%TO.N,/multiplexers/keys/KEYS_1_2*%
X199099758Y-102738462D03*
%TO.N,/multiplexers/keys/KEYS_1_3*%
X220348262Y-108544929D03*
%TO.N,/multiplexers/keys/KEYS_1_4*%
X238981973Y-112505647D03*
%TO.N,/multiplexers/keys/KEYS_1_5*%
X257615685Y-116466364D03*
%TO.N,/multiplexers/keys/KEYS_1_6*%
X276249397Y-120427082D03*
%TO.N,/multiplexers/keys/KEYS_1_7*%
X312334278Y-119814861D03*
%TO.N,/multiplexers/keys/KEYS_1_8*%
X330967990Y-115854144D03*
%TO.N,/multiplexers/keys/KEYS_1_9*%
X349601702Y-111893426D03*
%TO.N,/multiplexers/keys/KEYS_1_10*%
X368235414Y-107932708D03*
%TO.N,/multiplexers/keys/KEYS_1_11*%
X388647258Y-102738462D03*
%TO.N,/multiplexers/keys/KEYS_1_12*%
X407697258Y-105595962D03*
%TO.N,/multiplexers/keys/KEYS_1_13*%
X436272258Y-105595962D03*
%TO.N,/multiplexers/keys/KEYS_1_14*%
X469609758Y-100833462D03*
%TO.N,/multiplexers/keys/KEYS_2_0*%
X160999758Y-124645962D03*
%TO.N,/multiplexers/keys/KEYS_2_1*%
X184812258Y-124645962D03*
%TO.N,/multiplexers/keys/KEYS_2_2*%
X207070688Y-125198282D03*
%TO.N,/multiplexers/keys/KEYS_2_3*%
X225704400Y-129159000D03*
%TO.N,/multiplexers/keys/KEYS_2_4*%
X244338112Y-133119717D03*
%TO.N,/multiplexers/keys/KEYS_2_5*%
X262971823Y-137080435D03*
%TO.N,/multiplexers/keys/KEYS_2_6*%
X306978140Y-140428932D03*
%TO.N,/multiplexers/keys/KEYS_2_7*%
X325611852Y-136468214D03*
%TO.N,/multiplexers/keys/KEYS_2_8*%
X344245564Y-132507497D03*
%TO.N,/multiplexers/keys/KEYS_2_9*%
X362879275Y-128546779D03*
%TO.N,/multiplexers/keys/KEYS_2_10*%
X381512987Y-124586061D03*
%TO.N,/multiplexers/keys/KEYS_2_11*%
X402934758Y-124645962D03*
%TO.N,/multiplexers/keys/KEYS_2_12*%
X421984758Y-124645962D03*
%TO.N,/multiplexers/keys/KEYS_2_13*%
X445797258Y-124645962D03*
%TO.N,/multiplexers/keys/KEYS_2_14*%
X474372258Y-119883462D03*
%TO.N,/multiplexers/keys/KEYS_3_0*%
X153856008Y-143695962D03*
%TO.N,/multiplexers/keys/KEYS_3_1*%
X184812258Y-143695962D03*
%TO.N,/multiplexers/keys/KEYS_3_2*%
X207768398Y-144822173D03*
%TO.N,/multiplexers/keys/KEYS_3_3*%
X226402110Y-148782891D03*
%TO.N,/multiplexers/keys/KEYS_3_4*%
X245035822Y-152743609D03*
%TO.N,/multiplexers/keys/KEYS_3_5*%
X263669534Y-156704326D03*
%TO.N,/multiplexers/keys/KEYS_3_6*%
X315597286Y-158072464D03*
%TO.N,/multiplexers/keys/KEYS_3_7*%
X334230997Y-154111747D03*
%TO.N,/multiplexers/keys/KEYS_3_8*%
X352864709Y-150151029D03*
%TO.N,/multiplexers/keys/KEYS_3_9*%
X371498421Y-146190311D03*
%TO.N,/multiplexers/keys/KEYS_3_10*%
X393409758Y-143695962D03*
%TO.N,/multiplexers/keys/KEYS_3_11*%
X412459758Y-143695962D03*
%TO.N,/multiplexers/keys/KEYS_3_12*%
X443416008Y-143695962D03*
%TO.N,/multiplexers/keys/KEYS_3_13*%
X479134758Y-138933462D03*
%TO.N,/multiplexers/keys/KEYS_4_0*%
X158618508Y-162745962D03*
%TO.N,/multiplexers/keys/KEYS_4_1*%
X189574758Y-162745962D03*
%TO.N,/multiplexers/keys/KEYS_4_2*%
X213124536Y-165436244D03*
%TO.N,/multiplexers/keys/KEYS_4_3*%
X231758248Y-169396962D03*
%TO.N,/multiplexers/keys/KEYS_4_4*%
X250391960Y-173357679D03*
%TO.N,/multiplexers/keys/KEYS_4_5*%
X269025672Y-177318397D03*
%TO.N,/multiplexers/keys/KEYS_4_7*%
X324216431Y-175715997D03*
%TO.N,/multiplexers/keys/KEYS_4_8*%
X342850143Y-171755279D03*
%TO.N,/multiplexers/keys/KEYS_4_9*%
X361483855Y-167794561D03*
%TO.N,/multiplexers/keys/KEYS_4_10*%
X380117567Y-163833844D03*
%TO.N,/multiplexers/keys/KEYS_4_11*%
X402934758Y-162745962D03*
%TO.N,/multiplexers/keys/KEYS_4_12*%
X429128508Y-162745962D03*
%TO.N,/multiplexers/keys/KEYS_4_13*%
X460084758Y-167508462D03*
%TO.N,/multiplexers/keys/KEYS_5_0*%
X151474758Y-181795962D03*
%TO.N,/multiplexers/keys/KEYS_5_1*%
X213822247Y-185060135D03*
%TO.N,/multiplexers/keys/KEYS_5_2*%
X246431242Y-191991391D03*
%TO.N,/multiplexers/keys/KEYS_5_3*%
X274381810Y-197932468D03*
%TO.N,/multiplexers/keys/KEYS_5_4*%
X335164791Y-192864439D03*
%TO.N,/multiplexers/keys/KEYS_5_5*%
X374761428Y-184447914D03*
%TO.N,/multiplexers/keys/KEYS_5_6*%
X441034758Y-186558462D03*
%TO.N,/multiplexers/keys/KEYS_5_7*%
X460084758Y-186558462D03*
%TO.N,/multiplexers/keys/KEYS_5_8*%
X479134758Y-186558462D03*
%TO.N,/multiplexers/keys/KEYS_4_6*%
X305582719Y-179676714D03*
%TD*%
M02*
