%TF.GenerationSoftware,KiCad,Pcbnew,8.0.1*%
%TF.CreationDate,2024-04-11T15:05:29-07:00*%
%TF.ProjectId,Erebus,45726562-7573-42e6-9b69-6361645f7063,rev?*%
%TF.SameCoordinates,Original*%
%TF.FileFunction,Soldermask,Top*%
%TF.FilePolarity,Negative*%
%FSLAX46Y46*%
G04 Gerber Fmt 4.6, Leading zero omitted, Abs format (unit mm)*
G04 Created by KiCad (PCBNEW 8.0.1) date 2024-04-11 15:05:29*
%MOMM*%
%LPD*%
G01*
G04 APERTURE LIST*
G04 Aperture macros list*
%AMRoundRect*
0 Rectangle with rounded corners*
0 $1 Rounding radius*
0 $2 $3 $4 $5 $6 $7 $8 $9 X,Y pos of 4 corners*
0 Add a 4 corners polygon primitive as box body*
4,1,4,$2,$3,$4,$5,$6,$7,$8,$9,$2,$3,0*
0 Add four circle primitives for the rounded corners*
1,1,$1+$1,$2,$3*
1,1,$1+$1,$4,$5*
1,1,$1+$1,$6,$7*
1,1,$1+$1,$8,$9*
0 Add four rect primitives between the rounded corners*
20,1,$1+$1,$2,$3,$4,$5,0*
20,1,$1+$1,$4,$5,$6,$7,0*
20,1,$1+$1,$6,$7,$8,$9,0*
20,1,$1+$1,$8,$9,$2,$3,0*%
G04 Aperture macros list end*
%ADD10RoundRect,0.200000X-0.200000X-0.275000X0.200000X-0.275000X0.200000X0.275000X-0.200000X0.275000X0*%
%ADD11RoundRect,0.135000X-0.135000X-0.185000X0.135000X-0.185000X0.135000X0.185000X-0.135000X0.185000X0*%
%ADD12R,1.400000X1.200000*%
%ADD13C,3.987800*%
%ADD14RoundRect,0.375000X-0.625000X-0.375000X0.625000X-0.375000X0.625000X0.375000X-0.625000X0.375000X0*%
%ADD15RoundRect,0.500000X-0.500000X-1.400000X0.500000X-1.400000X0.500000X1.400000X-0.500000X1.400000X0*%
%ADD16RoundRect,0.150000X-0.587500X-0.150000X0.587500X-0.150000X0.587500X0.150000X-0.587500X0.150000X0*%
%ADD17RoundRect,0.237500X-0.250000X-0.237500X0.250000X-0.237500X0.250000X0.237500X-0.250000X0.237500X0*%
%ADD18RoundRect,0.140000X-0.140000X-0.170000X0.140000X-0.170000X0.140000X0.170000X-0.140000X0.170000X0*%
%ADD19R,1.700000X1.700000*%
%ADD20O,1.700000X1.700000*%
%ADD21RoundRect,0.250000X-0.312500X-0.625000X0.312500X-0.625000X0.312500X0.625000X-0.312500X0.625000X0*%
%ADD22RoundRect,0.250000X-0.325000X-0.650000X0.325000X-0.650000X0.325000X0.650000X-0.325000X0.650000X0*%
%ADD23RoundRect,0.075000X-0.662500X-0.075000X0.662500X-0.075000X0.662500X0.075000X-0.662500X0.075000X0*%
%ADD24RoundRect,0.075000X-0.075000X-0.662500X0.075000X-0.662500X0.075000X0.662500X-0.075000X0.662500X0*%
%ADD25R,1.700000X1.000000*%
%ADD26RoundRect,0.112500X-0.187500X-0.112500X0.187500X-0.112500X0.187500X0.112500X-0.187500X0.112500X0*%
%ADD27O,0.270000X1.500000*%
%ADD28O,1.500000X0.270000*%
%ADD29C,1.750000*%
G04 APERTURE END LIST*
D10*
%TO.C,R82*%
X207649900Y-251704600D03*
X209299900Y-251704600D03*
%TD*%
D11*
%TO.C,R89*%
X199614900Y-260434600D03*
X200634900Y-260434600D03*
%TD*%
%TO.C,R83*%
X199614900Y-248494600D03*
X200634900Y-248494600D03*
%TD*%
%TO.C,R84*%
X199614900Y-250484600D03*
X200634900Y-250484600D03*
%TD*%
D12*
%TO.C,Y1*%
X174344900Y-269894600D03*
X176544900Y-269894600D03*
X176544900Y-268194600D03*
X174344900Y-268194600D03*
%TD*%
D13*
%TO.C,S75*%
X255261132Y-187417886D03*
X231968992Y-182466989D03*
%TD*%
D14*
%TO.C,U8*%
X174594900Y-260399600D03*
X174594900Y-262699600D03*
D15*
X180894900Y-262699600D03*
D14*
X174594900Y-264999600D03*
%TD*%
D13*
%TO.C,S28*%
X443958308Y-99286562D03*
X420145808Y-99286562D03*
%TD*%
D16*
%TO.C,Q1*%
X203087400Y-248949600D03*
X203087400Y-250849600D03*
X204962400Y-249899600D03*
%TD*%
D17*
%TO.C,R90*%
X183932400Y-259754600D03*
X185757400Y-259754600D03*
%TD*%
D18*
%TO.C,C170*%
X207424900Y-253944600D03*
X208384900Y-253944600D03*
%TD*%
D11*
%TO.C,R92*%
X191964900Y-255194600D03*
X192984900Y-255194600D03*
%TD*%
D19*
%TO.C,JP2*%
X287199600Y-161340800D03*
D20*
X287199600Y-163880800D03*
%TD*%
D19*
%TO.C,SWD1*%
X186144900Y-249824600D03*
D20*
X188684900Y-249824600D03*
X186144900Y-252364600D03*
X188684900Y-252364600D03*
X186144900Y-254904600D03*
X188684900Y-254904600D03*
%TD*%
D21*
%TO.C,R93*%
X188362400Y-267194600D03*
X191287400Y-267194600D03*
%TD*%
D18*
%TO.C,C173*%
X179024900Y-267804600D03*
X179984900Y-267804600D03*
%TD*%
D21*
%TO.C,R94*%
X188362400Y-270484600D03*
X191287400Y-270484600D03*
%TD*%
D19*
%TO.C,JP1*%
X282549600Y-161340800D03*
D20*
X282549600Y-163880800D03*
%TD*%
D13*
%TO.C,S57*%
X451102058Y-137386562D03*
X427289558Y-137386562D03*
%TD*%
%TO.C,S77*%
X341371084Y-185094895D03*
X318078944Y-190045792D03*
%TD*%
D11*
%TO.C,R87*%
X199614900Y-256454600D03*
X200634900Y-256454600D03*
%TD*%
D22*
%TO.C,C171*%
X192369900Y-249174600D03*
X195319900Y-249174600D03*
%TD*%
D18*
%TO.C,C174*%
X179024900Y-269774600D03*
X179984900Y-269774600D03*
%TD*%
D23*
%TO.C,U1*%
X275824300Y-138902700D03*
X275824300Y-139402700D03*
X275824300Y-139902700D03*
X275824300Y-140402700D03*
X275824300Y-140902700D03*
X275824300Y-141402700D03*
X275824300Y-141902700D03*
X275824300Y-142402700D03*
X275824300Y-142902700D03*
X275824300Y-143402700D03*
X275824300Y-143902700D03*
X275824300Y-144402700D03*
D24*
X277236800Y-145815200D03*
X277736800Y-145815200D03*
X278236800Y-145815200D03*
X278736800Y-145815200D03*
X279236800Y-145815200D03*
X279736800Y-145815200D03*
X280236800Y-145815200D03*
X280736800Y-145815200D03*
X281236800Y-145815200D03*
X281736800Y-145815200D03*
X282236800Y-145815200D03*
X282736800Y-145815200D03*
D23*
X284149300Y-144402700D03*
X284149300Y-143902700D03*
X284149300Y-143402700D03*
X284149300Y-142902700D03*
X284149300Y-142402700D03*
X284149300Y-141902700D03*
X284149300Y-141402700D03*
X284149300Y-140902700D03*
X284149300Y-140402700D03*
X284149300Y-139902700D03*
X284149300Y-139402700D03*
X284149300Y-138902700D03*
D24*
X282736800Y-137490200D03*
X282236800Y-137490200D03*
X281736800Y-137490200D03*
X281236800Y-137490200D03*
X280736800Y-137490200D03*
X280236800Y-137490200D03*
X279736800Y-137490200D03*
X279236800Y-137490200D03*
X278736800Y-137490200D03*
X278236800Y-137490200D03*
X277736800Y-137490200D03*
X277236800Y-137490200D03*
%TD*%
D13*
%TO.C,S59*%
X166304558Y-156436562D03*
X142492058Y-156436562D03*
%TD*%
D25*
%TO.C,SW82*%
X188644900Y-260124600D03*
X194944900Y-260124600D03*
X188644900Y-263924600D03*
X194944900Y-263924600D03*
%TD*%
D17*
%TO.C,R95*%
X183932400Y-264774600D03*
X185757400Y-264774600D03*
%TD*%
D11*
%TO.C,R88*%
X199614900Y-258444600D03*
X200634900Y-258444600D03*
%TD*%
D17*
%TO.C,R91*%
X183932400Y-262264600D03*
X185757400Y-262264600D03*
%TD*%
D11*
%TO.C,R86*%
X199614900Y-254464600D03*
X200634900Y-254464600D03*
%TD*%
D26*
%TO.C,D1*%
X207589900Y-248974600D03*
X209689900Y-248974600D03*
%TD*%
D11*
%TO.C,R85*%
X199614900Y-252474600D03*
X200634900Y-252474600D03*
%TD*%
D22*
%TO.C,C172*%
X192369900Y-252524600D03*
X195319900Y-252524600D03*
%TD*%
D27*
%TO.C,U9*%
X175569900Y-257249600D03*
X176069900Y-257249600D03*
X176569900Y-257249600D03*
X177069900Y-257249600D03*
X177569900Y-257249600D03*
X178069900Y-257249600D03*
X178569900Y-257249600D03*
X179069900Y-257249600D03*
X179569900Y-257249600D03*
X180069900Y-257249600D03*
X180569900Y-257249600D03*
X181069900Y-257249600D03*
D28*
X182569900Y-255749600D03*
X182569900Y-255249600D03*
X182569900Y-254749600D03*
X182569900Y-254249600D03*
X182569900Y-253749600D03*
X182569900Y-253249600D03*
X182569900Y-252749600D03*
X182569900Y-252249600D03*
X182569900Y-251749600D03*
X182569900Y-251249600D03*
X182569900Y-250749600D03*
X182569900Y-250249600D03*
D27*
X181069900Y-248749600D03*
X180569900Y-248749600D03*
X180069900Y-248749600D03*
X179569900Y-248749600D03*
X179069900Y-248749600D03*
X178569900Y-248749600D03*
X178069900Y-248749600D03*
X177569900Y-248749600D03*
X177069900Y-248749600D03*
X176569900Y-248749600D03*
X176069900Y-248749600D03*
X175569900Y-248749600D03*
D28*
X174069900Y-250249600D03*
X174069900Y-250749600D03*
X174069900Y-251249600D03*
X174069900Y-251749600D03*
X174069900Y-252249600D03*
X174069900Y-252749600D03*
X174069900Y-253249600D03*
X174069900Y-253749600D03*
X174069900Y-254249600D03*
X174069900Y-254749600D03*
X174069900Y-255249600D03*
X174069900Y-255749600D03*
%TD*%
D16*
%TO.C,Q2*%
X203087400Y-253574600D03*
X203087400Y-255474600D03*
X204962400Y-254524600D03*
%TD*%
D22*
%TO.C,C169*%
X202929900Y-258424600D03*
X205879900Y-258424600D03*
%TD*%
D29*
%TO.C,SW62*%
X232194747Y-171478808D03*
X222256767Y-169366426D03*
%TD*%
%TO.C,SW65*%
X306828243Y-181401036D03*
X296890263Y-183513418D03*
%TD*%
%TO.C,SW45*%
X154715808Y-145641562D03*
X144555808Y-145641562D03*
%TD*%
%TO.C,SW55*%
X394269558Y-145641562D03*
X384109558Y-145641562D03*
%TD*%
%TO.C,SW56*%
X413319558Y-145641562D03*
X403159558Y-145641562D03*
%TD*%
%TO.C,SW52*%
X335476521Y-155836069D03*
X325538541Y-157948451D03*
%TD*%
%TO.C,SW74*%
X214258746Y-187141981D03*
X204320766Y-185029599D03*
%TD*%
%TO.C,SW39*%
X364124799Y-130271101D03*
X354186819Y-132383483D03*
%TD*%
%TO.C,SW26*%
X389507058Y-104684062D03*
X379347058Y-104684062D03*
%TD*%
%TO.C,SW58*%
X479994558Y-140879062D03*
X469834558Y-140879062D03*
%TD*%
%TO.C,SW9*%
X331921045Y-93296146D03*
X321983065Y-95408528D03*
%TD*%
%TO.C,SW80*%
X460944558Y-188504062D03*
X450784558Y-188504062D03*
%TD*%
%TO.C,SW76*%
X274818309Y-200014314D03*
X264880329Y-197901932D03*
%TD*%
%TO.C,SW63*%
X250828459Y-175439525D03*
X240890479Y-173327143D03*
%TD*%
%TO.C,SW75*%
X246867741Y-194073237D03*
X236929761Y-191960855D03*
%TD*%
%TO.C,SW79*%
X441894558Y-188504062D03*
X431734558Y-188504062D03*
%TD*%
%TO.C,SW51*%
X316842810Y-159796786D03*
X306904830Y-161909168D03*
%TD*%
%TO.C,SW7*%
X276978365Y-98226609D03*
X267040385Y-96114227D03*
%TD*%
%TO.C,SW64*%
X269462171Y-179400243D03*
X259524191Y-177287861D03*
%TD*%
%TO.C,SW19*%
X239418472Y-114587493D03*
X229480492Y-112475111D03*
%TD*%
%TO.C,SW46*%
X185672058Y-145641562D03*
X175512058Y-145641562D03*
%TD*%
%TO.C,SW3*%
X195197058Y-82776562D03*
X185037058Y-82776562D03*
%TD*%
%TO.C,SW23*%
X332213514Y-117578466D03*
X322275534Y-119690848D03*
%TD*%
%TO.C,SW6*%
X258344653Y-94265891D03*
X248406673Y-92153509D03*
%TD*%
%TO.C,SW73*%
X152334558Y-183741562D03*
X142174558Y-183741562D03*
%TD*%
%TO.C,SW11*%
X373846896Y-84384532D03*
X363908916Y-86496914D03*
%TD*%
%TO.C,SW47*%
X208204897Y-146904019D03*
X198266917Y-144791637D03*
%TD*%
%TO.C,SW35*%
X263408322Y-139162281D03*
X253470342Y-137049899D03*
%TD*%
%TO.C,SW5*%
X235052514Y-89314994D03*
X225114534Y-87202612D03*
%TD*%
%TO.C,SW72*%
X460944558Y-169454062D03*
X450784558Y-169454062D03*
%TD*%
%TO.C,SW17*%
X199959558Y-104684062D03*
X189799558Y-104684062D03*
%TD*%
%TO.C,SW29*%
X470469558Y-102779062D03*
X460309558Y-102779062D03*
%TD*%
%TO.C,SW68*%
X362729379Y-169518883D03*
X352791399Y-171631265D03*
%TD*%
%TO.C,SW22*%
X313579802Y-121539183D03*
X303641822Y-123651565D03*
%TD*%
%TO.C,SW13*%
X414272058Y-82776562D03*
X404112058Y-82776562D03*
%TD*%
%TO.C,SW28*%
X437132058Y-107541562D03*
X426972058Y-107541562D03*
%TD*%
%TO.C,SW2*%
X176147058Y-82776562D03*
X165987058Y-82776562D03*
%TD*%
%TO.C,SW57*%
X444275808Y-145641562D03*
X434115808Y-145641562D03*
%TD*%
%TO.C,SW1*%
X151382058Y-83729062D03*
X141222058Y-83729062D03*
%TD*%
%TO.C,SW36*%
X308223664Y-142153254D03*
X298285684Y-144265636D03*
%TD*%
%TO.C,SW49*%
X245472321Y-154825455D03*
X235534341Y-152713073D03*
%TD*%
%TO.C,SW14*%
X465707058Y-83729062D03*
X455547058Y-83729062D03*
%TD*%
%TO.C,SW77*%
X336410315Y-194588761D03*
X326472335Y-196701143D03*
%TD*%
%TO.C,SW67*%
X344095667Y-173479601D03*
X334157687Y-175591983D03*
%TD*%
%TO.C,SW18*%
X220784761Y-110626775D03*
X210846781Y-108514393D03*
%TD*%
%TO.C,SW53*%
X354110233Y-151875351D03*
X344172253Y-153987733D03*
%TD*%
%TO.C,SW33*%
X226140899Y-131240846D03*
X216202919Y-129128464D03*
%TD*%
%TO.C,SW69*%
X381363091Y-165558166D03*
X371425111Y-167670548D03*
%TD*%
%TO.C,SW71*%
X429988308Y-164691562D03*
X419828308Y-164691562D03*
%TD*%
%TO.C,SW81*%
X479994558Y-188504062D03*
X469834558Y-188504062D03*
%TD*%
%TO.C,SW25*%
X369480938Y-109657030D03*
X359542958Y-111769412D03*
%TD*%
%TO.C,SW54*%
X372743945Y-147914633D03*
X362805965Y-150027015D03*
%TD*%
%TO.C,SW59*%
X159478308Y-164691562D03*
X149318308Y-164691562D03*
%TD*%
%TO.C,SW44*%
X475232058Y-121829062D03*
X465072058Y-121829062D03*
%TD*%
%TO.C,SW70*%
X403794558Y-164691562D03*
X393634558Y-164691562D03*
%TD*%
%TO.C,SW48*%
X226838609Y-150864737D03*
X216900629Y-148752355D03*
%TD*%
%TO.C,SW12*%
X395222058Y-82776562D03*
X385062058Y-82776562D03*
%TD*%
%TO.C,SW43*%
X446657058Y-126591562D03*
X436497058Y-126591562D03*
%TD*%
%TO.C,SW21*%
X276685896Y-122508928D03*
X266747916Y-120396546D03*
%TD*%
%TO.C,SW38*%
X345491088Y-134231819D03*
X335553108Y-136344201D03*
%TD*%
%TO.C,SW50*%
X264106033Y-158786172D03*
X254168053Y-156673790D03*
%TD*%
%TO.C,SW10*%
X355213184Y-88345249D03*
X345275204Y-90457631D03*
%TD*%
%TO.C,SW20*%
X258052184Y-118548210D03*
X248114204Y-116435828D03*
%TD*%
%TO.C,SW27*%
X408557058Y-107541562D03*
X398397058Y-107541562D03*
%TD*%
%TO.C,SW31*%
X185672058Y-126591562D03*
X175512058Y-126591562D03*
%TD*%
%TO.C,SW15*%
X161859558Y-107541562D03*
X151699558Y-107541562D03*
%TD*%
%TO.C,SW40*%
X382758511Y-126310383D03*
X372820531Y-128422765D03*
%TD*%
%TO.C,SW61*%
X213561035Y-167518090D03*
X203623055Y-165405708D03*
%TD*%
%TO.C,SW42*%
X422844558Y-126591562D03*
X412684558Y-126591562D03*
%TD*%
%TO.C,SW32*%
X207507187Y-127280128D03*
X197569207Y-125167746D03*
%TD*%
%TO.C,SW66*%
X325461955Y-177440319D03*
X315523975Y-179552701D03*
%TD*%
%TO.C,SW37*%
X326857376Y-138192536D03*
X316919396Y-140304918D03*
%TD*%
%TO.C,SW41*%
X403794558Y-126591562D03*
X393634558Y-126591562D03*
%TD*%
%TO.C,SW60*%
X190434558Y-164691562D03*
X180274558Y-164691562D03*
%TD*%
%TO.C,SW24*%
X350847226Y-113617748D03*
X340909246Y-115730130D03*
%TD*%
%TO.C,SW34*%
X244774611Y-135201563D03*
X234836631Y-133089181D03*
%TD*%
%TO.C,SW78*%
X376006952Y-186172236D03*
X366068972Y-188284618D03*
%TD*%
%TO.C,SW8*%
X313287333Y-97256864D03*
X303349353Y-99369246D03*
%TD*%
%TO.C,SW16*%
X180909558Y-107541562D03*
X170749558Y-107541562D03*
%TD*%
%TO.C,SW30*%
X161859558Y-126591562D03*
X151699558Y-126591562D03*
%TD*%
%TO.C,SW4*%
X216418802Y-85354276D03*
X206480822Y-83241894D03*
%TD*%
M02*
