%TF.GenerationSoftware,KiCad,Pcbnew,8.0.1*%
%TF.CreationDate,2024-04-11T15:05:29-07:00*%
%TF.ProjectId,Erebus,45726562-7573-42e6-9b69-6361645f7063,rev?*%
%TF.SameCoordinates,Original*%
%TF.FileFunction,Legend,Top*%
%TF.FilePolarity,Positive*%
%FSLAX46Y46*%
G04 Gerber Fmt 4.6, Leading zero omitted, Abs format (unit mm)*
G04 Created by KiCad (PCBNEW 8.0.1) date 2024-04-11 15:05:29*
%MOMM*%
%LPD*%
G01*
G04 APERTURE LIST*
G04 Aperture macros list*
%AMRoundRect*
0 Rectangle with rounded corners*
0 $1 Rounding radius*
0 $2 $3 $4 $5 $6 $7 $8 $9 X,Y pos of 4 corners*
0 Add a 4 corners polygon primitive as box body*
4,1,4,$2,$3,$4,$5,$6,$7,$8,$9,$2,$3,0*
0 Add four circle primitives for the rounded corners*
1,1,$1+$1,$2,$3*
1,1,$1+$1,$4,$5*
1,1,$1+$1,$6,$7*
1,1,$1+$1,$8,$9*
0 Add four rect primitives between the rounded corners*
20,1,$1+$1,$2,$3,$4,$5,0*
20,1,$1+$1,$4,$5,$6,$7,0*
20,1,$1+$1,$6,$7,$8,$9,0*
20,1,$1+$1,$8,$9,$2,$3,0*%
G04 Aperture macros list end*
%ADD10C,0.150000*%
%ADD11C,0.120000*%
%ADD12C,0.200000*%
%ADD13C,0.400000*%
%ADD14C,0.250000*%
%ADD15RoundRect,0.200000X-0.200000X-0.275000X0.200000X-0.275000X0.200000X0.275000X-0.200000X0.275000X0*%
%ADD16RoundRect,0.135000X-0.135000X-0.185000X0.135000X-0.185000X0.135000X0.185000X-0.135000X0.185000X0*%
%ADD17R,1.400000X1.200000*%
%ADD18C,3.987800*%
%ADD19RoundRect,0.375000X-0.625000X-0.375000X0.625000X-0.375000X0.625000X0.375000X-0.625000X0.375000X0*%
%ADD20RoundRect,0.500000X-0.500000X-1.400000X0.500000X-1.400000X0.500000X1.400000X-0.500000X1.400000X0*%
%ADD21RoundRect,0.150000X-0.587500X-0.150000X0.587500X-0.150000X0.587500X0.150000X-0.587500X0.150000X0*%
%ADD22RoundRect,0.237500X-0.250000X-0.237500X0.250000X-0.237500X0.250000X0.237500X-0.250000X0.237500X0*%
%ADD23RoundRect,0.140000X-0.140000X-0.170000X0.140000X-0.170000X0.140000X0.170000X-0.140000X0.170000X0*%
%ADD24R,1.700000X1.700000*%
%ADD25O,1.700000X1.700000*%
%ADD26RoundRect,0.250000X-0.312500X-0.625000X0.312500X-0.625000X0.312500X0.625000X-0.312500X0.625000X0*%
%ADD27RoundRect,0.250000X-0.325000X-0.650000X0.325000X-0.650000X0.325000X0.650000X-0.325000X0.650000X0*%
%ADD28RoundRect,0.075000X-0.662500X-0.075000X0.662500X-0.075000X0.662500X0.075000X-0.662500X0.075000X0*%
%ADD29RoundRect,0.075000X-0.075000X-0.662500X0.075000X-0.662500X0.075000X0.662500X-0.075000X0.662500X0*%
%ADD30R,1.700000X1.000000*%
%ADD31RoundRect,0.112500X-0.187500X-0.112500X0.187500X-0.112500X0.187500X0.112500X-0.187500X0.112500X0*%
%ADD32O,0.270000X1.500000*%
%ADD33O,1.500000X0.270000*%
%ADD34C,1.750000*%
G04 APERTURE END LIST*
D10*
X207832042Y-250729419D02*
X207498709Y-250253228D01*
X207260614Y-250729419D02*
X207260614Y-249729419D01*
X207260614Y-249729419D02*
X207641566Y-249729419D01*
X207641566Y-249729419D02*
X207736804Y-249777038D01*
X207736804Y-249777038D02*
X207784423Y-249824657D01*
X207784423Y-249824657D02*
X207832042Y-249919895D01*
X207832042Y-249919895D02*
X207832042Y-250062752D01*
X207832042Y-250062752D02*
X207784423Y-250157990D01*
X207784423Y-250157990D02*
X207736804Y-250205609D01*
X207736804Y-250205609D02*
X207641566Y-250253228D01*
X207641566Y-250253228D02*
X207260614Y-250253228D01*
X208403471Y-250157990D02*
X208308233Y-250110371D01*
X208308233Y-250110371D02*
X208260614Y-250062752D01*
X208260614Y-250062752D02*
X208212995Y-249967514D01*
X208212995Y-249967514D02*
X208212995Y-249919895D01*
X208212995Y-249919895D02*
X208260614Y-249824657D01*
X208260614Y-249824657D02*
X208308233Y-249777038D01*
X208308233Y-249777038D02*
X208403471Y-249729419D01*
X208403471Y-249729419D02*
X208593947Y-249729419D01*
X208593947Y-249729419D02*
X208689185Y-249777038D01*
X208689185Y-249777038D02*
X208736804Y-249824657D01*
X208736804Y-249824657D02*
X208784423Y-249919895D01*
X208784423Y-249919895D02*
X208784423Y-249967514D01*
X208784423Y-249967514D02*
X208736804Y-250062752D01*
X208736804Y-250062752D02*
X208689185Y-250110371D01*
X208689185Y-250110371D02*
X208593947Y-250157990D01*
X208593947Y-250157990D02*
X208403471Y-250157990D01*
X208403471Y-250157990D02*
X208308233Y-250205609D01*
X208308233Y-250205609D02*
X208260614Y-250253228D01*
X208260614Y-250253228D02*
X208212995Y-250348466D01*
X208212995Y-250348466D02*
X208212995Y-250538942D01*
X208212995Y-250538942D02*
X208260614Y-250634180D01*
X208260614Y-250634180D02*
X208308233Y-250681800D01*
X208308233Y-250681800D02*
X208403471Y-250729419D01*
X208403471Y-250729419D02*
X208593947Y-250729419D01*
X208593947Y-250729419D02*
X208689185Y-250681800D01*
X208689185Y-250681800D02*
X208736804Y-250634180D01*
X208736804Y-250634180D02*
X208784423Y-250538942D01*
X208784423Y-250538942D02*
X208784423Y-250348466D01*
X208784423Y-250348466D02*
X208736804Y-250253228D01*
X208736804Y-250253228D02*
X208689185Y-250205609D01*
X208689185Y-250205609D02*
X208593947Y-250157990D01*
X209165376Y-249824657D02*
X209212995Y-249777038D01*
X209212995Y-249777038D02*
X209308233Y-249729419D01*
X209308233Y-249729419D02*
X209546328Y-249729419D01*
X209546328Y-249729419D02*
X209641566Y-249777038D01*
X209641566Y-249777038D02*
X209689185Y-249824657D01*
X209689185Y-249824657D02*
X209736804Y-249919895D01*
X209736804Y-249919895D02*
X209736804Y-250015133D01*
X209736804Y-250015133D02*
X209689185Y-250157990D01*
X209689185Y-250157990D02*
X209117757Y-250729419D01*
X209117757Y-250729419D02*
X209736804Y-250729419D01*
X199482042Y-259719419D02*
X199148709Y-259243228D01*
X198910614Y-259719419D02*
X198910614Y-258719419D01*
X198910614Y-258719419D02*
X199291566Y-258719419D01*
X199291566Y-258719419D02*
X199386804Y-258767038D01*
X199386804Y-258767038D02*
X199434423Y-258814657D01*
X199434423Y-258814657D02*
X199482042Y-258909895D01*
X199482042Y-258909895D02*
X199482042Y-259052752D01*
X199482042Y-259052752D02*
X199434423Y-259147990D01*
X199434423Y-259147990D02*
X199386804Y-259195609D01*
X199386804Y-259195609D02*
X199291566Y-259243228D01*
X199291566Y-259243228D02*
X198910614Y-259243228D01*
X200053471Y-259147990D02*
X199958233Y-259100371D01*
X199958233Y-259100371D02*
X199910614Y-259052752D01*
X199910614Y-259052752D02*
X199862995Y-258957514D01*
X199862995Y-258957514D02*
X199862995Y-258909895D01*
X199862995Y-258909895D02*
X199910614Y-258814657D01*
X199910614Y-258814657D02*
X199958233Y-258767038D01*
X199958233Y-258767038D02*
X200053471Y-258719419D01*
X200053471Y-258719419D02*
X200243947Y-258719419D01*
X200243947Y-258719419D02*
X200339185Y-258767038D01*
X200339185Y-258767038D02*
X200386804Y-258814657D01*
X200386804Y-258814657D02*
X200434423Y-258909895D01*
X200434423Y-258909895D02*
X200434423Y-258957514D01*
X200434423Y-258957514D02*
X200386804Y-259052752D01*
X200386804Y-259052752D02*
X200339185Y-259100371D01*
X200339185Y-259100371D02*
X200243947Y-259147990D01*
X200243947Y-259147990D02*
X200053471Y-259147990D01*
X200053471Y-259147990D02*
X199958233Y-259195609D01*
X199958233Y-259195609D02*
X199910614Y-259243228D01*
X199910614Y-259243228D02*
X199862995Y-259338466D01*
X199862995Y-259338466D02*
X199862995Y-259528942D01*
X199862995Y-259528942D02*
X199910614Y-259624180D01*
X199910614Y-259624180D02*
X199958233Y-259671800D01*
X199958233Y-259671800D02*
X200053471Y-259719419D01*
X200053471Y-259719419D02*
X200243947Y-259719419D01*
X200243947Y-259719419D02*
X200339185Y-259671800D01*
X200339185Y-259671800D02*
X200386804Y-259624180D01*
X200386804Y-259624180D02*
X200434423Y-259528942D01*
X200434423Y-259528942D02*
X200434423Y-259338466D01*
X200434423Y-259338466D02*
X200386804Y-259243228D01*
X200386804Y-259243228D02*
X200339185Y-259195609D01*
X200339185Y-259195609D02*
X200243947Y-259147990D01*
X200910614Y-259719419D02*
X201101090Y-259719419D01*
X201101090Y-259719419D02*
X201196328Y-259671800D01*
X201196328Y-259671800D02*
X201243947Y-259624180D01*
X201243947Y-259624180D02*
X201339185Y-259481323D01*
X201339185Y-259481323D02*
X201386804Y-259290847D01*
X201386804Y-259290847D02*
X201386804Y-258909895D01*
X201386804Y-258909895D02*
X201339185Y-258814657D01*
X201339185Y-258814657D02*
X201291566Y-258767038D01*
X201291566Y-258767038D02*
X201196328Y-258719419D01*
X201196328Y-258719419D02*
X201005852Y-258719419D01*
X201005852Y-258719419D02*
X200910614Y-258767038D01*
X200910614Y-258767038D02*
X200862995Y-258814657D01*
X200862995Y-258814657D02*
X200815376Y-258909895D01*
X200815376Y-258909895D02*
X200815376Y-259147990D01*
X200815376Y-259147990D02*
X200862995Y-259243228D01*
X200862995Y-259243228D02*
X200910614Y-259290847D01*
X200910614Y-259290847D02*
X201005852Y-259338466D01*
X201005852Y-259338466D02*
X201196328Y-259338466D01*
X201196328Y-259338466D02*
X201291566Y-259290847D01*
X201291566Y-259290847D02*
X201339185Y-259243228D01*
X201339185Y-259243228D02*
X201386804Y-259147990D01*
X199482042Y-247779419D02*
X199148709Y-247303228D01*
X198910614Y-247779419D02*
X198910614Y-246779419D01*
X198910614Y-246779419D02*
X199291566Y-246779419D01*
X199291566Y-246779419D02*
X199386804Y-246827038D01*
X199386804Y-246827038D02*
X199434423Y-246874657D01*
X199434423Y-246874657D02*
X199482042Y-246969895D01*
X199482042Y-246969895D02*
X199482042Y-247112752D01*
X199482042Y-247112752D02*
X199434423Y-247207990D01*
X199434423Y-247207990D02*
X199386804Y-247255609D01*
X199386804Y-247255609D02*
X199291566Y-247303228D01*
X199291566Y-247303228D02*
X198910614Y-247303228D01*
X200053471Y-247207990D02*
X199958233Y-247160371D01*
X199958233Y-247160371D02*
X199910614Y-247112752D01*
X199910614Y-247112752D02*
X199862995Y-247017514D01*
X199862995Y-247017514D02*
X199862995Y-246969895D01*
X199862995Y-246969895D02*
X199910614Y-246874657D01*
X199910614Y-246874657D02*
X199958233Y-246827038D01*
X199958233Y-246827038D02*
X200053471Y-246779419D01*
X200053471Y-246779419D02*
X200243947Y-246779419D01*
X200243947Y-246779419D02*
X200339185Y-246827038D01*
X200339185Y-246827038D02*
X200386804Y-246874657D01*
X200386804Y-246874657D02*
X200434423Y-246969895D01*
X200434423Y-246969895D02*
X200434423Y-247017514D01*
X200434423Y-247017514D02*
X200386804Y-247112752D01*
X200386804Y-247112752D02*
X200339185Y-247160371D01*
X200339185Y-247160371D02*
X200243947Y-247207990D01*
X200243947Y-247207990D02*
X200053471Y-247207990D01*
X200053471Y-247207990D02*
X199958233Y-247255609D01*
X199958233Y-247255609D02*
X199910614Y-247303228D01*
X199910614Y-247303228D02*
X199862995Y-247398466D01*
X199862995Y-247398466D02*
X199862995Y-247588942D01*
X199862995Y-247588942D02*
X199910614Y-247684180D01*
X199910614Y-247684180D02*
X199958233Y-247731800D01*
X199958233Y-247731800D02*
X200053471Y-247779419D01*
X200053471Y-247779419D02*
X200243947Y-247779419D01*
X200243947Y-247779419D02*
X200339185Y-247731800D01*
X200339185Y-247731800D02*
X200386804Y-247684180D01*
X200386804Y-247684180D02*
X200434423Y-247588942D01*
X200434423Y-247588942D02*
X200434423Y-247398466D01*
X200434423Y-247398466D02*
X200386804Y-247303228D01*
X200386804Y-247303228D02*
X200339185Y-247255609D01*
X200339185Y-247255609D02*
X200243947Y-247207990D01*
X200767757Y-246779419D02*
X201386804Y-246779419D01*
X201386804Y-246779419D02*
X201053471Y-247160371D01*
X201053471Y-247160371D02*
X201196328Y-247160371D01*
X201196328Y-247160371D02*
X201291566Y-247207990D01*
X201291566Y-247207990D02*
X201339185Y-247255609D01*
X201339185Y-247255609D02*
X201386804Y-247350847D01*
X201386804Y-247350847D02*
X201386804Y-247588942D01*
X201386804Y-247588942D02*
X201339185Y-247684180D01*
X201339185Y-247684180D02*
X201291566Y-247731800D01*
X201291566Y-247731800D02*
X201196328Y-247779419D01*
X201196328Y-247779419D02*
X200910614Y-247779419D01*
X200910614Y-247779419D02*
X200815376Y-247731800D01*
X200815376Y-247731800D02*
X200767757Y-247684180D01*
X199482042Y-249769419D02*
X199148709Y-249293228D01*
X198910614Y-249769419D02*
X198910614Y-248769419D01*
X198910614Y-248769419D02*
X199291566Y-248769419D01*
X199291566Y-248769419D02*
X199386804Y-248817038D01*
X199386804Y-248817038D02*
X199434423Y-248864657D01*
X199434423Y-248864657D02*
X199482042Y-248959895D01*
X199482042Y-248959895D02*
X199482042Y-249102752D01*
X199482042Y-249102752D02*
X199434423Y-249197990D01*
X199434423Y-249197990D02*
X199386804Y-249245609D01*
X199386804Y-249245609D02*
X199291566Y-249293228D01*
X199291566Y-249293228D02*
X198910614Y-249293228D01*
X200053471Y-249197990D02*
X199958233Y-249150371D01*
X199958233Y-249150371D02*
X199910614Y-249102752D01*
X199910614Y-249102752D02*
X199862995Y-249007514D01*
X199862995Y-249007514D02*
X199862995Y-248959895D01*
X199862995Y-248959895D02*
X199910614Y-248864657D01*
X199910614Y-248864657D02*
X199958233Y-248817038D01*
X199958233Y-248817038D02*
X200053471Y-248769419D01*
X200053471Y-248769419D02*
X200243947Y-248769419D01*
X200243947Y-248769419D02*
X200339185Y-248817038D01*
X200339185Y-248817038D02*
X200386804Y-248864657D01*
X200386804Y-248864657D02*
X200434423Y-248959895D01*
X200434423Y-248959895D02*
X200434423Y-249007514D01*
X200434423Y-249007514D02*
X200386804Y-249102752D01*
X200386804Y-249102752D02*
X200339185Y-249150371D01*
X200339185Y-249150371D02*
X200243947Y-249197990D01*
X200243947Y-249197990D02*
X200053471Y-249197990D01*
X200053471Y-249197990D02*
X199958233Y-249245609D01*
X199958233Y-249245609D02*
X199910614Y-249293228D01*
X199910614Y-249293228D02*
X199862995Y-249388466D01*
X199862995Y-249388466D02*
X199862995Y-249578942D01*
X199862995Y-249578942D02*
X199910614Y-249674180D01*
X199910614Y-249674180D02*
X199958233Y-249721800D01*
X199958233Y-249721800D02*
X200053471Y-249769419D01*
X200053471Y-249769419D02*
X200243947Y-249769419D01*
X200243947Y-249769419D02*
X200339185Y-249721800D01*
X200339185Y-249721800D02*
X200386804Y-249674180D01*
X200386804Y-249674180D02*
X200434423Y-249578942D01*
X200434423Y-249578942D02*
X200434423Y-249388466D01*
X200434423Y-249388466D02*
X200386804Y-249293228D01*
X200386804Y-249293228D02*
X200339185Y-249245609D01*
X200339185Y-249245609D02*
X200243947Y-249197990D01*
X201291566Y-249102752D02*
X201291566Y-249769419D01*
X201053471Y-248721800D02*
X200815376Y-249436085D01*
X200815376Y-249436085D02*
X201434423Y-249436085D01*
X174968709Y-266573228D02*
X174968709Y-267049419D01*
X174635376Y-266049419D02*
X174968709Y-266573228D01*
X174968709Y-266573228D02*
X175302042Y-266049419D01*
X176159185Y-267049419D02*
X175587757Y-267049419D01*
X175873471Y-267049419D02*
X175873471Y-266049419D01*
X175873471Y-266049419D02*
X175778233Y-266192276D01*
X175778233Y-266192276D02*
X175682995Y-266287514D01*
X175682995Y-266287514D02*
X175587757Y-266335133D01*
X176982995Y-257654419D02*
X176982995Y-258463942D01*
X176982995Y-258463942D02*
X177030614Y-258559180D01*
X177030614Y-258559180D02*
X177078233Y-258606800D01*
X177078233Y-258606800D02*
X177173471Y-258654419D01*
X177173471Y-258654419D02*
X177363947Y-258654419D01*
X177363947Y-258654419D02*
X177459185Y-258606800D01*
X177459185Y-258606800D02*
X177506804Y-258559180D01*
X177506804Y-258559180D02*
X177554423Y-258463942D01*
X177554423Y-258463942D02*
X177554423Y-257654419D01*
X178173471Y-258082990D02*
X178078233Y-258035371D01*
X178078233Y-258035371D02*
X178030614Y-257987752D01*
X178030614Y-257987752D02*
X177982995Y-257892514D01*
X177982995Y-257892514D02*
X177982995Y-257844895D01*
X177982995Y-257844895D02*
X178030614Y-257749657D01*
X178030614Y-257749657D02*
X178078233Y-257702038D01*
X178078233Y-257702038D02*
X178173471Y-257654419D01*
X178173471Y-257654419D02*
X178363947Y-257654419D01*
X178363947Y-257654419D02*
X178459185Y-257702038D01*
X178459185Y-257702038D02*
X178506804Y-257749657D01*
X178506804Y-257749657D02*
X178554423Y-257844895D01*
X178554423Y-257844895D02*
X178554423Y-257892514D01*
X178554423Y-257892514D02*
X178506804Y-257987752D01*
X178506804Y-257987752D02*
X178459185Y-258035371D01*
X178459185Y-258035371D02*
X178363947Y-258082990D01*
X178363947Y-258082990D02*
X178173471Y-258082990D01*
X178173471Y-258082990D02*
X178078233Y-258130609D01*
X178078233Y-258130609D02*
X178030614Y-258178228D01*
X178030614Y-258178228D02*
X177982995Y-258273466D01*
X177982995Y-258273466D02*
X177982995Y-258463942D01*
X177982995Y-258463942D02*
X178030614Y-258559180D01*
X178030614Y-258559180D02*
X178078233Y-258606800D01*
X178078233Y-258606800D02*
X178173471Y-258654419D01*
X178173471Y-258654419D02*
X178363947Y-258654419D01*
X178363947Y-258654419D02*
X178459185Y-258606800D01*
X178459185Y-258606800D02*
X178506804Y-258559180D01*
X178506804Y-258559180D02*
X178554423Y-258463942D01*
X178554423Y-258463942D02*
X178554423Y-258273466D01*
X178554423Y-258273466D02*
X178506804Y-258178228D01*
X178506804Y-258178228D02*
X178459185Y-258130609D01*
X178459185Y-258130609D02*
X178363947Y-258082990D01*
X203929661Y-248049657D02*
X203834423Y-248002038D01*
X203834423Y-248002038D02*
X203739185Y-247906800D01*
X203739185Y-247906800D02*
X203596328Y-247763942D01*
X203596328Y-247763942D02*
X203501090Y-247716323D01*
X203501090Y-247716323D02*
X203405852Y-247716323D01*
X203453471Y-247954419D02*
X203358233Y-247906800D01*
X203358233Y-247906800D02*
X203262995Y-247811561D01*
X203262995Y-247811561D02*
X203215376Y-247621085D01*
X203215376Y-247621085D02*
X203215376Y-247287752D01*
X203215376Y-247287752D02*
X203262995Y-247097276D01*
X203262995Y-247097276D02*
X203358233Y-247002038D01*
X203358233Y-247002038D02*
X203453471Y-246954419D01*
X203453471Y-246954419D02*
X203643947Y-246954419D01*
X203643947Y-246954419D02*
X203739185Y-247002038D01*
X203739185Y-247002038D02*
X203834423Y-247097276D01*
X203834423Y-247097276D02*
X203882042Y-247287752D01*
X203882042Y-247287752D02*
X203882042Y-247621085D01*
X203882042Y-247621085D02*
X203834423Y-247811561D01*
X203834423Y-247811561D02*
X203739185Y-247906800D01*
X203739185Y-247906800D02*
X203643947Y-247954419D01*
X203643947Y-247954419D02*
X203453471Y-247954419D01*
X204834423Y-247954419D02*
X204262995Y-247954419D01*
X204548709Y-247954419D02*
X204548709Y-246954419D01*
X204548709Y-246954419D02*
X204453471Y-247097276D01*
X204453471Y-247097276D02*
X204358233Y-247192514D01*
X204358233Y-247192514D02*
X204262995Y-247240133D01*
X184202042Y-258779419D02*
X183868709Y-258303228D01*
X183630614Y-258779419D02*
X183630614Y-257779419D01*
X183630614Y-257779419D02*
X184011566Y-257779419D01*
X184011566Y-257779419D02*
X184106804Y-257827038D01*
X184106804Y-257827038D02*
X184154423Y-257874657D01*
X184154423Y-257874657D02*
X184202042Y-257969895D01*
X184202042Y-257969895D02*
X184202042Y-258112752D01*
X184202042Y-258112752D02*
X184154423Y-258207990D01*
X184154423Y-258207990D02*
X184106804Y-258255609D01*
X184106804Y-258255609D02*
X184011566Y-258303228D01*
X184011566Y-258303228D02*
X183630614Y-258303228D01*
X184678233Y-258779419D02*
X184868709Y-258779419D01*
X184868709Y-258779419D02*
X184963947Y-258731800D01*
X184963947Y-258731800D02*
X185011566Y-258684180D01*
X185011566Y-258684180D02*
X185106804Y-258541323D01*
X185106804Y-258541323D02*
X185154423Y-258350847D01*
X185154423Y-258350847D02*
X185154423Y-257969895D01*
X185154423Y-257969895D02*
X185106804Y-257874657D01*
X185106804Y-257874657D02*
X185059185Y-257827038D01*
X185059185Y-257827038D02*
X184963947Y-257779419D01*
X184963947Y-257779419D02*
X184773471Y-257779419D01*
X184773471Y-257779419D02*
X184678233Y-257827038D01*
X184678233Y-257827038D02*
X184630614Y-257874657D01*
X184630614Y-257874657D02*
X184582995Y-257969895D01*
X184582995Y-257969895D02*
X184582995Y-258207990D01*
X184582995Y-258207990D02*
X184630614Y-258303228D01*
X184630614Y-258303228D02*
X184678233Y-258350847D01*
X184678233Y-258350847D02*
X184773471Y-258398466D01*
X184773471Y-258398466D02*
X184963947Y-258398466D01*
X184963947Y-258398466D02*
X185059185Y-258350847D01*
X185059185Y-258350847D02*
X185106804Y-258303228D01*
X185106804Y-258303228D02*
X185154423Y-258207990D01*
X185773471Y-257779419D02*
X185868709Y-257779419D01*
X185868709Y-257779419D02*
X185963947Y-257827038D01*
X185963947Y-257827038D02*
X186011566Y-257874657D01*
X186011566Y-257874657D02*
X186059185Y-257969895D01*
X186059185Y-257969895D02*
X186106804Y-258160371D01*
X186106804Y-258160371D02*
X186106804Y-258398466D01*
X186106804Y-258398466D02*
X186059185Y-258588942D01*
X186059185Y-258588942D02*
X186011566Y-258684180D01*
X186011566Y-258684180D02*
X185963947Y-258731800D01*
X185963947Y-258731800D02*
X185868709Y-258779419D01*
X185868709Y-258779419D02*
X185773471Y-258779419D01*
X185773471Y-258779419D02*
X185678233Y-258731800D01*
X185678233Y-258731800D02*
X185630614Y-258684180D01*
X185630614Y-258684180D02*
X185582995Y-258588942D01*
X185582995Y-258588942D02*
X185535376Y-258398466D01*
X185535376Y-258398466D02*
X185535376Y-258160371D01*
X185535376Y-258160371D02*
X185582995Y-257969895D01*
X185582995Y-257969895D02*
X185630614Y-257874657D01*
X185630614Y-257874657D02*
X185678233Y-257827038D01*
X185678233Y-257827038D02*
X185773471Y-257779419D01*
X206785852Y-253144180D02*
X206738233Y-253191800D01*
X206738233Y-253191800D02*
X206595376Y-253239419D01*
X206595376Y-253239419D02*
X206500138Y-253239419D01*
X206500138Y-253239419D02*
X206357281Y-253191800D01*
X206357281Y-253191800D02*
X206262043Y-253096561D01*
X206262043Y-253096561D02*
X206214424Y-253001323D01*
X206214424Y-253001323D02*
X206166805Y-252810847D01*
X206166805Y-252810847D02*
X206166805Y-252667990D01*
X206166805Y-252667990D02*
X206214424Y-252477514D01*
X206214424Y-252477514D02*
X206262043Y-252382276D01*
X206262043Y-252382276D02*
X206357281Y-252287038D01*
X206357281Y-252287038D02*
X206500138Y-252239419D01*
X206500138Y-252239419D02*
X206595376Y-252239419D01*
X206595376Y-252239419D02*
X206738233Y-252287038D01*
X206738233Y-252287038D02*
X206785852Y-252334657D01*
X207738233Y-253239419D02*
X207166805Y-253239419D01*
X207452519Y-253239419D02*
X207452519Y-252239419D01*
X207452519Y-252239419D02*
X207357281Y-252382276D01*
X207357281Y-252382276D02*
X207262043Y-252477514D01*
X207262043Y-252477514D02*
X207166805Y-252525133D01*
X208071567Y-252239419D02*
X208738233Y-252239419D01*
X208738233Y-252239419D02*
X208309662Y-253239419D01*
X209309662Y-252239419D02*
X209404900Y-252239419D01*
X209404900Y-252239419D02*
X209500138Y-252287038D01*
X209500138Y-252287038D02*
X209547757Y-252334657D01*
X209547757Y-252334657D02*
X209595376Y-252429895D01*
X209595376Y-252429895D02*
X209642995Y-252620371D01*
X209642995Y-252620371D02*
X209642995Y-252858466D01*
X209642995Y-252858466D02*
X209595376Y-253048942D01*
X209595376Y-253048942D02*
X209547757Y-253144180D01*
X209547757Y-253144180D02*
X209500138Y-253191800D01*
X209500138Y-253191800D02*
X209404900Y-253239419D01*
X209404900Y-253239419D02*
X209309662Y-253239419D01*
X209309662Y-253239419D02*
X209214424Y-253191800D01*
X209214424Y-253191800D02*
X209166805Y-253144180D01*
X209166805Y-253144180D02*
X209119186Y-253048942D01*
X209119186Y-253048942D02*
X209071567Y-252858466D01*
X209071567Y-252858466D02*
X209071567Y-252620371D01*
X209071567Y-252620371D02*
X209119186Y-252429895D01*
X209119186Y-252429895D02*
X209166805Y-252334657D01*
X209166805Y-252334657D02*
X209214424Y-252287038D01*
X209214424Y-252287038D02*
X209309662Y-252239419D01*
X191832042Y-254479419D02*
X191498709Y-254003228D01*
X191260614Y-254479419D02*
X191260614Y-253479419D01*
X191260614Y-253479419D02*
X191641566Y-253479419D01*
X191641566Y-253479419D02*
X191736804Y-253527038D01*
X191736804Y-253527038D02*
X191784423Y-253574657D01*
X191784423Y-253574657D02*
X191832042Y-253669895D01*
X191832042Y-253669895D02*
X191832042Y-253812752D01*
X191832042Y-253812752D02*
X191784423Y-253907990D01*
X191784423Y-253907990D02*
X191736804Y-253955609D01*
X191736804Y-253955609D02*
X191641566Y-254003228D01*
X191641566Y-254003228D02*
X191260614Y-254003228D01*
X192308233Y-254479419D02*
X192498709Y-254479419D01*
X192498709Y-254479419D02*
X192593947Y-254431800D01*
X192593947Y-254431800D02*
X192641566Y-254384180D01*
X192641566Y-254384180D02*
X192736804Y-254241323D01*
X192736804Y-254241323D02*
X192784423Y-254050847D01*
X192784423Y-254050847D02*
X192784423Y-253669895D01*
X192784423Y-253669895D02*
X192736804Y-253574657D01*
X192736804Y-253574657D02*
X192689185Y-253527038D01*
X192689185Y-253527038D02*
X192593947Y-253479419D01*
X192593947Y-253479419D02*
X192403471Y-253479419D01*
X192403471Y-253479419D02*
X192308233Y-253527038D01*
X192308233Y-253527038D02*
X192260614Y-253574657D01*
X192260614Y-253574657D02*
X192212995Y-253669895D01*
X192212995Y-253669895D02*
X192212995Y-253907990D01*
X192212995Y-253907990D02*
X192260614Y-254003228D01*
X192260614Y-254003228D02*
X192308233Y-254050847D01*
X192308233Y-254050847D02*
X192403471Y-254098466D01*
X192403471Y-254098466D02*
X192593947Y-254098466D01*
X192593947Y-254098466D02*
X192689185Y-254050847D01*
X192689185Y-254050847D02*
X192736804Y-254003228D01*
X192736804Y-254003228D02*
X192784423Y-253907990D01*
X193165376Y-253574657D02*
X193212995Y-253527038D01*
X193212995Y-253527038D02*
X193308233Y-253479419D01*
X193308233Y-253479419D02*
X193546328Y-253479419D01*
X193546328Y-253479419D02*
X193641566Y-253527038D01*
X193641566Y-253527038D02*
X193689185Y-253574657D01*
X193689185Y-253574657D02*
X193736804Y-253669895D01*
X193736804Y-253669895D02*
X193736804Y-253765133D01*
X193736804Y-253765133D02*
X193689185Y-253907990D01*
X193689185Y-253907990D02*
X193117757Y-254479419D01*
X193117757Y-254479419D02*
X193736804Y-254479419D01*
X286366266Y-158465619D02*
X286366266Y-159179904D01*
X286366266Y-159179904D02*
X286318647Y-159322761D01*
X286318647Y-159322761D02*
X286223409Y-159418000D01*
X286223409Y-159418000D02*
X286080552Y-159465619D01*
X286080552Y-159465619D02*
X285985314Y-159465619D01*
X286842457Y-159465619D02*
X286842457Y-158465619D01*
X286842457Y-158465619D02*
X287223409Y-158465619D01*
X287223409Y-158465619D02*
X287318647Y-158513238D01*
X287318647Y-158513238D02*
X287366266Y-158560857D01*
X287366266Y-158560857D02*
X287413885Y-158656095D01*
X287413885Y-158656095D02*
X287413885Y-158798952D01*
X287413885Y-158798952D02*
X287366266Y-158894190D01*
X287366266Y-158894190D02*
X287318647Y-158941809D01*
X287318647Y-158941809D02*
X287223409Y-158989428D01*
X287223409Y-158989428D02*
X286842457Y-158989428D01*
X287794838Y-158560857D02*
X287842457Y-158513238D01*
X287842457Y-158513238D02*
X287937695Y-158465619D01*
X287937695Y-158465619D02*
X288175790Y-158465619D01*
X288175790Y-158465619D02*
X288271028Y-158513238D01*
X288271028Y-158513238D02*
X288318647Y-158560857D01*
X288318647Y-158560857D02*
X288366266Y-158656095D01*
X288366266Y-158656095D02*
X288366266Y-158751333D01*
X288366266Y-158751333D02*
X288318647Y-158894190D01*
X288318647Y-158894190D02*
X287747219Y-159465619D01*
X287747219Y-159465619D02*
X288366266Y-159465619D01*
X185581567Y-247901800D02*
X185724424Y-247949419D01*
X185724424Y-247949419D02*
X185962519Y-247949419D01*
X185962519Y-247949419D02*
X186057757Y-247901800D01*
X186057757Y-247901800D02*
X186105376Y-247854180D01*
X186105376Y-247854180D02*
X186152995Y-247758942D01*
X186152995Y-247758942D02*
X186152995Y-247663704D01*
X186152995Y-247663704D02*
X186105376Y-247568466D01*
X186105376Y-247568466D02*
X186057757Y-247520847D01*
X186057757Y-247520847D02*
X185962519Y-247473228D01*
X185962519Y-247473228D02*
X185772043Y-247425609D01*
X185772043Y-247425609D02*
X185676805Y-247377990D01*
X185676805Y-247377990D02*
X185629186Y-247330371D01*
X185629186Y-247330371D02*
X185581567Y-247235133D01*
X185581567Y-247235133D02*
X185581567Y-247139895D01*
X185581567Y-247139895D02*
X185629186Y-247044657D01*
X185629186Y-247044657D02*
X185676805Y-246997038D01*
X185676805Y-246997038D02*
X185772043Y-246949419D01*
X185772043Y-246949419D02*
X186010138Y-246949419D01*
X186010138Y-246949419D02*
X186152995Y-246997038D01*
X186486329Y-246949419D02*
X186724424Y-247949419D01*
X186724424Y-247949419D02*
X186914900Y-247235133D01*
X186914900Y-247235133D02*
X187105376Y-247949419D01*
X187105376Y-247949419D02*
X187343472Y-246949419D01*
X187724424Y-247949419D02*
X187724424Y-246949419D01*
X187724424Y-246949419D02*
X187962519Y-246949419D01*
X187962519Y-246949419D02*
X188105376Y-246997038D01*
X188105376Y-246997038D02*
X188200614Y-247092276D01*
X188200614Y-247092276D02*
X188248233Y-247187514D01*
X188248233Y-247187514D02*
X188295852Y-247377990D01*
X188295852Y-247377990D02*
X188295852Y-247520847D01*
X188295852Y-247520847D02*
X188248233Y-247711323D01*
X188248233Y-247711323D02*
X188200614Y-247806561D01*
X188200614Y-247806561D02*
X188105376Y-247901800D01*
X188105376Y-247901800D02*
X187962519Y-247949419D01*
X187962519Y-247949419D02*
X187724424Y-247949419D01*
X189248233Y-247949419D02*
X188676805Y-247949419D01*
X188962519Y-247949419D02*
X188962519Y-246949419D01*
X188962519Y-246949419D02*
X188867281Y-247092276D01*
X188867281Y-247092276D02*
X188772043Y-247187514D01*
X188772043Y-247187514D02*
X188676805Y-247235133D01*
X189182042Y-265829419D02*
X188848709Y-265353228D01*
X188610614Y-265829419D02*
X188610614Y-264829419D01*
X188610614Y-264829419D02*
X188991566Y-264829419D01*
X188991566Y-264829419D02*
X189086804Y-264877038D01*
X189086804Y-264877038D02*
X189134423Y-264924657D01*
X189134423Y-264924657D02*
X189182042Y-265019895D01*
X189182042Y-265019895D02*
X189182042Y-265162752D01*
X189182042Y-265162752D02*
X189134423Y-265257990D01*
X189134423Y-265257990D02*
X189086804Y-265305609D01*
X189086804Y-265305609D02*
X188991566Y-265353228D01*
X188991566Y-265353228D02*
X188610614Y-265353228D01*
X189658233Y-265829419D02*
X189848709Y-265829419D01*
X189848709Y-265829419D02*
X189943947Y-265781800D01*
X189943947Y-265781800D02*
X189991566Y-265734180D01*
X189991566Y-265734180D02*
X190086804Y-265591323D01*
X190086804Y-265591323D02*
X190134423Y-265400847D01*
X190134423Y-265400847D02*
X190134423Y-265019895D01*
X190134423Y-265019895D02*
X190086804Y-264924657D01*
X190086804Y-264924657D02*
X190039185Y-264877038D01*
X190039185Y-264877038D02*
X189943947Y-264829419D01*
X189943947Y-264829419D02*
X189753471Y-264829419D01*
X189753471Y-264829419D02*
X189658233Y-264877038D01*
X189658233Y-264877038D02*
X189610614Y-264924657D01*
X189610614Y-264924657D02*
X189562995Y-265019895D01*
X189562995Y-265019895D02*
X189562995Y-265257990D01*
X189562995Y-265257990D02*
X189610614Y-265353228D01*
X189610614Y-265353228D02*
X189658233Y-265400847D01*
X189658233Y-265400847D02*
X189753471Y-265448466D01*
X189753471Y-265448466D02*
X189943947Y-265448466D01*
X189943947Y-265448466D02*
X190039185Y-265400847D01*
X190039185Y-265400847D02*
X190086804Y-265353228D01*
X190086804Y-265353228D02*
X190134423Y-265257990D01*
X190467757Y-264829419D02*
X191086804Y-264829419D01*
X191086804Y-264829419D02*
X190753471Y-265210371D01*
X190753471Y-265210371D02*
X190896328Y-265210371D01*
X190896328Y-265210371D02*
X190991566Y-265257990D01*
X190991566Y-265257990D02*
X191039185Y-265305609D01*
X191039185Y-265305609D02*
X191086804Y-265400847D01*
X191086804Y-265400847D02*
X191086804Y-265638942D01*
X191086804Y-265638942D02*
X191039185Y-265734180D01*
X191039185Y-265734180D02*
X190991566Y-265781800D01*
X190991566Y-265781800D02*
X190896328Y-265829419D01*
X190896328Y-265829419D02*
X190610614Y-265829419D01*
X190610614Y-265829419D02*
X190515376Y-265781800D01*
X190515376Y-265781800D02*
X190467757Y-265734180D01*
X178385852Y-267004180D02*
X178338233Y-267051800D01*
X178338233Y-267051800D02*
X178195376Y-267099419D01*
X178195376Y-267099419D02*
X178100138Y-267099419D01*
X178100138Y-267099419D02*
X177957281Y-267051800D01*
X177957281Y-267051800D02*
X177862043Y-266956561D01*
X177862043Y-266956561D02*
X177814424Y-266861323D01*
X177814424Y-266861323D02*
X177766805Y-266670847D01*
X177766805Y-266670847D02*
X177766805Y-266527990D01*
X177766805Y-266527990D02*
X177814424Y-266337514D01*
X177814424Y-266337514D02*
X177862043Y-266242276D01*
X177862043Y-266242276D02*
X177957281Y-266147038D01*
X177957281Y-266147038D02*
X178100138Y-266099419D01*
X178100138Y-266099419D02*
X178195376Y-266099419D01*
X178195376Y-266099419D02*
X178338233Y-266147038D01*
X178338233Y-266147038D02*
X178385852Y-266194657D01*
X179338233Y-267099419D02*
X178766805Y-267099419D01*
X179052519Y-267099419D02*
X179052519Y-266099419D01*
X179052519Y-266099419D02*
X178957281Y-266242276D01*
X178957281Y-266242276D02*
X178862043Y-266337514D01*
X178862043Y-266337514D02*
X178766805Y-266385133D01*
X179671567Y-266099419D02*
X180338233Y-266099419D01*
X180338233Y-266099419D02*
X179909662Y-267099419D01*
X180623948Y-266099419D02*
X181242995Y-266099419D01*
X181242995Y-266099419D02*
X180909662Y-266480371D01*
X180909662Y-266480371D02*
X181052519Y-266480371D01*
X181052519Y-266480371D02*
X181147757Y-266527990D01*
X181147757Y-266527990D02*
X181195376Y-266575609D01*
X181195376Y-266575609D02*
X181242995Y-266670847D01*
X181242995Y-266670847D02*
X181242995Y-266908942D01*
X181242995Y-266908942D02*
X181195376Y-267004180D01*
X181195376Y-267004180D02*
X181147757Y-267051800D01*
X181147757Y-267051800D02*
X181052519Y-267099419D01*
X181052519Y-267099419D02*
X180766805Y-267099419D01*
X180766805Y-267099419D02*
X180671567Y-267051800D01*
X180671567Y-267051800D02*
X180623948Y-267004180D01*
X189182042Y-269119419D02*
X188848709Y-268643228D01*
X188610614Y-269119419D02*
X188610614Y-268119419D01*
X188610614Y-268119419D02*
X188991566Y-268119419D01*
X188991566Y-268119419D02*
X189086804Y-268167038D01*
X189086804Y-268167038D02*
X189134423Y-268214657D01*
X189134423Y-268214657D02*
X189182042Y-268309895D01*
X189182042Y-268309895D02*
X189182042Y-268452752D01*
X189182042Y-268452752D02*
X189134423Y-268547990D01*
X189134423Y-268547990D02*
X189086804Y-268595609D01*
X189086804Y-268595609D02*
X188991566Y-268643228D01*
X188991566Y-268643228D02*
X188610614Y-268643228D01*
X189658233Y-269119419D02*
X189848709Y-269119419D01*
X189848709Y-269119419D02*
X189943947Y-269071800D01*
X189943947Y-269071800D02*
X189991566Y-269024180D01*
X189991566Y-269024180D02*
X190086804Y-268881323D01*
X190086804Y-268881323D02*
X190134423Y-268690847D01*
X190134423Y-268690847D02*
X190134423Y-268309895D01*
X190134423Y-268309895D02*
X190086804Y-268214657D01*
X190086804Y-268214657D02*
X190039185Y-268167038D01*
X190039185Y-268167038D02*
X189943947Y-268119419D01*
X189943947Y-268119419D02*
X189753471Y-268119419D01*
X189753471Y-268119419D02*
X189658233Y-268167038D01*
X189658233Y-268167038D02*
X189610614Y-268214657D01*
X189610614Y-268214657D02*
X189562995Y-268309895D01*
X189562995Y-268309895D02*
X189562995Y-268547990D01*
X189562995Y-268547990D02*
X189610614Y-268643228D01*
X189610614Y-268643228D02*
X189658233Y-268690847D01*
X189658233Y-268690847D02*
X189753471Y-268738466D01*
X189753471Y-268738466D02*
X189943947Y-268738466D01*
X189943947Y-268738466D02*
X190039185Y-268690847D01*
X190039185Y-268690847D02*
X190086804Y-268643228D01*
X190086804Y-268643228D02*
X190134423Y-268547990D01*
X190991566Y-268452752D02*
X190991566Y-269119419D01*
X190753471Y-268071800D02*
X190515376Y-268786085D01*
X190515376Y-268786085D02*
X191134423Y-268786085D01*
X281716266Y-158465619D02*
X281716266Y-159179904D01*
X281716266Y-159179904D02*
X281668647Y-159322761D01*
X281668647Y-159322761D02*
X281573409Y-159418000D01*
X281573409Y-159418000D02*
X281430552Y-159465619D01*
X281430552Y-159465619D02*
X281335314Y-159465619D01*
X282192457Y-159465619D02*
X282192457Y-158465619D01*
X282192457Y-158465619D02*
X282573409Y-158465619D01*
X282573409Y-158465619D02*
X282668647Y-158513238D01*
X282668647Y-158513238D02*
X282716266Y-158560857D01*
X282716266Y-158560857D02*
X282763885Y-158656095D01*
X282763885Y-158656095D02*
X282763885Y-158798952D01*
X282763885Y-158798952D02*
X282716266Y-158894190D01*
X282716266Y-158894190D02*
X282668647Y-158941809D01*
X282668647Y-158941809D02*
X282573409Y-158989428D01*
X282573409Y-158989428D02*
X282192457Y-158989428D01*
X283716266Y-159465619D02*
X283144838Y-159465619D01*
X283430552Y-159465619D02*
X283430552Y-158465619D01*
X283430552Y-158465619D02*
X283335314Y-158608476D01*
X283335314Y-158608476D02*
X283240076Y-158703714D01*
X283240076Y-158703714D02*
X283144838Y-158751333D01*
X436969082Y-76232609D02*
X437302415Y-76232609D01*
X437445272Y-76756419D02*
X436969082Y-76756419D01*
X436969082Y-76756419D02*
X436969082Y-75756419D01*
X436969082Y-75756419D02*
X437445272Y-75756419D01*
X437873844Y-76756419D02*
X437873844Y-75756419D01*
X437873844Y-75756419D02*
X438445272Y-76756419D01*
X438445272Y-76756419D02*
X438445272Y-75756419D01*
X439492891Y-76661180D02*
X439445272Y-76708800D01*
X439445272Y-76708800D02*
X439302415Y-76756419D01*
X439302415Y-76756419D02*
X439207177Y-76756419D01*
X439207177Y-76756419D02*
X439064320Y-76708800D01*
X439064320Y-76708800D02*
X438969082Y-76613561D01*
X438969082Y-76613561D02*
X438921463Y-76518323D01*
X438921463Y-76518323D02*
X438873844Y-76327847D01*
X438873844Y-76327847D02*
X438873844Y-76184990D01*
X438873844Y-76184990D02*
X438921463Y-75994514D01*
X438921463Y-75994514D02*
X438969082Y-75899276D01*
X438969082Y-75899276D02*
X439064320Y-75804038D01*
X439064320Y-75804038D02*
X439207177Y-75756419D01*
X439207177Y-75756419D02*
X439302415Y-75756419D01*
X439302415Y-75756419D02*
X439445272Y-75804038D01*
X439445272Y-75804038D02*
X439492891Y-75851657D01*
X440111939Y-75756419D02*
X440302415Y-75756419D01*
X440302415Y-75756419D02*
X440397653Y-75804038D01*
X440397653Y-75804038D02*
X440492891Y-75899276D01*
X440492891Y-75899276D02*
X440540510Y-76089752D01*
X440540510Y-76089752D02*
X440540510Y-76423085D01*
X440540510Y-76423085D02*
X440492891Y-76613561D01*
X440492891Y-76613561D02*
X440397653Y-76708800D01*
X440397653Y-76708800D02*
X440302415Y-76756419D01*
X440302415Y-76756419D02*
X440111939Y-76756419D01*
X440111939Y-76756419D02*
X440016701Y-76708800D01*
X440016701Y-76708800D02*
X439921463Y-76613561D01*
X439921463Y-76613561D02*
X439873844Y-76423085D01*
X439873844Y-76423085D02*
X439873844Y-76089752D01*
X439873844Y-76089752D02*
X439921463Y-75899276D01*
X439921463Y-75899276D02*
X440016701Y-75804038D01*
X440016701Y-75804038D02*
X440111939Y-75756419D01*
X440969082Y-76756419D02*
X440969082Y-75756419D01*
X440969082Y-75756419D02*
X441207177Y-75756419D01*
X441207177Y-75756419D02*
X441350034Y-75804038D01*
X441350034Y-75804038D02*
X441445272Y-75899276D01*
X441445272Y-75899276D02*
X441492891Y-75994514D01*
X441492891Y-75994514D02*
X441540510Y-76184990D01*
X441540510Y-76184990D02*
X441540510Y-76327847D01*
X441540510Y-76327847D02*
X441492891Y-76518323D01*
X441492891Y-76518323D02*
X441445272Y-76613561D01*
X441445272Y-76613561D02*
X441350034Y-76708800D01*
X441350034Y-76708800D02*
X441207177Y-76756419D01*
X441207177Y-76756419D02*
X440969082Y-76756419D01*
X441969082Y-76232609D02*
X442302415Y-76232609D01*
X442445272Y-76756419D02*
X441969082Y-76756419D01*
X441969082Y-76756419D02*
X441969082Y-75756419D01*
X441969082Y-75756419D02*
X442445272Y-75756419D01*
X443445272Y-76756419D02*
X443111939Y-76280228D01*
X442873844Y-76756419D02*
X442873844Y-75756419D01*
X442873844Y-75756419D02*
X443254796Y-75756419D01*
X443254796Y-75756419D02*
X443350034Y-75804038D01*
X443350034Y-75804038D02*
X443397653Y-75851657D01*
X443397653Y-75851657D02*
X443445272Y-75946895D01*
X443445272Y-75946895D02*
X443445272Y-76089752D01*
X443445272Y-76089752D02*
X443397653Y-76184990D01*
X443397653Y-76184990D02*
X443350034Y-76232609D01*
X443350034Y-76232609D02*
X443254796Y-76280228D01*
X443254796Y-76280228D02*
X442873844Y-76280228D01*
X444397653Y-76756419D02*
X443826225Y-76756419D01*
X444111939Y-76756419D02*
X444111939Y-75756419D01*
X444111939Y-75756419D02*
X444016701Y-75899276D01*
X444016701Y-75899276D02*
X443921463Y-75994514D01*
X443921463Y-75994514D02*
X443826225Y-76042133D01*
X199482042Y-255739419D02*
X199148709Y-255263228D01*
X198910614Y-255739419D02*
X198910614Y-254739419D01*
X198910614Y-254739419D02*
X199291566Y-254739419D01*
X199291566Y-254739419D02*
X199386804Y-254787038D01*
X199386804Y-254787038D02*
X199434423Y-254834657D01*
X199434423Y-254834657D02*
X199482042Y-254929895D01*
X199482042Y-254929895D02*
X199482042Y-255072752D01*
X199482042Y-255072752D02*
X199434423Y-255167990D01*
X199434423Y-255167990D02*
X199386804Y-255215609D01*
X199386804Y-255215609D02*
X199291566Y-255263228D01*
X199291566Y-255263228D02*
X198910614Y-255263228D01*
X200053471Y-255167990D02*
X199958233Y-255120371D01*
X199958233Y-255120371D02*
X199910614Y-255072752D01*
X199910614Y-255072752D02*
X199862995Y-254977514D01*
X199862995Y-254977514D02*
X199862995Y-254929895D01*
X199862995Y-254929895D02*
X199910614Y-254834657D01*
X199910614Y-254834657D02*
X199958233Y-254787038D01*
X199958233Y-254787038D02*
X200053471Y-254739419D01*
X200053471Y-254739419D02*
X200243947Y-254739419D01*
X200243947Y-254739419D02*
X200339185Y-254787038D01*
X200339185Y-254787038D02*
X200386804Y-254834657D01*
X200386804Y-254834657D02*
X200434423Y-254929895D01*
X200434423Y-254929895D02*
X200434423Y-254977514D01*
X200434423Y-254977514D02*
X200386804Y-255072752D01*
X200386804Y-255072752D02*
X200339185Y-255120371D01*
X200339185Y-255120371D02*
X200243947Y-255167990D01*
X200243947Y-255167990D02*
X200053471Y-255167990D01*
X200053471Y-255167990D02*
X199958233Y-255215609D01*
X199958233Y-255215609D02*
X199910614Y-255263228D01*
X199910614Y-255263228D02*
X199862995Y-255358466D01*
X199862995Y-255358466D02*
X199862995Y-255548942D01*
X199862995Y-255548942D02*
X199910614Y-255644180D01*
X199910614Y-255644180D02*
X199958233Y-255691800D01*
X199958233Y-255691800D02*
X200053471Y-255739419D01*
X200053471Y-255739419D02*
X200243947Y-255739419D01*
X200243947Y-255739419D02*
X200339185Y-255691800D01*
X200339185Y-255691800D02*
X200386804Y-255644180D01*
X200386804Y-255644180D02*
X200434423Y-255548942D01*
X200434423Y-255548942D02*
X200434423Y-255358466D01*
X200434423Y-255358466D02*
X200386804Y-255263228D01*
X200386804Y-255263228D02*
X200339185Y-255215609D01*
X200339185Y-255215609D02*
X200243947Y-255167990D01*
X200767757Y-254739419D02*
X201434423Y-254739419D01*
X201434423Y-254739419D02*
X201005852Y-255739419D01*
X192725852Y-247684180D02*
X192678233Y-247731800D01*
X192678233Y-247731800D02*
X192535376Y-247779419D01*
X192535376Y-247779419D02*
X192440138Y-247779419D01*
X192440138Y-247779419D02*
X192297281Y-247731800D01*
X192297281Y-247731800D02*
X192202043Y-247636561D01*
X192202043Y-247636561D02*
X192154424Y-247541323D01*
X192154424Y-247541323D02*
X192106805Y-247350847D01*
X192106805Y-247350847D02*
X192106805Y-247207990D01*
X192106805Y-247207990D02*
X192154424Y-247017514D01*
X192154424Y-247017514D02*
X192202043Y-246922276D01*
X192202043Y-246922276D02*
X192297281Y-246827038D01*
X192297281Y-246827038D02*
X192440138Y-246779419D01*
X192440138Y-246779419D02*
X192535376Y-246779419D01*
X192535376Y-246779419D02*
X192678233Y-246827038D01*
X192678233Y-246827038D02*
X192725852Y-246874657D01*
X193678233Y-247779419D02*
X193106805Y-247779419D01*
X193392519Y-247779419D02*
X193392519Y-246779419D01*
X193392519Y-246779419D02*
X193297281Y-246922276D01*
X193297281Y-246922276D02*
X193202043Y-247017514D01*
X193202043Y-247017514D02*
X193106805Y-247065133D01*
X194011567Y-246779419D02*
X194678233Y-246779419D01*
X194678233Y-246779419D02*
X194249662Y-247779419D01*
X195582995Y-247779419D02*
X195011567Y-247779419D01*
X195297281Y-247779419D02*
X195297281Y-246779419D01*
X195297281Y-246779419D02*
X195202043Y-246922276D01*
X195202043Y-246922276D02*
X195106805Y-247017514D01*
X195106805Y-247017514D02*
X195011567Y-247065133D01*
X178385852Y-268974180D02*
X178338233Y-269021800D01*
X178338233Y-269021800D02*
X178195376Y-269069419D01*
X178195376Y-269069419D02*
X178100138Y-269069419D01*
X178100138Y-269069419D02*
X177957281Y-269021800D01*
X177957281Y-269021800D02*
X177862043Y-268926561D01*
X177862043Y-268926561D02*
X177814424Y-268831323D01*
X177814424Y-268831323D02*
X177766805Y-268640847D01*
X177766805Y-268640847D02*
X177766805Y-268497990D01*
X177766805Y-268497990D02*
X177814424Y-268307514D01*
X177814424Y-268307514D02*
X177862043Y-268212276D01*
X177862043Y-268212276D02*
X177957281Y-268117038D01*
X177957281Y-268117038D02*
X178100138Y-268069419D01*
X178100138Y-268069419D02*
X178195376Y-268069419D01*
X178195376Y-268069419D02*
X178338233Y-268117038D01*
X178338233Y-268117038D02*
X178385852Y-268164657D01*
X179338233Y-269069419D02*
X178766805Y-269069419D01*
X179052519Y-269069419D02*
X179052519Y-268069419D01*
X179052519Y-268069419D02*
X178957281Y-268212276D01*
X178957281Y-268212276D02*
X178862043Y-268307514D01*
X178862043Y-268307514D02*
X178766805Y-268355133D01*
X179671567Y-268069419D02*
X180338233Y-268069419D01*
X180338233Y-268069419D02*
X179909662Y-269069419D01*
X181147757Y-268402752D02*
X181147757Y-269069419D01*
X180909662Y-268021800D02*
X180671567Y-268736085D01*
X180671567Y-268736085D02*
X181290614Y-268736085D01*
X279224895Y-135257519D02*
X279224895Y-136067042D01*
X279224895Y-136067042D02*
X279272514Y-136162280D01*
X279272514Y-136162280D02*
X279320133Y-136209900D01*
X279320133Y-136209900D02*
X279415371Y-136257519D01*
X279415371Y-136257519D02*
X279605847Y-136257519D01*
X279605847Y-136257519D02*
X279701085Y-136209900D01*
X279701085Y-136209900D02*
X279748704Y-136162280D01*
X279748704Y-136162280D02*
X279796323Y-136067042D01*
X279796323Y-136067042D02*
X279796323Y-135257519D01*
X280796323Y-136257519D02*
X280224895Y-136257519D01*
X280510609Y-136257519D02*
X280510609Y-135257519D01*
X280510609Y-135257519D02*
X280415371Y-135400376D01*
X280415371Y-135400376D02*
X280320133Y-135495614D01*
X280320133Y-135495614D02*
X280224895Y-135543233D01*
X189985376Y-258681800D02*
X190128233Y-258729419D01*
X190128233Y-258729419D02*
X190366328Y-258729419D01*
X190366328Y-258729419D02*
X190461566Y-258681800D01*
X190461566Y-258681800D02*
X190509185Y-258634180D01*
X190509185Y-258634180D02*
X190556804Y-258538942D01*
X190556804Y-258538942D02*
X190556804Y-258443704D01*
X190556804Y-258443704D02*
X190509185Y-258348466D01*
X190509185Y-258348466D02*
X190461566Y-258300847D01*
X190461566Y-258300847D02*
X190366328Y-258253228D01*
X190366328Y-258253228D02*
X190175852Y-258205609D01*
X190175852Y-258205609D02*
X190080614Y-258157990D01*
X190080614Y-258157990D02*
X190032995Y-258110371D01*
X190032995Y-258110371D02*
X189985376Y-258015133D01*
X189985376Y-258015133D02*
X189985376Y-257919895D01*
X189985376Y-257919895D02*
X190032995Y-257824657D01*
X190032995Y-257824657D02*
X190080614Y-257777038D01*
X190080614Y-257777038D02*
X190175852Y-257729419D01*
X190175852Y-257729419D02*
X190413947Y-257729419D01*
X190413947Y-257729419D02*
X190556804Y-257777038D01*
X190890138Y-257729419D02*
X191128233Y-258729419D01*
X191128233Y-258729419D02*
X191318709Y-258015133D01*
X191318709Y-258015133D02*
X191509185Y-258729419D01*
X191509185Y-258729419D02*
X191747281Y-257729419D01*
X192271090Y-258157990D02*
X192175852Y-258110371D01*
X192175852Y-258110371D02*
X192128233Y-258062752D01*
X192128233Y-258062752D02*
X192080614Y-257967514D01*
X192080614Y-257967514D02*
X192080614Y-257919895D01*
X192080614Y-257919895D02*
X192128233Y-257824657D01*
X192128233Y-257824657D02*
X192175852Y-257777038D01*
X192175852Y-257777038D02*
X192271090Y-257729419D01*
X192271090Y-257729419D02*
X192461566Y-257729419D01*
X192461566Y-257729419D02*
X192556804Y-257777038D01*
X192556804Y-257777038D02*
X192604423Y-257824657D01*
X192604423Y-257824657D02*
X192652042Y-257919895D01*
X192652042Y-257919895D02*
X192652042Y-257967514D01*
X192652042Y-257967514D02*
X192604423Y-258062752D01*
X192604423Y-258062752D02*
X192556804Y-258110371D01*
X192556804Y-258110371D02*
X192461566Y-258157990D01*
X192461566Y-258157990D02*
X192271090Y-258157990D01*
X192271090Y-258157990D02*
X192175852Y-258205609D01*
X192175852Y-258205609D02*
X192128233Y-258253228D01*
X192128233Y-258253228D02*
X192080614Y-258348466D01*
X192080614Y-258348466D02*
X192080614Y-258538942D01*
X192080614Y-258538942D02*
X192128233Y-258634180D01*
X192128233Y-258634180D02*
X192175852Y-258681800D01*
X192175852Y-258681800D02*
X192271090Y-258729419D01*
X192271090Y-258729419D02*
X192461566Y-258729419D01*
X192461566Y-258729419D02*
X192556804Y-258681800D01*
X192556804Y-258681800D02*
X192604423Y-258634180D01*
X192604423Y-258634180D02*
X192652042Y-258538942D01*
X192652042Y-258538942D02*
X192652042Y-258348466D01*
X192652042Y-258348466D02*
X192604423Y-258253228D01*
X192604423Y-258253228D02*
X192556804Y-258205609D01*
X192556804Y-258205609D02*
X192461566Y-258157990D01*
X193032995Y-257824657D02*
X193080614Y-257777038D01*
X193080614Y-257777038D02*
X193175852Y-257729419D01*
X193175852Y-257729419D02*
X193413947Y-257729419D01*
X193413947Y-257729419D02*
X193509185Y-257777038D01*
X193509185Y-257777038D02*
X193556804Y-257824657D01*
X193556804Y-257824657D02*
X193604423Y-257919895D01*
X193604423Y-257919895D02*
X193604423Y-258015133D01*
X193604423Y-258015133D02*
X193556804Y-258157990D01*
X193556804Y-258157990D02*
X192985376Y-258729419D01*
X192985376Y-258729419D02*
X193604423Y-258729419D01*
X184202042Y-263799419D02*
X183868709Y-263323228D01*
X183630614Y-263799419D02*
X183630614Y-262799419D01*
X183630614Y-262799419D02*
X184011566Y-262799419D01*
X184011566Y-262799419D02*
X184106804Y-262847038D01*
X184106804Y-262847038D02*
X184154423Y-262894657D01*
X184154423Y-262894657D02*
X184202042Y-262989895D01*
X184202042Y-262989895D02*
X184202042Y-263132752D01*
X184202042Y-263132752D02*
X184154423Y-263227990D01*
X184154423Y-263227990D02*
X184106804Y-263275609D01*
X184106804Y-263275609D02*
X184011566Y-263323228D01*
X184011566Y-263323228D02*
X183630614Y-263323228D01*
X184678233Y-263799419D02*
X184868709Y-263799419D01*
X184868709Y-263799419D02*
X184963947Y-263751800D01*
X184963947Y-263751800D02*
X185011566Y-263704180D01*
X185011566Y-263704180D02*
X185106804Y-263561323D01*
X185106804Y-263561323D02*
X185154423Y-263370847D01*
X185154423Y-263370847D02*
X185154423Y-262989895D01*
X185154423Y-262989895D02*
X185106804Y-262894657D01*
X185106804Y-262894657D02*
X185059185Y-262847038D01*
X185059185Y-262847038D02*
X184963947Y-262799419D01*
X184963947Y-262799419D02*
X184773471Y-262799419D01*
X184773471Y-262799419D02*
X184678233Y-262847038D01*
X184678233Y-262847038D02*
X184630614Y-262894657D01*
X184630614Y-262894657D02*
X184582995Y-262989895D01*
X184582995Y-262989895D02*
X184582995Y-263227990D01*
X184582995Y-263227990D02*
X184630614Y-263323228D01*
X184630614Y-263323228D02*
X184678233Y-263370847D01*
X184678233Y-263370847D02*
X184773471Y-263418466D01*
X184773471Y-263418466D02*
X184963947Y-263418466D01*
X184963947Y-263418466D02*
X185059185Y-263370847D01*
X185059185Y-263370847D02*
X185106804Y-263323228D01*
X185106804Y-263323228D02*
X185154423Y-263227990D01*
X186059185Y-262799419D02*
X185582995Y-262799419D01*
X185582995Y-262799419D02*
X185535376Y-263275609D01*
X185535376Y-263275609D02*
X185582995Y-263227990D01*
X185582995Y-263227990D02*
X185678233Y-263180371D01*
X185678233Y-263180371D02*
X185916328Y-263180371D01*
X185916328Y-263180371D02*
X186011566Y-263227990D01*
X186011566Y-263227990D02*
X186059185Y-263275609D01*
X186059185Y-263275609D02*
X186106804Y-263370847D01*
X186106804Y-263370847D02*
X186106804Y-263608942D01*
X186106804Y-263608942D02*
X186059185Y-263704180D01*
X186059185Y-263704180D02*
X186011566Y-263751800D01*
X186011566Y-263751800D02*
X185916328Y-263799419D01*
X185916328Y-263799419D02*
X185678233Y-263799419D01*
X185678233Y-263799419D02*
X185582995Y-263751800D01*
X185582995Y-263751800D02*
X185535376Y-263704180D01*
X199482042Y-257729419D02*
X199148709Y-257253228D01*
X198910614Y-257729419D02*
X198910614Y-256729419D01*
X198910614Y-256729419D02*
X199291566Y-256729419D01*
X199291566Y-256729419D02*
X199386804Y-256777038D01*
X199386804Y-256777038D02*
X199434423Y-256824657D01*
X199434423Y-256824657D02*
X199482042Y-256919895D01*
X199482042Y-256919895D02*
X199482042Y-257062752D01*
X199482042Y-257062752D02*
X199434423Y-257157990D01*
X199434423Y-257157990D02*
X199386804Y-257205609D01*
X199386804Y-257205609D02*
X199291566Y-257253228D01*
X199291566Y-257253228D02*
X198910614Y-257253228D01*
X200053471Y-257157990D02*
X199958233Y-257110371D01*
X199958233Y-257110371D02*
X199910614Y-257062752D01*
X199910614Y-257062752D02*
X199862995Y-256967514D01*
X199862995Y-256967514D02*
X199862995Y-256919895D01*
X199862995Y-256919895D02*
X199910614Y-256824657D01*
X199910614Y-256824657D02*
X199958233Y-256777038D01*
X199958233Y-256777038D02*
X200053471Y-256729419D01*
X200053471Y-256729419D02*
X200243947Y-256729419D01*
X200243947Y-256729419D02*
X200339185Y-256777038D01*
X200339185Y-256777038D02*
X200386804Y-256824657D01*
X200386804Y-256824657D02*
X200434423Y-256919895D01*
X200434423Y-256919895D02*
X200434423Y-256967514D01*
X200434423Y-256967514D02*
X200386804Y-257062752D01*
X200386804Y-257062752D02*
X200339185Y-257110371D01*
X200339185Y-257110371D02*
X200243947Y-257157990D01*
X200243947Y-257157990D02*
X200053471Y-257157990D01*
X200053471Y-257157990D02*
X199958233Y-257205609D01*
X199958233Y-257205609D02*
X199910614Y-257253228D01*
X199910614Y-257253228D02*
X199862995Y-257348466D01*
X199862995Y-257348466D02*
X199862995Y-257538942D01*
X199862995Y-257538942D02*
X199910614Y-257634180D01*
X199910614Y-257634180D02*
X199958233Y-257681800D01*
X199958233Y-257681800D02*
X200053471Y-257729419D01*
X200053471Y-257729419D02*
X200243947Y-257729419D01*
X200243947Y-257729419D02*
X200339185Y-257681800D01*
X200339185Y-257681800D02*
X200386804Y-257634180D01*
X200386804Y-257634180D02*
X200434423Y-257538942D01*
X200434423Y-257538942D02*
X200434423Y-257348466D01*
X200434423Y-257348466D02*
X200386804Y-257253228D01*
X200386804Y-257253228D02*
X200339185Y-257205609D01*
X200339185Y-257205609D02*
X200243947Y-257157990D01*
X201005852Y-257157990D02*
X200910614Y-257110371D01*
X200910614Y-257110371D02*
X200862995Y-257062752D01*
X200862995Y-257062752D02*
X200815376Y-256967514D01*
X200815376Y-256967514D02*
X200815376Y-256919895D01*
X200815376Y-256919895D02*
X200862995Y-256824657D01*
X200862995Y-256824657D02*
X200910614Y-256777038D01*
X200910614Y-256777038D02*
X201005852Y-256729419D01*
X201005852Y-256729419D02*
X201196328Y-256729419D01*
X201196328Y-256729419D02*
X201291566Y-256777038D01*
X201291566Y-256777038D02*
X201339185Y-256824657D01*
X201339185Y-256824657D02*
X201386804Y-256919895D01*
X201386804Y-256919895D02*
X201386804Y-256967514D01*
X201386804Y-256967514D02*
X201339185Y-257062752D01*
X201339185Y-257062752D02*
X201291566Y-257110371D01*
X201291566Y-257110371D02*
X201196328Y-257157990D01*
X201196328Y-257157990D02*
X201005852Y-257157990D01*
X201005852Y-257157990D02*
X200910614Y-257205609D01*
X200910614Y-257205609D02*
X200862995Y-257253228D01*
X200862995Y-257253228D02*
X200815376Y-257348466D01*
X200815376Y-257348466D02*
X200815376Y-257538942D01*
X200815376Y-257538942D02*
X200862995Y-257634180D01*
X200862995Y-257634180D02*
X200910614Y-257681800D01*
X200910614Y-257681800D02*
X201005852Y-257729419D01*
X201005852Y-257729419D02*
X201196328Y-257729419D01*
X201196328Y-257729419D02*
X201291566Y-257681800D01*
X201291566Y-257681800D02*
X201339185Y-257634180D01*
X201339185Y-257634180D02*
X201386804Y-257538942D01*
X201386804Y-257538942D02*
X201386804Y-257348466D01*
X201386804Y-257348466D02*
X201339185Y-257253228D01*
X201339185Y-257253228D02*
X201291566Y-257205609D01*
X201291566Y-257205609D02*
X201196328Y-257157990D01*
X184202042Y-261289419D02*
X183868709Y-260813228D01*
X183630614Y-261289419D02*
X183630614Y-260289419D01*
X183630614Y-260289419D02*
X184011566Y-260289419D01*
X184011566Y-260289419D02*
X184106804Y-260337038D01*
X184106804Y-260337038D02*
X184154423Y-260384657D01*
X184154423Y-260384657D02*
X184202042Y-260479895D01*
X184202042Y-260479895D02*
X184202042Y-260622752D01*
X184202042Y-260622752D02*
X184154423Y-260717990D01*
X184154423Y-260717990D02*
X184106804Y-260765609D01*
X184106804Y-260765609D02*
X184011566Y-260813228D01*
X184011566Y-260813228D02*
X183630614Y-260813228D01*
X184678233Y-261289419D02*
X184868709Y-261289419D01*
X184868709Y-261289419D02*
X184963947Y-261241800D01*
X184963947Y-261241800D02*
X185011566Y-261194180D01*
X185011566Y-261194180D02*
X185106804Y-261051323D01*
X185106804Y-261051323D02*
X185154423Y-260860847D01*
X185154423Y-260860847D02*
X185154423Y-260479895D01*
X185154423Y-260479895D02*
X185106804Y-260384657D01*
X185106804Y-260384657D02*
X185059185Y-260337038D01*
X185059185Y-260337038D02*
X184963947Y-260289419D01*
X184963947Y-260289419D02*
X184773471Y-260289419D01*
X184773471Y-260289419D02*
X184678233Y-260337038D01*
X184678233Y-260337038D02*
X184630614Y-260384657D01*
X184630614Y-260384657D02*
X184582995Y-260479895D01*
X184582995Y-260479895D02*
X184582995Y-260717990D01*
X184582995Y-260717990D02*
X184630614Y-260813228D01*
X184630614Y-260813228D02*
X184678233Y-260860847D01*
X184678233Y-260860847D02*
X184773471Y-260908466D01*
X184773471Y-260908466D02*
X184963947Y-260908466D01*
X184963947Y-260908466D02*
X185059185Y-260860847D01*
X185059185Y-260860847D02*
X185106804Y-260813228D01*
X185106804Y-260813228D02*
X185154423Y-260717990D01*
X186106804Y-261289419D02*
X185535376Y-261289419D01*
X185821090Y-261289419D02*
X185821090Y-260289419D01*
X185821090Y-260289419D02*
X185725852Y-260432276D01*
X185725852Y-260432276D02*
X185630614Y-260527514D01*
X185630614Y-260527514D02*
X185535376Y-260575133D01*
X199482042Y-253749419D02*
X199148709Y-253273228D01*
X198910614Y-253749419D02*
X198910614Y-252749419D01*
X198910614Y-252749419D02*
X199291566Y-252749419D01*
X199291566Y-252749419D02*
X199386804Y-252797038D01*
X199386804Y-252797038D02*
X199434423Y-252844657D01*
X199434423Y-252844657D02*
X199482042Y-252939895D01*
X199482042Y-252939895D02*
X199482042Y-253082752D01*
X199482042Y-253082752D02*
X199434423Y-253177990D01*
X199434423Y-253177990D02*
X199386804Y-253225609D01*
X199386804Y-253225609D02*
X199291566Y-253273228D01*
X199291566Y-253273228D02*
X198910614Y-253273228D01*
X200053471Y-253177990D02*
X199958233Y-253130371D01*
X199958233Y-253130371D02*
X199910614Y-253082752D01*
X199910614Y-253082752D02*
X199862995Y-252987514D01*
X199862995Y-252987514D02*
X199862995Y-252939895D01*
X199862995Y-252939895D02*
X199910614Y-252844657D01*
X199910614Y-252844657D02*
X199958233Y-252797038D01*
X199958233Y-252797038D02*
X200053471Y-252749419D01*
X200053471Y-252749419D02*
X200243947Y-252749419D01*
X200243947Y-252749419D02*
X200339185Y-252797038D01*
X200339185Y-252797038D02*
X200386804Y-252844657D01*
X200386804Y-252844657D02*
X200434423Y-252939895D01*
X200434423Y-252939895D02*
X200434423Y-252987514D01*
X200434423Y-252987514D02*
X200386804Y-253082752D01*
X200386804Y-253082752D02*
X200339185Y-253130371D01*
X200339185Y-253130371D02*
X200243947Y-253177990D01*
X200243947Y-253177990D02*
X200053471Y-253177990D01*
X200053471Y-253177990D02*
X199958233Y-253225609D01*
X199958233Y-253225609D02*
X199910614Y-253273228D01*
X199910614Y-253273228D02*
X199862995Y-253368466D01*
X199862995Y-253368466D02*
X199862995Y-253558942D01*
X199862995Y-253558942D02*
X199910614Y-253654180D01*
X199910614Y-253654180D02*
X199958233Y-253701800D01*
X199958233Y-253701800D02*
X200053471Y-253749419D01*
X200053471Y-253749419D02*
X200243947Y-253749419D01*
X200243947Y-253749419D02*
X200339185Y-253701800D01*
X200339185Y-253701800D02*
X200386804Y-253654180D01*
X200386804Y-253654180D02*
X200434423Y-253558942D01*
X200434423Y-253558942D02*
X200434423Y-253368466D01*
X200434423Y-253368466D02*
X200386804Y-253273228D01*
X200386804Y-253273228D02*
X200339185Y-253225609D01*
X200339185Y-253225609D02*
X200243947Y-253177990D01*
X201291566Y-252749419D02*
X201101090Y-252749419D01*
X201101090Y-252749419D02*
X201005852Y-252797038D01*
X201005852Y-252797038D02*
X200958233Y-252844657D01*
X200958233Y-252844657D02*
X200862995Y-252987514D01*
X200862995Y-252987514D02*
X200815376Y-253177990D01*
X200815376Y-253177990D02*
X200815376Y-253558942D01*
X200815376Y-253558942D02*
X200862995Y-253654180D01*
X200862995Y-253654180D02*
X200910614Y-253701800D01*
X200910614Y-253701800D02*
X201005852Y-253749419D01*
X201005852Y-253749419D02*
X201196328Y-253749419D01*
X201196328Y-253749419D02*
X201291566Y-253701800D01*
X201291566Y-253701800D02*
X201339185Y-253654180D01*
X201339185Y-253654180D02*
X201386804Y-253558942D01*
X201386804Y-253558942D02*
X201386804Y-253320847D01*
X201386804Y-253320847D02*
X201339185Y-253225609D01*
X201339185Y-253225609D02*
X201291566Y-253177990D01*
X201291566Y-253177990D02*
X201196328Y-253130371D01*
X201196328Y-253130371D02*
X201005852Y-253130371D01*
X201005852Y-253130371D02*
X200910614Y-253177990D01*
X200910614Y-253177990D02*
X200862995Y-253225609D01*
X200862995Y-253225609D02*
X200815376Y-253320847D01*
X207901805Y-247579419D02*
X207901805Y-246579419D01*
X207901805Y-246579419D02*
X208139900Y-246579419D01*
X208139900Y-246579419D02*
X208282757Y-246627038D01*
X208282757Y-246627038D02*
X208377995Y-246722276D01*
X208377995Y-246722276D02*
X208425614Y-246817514D01*
X208425614Y-246817514D02*
X208473233Y-247007990D01*
X208473233Y-247007990D02*
X208473233Y-247150847D01*
X208473233Y-247150847D02*
X208425614Y-247341323D01*
X208425614Y-247341323D02*
X208377995Y-247436561D01*
X208377995Y-247436561D02*
X208282757Y-247531800D01*
X208282757Y-247531800D02*
X208139900Y-247579419D01*
X208139900Y-247579419D02*
X207901805Y-247579419D01*
X209425614Y-247579419D02*
X208854186Y-247579419D01*
X209139900Y-247579419D02*
X209139900Y-246579419D01*
X209139900Y-246579419D02*
X209044662Y-246722276D01*
X209044662Y-246722276D02*
X208949424Y-246817514D01*
X208949424Y-246817514D02*
X208854186Y-246865133D01*
X199482042Y-251759419D02*
X199148709Y-251283228D01*
X198910614Y-251759419D02*
X198910614Y-250759419D01*
X198910614Y-250759419D02*
X199291566Y-250759419D01*
X199291566Y-250759419D02*
X199386804Y-250807038D01*
X199386804Y-250807038D02*
X199434423Y-250854657D01*
X199434423Y-250854657D02*
X199482042Y-250949895D01*
X199482042Y-250949895D02*
X199482042Y-251092752D01*
X199482042Y-251092752D02*
X199434423Y-251187990D01*
X199434423Y-251187990D02*
X199386804Y-251235609D01*
X199386804Y-251235609D02*
X199291566Y-251283228D01*
X199291566Y-251283228D02*
X198910614Y-251283228D01*
X200053471Y-251187990D02*
X199958233Y-251140371D01*
X199958233Y-251140371D02*
X199910614Y-251092752D01*
X199910614Y-251092752D02*
X199862995Y-250997514D01*
X199862995Y-250997514D02*
X199862995Y-250949895D01*
X199862995Y-250949895D02*
X199910614Y-250854657D01*
X199910614Y-250854657D02*
X199958233Y-250807038D01*
X199958233Y-250807038D02*
X200053471Y-250759419D01*
X200053471Y-250759419D02*
X200243947Y-250759419D01*
X200243947Y-250759419D02*
X200339185Y-250807038D01*
X200339185Y-250807038D02*
X200386804Y-250854657D01*
X200386804Y-250854657D02*
X200434423Y-250949895D01*
X200434423Y-250949895D02*
X200434423Y-250997514D01*
X200434423Y-250997514D02*
X200386804Y-251092752D01*
X200386804Y-251092752D02*
X200339185Y-251140371D01*
X200339185Y-251140371D02*
X200243947Y-251187990D01*
X200243947Y-251187990D02*
X200053471Y-251187990D01*
X200053471Y-251187990D02*
X199958233Y-251235609D01*
X199958233Y-251235609D02*
X199910614Y-251283228D01*
X199910614Y-251283228D02*
X199862995Y-251378466D01*
X199862995Y-251378466D02*
X199862995Y-251568942D01*
X199862995Y-251568942D02*
X199910614Y-251664180D01*
X199910614Y-251664180D02*
X199958233Y-251711800D01*
X199958233Y-251711800D02*
X200053471Y-251759419D01*
X200053471Y-251759419D02*
X200243947Y-251759419D01*
X200243947Y-251759419D02*
X200339185Y-251711800D01*
X200339185Y-251711800D02*
X200386804Y-251664180D01*
X200386804Y-251664180D02*
X200434423Y-251568942D01*
X200434423Y-251568942D02*
X200434423Y-251378466D01*
X200434423Y-251378466D02*
X200386804Y-251283228D01*
X200386804Y-251283228D02*
X200339185Y-251235609D01*
X200339185Y-251235609D02*
X200243947Y-251187990D01*
X201339185Y-250759419D02*
X200862995Y-250759419D01*
X200862995Y-250759419D02*
X200815376Y-251235609D01*
X200815376Y-251235609D02*
X200862995Y-251187990D01*
X200862995Y-251187990D02*
X200958233Y-251140371D01*
X200958233Y-251140371D02*
X201196328Y-251140371D01*
X201196328Y-251140371D02*
X201291566Y-251187990D01*
X201291566Y-251187990D02*
X201339185Y-251235609D01*
X201339185Y-251235609D02*
X201386804Y-251330847D01*
X201386804Y-251330847D02*
X201386804Y-251568942D01*
X201386804Y-251568942D02*
X201339185Y-251664180D01*
X201339185Y-251664180D02*
X201291566Y-251711800D01*
X201291566Y-251711800D02*
X201196328Y-251759419D01*
X201196328Y-251759419D02*
X200958233Y-251759419D01*
X200958233Y-251759419D02*
X200862995Y-251711800D01*
X200862995Y-251711800D02*
X200815376Y-251664180D01*
X192725852Y-251034180D02*
X192678233Y-251081800D01*
X192678233Y-251081800D02*
X192535376Y-251129419D01*
X192535376Y-251129419D02*
X192440138Y-251129419D01*
X192440138Y-251129419D02*
X192297281Y-251081800D01*
X192297281Y-251081800D02*
X192202043Y-250986561D01*
X192202043Y-250986561D02*
X192154424Y-250891323D01*
X192154424Y-250891323D02*
X192106805Y-250700847D01*
X192106805Y-250700847D02*
X192106805Y-250557990D01*
X192106805Y-250557990D02*
X192154424Y-250367514D01*
X192154424Y-250367514D02*
X192202043Y-250272276D01*
X192202043Y-250272276D02*
X192297281Y-250177038D01*
X192297281Y-250177038D02*
X192440138Y-250129419D01*
X192440138Y-250129419D02*
X192535376Y-250129419D01*
X192535376Y-250129419D02*
X192678233Y-250177038D01*
X192678233Y-250177038D02*
X192725852Y-250224657D01*
X193678233Y-251129419D02*
X193106805Y-251129419D01*
X193392519Y-251129419D02*
X193392519Y-250129419D01*
X193392519Y-250129419D02*
X193297281Y-250272276D01*
X193297281Y-250272276D02*
X193202043Y-250367514D01*
X193202043Y-250367514D02*
X193106805Y-250415133D01*
X194011567Y-250129419D02*
X194678233Y-250129419D01*
X194678233Y-250129419D02*
X194249662Y-251129419D01*
X195011567Y-250224657D02*
X195059186Y-250177038D01*
X195059186Y-250177038D02*
X195154424Y-250129419D01*
X195154424Y-250129419D02*
X195392519Y-250129419D01*
X195392519Y-250129419D02*
X195487757Y-250177038D01*
X195487757Y-250177038D02*
X195535376Y-250224657D01*
X195535376Y-250224657D02*
X195582995Y-250319895D01*
X195582995Y-250319895D02*
X195582995Y-250415133D01*
X195582995Y-250415133D02*
X195535376Y-250557990D01*
X195535376Y-250557990D02*
X194963948Y-251129419D01*
X194963948Y-251129419D02*
X195582995Y-251129419D01*
X177557995Y-244204419D02*
X177557995Y-245013942D01*
X177557995Y-245013942D02*
X177605614Y-245109180D01*
X177605614Y-245109180D02*
X177653233Y-245156800D01*
X177653233Y-245156800D02*
X177748471Y-245204419D01*
X177748471Y-245204419D02*
X177938947Y-245204419D01*
X177938947Y-245204419D02*
X178034185Y-245156800D01*
X178034185Y-245156800D02*
X178081804Y-245109180D01*
X178081804Y-245109180D02*
X178129423Y-245013942D01*
X178129423Y-245013942D02*
X178129423Y-244204419D01*
X178653233Y-245204419D02*
X178843709Y-245204419D01*
X178843709Y-245204419D02*
X178938947Y-245156800D01*
X178938947Y-245156800D02*
X178986566Y-245109180D01*
X178986566Y-245109180D02*
X179081804Y-244966323D01*
X179081804Y-244966323D02*
X179129423Y-244775847D01*
X179129423Y-244775847D02*
X179129423Y-244394895D01*
X179129423Y-244394895D02*
X179081804Y-244299657D01*
X179081804Y-244299657D02*
X179034185Y-244252038D01*
X179034185Y-244252038D02*
X178938947Y-244204419D01*
X178938947Y-244204419D02*
X178748471Y-244204419D01*
X178748471Y-244204419D02*
X178653233Y-244252038D01*
X178653233Y-244252038D02*
X178605614Y-244299657D01*
X178605614Y-244299657D02*
X178557995Y-244394895D01*
X178557995Y-244394895D02*
X178557995Y-244632990D01*
X178557995Y-244632990D02*
X178605614Y-244728228D01*
X178605614Y-244728228D02*
X178653233Y-244775847D01*
X178653233Y-244775847D02*
X178748471Y-244823466D01*
X178748471Y-244823466D02*
X178938947Y-244823466D01*
X178938947Y-244823466D02*
X179034185Y-244775847D01*
X179034185Y-244775847D02*
X179081804Y-244728228D01*
X179081804Y-244728228D02*
X179129423Y-244632990D01*
X203929661Y-252674657D02*
X203834423Y-252627038D01*
X203834423Y-252627038D02*
X203739185Y-252531800D01*
X203739185Y-252531800D02*
X203596328Y-252388942D01*
X203596328Y-252388942D02*
X203501090Y-252341323D01*
X203501090Y-252341323D02*
X203405852Y-252341323D01*
X203453471Y-252579419D02*
X203358233Y-252531800D01*
X203358233Y-252531800D02*
X203262995Y-252436561D01*
X203262995Y-252436561D02*
X203215376Y-252246085D01*
X203215376Y-252246085D02*
X203215376Y-251912752D01*
X203215376Y-251912752D02*
X203262995Y-251722276D01*
X203262995Y-251722276D02*
X203358233Y-251627038D01*
X203358233Y-251627038D02*
X203453471Y-251579419D01*
X203453471Y-251579419D02*
X203643947Y-251579419D01*
X203643947Y-251579419D02*
X203739185Y-251627038D01*
X203739185Y-251627038D02*
X203834423Y-251722276D01*
X203834423Y-251722276D02*
X203882042Y-251912752D01*
X203882042Y-251912752D02*
X203882042Y-252246085D01*
X203882042Y-252246085D02*
X203834423Y-252436561D01*
X203834423Y-252436561D02*
X203739185Y-252531800D01*
X203739185Y-252531800D02*
X203643947Y-252579419D01*
X203643947Y-252579419D02*
X203453471Y-252579419D01*
X204262995Y-251674657D02*
X204310614Y-251627038D01*
X204310614Y-251627038D02*
X204405852Y-251579419D01*
X204405852Y-251579419D02*
X204643947Y-251579419D01*
X204643947Y-251579419D02*
X204739185Y-251627038D01*
X204739185Y-251627038D02*
X204786804Y-251674657D01*
X204786804Y-251674657D02*
X204834423Y-251769895D01*
X204834423Y-251769895D02*
X204834423Y-251865133D01*
X204834423Y-251865133D02*
X204786804Y-252007990D01*
X204786804Y-252007990D02*
X204215376Y-252579419D01*
X204215376Y-252579419D02*
X204834423Y-252579419D01*
X203285852Y-256934180D02*
X203238233Y-256981800D01*
X203238233Y-256981800D02*
X203095376Y-257029419D01*
X203095376Y-257029419D02*
X203000138Y-257029419D01*
X203000138Y-257029419D02*
X202857281Y-256981800D01*
X202857281Y-256981800D02*
X202762043Y-256886561D01*
X202762043Y-256886561D02*
X202714424Y-256791323D01*
X202714424Y-256791323D02*
X202666805Y-256600847D01*
X202666805Y-256600847D02*
X202666805Y-256457990D01*
X202666805Y-256457990D02*
X202714424Y-256267514D01*
X202714424Y-256267514D02*
X202762043Y-256172276D01*
X202762043Y-256172276D02*
X202857281Y-256077038D01*
X202857281Y-256077038D02*
X203000138Y-256029419D01*
X203000138Y-256029419D02*
X203095376Y-256029419D01*
X203095376Y-256029419D02*
X203238233Y-256077038D01*
X203238233Y-256077038D02*
X203285852Y-256124657D01*
X204238233Y-257029419D02*
X203666805Y-257029419D01*
X203952519Y-257029419D02*
X203952519Y-256029419D01*
X203952519Y-256029419D02*
X203857281Y-256172276D01*
X203857281Y-256172276D02*
X203762043Y-256267514D01*
X203762043Y-256267514D02*
X203666805Y-256315133D01*
X205095376Y-256029419D02*
X204904900Y-256029419D01*
X204904900Y-256029419D02*
X204809662Y-256077038D01*
X204809662Y-256077038D02*
X204762043Y-256124657D01*
X204762043Y-256124657D02*
X204666805Y-256267514D01*
X204666805Y-256267514D02*
X204619186Y-256457990D01*
X204619186Y-256457990D02*
X204619186Y-256838942D01*
X204619186Y-256838942D02*
X204666805Y-256934180D01*
X204666805Y-256934180D02*
X204714424Y-256981800D01*
X204714424Y-256981800D02*
X204809662Y-257029419D01*
X204809662Y-257029419D02*
X205000138Y-257029419D01*
X205000138Y-257029419D02*
X205095376Y-256981800D01*
X205095376Y-256981800D02*
X205142995Y-256934180D01*
X205142995Y-256934180D02*
X205190614Y-256838942D01*
X205190614Y-256838942D02*
X205190614Y-256600847D01*
X205190614Y-256600847D02*
X205142995Y-256505609D01*
X205142995Y-256505609D02*
X205095376Y-256457990D01*
X205095376Y-256457990D02*
X205000138Y-256410371D01*
X205000138Y-256410371D02*
X204809662Y-256410371D01*
X204809662Y-256410371D02*
X204714424Y-256457990D01*
X204714424Y-256457990D02*
X204666805Y-256505609D01*
X204666805Y-256505609D02*
X204619186Y-256600847D01*
X205666805Y-257029419D02*
X205857281Y-257029419D01*
X205857281Y-257029419D02*
X205952519Y-256981800D01*
X205952519Y-256981800D02*
X206000138Y-256934180D01*
X206000138Y-256934180D02*
X206095376Y-256791323D01*
X206095376Y-256791323D02*
X206142995Y-256600847D01*
X206142995Y-256600847D02*
X206142995Y-256219895D01*
X206142995Y-256219895D02*
X206095376Y-256124657D01*
X206095376Y-256124657D02*
X206047757Y-256077038D01*
X206047757Y-256077038D02*
X205952519Y-256029419D01*
X205952519Y-256029419D02*
X205762043Y-256029419D01*
X205762043Y-256029419D02*
X205666805Y-256077038D01*
X205666805Y-256077038D02*
X205619186Y-256124657D01*
X205619186Y-256124657D02*
X205571567Y-256219895D01*
X205571567Y-256219895D02*
X205571567Y-256457990D01*
X205571567Y-256457990D02*
X205619186Y-256553228D01*
X205619186Y-256553228D02*
X205666805Y-256600847D01*
X205666805Y-256600847D02*
X205762043Y-256648466D01*
X205762043Y-256648466D02*
X205952519Y-256648466D01*
X205952519Y-256648466D02*
X206047757Y-256600847D01*
X206047757Y-256600847D02*
X206095376Y-256553228D01*
X206095376Y-256553228D02*
X206142995Y-256457990D01*
D11*
%TO.C,R82*%
X208237642Y-251182100D02*
X208712158Y-251182100D01*
X208237642Y-252227100D02*
X208712158Y-252227100D01*
%TO.C,R89*%
X199971259Y-260054600D02*
X200278541Y-260054600D01*
X199971259Y-260814600D02*
X200278541Y-260814600D01*
%TO.C,R83*%
X199971259Y-248114600D02*
X200278541Y-248114600D01*
X199971259Y-248874600D02*
X200278541Y-248874600D01*
%TO.C,R84*%
X199971259Y-250104600D02*
X200278541Y-250104600D01*
X199971259Y-250864600D02*
X200278541Y-250864600D01*
%TO.C,Y1*%
X173444900Y-267394600D02*
X173444900Y-270694600D01*
X173444900Y-270694600D02*
X177444900Y-270694600D01*
%TO.C,U8*%
X175894900Y-259289600D02*
X179654900Y-259289600D01*
X175894900Y-266109600D02*
X179654900Y-266109600D01*
X179654900Y-259289600D02*
X179654900Y-260549600D01*
X179654900Y-266109600D02*
X179654900Y-264849600D01*
X174614900Y-259389600D02*
X174374900Y-259059600D01*
X174854900Y-259059600D01*
X174614900Y-259389600D01*
G36*
X174614900Y-259389600D02*
G01*
X174374900Y-259059600D01*
X174854900Y-259059600D01*
X174614900Y-259389600D01*
G37*
%TO.C,Q1*%
X204024900Y-248339600D02*
X203374900Y-248339600D01*
X204024900Y-248339600D02*
X204674900Y-248339600D01*
X204024900Y-251459600D02*
X203374900Y-251459600D01*
X204024900Y-251459600D02*
X204674900Y-251459600D01*
X202862400Y-248389600D02*
X202622400Y-248059600D01*
X203102400Y-248059600D01*
X202862400Y-248389600D01*
G36*
X202862400Y-248389600D02*
G01*
X202622400Y-248059600D01*
X203102400Y-248059600D01*
X202862400Y-248389600D01*
G37*
%TO.C,R90*%
X184590176Y-259232100D02*
X185099624Y-259232100D01*
X184590176Y-260277100D02*
X185099624Y-260277100D01*
%TO.C,C170*%
X207797064Y-253584600D02*
X208012736Y-253584600D01*
X207797064Y-254304600D02*
X208012736Y-254304600D01*
%TO.C,R92*%
X192321259Y-254814600D02*
X192628541Y-254814600D01*
X192321259Y-255574600D02*
X192628541Y-255574600D01*
%TO.C,JP2*%
X285869600Y-160010800D02*
X287199600Y-160010800D01*
X285869600Y-161340800D02*
X285869600Y-160010800D01*
X285869600Y-162610800D02*
X285869600Y-165210800D01*
X285869600Y-162610800D02*
X288529600Y-162610800D01*
X285869600Y-165210800D02*
X288529600Y-165210800D01*
X288529600Y-162610800D02*
X288529600Y-165210800D01*
%TO.C,SWD1*%
X184814900Y-248494600D02*
X186144900Y-248494600D01*
X184814900Y-249824600D02*
X184814900Y-248494600D01*
X184814900Y-251094600D02*
X184814900Y-256234600D01*
X184814900Y-251094600D02*
X187414900Y-251094600D01*
X184814900Y-256234600D02*
X190014900Y-256234600D01*
X187414900Y-248494600D02*
X190014900Y-248494600D01*
X187414900Y-251094600D02*
X187414900Y-248494600D01*
X190014900Y-248494600D02*
X190014900Y-256234600D01*
%TO.C,R93*%
X189097836Y-266284600D02*
X190551964Y-266284600D01*
X189097836Y-268104600D02*
X190551964Y-268104600D01*
%TO.C,C173*%
X179397064Y-267444600D02*
X179612736Y-267444600D01*
X179397064Y-268164600D02*
X179612736Y-268164600D01*
%TO.C,R94*%
X189097836Y-269574600D02*
X190551964Y-269574600D01*
X189097836Y-271394600D02*
X190551964Y-271394600D01*
%TO.C,JP1*%
X281219600Y-160010800D02*
X282549600Y-160010800D01*
X281219600Y-161340800D02*
X281219600Y-160010800D01*
X281219600Y-162610800D02*
X281219600Y-165210800D01*
X281219600Y-162610800D02*
X283879600Y-162610800D01*
X281219600Y-165210800D02*
X283879600Y-165210800D01*
X283879600Y-162610800D02*
X283879600Y-165210800D01*
%TO.C,ENCODER1*%
X429009558Y-77201600D02*
X431409558Y-77201600D01*
X429009558Y-81301600D02*
X429009558Y-77201600D01*
X429009558Y-85301600D02*
X429009558Y-89401600D01*
X429009558Y-89401600D02*
X440809558Y-89401600D01*
X433609558Y-77201600D02*
X436209558Y-77201600D01*
X434609558Y-88801600D02*
X435209558Y-88801600D01*
X434909558Y-89101600D02*
X434609558Y-88801600D01*
X435209558Y-88801600D02*
X434909558Y-89101600D01*
X438409558Y-77201600D02*
X440809558Y-77201600D01*
X440809558Y-77201600D02*
X440809558Y-81301600D01*
X440809558Y-85301600D02*
X440809558Y-89401600D01*
X436909558Y-83301600D02*
G75*
G02*
X432909558Y-83301600I-2000000J0D01*
G01*
X432909558Y-83301600D02*
G75*
G02*
X436909558Y-83301600I2000000J0D01*
G01*
%TO.C,R87*%
X199971259Y-256074600D02*
X200278541Y-256074600D01*
X199971259Y-256834600D02*
X200278541Y-256834600D01*
%TO.C,C171*%
X193133648Y-248264600D02*
X194556152Y-248264600D01*
X193133648Y-250084600D02*
X194556152Y-250084600D01*
%TO.C,C174*%
X179397064Y-269414600D02*
X179612736Y-269414600D01*
X179397064Y-270134600D02*
X179612736Y-270134600D01*
%TO.C,U1*%
X276376800Y-138042700D02*
X276376800Y-138492700D01*
X276376800Y-138492700D02*
X275086800Y-138492700D01*
X276376800Y-145262700D02*
X276376800Y-144812700D01*
X276826800Y-138042700D02*
X276376800Y-138042700D01*
X276826800Y-145262700D02*
X276376800Y-145262700D01*
X283146800Y-138042700D02*
X283596800Y-138042700D01*
X283146800Y-145262700D02*
X283596800Y-145262700D01*
X283596800Y-138042700D02*
X283596800Y-138492700D01*
X283596800Y-145262700D02*
X283596800Y-144812700D01*
%TO.C,SW82*%
X189044900Y-261024600D02*
X189044900Y-263024600D01*
X190094900Y-259724600D02*
X190544900Y-259274600D01*
X190094900Y-264324600D02*
X190544900Y-264774600D01*
X190544900Y-259274600D02*
X193044900Y-259274600D01*
X190544900Y-264774600D02*
X193044900Y-264774600D01*
X193494900Y-259724600D02*
X193044900Y-259274600D01*
X193494900Y-264324600D02*
X193044900Y-264774600D01*
X194544900Y-261024600D02*
X194544900Y-263024600D01*
%TO.C,R95*%
X184590176Y-264252100D02*
X185099624Y-264252100D01*
X184590176Y-265297100D02*
X185099624Y-265297100D01*
%TO.C,R88*%
X199971259Y-258064600D02*
X200278541Y-258064600D01*
X199971259Y-258824600D02*
X200278541Y-258824600D01*
%TO.C,R91*%
X184590176Y-261742100D02*
X185099624Y-261742100D01*
X184590176Y-262787100D02*
X185099624Y-262787100D01*
%TO.C,R86*%
X199971259Y-254084600D02*
X200278541Y-254084600D01*
X199971259Y-254844600D02*
X200278541Y-254844600D01*
%TO.C,D1*%
X207029900Y-248124600D02*
X207029900Y-249824600D01*
X207029900Y-248124600D02*
X209689900Y-248124600D01*
X207029900Y-249824600D02*
X209689900Y-249824600D01*
%TO.C,R85*%
X199971259Y-252094600D02*
X200278541Y-252094600D01*
X199971259Y-252854600D02*
X200278541Y-252854600D01*
%TO.C,C172*%
X193133648Y-251614600D02*
X194556152Y-251614600D01*
X193133648Y-253434600D02*
X194556152Y-253434600D01*
D12*
%TO.C,U9*%
X174999900Y-249659600D02*
X175759900Y-249659600D01*
X174999900Y-256309600D02*
X174999900Y-249659600D01*
X175429900Y-249659600D02*
X181629900Y-249659600D01*
X181629900Y-249659600D02*
X181629900Y-256309600D01*
X181629900Y-256309600D02*
X174999900Y-256309600D01*
D13*
X174939900Y-257059601D02*
G75*
G02*
X174929873Y-257059351I-10003J-199999D01*
G01*
D14*
X175869900Y-255829600D02*
G75*
G02*
X175529900Y-255829600I-170000J0D01*
G01*
X175529900Y-255829600D02*
G75*
G02*
X175869900Y-255829600I170000J0D01*
G01*
D11*
%TO.C,Q2*%
X204024900Y-252964600D02*
X203374900Y-252964600D01*
X204024900Y-252964600D02*
X204674900Y-252964600D01*
X204024900Y-256084600D02*
X203374900Y-256084600D01*
X204024900Y-256084600D02*
X204674900Y-256084600D01*
X202862400Y-253014600D02*
X202622400Y-252684600D01*
X203102400Y-252684600D01*
X202862400Y-253014600D01*
G36*
X202862400Y-253014600D02*
G01*
X202622400Y-252684600D01*
X203102400Y-252684600D01*
X202862400Y-253014600D01*
G37*
%TO.C,C169*%
X203693648Y-257514600D02*
X205116152Y-257514600D01*
X203693648Y-259334600D02*
X205116152Y-259334600D01*
%TD*%
%LPC*%
D15*
%TO.C,R82*%
X207649900Y-251704600D03*
X209299900Y-251704600D03*
%TD*%
D16*
%TO.C,R89*%
X199614900Y-260434600D03*
X200634900Y-260434600D03*
%TD*%
%TO.C,R83*%
X199614900Y-248494600D03*
X200634900Y-248494600D03*
%TD*%
%TO.C,R84*%
X199614900Y-250484600D03*
X200634900Y-250484600D03*
%TD*%
D17*
%TO.C,Y1*%
X174344900Y-269894600D03*
X176544900Y-269894600D03*
X176544900Y-268194600D03*
X174344900Y-268194600D03*
%TD*%
D18*
%TO.C,S75*%
X255261132Y-187417886D03*
X231968992Y-182466989D03*
%TD*%
D19*
%TO.C,U8*%
X174594900Y-260399600D03*
X174594900Y-262699600D03*
D20*
X180894900Y-262699600D03*
D19*
X174594900Y-264999600D03*
%TD*%
D18*
%TO.C,S28*%
X443958308Y-99286562D03*
X420145808Y-99286562D03*
%TD*%
D21*
%TO.C,Q1*%
X203087400Y-248949600D03*
X203087400Y-250849600D03*
X204962400Y-249899600D03*
%TD*%
D22*
%TO.C,R90*%
X183932400Y-259754600D03*
X185757400Y-259754600D03*
%TD*%
D23*
%TO.C,C170*%
X207424900Y-253944600D03*
X208384900Y-253944600D03*
%TD*%
D16*
%TO.C,R92*%
X191964900Y-255194600D03*
X192984900Y-255194600D03*
%TD*%
D24*
%TO.C,JP2*%
X287199600Y-161340800D03*
D25*
X287199600Y-163880800D03*
%TD*%
D24*
%TO.C,SWD1*%
X186144900Y-249824600D03*
D25*
X188684900Y-249824600D03*
X186144900Y-252364600D03*
X188684900Y-252364600D03*
X186144900Y-254904600D03*
X188684900Y-254904600D03*
%TD*%
D26*
%TO.C,R93*%
X188362400Y-267194600D03*
X191287400Y-267194600D03*
%TD*%
D23*
%TO.C,C173*%
X179024900Y-267804600D03*
X179984900Y-267804600D03*
%TD*%
D26*
%TO.C,R94*%
X188362400Y-270484600D03*
X191287400Y-270484600D03*
%TD*%
D24*
%TO.C,JP1*%
X282549600Y-161340800D03*
D25*
X282549600Y-163880800D03*
%TD*%
D18*
%TO.C,S57*%
X451102058Y-137386562D03*
X427289558Y-137386562D03*
%TD*%
%TO.C,S77*%
X341371084Y-185094895D03*
X318078944Y-190045792D03*
%TD*%
D16*
%TO.C,R87*%
X199614900Y-256454600D03*
X200634900Y-256454600D03*
%TD*%
D27*
%TO.C,C171*%
X192369900Y-249174600D03*
X195319900Y-249174600D03*
%TD*%
D23*
%TO.C,C174*%
X179024900Y-269774600D03*
X179984900Y-269774600D03*
%TD*%
D28*
%TO.C,U1*%
X275824300Y-138902700D03*
X275824300Y-139402700D03*
X275824300Y-139902700D03*
X275824300Y-140402700D03*
X275824300Y-140902700D03*
X275824300Y-141402700D03*
X275824300Y-141902700D03*
X275824300Y-142402700D03*
X275824300Y-142902700D03*
X275824300Y-143402700D03*
X275824300Y-143902700D03*
X275824300Y-144402700D03*
D29*
X277236800Y-145815200D03*
X277736800Y-145815200D03*
X278236800Y-145815200D03*
X278736800Y-145815200D03*
X279236800Y-145815200D03*
X279736800Y-145815200D03*
X280236800Y-145815200D03*
X280736800Y-145815200D03*
X281236800Y-145815200D03*
X281736800Y-145815200D03*
X282236800Y-145815200D03*
X282736800Y-145815200D03*
D28*
X284149300Y-144402700D03*
X284149300Y-143902700D03*
X284149300Y-143402700D03*
X284149300Y-142902700D03*
X284149300Y-142402700D03*
X284149300Y-141902700D03*
X284149300Y-141402700D03*
X284149300Y-140902700D03*
X284149300Y-140402700D03*
X284149300Y-139902700D03*
X284149300Y-139402700D03*
X284149300Y-138902700D03*
D29*
X282736800Y-137490200D03*
X282236800Y-137490200D03*
X281736800Y-137490200D03*
X281236800Y-137490200D03*
X280736800Y-137490200D03*
X280236800Y-137490200D03*
X279736800Y-137490200D03*
X279236800Y-137490200D03*
X278736800Y-137490200D03*
X278236800Y-137490200D03*
X277736800Y-137490200D03*
X277236800Y-137490200D03*
%TD*%
D18*
%TO.C,S59*%
X166304558Y-156436562D03*
X142492058Y-156436562D03*
%TD*%
D30*
%TO.C,SW82*%
X188644900Y-260124600D03*
X194944900Y-260124600D03*
X188644900Y-263924600D03*
X194944900Y-263924600D03*
%TD*%
D22*
%TO.C,R95*%
X183932400Y-264774600D03*
X185757400Y-264774600D03*
%TD*%
D16*
%TO.C,R88*%
X199614900Y-258444600D03*
X200634900Y-258444600D03*
%TD*%
D22*
%TO.C,R91*%
X183932400Y-262264600D03*
X185757400Y-262264600D03*
%TD*%
D16*
%TO.C,R86*%
X199614900Y-254464600D03*
X200634900Y-254464600D03*
%TD*%
D31*
%TO.C,D1*%
X207589900Y-248974600D03*
X209689900Y-248974600D03*
%TD*%
D16*
%TO.C,R85*%
X199614900Y-252474600D03*
X200634900Y-252474600D03*
%TD*%
D27*
%TO.C,C172*%
X192369900Y-252524600D03*
X195319900Y-252524600D03*
%TD*%
D32*
%TO.C,U9*%
X175569900Y-257249600D03*
X176069900Y-257249600D03*
X176569900Y-257249600D03*
X177069900Y-257249600D03*
X177569900Y-257249600D03*
X178069900Y-257249600D03*
X178569900Y-257249600D03*
X179069900Y-257249600D03*
X179569900Y-257249600D03*
X180069900Y-257249600D03*
X180569900Y-257249600D03*
X181069900Y-257249600D03*
D33*
X182569900Y-255749600D03*
X182569900Y-255249600D03*
X182569900Y-254749600D03*
X182569900Y-254249600D03*
X182569900Y-253749600D03*
X182569900Y-253249600D03*
X182569900Y-252749600D03*
X182569900Y-252249600D03*
X182569900Y-251749600D03*
X182569900Y-251249600D03*
X182569900Y-250749600D03*
X182569900Y-250249600D03*
D32*
X181069900Y-248749600D03*
X180569900Y-248749600D03*
X180069900Y-248749600D03*
X179569900Y-248749600D03*
X179069900Y-248749600D03*
X178569900Y-248749600D03*
X178069900Y-248749600D03*
X177569900Y-248749600D03*
X177069900Y-248749600D03*
X176569900Y-248749600D03*
X176069900Y-248749600D03*
X175569900Y-248749600D03*
D33*
X174069900Y-250249600D03*
X174069900Y-250749600D03*
X174069900Y-251249600D03*
X174069900Y-251749600D03*
X174069900Y-252249600D03*
X174069900Y-252749600D03*
X174069900Y-253249600D03*
X174069900Y-253749600D03*
X174069900Y-254249600D03*
X174069900Y-254749600D03*
X174069900Y-255249600D03*
X174069900Y-255749600D03*
%TD*%
D21*
%TO.C,Q2*%
X203087400Y-253574600D03*
X203087400Y-255474600D03*
X204962400Y-254524600D03*
%TD*%
D27*
%TO.C,C169*%
X202929900Y-258424600D03*
X205879900Y-258424600D03*
%TD*%
D34*
%TO.C,SW62*%
X232194747Y-171478808D03*
X222256767Y-169366426D03*
%TD*%
%TO.C,SW65*%
X306828243Y-181401036D03*
X296890263Y-183513418D03*
%TD*%
%TO.C,SW45*%
X154715808Y-145641562D03*
X144555808Y-145641562D03*
%TD*%
%TO.C,SW55*%
X394269558Y-145641562D03*
X384109558Y-145641562D03*
%TD*%
%TO.C,SW56*%
X413319558Y-145641562D03*
X403159558Y-145641562D03*
%TD*%
%TO.C,SW52*%
X335476521Y-155836069D03*
X325538541Y-157948451D03*
%TD*%
%TO.C,SW74*%
X214258746Y-187141981D03*
X204320766Y-185029599D03*
%TD*%
%TO.C,SW39*%
X364124799Y-130271101D03*
X354186819Y-132383483D03*
%TD*%
%TO.C,SW26*%
X389507058Y-104684062D03*
X379347058Y-104684062D03*
%TD*%
%TO.C,SW58*%
X479994558Y-140879062D03*
X469834558Y-140879062D03*
%TD*%
%TO.C,SW9*%
X331921045Y-93296146D03*
X321983065Y-95408528D03*
%TD*%
%TO.C,SW80*%
X460944558Y-188504062D03*
X450784558Y-188504062D03*
%TD*%
%TO.C,SW76*%
X274818309Y-200014314D03*
X264880329Y-197901932D03*
%TD*%
%TO.C,SW63*%
X250828459Y-175439525D03*
X240890479Y-173327143D03*
%TD*%
%TO.C,SW75*%
X246867741Y-194073237D03*
X236929761Y-191960855D03*
%TD*%
%TO.C,SW79*%
X441894558Y-188504062D03*
X431734558Y-188504062D03*
%TD*%
%TO.C,SW51*%
X316842810Y-159796786D03*
X306904830Y-161909168D03*
%TD*%
%TO.C,SW7*%
X276978365Y-98226609D03*
X267040385Y-96114227D03*
%TD*%
%TO.C,SW64*%
X269462171Y-179400243D03*
X259524191Y-177287861D03*
%TD*%
%TO.C,SW19*%
X239418472Y-114587493D03*
X229480492Y-112475111D03*
%TD*%
%TO.C,SW46*%
X185672058Y-145641562D03*
X175512058Y-145641562D03*
%TD*%
%TO.C,SW3*%
X195197058Y-82776562D03*
X185037058Y-82776562D03*
%TD*%
%TO.C,SW23*%
X332213514Y-117578466D03*
X322275534Y-119690848D03*
%TD*%
%TO.C,SW6*%
X258344653Y-94265891D03*
X248406673Y-92153509D03*
%TD*%
%TO.C,SW73*%
X152334558Y-183741562D03*
X142174558Y-183741562D03*
%TD*%
%TO.C,SW11*%
X373846896Y-84384532D03*
X363908916Y-86496914D03*
%TD*%
%TO.C,SW47*%
X208204897Y-146904019D03*
X198266917Y-144791637D03*
%TD*%
%TO.C,SW35*%
X263408322Y-139162281D03*
X253470342Y-137049899D03*
%TD*%
%TO.C,SW5*%
X235052514Y-89314994D03*
X225114534Y-87202612D03*
%TD*%
%TO.C,SW72*%
X460944558Y-169454062D03*
X450784558Y-169454062D03*
%TD*%
%TO.C,SW17*%
X199959558Y-104684062D03*
X189799558Y-104684062D03*
%TD*%
%TO.C,SW29*%
X470469558Y-102779062D03*
X460309558Y-102779062D03*
%TD*%
%TO.C,SW68*%
X362729379Y-169518883D03*
X352791399Y-171631265D03*
%TD*%
%TO.C,SW22*%
X313579802Y-121539183D03*
X303641822Y-123651565D03*
%TD*%
%TO.C,SW13*%
X414272058Y-82776562D03*
X404112058Y-82776562D03*
%TD*%
%TO.C,SW28*%
X437132058Y-107541562D03*
X426972058Y-107541562D03*
%TD*%
%TO.C,SW2*%
X176147058Y-82776562D03*
X165987058Y-82776562D03*
%TD*%
%TO.C,SW57*%
X444275808Y-145641562D03*
X434115808Y-145641562D03*
%TD*%
%TO.C,SW1*%
X151382058Y-83729062D03*
X141222058Y-83729062D03*
%TD*%
%TO.C,SW36*%
X308223664Y-142153254D03*
X298285684Y-144265636D03*
%TD*%
%TO.C,SW49*%
X245472321Y-154825455D03*
X235534341Y-152713073D03*
%TD*%
%TO.C,SW14*%
X465707058Y-83729062D03*
X455547058Y-83729062D03*
%TD*%
%TO.C,SW77*%
X336410315Y-194588761D03*
X326472335Y-196701143D03*
%TD*%
%TO.C,SW67*%
X344095667Y-173479601D03*
X334157687Y-175591983D03*
%TD*%
%TO.C,SW18*%
X220784761Y-110626775D03*
X210846781Y-108514393D03*
%TD*%
%TO.C,SW53*%
X354110233Y-151875351D03*
X344172253Y-153987733D03*
%TD*%
%TO.C,SW33*%
X226140899Y-131240846D03*
X216202919Y-129128464D03*
%TD*%
%TO.C,SW69*%
X381363091Y-165558166D03*
X371425111Y-167670548D03*
%TD*%
%TO.C,SW71*%
X429988308Y-164691562D03*
X419828308Y-164691562D03*
%TD*%
%TO.C,SW81*%
X479994558Y-188504062D03*
X469834558Y-188504062D03*
%TD*%
%TO.C,SW25*%
X369480938Y-109657030D03*
X359542958Y-111769412D03*
%TD*%
%TO.C,SW54*%
X372743945Y-147914633D03*
X362805965Y-150027015D03*
%TD*%
%TO.C,SW59*%
X159478308Y-164691562D03*
X149318308Y-164691562D03*
%TD*%
%TO.C,SW44*%
X475232058Y-121829062D03*
X465072058Y-121829062D03*
%TD*%
%TO.C,SW70*%
X403794558Y-164691562D03*
X393634558Y-164691562D03*
%TD*%
%TO.C,SW48*%
X226838609Y-150864737D03*
X216900629Y-148752355D03*
%TD*%
%TO.C,SW12*%
X395222058Y-82776562D03*
X385062058Y-82776562D03*
%TD*%
%TO.C,SW43*%
X446657058Y-126591562D03*
X436497058Y-126591562D03*
%TD*%
%TO.C,SW21*%
X276685896Y-122508928D03*
X266747916Y-120396546D03*
%TD*%
%TO.C,SW38*%
X345491088Y-134231819D03*
X335553108Y-136344201D03*
%TD*%
%TO.C,SW50*%
X264106033Y-158786172D03*
X254168053Y-156673790D03*
%TD*%
%TO.C,SW10*%
X355213184Y-88345249D03*
X345275204Y-90457631D03*
%TD*%
%TO.C,SW20*%
X258052184Y-118548210D03*
X248114204Y-116435828D03*
%TD*%
%TO.C,SW27*%
X408557058Y-107541562D03*
X398397058Y-107541562D03*
%TD*%
%TO.C,SW31*%
X185672058Y-126591562D03*
X175512058Y-126591562D03*
%TD*%
%TO.C,SW15*%
X161859558Y-107541562D03*
X151699558Y-107541562D03*
%TD*%
%TO.C,SW40*%
X382758511Y-126310383D03*
X372820531Y-128422765D03*
%TD*%
%TO.C,SW61*%
X213561035Y-167518090D03*
X203623055Y-165405708D03*
%TD*%
%TO.C,SW42*%
X422844558Y-126591562D03*
X412684558Y-126591562D03*
%TD*%
%TO.C,SW32*%
X207507187Y-127280128D03*
X197569207Y-125167746D03*
%TD*%
%TO.C,SW66*%
X325461955Y-177440319D03*
X315523975Y-179552701D03*
%TD*%
%TO.C,SW37*%
X326857376Y-138192536D03*
X316919396Y-140304918D03*
%TD*%
%TO.C,SW41*%
X403794558Y-126591562D03*
X393634558Y-126591562D03*
%TD*%
%TO.C,SW60*%
X190434558Y-164691562D03*
X180274558Y-164691562D03*
%TD*%
%TO.C,SW24*%
X350847226Y-113617748D03*
X340909246Y-115730130D03*
%TD*%
%TO.C,SW34*%
X244774611Y-135201563D03*
X234836631Y-133089181D03*
%TD*%
%TO.C,SW78*%
X376006952Y-186172236D03*
X366068972Y-188284618D03*
%TD*%
%TO.C,SW8*%
X313287333Y-97256864D03*
X303349353Y-99369246D03*
%TD*%
%TO.C,SW16*%
X180909558Y-107541562D03*
X170749558Y-107541562D03*
%TD*%
%TO.C,SW30*%
X161859558Y-126591562D03*
X151699558Y-126591562D03*
%TD*%
%TO.C,SW4*%
X216418802Y-85354276D03*
X206480822Y-83241894D03*
%TD*%
%LPD*%
M02*
